<svg width="91" height="31" viewBox="0 0 91 31" fill="none" xmlns="http://www.w3.org/2000/svg">
<path d="M90.249 20.9454H84.289V27.0654H75.769V20.9454H69.809V12.8254H75.769V6.66541H84.289V12.8254H90.249V20.9454Z" fill="black"/>
<path d="M43.8046 15.4254C43.8046 10.8121 44.778 7.18539 46.7246 4.54539C48.698 1.90539 51.7246 0.585388 55.8046 0.585388C59.858 0.585388 62.8713 1.91872 64.8446 4.58539C66.818 7.22539 67.8046 10.8387 67.8046 15.4254C67.8046 20.0387 66.818 23.6787 64.8446 26.3454C62.8713 28.9854 59.858 30.3054 55.8046 30.3054C51.7246 30.3054 48.698 28.9854 46.7246 26.3454C44.778 23.6787 43.8046 20.0387 43.8046 15.4254ZM59.0446 15.4254C59.0446 13.2921 58.8313 11.6921 58.4046 10.6254C57.978 9.53206 57.1113 8.98539 55.8046 8.98539C54.4713 8.98539 53.5913 9.53206 53.1646 10.6254C52.738 11.6921 52.5246 13.2921 52.5246 15.4254C52.5246 17.5854 52.738 19.2121 53.1646 20.3054C53.5913 21.3721 54.4713 21.9054 55.8046 21.9054C57.1113 21.9054 57.978 21.3721 58.4046 20.3054C58.8313 19.2121 59.0446 17.5854 59.0446 15.4254Z" fill="black"/>
<path d="M17.3203 15.4254C17.3203 10.8121 18.2936 7.18539 20.2403 4.54539C22.2136 1.90539 25.2403 0.585388 29.3203 0.585388C33.3736 0.585388 36.3869 1.91872 38.3603 4.58539C40.3336 7.22539 41.3203 10.8387 41.3203 15.4254C41.3203 20.0387 40.3336 23.6787 38.3603 26.3454C36.3869 28.9854 33.3736 30.3054 29.3203 30.3054C25.2403 30.3054 22.2136 28.9854 20.2403 26.3454C18.2936 23.6787 17.3203 20.0387 17.3203 15.4254ZM32.5603 15.4254C32.5603 13.2921 32.3469 11.6921 31.9203 10.6254C31.4936 9.53206 30.6269 8.98539 29.3203 8.98539C27.9869 8.98539 27.1069 9.53206 26.6803 10.6254C26.2536 11.6921 26.0403 13.2921 26.0403 15.4254C26.0403 17.5854 26.2536 19.2121 26.6803 20.3054C27.1069 21.3721 27.9869 21.9054 29.3203 21.9054C30.6269 21.9054 31.4936 21.3721 31.9203 20.3054C32.3469 19.2121 32.5603 17.5854 32.5603 15.4254Z" fill="black"/>
<path d="M0.463684 9.5454V1.2254H14.0237V30.4654H4.70368V9.5454H0.463684Z" fill="black"/>
</svg>
