<svg width="131" height="36" viewBox="0 0 131 36" fill="none" xmlns="http://www.w3.org/2000/svg">
<path d="M130.483 20.7054H124.523V26.8254H116.003V20.7054H110.043V12.5854H116.003V6.42542H124.523V12.5854H130.483V20.7054Z" fill="black"/>
<path d="M84.0386 15.1854C84.0386 10.5721 85.012 6.9454 86.9586 4.3054C88.932 1.6654 91.9586 0.345398 96.0386 0.345398C100.092 0.345398 103.105 1.67873 105.079 4.3454C107.052 6.9854 108.039 10.5987 108.039 15.1854C108.039 19.7987 107.052 23.4387 105.079 26.1054C103.105 28.7454 100.092 30.0654 96.0386 30.0654C91.9586 30.0654 88.932 28.7454 86.9586 26.1054C85.012 23.4387 84.0386 19.7987 84.0386 15.1854ZM99.2786 15.1854C99.2786 13.0521 99.0653 11.4521 98.6386 10.3854C98.212 9.29207 97.3453 8.7454 96.0386 8.7454C94.7053 8.7454 93.8253 9.29207 93.3986 10.3854C92.972 11.4521 92.7586 13.0521 92.7586 15.1854C92.7586 17.3454 92.972 18.9721 93.3986 20.0654C93.8253 21.1321 94.7053 21.6654 96.0386 21.6654C97.3453 21.6654 98.212 21.1321 98.6386 20.0654C99.0653 18.9721 99.2786 17.3454 99.2786 15.1854Z" fill="black"/>
<path d="M57.5543 15.1854C57.5543 10.5721 58.5276 6.9454 60.4743 4.3054C62.4476 1.6654 65.4743 0.345398 69.5543 0.345398C73.6076 0.345398 76.6209 1.67873 78.5943 4.3454C80.5676 6.9854 81.5543 10.5987 81.5543 15.1854C81.5543 19.7987 80.5676 23.4387 78.5943 26.1054C76.6209 28.7454 73.6076 30.0654 69.5543 30.0654C65.4743 30.0654 62.4476 28.7454 60.4743 26.1054C58.5276 23.4387 57.5543 19.7987 57.5543 15.1854ZM72.7943 15.1854C72.7943 13.0521 72.5809 11.4521 72.1543 10.3854C71.7276 9.29207 70.8609 8.7454 69.5543 8.7454C68.2209 8.7454 67.3409 9.29207 66.9143 10.3854C66.4876 11.4521 66.2743 13.0521 66.2743 15.1854C66.2743 17.3454 66.4876 18.9721 66.9143 20.0654C67.3409 21.1321 68.2209 21.6654 69.5543 21.6654C70.8609 21.6654 71.7276 21.1321 72.1543 20.0654C72.5809 18.9721 72.7943 17.3454 72.7943 15.1854Z" fill="black"/>
<path d="M31.0699 15.1854C31.0699 10.5721 32.0432 6.9454 33.9899 4.3054C35.9632 1.6654 38.9899 0.345398 43.0699 0.345398C47.1232 0.345398 50.1366 1.67873 52.1099 4.3454C54.0832 6.9854 55.0699 10.5987 55.0699 15.1854C55.0699 19.7987 54.0832 23.4387 52.1099 26.1054C50.1366 28.7454 47.1232 30.0654 43.0699 30.0654C38.9899 30.0654 35.9632 28.7454 33.9899 26.1054C32.0432 23.4387 31.0699 19.7987 31.0699 15.1854ZM46.3099 15.1854C46.3099 13.0521 46.0966 11.4521 45.6699 10.3854C45.2432 9.29207 44.3765 8.7454 43.0699 8.7454C41.7365 8.7454 40.8566 9.29207 40.4299 10.3854C40.0032 11.4521 39.7899 13.0521 39.7899 15.1854C39.7899 17.3454 40.0032 18.9721 40.4299 20.0654C40.8566 21.1321 41.7365 21.6654 43.0699 21.6654C44.3765 21.6654 45.2432 21.1321 45.6699 20.0654C46.0966 18.9721 46.3099 17.3454 46.3099 15.1854Z" fill="black"/>
<path d="M27.638 23.1454L23.518 35.0254H17.918L19.798 23.1454H27.638Z" fill="black"/>
<path d="M0.541443 9.30541V0.985413H14.1014V30.2254H4.78144V9.30541H0.541443Z" fill="black"/>
</svg>
