<svg width="328" height="106" viewBox="0 0 328 106" fill="none" xmlns="http://www.w3.org/2000/svg">
<path d="M34.8202 92.5989C35.8549 92.5989 36.6602 92.9456 37.2362 93.6389C37.8229 94.3322 38.1162 95.2709 38.1162 96.4549V101.687H34.5802V96.9029C34.5802 96.4763 34.4629 96.1403 34.2282 95.8949C34.0042 95.6389 33.7002 95.5109 33.3162 95.5109C32.9216 95.5109 32.6122 95.6389 32.3882 95.8949C32.1642 96.1403 32.0522 96.4763 32.0522 96.9029V101.687H28.5002V89.8469H32.0522V94.0389C32.3296 93.6123 32.6976 93.2656 33.1562 92.9989C33.6256 92.7323 34.1802 92.5989 34.8202 92.5989Z" fill="black" fill-opacity="0.6"/>
<path d="M26.896 92.6628V101.687H23.344V100.311C23.0667 100.738 22.6933 101.084 22.224 101.351C21.7653 101.618 21.216 101.751 20.576 101.751C19.5413 101.751 18.7307 101.404 18.144 100.711C17.568 100.018 17.28 99.0788 17.28 97.8948V92.6628H20.816V97.4468C20.816 97.8735 20.928 98.2148 21.152 98.4708C21.3867 98.7162 21.696 98.8388 22.08 98.8388C22.4747 98.8388 22.784 98.7162 23.008 98.4708C23.232 98.2148 23.344 97.8735 23.344 97.4468V92.6628H26.896Z" fill="black" fill-opacity="0.6"/>
<path d="M5.989 97.1748C5.989 96.2254 6.149 95.4041 6.469 94.7108C6.79967 94.0068 7.24766 93.4734 7.813 93.1108C8.37833 92.7374 9.013 92.5508 9.717 92.5508C10.3037 92.5508 10.8103 92.6735 11.237 92.9188C11.6637 93.1535 11.989 93.4788 12.213 93.8948V92.6628H15.749V101.687H12.213V100.455C11.989 100.871 11.6637 101.201 11.237 101.447C10.8103 101.681 10.3037 101.799 9.717 101.799C9.013 101.799 8.37833 101.617 7.813 101.255C7.24766 100.881 6.79967 100.348 6.469 99.6548C6.149 98.9508 5.989 98.1241 5.989 97.1748ZM12.213 97.1748C12.213 96.6948 12.0903 96.3214 11.845 96.0548C11.5997 95.7881 11.285 95.6548 10.901 95.6548C10.517 95.6548 10.2023 95.7881 9.957 96.0548C9.71166 96.3214 9.589 96.6948 9.589 97.1748C9.589 97.6548 9.71166 98.0281 9.957 98.2948C10.2023 98.5615 10.517 98.6948 10.901 98.6948C11.285 98.6948 11.5997 98.5615 11.845 98.2948C12.0903 98.0281 12.213 97.6548 12.213 97.1748Z" fill="black" fill-opacity="0.6"/>
<path d="M3.104 91.9428C2.48533 91.9428 1.98933 91.7775 1.616 91.4469C1.24267 91.1162 1.056 90.7002 1.056 90.1989C1.056 89.6869 1.24267 89.2655 1.616 88.9349C1.98933 88.5935 2.48533 88.4229 3.104 88.4229C3.712 88.4229 4.20267 88.5935 4.576 88.9349C4.94933 89.2655 5.136 89.6869 5.136 90.1989C5.136 90.7002 4.94933 91.1162 4.576 91.4469C4.20267 91.7775 3.712 91.9428 3.104 91.9428ZM4.896 102.311C4.896 104.775 3.65867 106.007 1.184 106.007H0V102.983H0.688C0.922667 102.983 1.088 102.935 1.184 102.839C1.29067 102.743 1.344 102.588 1.344 102.375V92.6628H4.896V102.311Z" fill="black" fill-opacity="0.6"/>
<path d="M307.27 75.1748C307.27 74.2254 307.43 73.4041 307.75 72.7108C308.081 72.0068 308.529 71.4734 309.094 71.1108C309.66 70.7374 310.294 70.5508 310.998 70.5508C311.585 70.5508 312.092 70.6735 312.518 70.9188C312.945 71.1535 313.27 71.4788 313.494 71.8948V70.6628H317.03V79.6868H313.494V78.4548C313.27 78.8708 312.945 79.2015 312.518 79.4468C312.092 79.6815 311.585 79.7988 310.998 79.7988C310.294 79.7988 309.66 79.6175 309.094 79.2548C308.529 78.8815 308.081 78.3481 307.75 77.6548C307.43 76.9508 307.27 76.1241 307.27 75.1748ZM313.494 75.1748C313.494 74.6948 313.372 74.3214 313.126 74.0548C312.881 73.7881 312.566 73.6548 312.182 73.6548C311.798 73.6548 311.484 73.7881 311.238 74.0548C310.993 74.3214 310.87 74.6948 310.87 75.1748C310.87 75.6548 310.993 76.0281 311.238 76.2948C311.484 76.5615 311.798 76.6948 312.182 76.6948C312.566 76.6948 312.881 76.5615 313.126 76.2948C313.372 76.0281 313.494 75.6548 313.494 75.1748Z" fill="black" fill-opacity="0.6"/>
<path d="M307.114 70.6628L301.338 84.0068H297.45L299.722 79.2388L295.962 70.6628H299.914L301.61 75.2388L303.194 70.6628H307.114Z" fill="black" fill-opacity="0.6"/>
<path d="M292.086 70.5989C293.121 70.5989 293.926 70.9455 294.502 71.6389C295.089 72.3322 295.382 73.2709 295.382 74.4549V79.6869H291.846V74.9029C291.846 74.4762 291.729 74.1402 291.494 73.8949C291.27 73.6389 290.966 73.5109 290.582 73.5109C290.187 73.5109 289.878 73.6389 289.654 73.8949C289.43 74.1402 289.318 74.4762 289.318 74.9029V79.6869H285.766V70.6629H289.318V72.0389C289.595 71.6122 289.963 71.2655 290.422 70.9989C290.891 70.7322 291.446 70.5989 292.086 70.5989Z" fill="black" fill-opacity="0.6"/>
<path d="M280.93 70.5989C281.964 70.5989 282.77 70.9455 283.346 71.6389C283.932 72.3322 284.226 73.2709 284.226 74.4549V79.6869H280.69V74.9029C280.69 74.4762 280.572 74.1402 280.338 73.8949C280.114 73.6389 279.81 73.5109 279.426 73.5109C279.031 73.5109 278.722 73.6389 278.498 73.8949C278.274 74.1402 278.162 74.4762 278.162 74.9029V79.6869H274.61V70.6629H278.162V72.0389C278.439 71.6122 278.807 71.2655 279.266 70.9989C279.735 70.7322 280.29 70.5989 280.93 70.5989Z" fill="black" fill-opacity="0.6"/>
<path d="M263.255 75.1748C263.255 74.2254 263.415 73.4041 263.735 72.7108C264.065 72.0068 264.513 71.4734 265.079 71.1108C265.644 70.7374 266.279 70.5508 266.983 70.5508C267.569 70.5508 268.076 70.6735 268.503 70.9188C268.929 71.1535 269.255 71.4788 269.479 71.8948V70.6628H273.015V79.6868H269.479V78.4548C269.255 78.8708 268.929 79.2015 268.503 79.4468C268.076 79.6815 267.569 79.7988 266.983 79.7988C266.279 79.7988 265.644 79.6175 265.079 79.2548C264.513 78.8815 264.065 78.3481 263.735 77.6548C263.415 76.9508 263.255 76.1241 263.255 75.1748ZM269.479 75.1748C269.479 74.6948 269.356 74.3214 269.111 74.0548C268.865 73.7881 268.551 73.6548 268.167 73.6548C267.783 73.6548 267.468 73.7881 267.223 74.0548C266.977 74.3214 266.855 74.6948 266.855 75.1748C266.855 75.6548 266.977 76.0281 267.223 76.2948C267.468 76.5615 267.783 76.6948 268.167 76.6948C268.551 76.6948 268.865 76.5615 269.111 76.2948C269.356 76.0281 269.479 75.6548 269.479 75.1748Z" fill="black" fill-opacity="0.6"/>
<path d="M258.564 70.5989C259.716 70.5989 260.607 70.9455 261.236 71.6389C261.876 72.3322 262.196 73.2709 262.196 74.4549V79.6869H258.66V74.9029C258.66 74.5189 258.543 74.2202 258.308 74.0069C258.084 73.7829 257.78 73.6709 257.396 73.6709C257.001 73.6709 256.692 73.7829 256.468 74.0069C256.244 74.2202 256.132 74.5189 256.132 74.9029V79.6869H252.596V74.9029C252.596 74.5189 252.479 74.2202 252.244 74.0069C252.02 73.7829 251.716 73.6709 251.332 73.6709C250.937 73.6709 250.628 73.7829 250.404 74.0069C250.18 74.2202 250.068 74.5189 250.068 74.9029V79.6869H246.516V70.6629H250.068V71.8789C250.324 71.4949 250.671 71.1855 251.108 70.9509C251.556 70.7162 252.079 70.5989 252.676 70.5989C253.327 70.5989 253.903 70.7429 254.404 71.0309C254.905 71.3082 255.305 71.7029 255.604 72.2149C255.935 71.7455 256.356 71.3615 256.868 71.0629C257.38 70.7535 257.945 70.5989 258.564 70.5989Z" fill="black" fill-opacity="0.6"/>
<path d="M243.152 69.9428C242.533 69.9428 242.037 69.7775 241.664 69.4469C241.29 69.1162 241.104 68.7002 241.104 68.1989C241.104 67.6869 241.29 67.2655 241.664 66.9349C242.037 66.5935 242.533 66.4229 243.152 66.4229C243.76 66.4229 244.25 66.5935 244.624 66.9349C244.997 67.2655 245.184 67.6869 245.184 68.1989C245.184 68.7002 244.997 69.1162 244.624 69.4469C244.25 69.7775 243.76 69.9428 243.152 69.9428ZM244.912 70.6628V79.6869H241.36V70.6628H244.912Z" fill="black" fill-opacity="0.6"/>
<path d="M237.443 72.3269C237.806 71.8042 238.248 71.3882 238.771 71.0789C239.294 70.7589 239.838 70.5989 240.403 70.5989V74.3909H239.395C238.723 74.3909 238.227 74.5082 237.907 74.7429C237.598 74.9775 237.443 75.3935 237.443 75.9909V79.6869H233.891V70.6629H237.443V72.3269Z" fill="black" fill-opacity="0.6"/>
<path d="M230.527 69.9428C229.908 69.9428 229.412 69.7775 229.039 69.4469C228.665 69.1162 228.479 68.7002 228.479 68.1989C228.479 67.6869 228.665 67.2655 229.039 66.9349C229.412 66.5935 229.908 66.4229 230.527 66.4229C231.135 66.4229 231.625 66.5935 231.999 66.9349C232.372 67.2655 232.559 67.6869 232.559 68.1989C232.559 68.7002 232.372 69.1162 231.999 69.4469C231.625 69.7775 231.135 69.9428 230.527 69.9428ZM232.287 70.6628V79.6869H228.735V70.6628H232.287Z" fill="black" fill-opacity="0.6"/>
<path d="M221.108 70.5508C221.694 70.5508 222.201 70.6735 222.628 70.9188C223.054 71.1535 223.38 71.4788 223.604 71.8948V70.6628H227.14V79.5268C227.14 80.3694 226.985 81.1374 226.676 81.8308C226.366 82.5241 225.865 83.0788 225.172 83.4948C224.489 83.9108 223.609 84.1188 222.532 84.1188C221.081 84.1188 219.929 83.7774 219.076 83.0948C218.233 82.4228 217.753 81.5054 217.636 80.3428H221.124C221.22 80.8121 221.604 81.0468 222.276 81.0468C222.692 81.0468 223.017 80.9401 223.252 80.7268C223.486 80.5135 223.604 80.1134 223.604 79.5268V78.4548C223.38 78.8708 223.054 79.2015 222.628 79.4468C222.201 79.6815 221.694 79.7988 221.108 79.7988C220.404 79.7988 219.769 79.6175 219.204 79.2548C218.638 78.8815 218.19 78.3481 217.86 77.6548C217.54 76.9508 217.38 76.1241 217.38 75.1748C217.38 74.2254 217.54 73.4041 217.86 72.7108C218.19 72.0068 218.638 71.4734 219.204 71.1108C219.769 70.7374 220.404 70.5508 221.108 70.5508ZM223.604 75.1748C223.604 74.6948 223.481 74.3214 223.236 74.0548C222.99 73.7881 222.676 73.6548 222.292 73.6548C221.908 73.6548 221.593 73.7881 221.348 74.0548C221.102 74.3214 220.98 74.6948 220.98 75.1748C220.98 75.6548 221.102 76.0281 221.348 76.2948C221.593 76.5615 221.908 76.6948 222.292 76.6948C222.676 76.6948 222.99 76.5615 223.236 76.2948C223.481 76.0281 223.604 75.6548 223.604 75.1748Z" fill="black" fill-opacity="0.6"/>
<path d="M213.023 70.5989C214.058 70.5989 214.863 70.9455 215.439 71.6389C216.026 72.3322 216.319 73.2709 216.319 74.4549V79.6869H212.783V74.9029C212.783 74.4762 212.666 74.1402 212.431 73.8949C212.207 73.6389 211.903 73.5109 211.519 73.5109C211.125 73.5109 210.815 73.6389 210.591 73.8949C210.367 74.1402 210.255 74.4762 210.255 74.9029V79.6869H206.703V70.6629H210.255V72.0389C210.533 71.6122 210.901 71.2655 211.359 70.9989C211.829 70.7322 212.383 70.5989 213.023 70.5989Z" fill="black" fill-opacity="0.6"/>
<path d="M205.58 75.0948C205.58 75.3401 205.564 75.5748 205.532 75.7988H199.82C199.873 76.5774 200.199 76.9668 200.796 76.9668C201.18 76.9668 201.457 76.7908 201.628 76.4388H205.388C205.26 77.0788 204.988 77.6548 204.572 78.1668C204.167 78.6681 203.649 79.0681 203.02 79.3668C202.401 79.6548 201.719 79.7988 200.972 79.7988C200.076 79.7988 199.276 79.6121 198.572 79.2388C197.879 78.8655 197.335 78.3321 196.94 77.6388C196.556 76.9348 196.364 76.1134 196.364 75.1748C196.364 74.2361 196.556 73.4201 196.94 72.7268C197.335 72.0228 197.879 71.4841 198.572 71.1108C199.276 70.7374 200.076 70.5508 200.972 70.5508C201.868 70.5508 202.663 70.7374 203.356 71.1108C204.06 71.4734 204.604 71.9961 204.988 72.6788C205.383 73.3614 205.58 74.1668 205.58 75.0948ZM201.98 74.2468C201.98 73.9481 201.884 73.7241 201.692 73.5748C201.5 73.4148 201.26 73.3348 200.972 73.3348C200.343 73.3348 199.975 73.6388 199.868 74.2468H201.98Z" fill="black" fill-opacity="0.6"/>
<path d="M189.521 71.8948C189.745 71.4788 190.065 71.1535 190.481 70.9188C190.908 70.6735 191.414 70.5508 192.001 70.5508C192.705 70.5508 193.34 70.7374 193.905 71.1108C194.47 71.4734 194.913 72.0068 195.233 72.7108C195.564 73.4041 195.729 74.2254 195.729 75.1748C195.729 76.1241 195.564 76.9508 195.233 77.6548C194.913 78.3481 194.47 78.8815 193.905 79.2548C193.34 79.6175 192.705 79.7988 192.001 79.7988C191.414 79.7988 190.908 79.6815 190.481 79.4468C190.065 79.2015 189.745 78.8708 189.521 78.4548V84.0068H185.969V70.6628H189.521V71.8948ZM192.129 75.1748C192.129 74.6948 192.006 74.3214 191.761 74.0548C191.516 73.7881 191.201 73.6548 190.817 73.6548C190.433 73.6548 190.118 73.7881 189.873 74.0548C189.628 74.3214 189.505 74.6948 189.505 75.1748C189.505 75.6548 189.628 76.0281 189.873 76.2948C190.118 76.5615 190.433 76.6948 190.817 76.6948C191.201 76.6948 191.516 76.5615 191.761 76.2948C192.006 76.0281 192.129 75.6548 192.129 75.1748Z" fill="black" fill-opacity="0.6"/>
<path d="M171.895 75.1748C171.895 74.2254 172.055 73.4041 172.375 72.7108C172.706 72.0068 173.154 71.4734 173.719 71.1108C174.285 70.7374 174.919 70.5508 175.623 70.5508C176.21 70.5508 176.717 70.6735 177.143 70.9188C177.57 71.1535 177.895 71.4788 178.119 71.8948V70.6628H181.655V79.6868H178.119V78.4548C177.895 78.8708 177.57 79.2015 177.143 79.4468C176.717 79.6815 176.21 79.7988 175.623 79.7988C174.919 79.7988 174.285 79.6175 173.719 79.2548C173.154 78.8815 172.706 78.3481 172.375 77.6548C172.055 76.9508 171.895 76.1241 171.895 75.1748ZM178.119 75.1748C178.119 74.6948 177.997 74.3214 177.751 74.0548C177.506 73.7881 177.191 73.6548 176.807 73.6548C176.423 73.6548 176.109 73.7881 175.863 74.0548C175.618 74.3214 175.495 74.6948 175.495 75.1748C175.495 75.6548 175.618 76.0281 175.863 76.2948C176.109 76.5615 176.423 76.6948 176.807 76.6948C177.191 76.6948 177.506 76.5615 177.751 76.2948C177.997 76.0281 178.119 75.6548 178.119 75.1748Z" fill="black" fill-opacity="0.6"/>
<path d="M164.748 70.5508C165.335 70.5508 165.842 70.6735 166.268 70.9188C166.695 71.1535 167.02 71.4788 167.244 71.8948V70.6628H170.78V79.5268C170.78 80.3694 170.626 81.1374 170.316 81.8308C170.007 82.5241 169.506 83.0788 168.812 83.4948C168.13 83.9108 167.25 84.1188 166.172 84.1188C164.722 84.1188 163.57 83.7774 162.716 83.0948C161.874 82.4228 161.394 81.5054 161.276 80.3428H164.764C164.86 80.8121 165.244 81.0468 165.916 81.0468C166.332 81.0468 166.658 80.9401 166.892 80.7268C167.127 80.5135 167.244 80.1134 167.244 79.5268V78.4548C167.02 78.8708 166.695 79.2015 166.268 79.4468C165.842 79.6815 165.335 79.7988 164.748 79.7988C164.044 79.7988 163.41 79.6175 162.844 79.2548C162.279 78.8815 161.831 78.3481 161.5 77.6548C161.18 76.9508 161.02 76.1241 161.02 75.1748C161.02 74.2254 161.18 73.4041 161.5 72.7108C161.831 72.0068 162.279 71.4734 162.844 71.1108C163.41 70.7374 164.044 70.5508 164.748 70.5508ZM167.244 75.1748C167.244 74.6948 167.122 74.3214 166.876 74.0548C166.631 73.7881 166.316 73.6548 165.932 73.6548C165.548 73.6548 165.234 73.7881 164.988 74.0548C164.743 74.3214 164.62 74.6948 164.62 75.1748C164.62 75.6548 164.743 76.0281 164.988 76.2948C165.234 76.5615 165.548 76.6948 165.932 76.6948C166.316 76.6948 166.631 76.5615 166.876 76.2948C167.122 76.0281 167.244 75.6548 167.244 75.1748Z" fill="black" fill-opacity="0.6"/>
<path d="M153.873 70.5508C154.46 70.5508 154.967 70.6735 155.393 70.9188C155.82 71.1535 156.145 71.4788 156.369 71.8948V70.6628H159.905V79.5268C159.905 80.3694 159.751 81.1374 159.441 81.8308C159.132 82.5241 158.631 83.0788 157.937 83.4948C157.255 83.9108 156.375 84.1188 155.297 84.1188C153.847 84.1188 152.695 83.7774 151.841 83.0948C150.999 82.4228 150.519 81.5054 150.401 80.3428H153.889C153.985 80.8121 154.369 81.0468 155.041 81.0468C155.457 81.0468 155.783 80.9401 156.017 80.7268C156.252 80.5135 156.369 80.1134 156.369 79.5268V78.4548C156.145 78.8708 155.82 79.2015 155.393 79.4468C154.967 79.6815 154.46 79.7988 153.873 79.7988C153.169 79.7988 152.535 79.6175 151.969 79.2548C151.404 78.8815 150.956 78.3481 150.625 77.6548C150.305 76.9508 150.145 76.1241 150.145 75.1748C150.145 74.2254 150.305 73.4041 150.625 72.7108C150.956 72.0068 151.404 71.4734 151.969 71.1108C152.535 70.7374 153.169 70.5508 153.873 70.5508ZM156.369 75.1748C156.369 74.6948 156.247 74.3214 156.001 74.0548C155.756 73.7881 155.441 73.6548 155.057 73.6548C154.673 73.6548 154.359 73.7881 154.113 74.0548C153.868 74.3214 153.745 74.6948 153.745 75.1748C153.745 75.6548 153.868 76.0281 154.113 76.2948C154.359 76.5615 154.673 76.6948 155.057 76.6948C155.441 76.6948 155.756 76.5615 156.001 76.2948C156.247 76.0281 156.369 75.6548 156.369 75.1748Z" fill="black" fill-opacity="0.6"/>
<path d="M145.789 70.5989C146.824 70.5989 147.629 70.9455 148.205 71.6389C148.792 72.3322 149.085 73.2709 149.085 74.4549V79.6869H145.549V74.9029C145.549 74.4762 145.432 74.1402 145.197 73.8949C144.973 73.6389 144.669 73.5109 144.285 73.5109C143.89 73.5109 143.581 73.6389 143.357 73.8949C143.133 74.1402 143.021 74.4762 143.021 74.9029V79.6869H139.469V70.6629H143.021V72.0389C143.298 71.6122 143.666 71.2655 144.125 70.9989C144.594 70.7322 145.149 70.5989 145.789 70.5989Z" fill="black" fill-opacity="0.6"/>
<path d="M136.105 69.9428C135.486 69.9428 134.99 69.7775 134.617 69.4469C134.243 69.1162 134.057 68.7002 134.057 68.1989C134.057 67.6869 134.243 67.2655 134.617 66.9349C134.99 66.5935 135.486 66.4229 136.105 66.4229C136.713 66.4229 137.203 66.5935 137.577 66.9349C137.95 67.2655 138.137 67.6869 138.137 68.1989C138.137 68.7002 137.95 69.1162 137.577 69.4469C137.203 69.7775 136.713 69.9428 136.105 69.9428ZM137.865 70.6628V79.6869H134.313V70.6628H137.865Z" fill="black" fill-opacity="0.6"/>
<path d="M129.476 70.5989C130.511 70.5989 131.316 70.9456 131.892 71.6389C132.479 72.3322 132.772 73.2709 132.772 74.4549V79.6869H129.236V74.9029C129.236 74.4763 129.119 74.1403 128.884 73.8949C128.66 73.6389 128.356 73.5109 127.972 73.5109C127.578 73.5109 127.268 73.6389 127.044 73.8949C126.82 74.1403 126.708 74.4763 126.708 74.9029V79.6869H123.156V67.8469H126.708V72.0389C126.986 71.6123 127.354 71.2656 127.812 70.9989C128.282 70.7323 128.836 70.5989 129.476 70.5989Z" fill="black" fill-opacity="0.6"/>
<path d="M122.033 75.0948C122.033 75.3401 122.017 75.5748 121.985 75.7988H116.273C116.326 76.5774 116.652 76.9668 117.249 76.9668C117.633 76.9668 117.91 76.7908 118.081 76.4388H121.841C121.713 77.0788 121.441 77.6548 121.025 78.1668C120.62 78.6681 120.102 79.0681 119.473 79.3668C118.854 79.6548 118.172 79.7988 117.425 79.7988C116.529 79.7988 115.729 79.6121 115.025 79.2388C114.332 78.8655 113.788 78.3321 113.393 77.6388C113.009 76.9348 112.817 76.1134 112.817 75.1748C112.817 74.2361 113.009 73.4201 113.393 72.7268C113.788 72.0228 114.332 71.4841 115.025 71.1108C115.729 70.7374 116.529 70.5508 117.425 70.5508C118.321 70.5508 119.116 70.7374 119.809 71.1108C120.513 71.4734 121.057 71.9961 121.441 72.6788C121.836 73.3614 122.033 74.1668 122.033 75.0948ZM118.433 74.2468C118.433 73.9481 118.337 73.7241 118.145 73.5748C117.953 73.4148 117.713 73.3348 117.425 73.3348C116.796 73.3348 116.428 73.6388 116.321 74.2468H118.433Z" fill="black" fill-opacity="0.6"/>
<path d="M108.048 79.7988C107.194 79.7988 106.437 79.6601 105.776 79.3828C105.125 79.1054 104.608 78.7214 104.224 78.2308C103.84 77.7401 103.621 77.1854 103.568 76.5668H106.976C107.018 76.8334 107.13 77.0308 107.312 77.1588C107.504 77.2868 107.744 77.3508 108.032 77.3508C108.213 77.3508 108.357 77.3135 108.464 77.2388C108.57 77.1535 108.624 77.0521 108.624 76.9348C108.624 76.7321 108.512 76.5881 108.288 76.5028C108.064 76.4175 107.685 76.3214 107.152 76.2148C106.501 76.0868 105.962 75.9481 105.536 75.7988C105.12 75.6494 104.752 75.3935 104.432 75.0308C104.122 74.6681 103.968 74.1668 103.968 73.5268C103.968 72.9721 104.112 72.4708 104.4 72.0228C104.698 71.5641 105.136 71.2068 105.712 70.9508C106.288 70.6841 106.986 70.5508 107.808 70.5508C109.024 70.5508 109.973 70.8495 110.656 71.4468C111.349 72.0441 111.765 72.8228 111.904 73.7828H108.752C108.698 73.5375 108.586 73.3508 108.416 73.2228C108.245 73.0841 108.016 73.0148 107.728 73.0148C107.546 73.0148 107.408 73.0521 107.312 73.1268C107.216 73.1908 107.168 73.2921 107.168 73.4308C107.168 73.6121 107.28 73.7508 107.504 73.8468C107.728 73.9321 108.085 74.0228 108.576 74.1188C109.226 74.2468 109.776 74.3908 110.224 74.5508C110.672 74.7108 111.061 74.9881 111.392 75.3828C111.722 75.7668 111.888 76.3001 111.888 76.9828C111.888 77.5161 111.733 77.9961 111.424 78.4228C111.114 78.8494 110.666 79.1855 110.08 79.4308C109.504 79.6761 108.826 79.7988 108.048 79.7988Z" fill="black" fill-opacity="0.6"/>
<path d="M89.9577 75.1748C89.9577 74.2254 90.1178 73.4041 90.4378 72.7108C90.7684 72.0068 91.2164 71.4734 91.7817 71.1108C92.3471 70.7374 92.9818 70.5508 93.6858 70.5508C94.2724 70.5508 94.7791 70.6735 95.2057 70.9188C95.6324 71.1535 95.9577 71.4788 96.1817 71.8948V70.6628H99.7178V79.6868H96.1817V78.4548C95.9577 78.8708 95.6324 79.2015 95.2057 79.4468C94.7791 79.6815 94.2724 79.7988 93.6858 79.7988C92.9818 79.7988 92.3471 79.6175 91.7817 79.2548C91.2164 78.8815 90.7684 78.3481 90.4378 77.6548C90.1178 76.9508 89.9577 76.1241 89.9577 75.1748ZM96.1817 75.1748C96.1817 74.6948 96.0591 74.3214 95.8138 74.0548C95.5684 73.7881 95.2538 73.6548 94.8698 73.6548C94.4858 73.6548 94.1711 73.7881 93.9258 74.0548C93.6804 74.3214 93.5577 74.6948 93.5577 75.1748C93.5577 75.6548 93.6804 76.0281 93.9258 76.2948C94.1711 76.5615 94.4858 76.6948 94.8698 76.6948C95.2538 76.6948 95.5684 76.5615 95.8138 76.2948C96.0591 76.0281 96.1817 75.6548 96.1817 75.1748Z" fill="black" fill-opacity="0.6"/>
<path d="M87.0727 69.9428C86.4541 69.9428 85.9581 69.7775 85.5847 69.4469C85.2114 69.1162 85.0247 68.7002 85.0247 68.1989C85.0247 67.6869 85.2114 67.2655 85.5847 66.9349C85.9581 66.5935 86.4541 66.4229 87.0727 66.4229C87.6807 66.4229 88.1714 66.5935 88.5447 66.9349C88.9181 67.2655 89.1048 67.6869 89.1048 68.1989C89.1048 68.7002 88.9181 69.1162 88.5447 69.4469C88.1714 69.7775 87.6807 69.9428 87.0727 69.9428ZM88.8647 80.3109C88.8647 82.7749 87.6274 84.0069 85.1527 84.0069H83.9688V80.9828H84.6567C84.8914 80.9828 85.0567 80.9349 85.1527 80.8389C85.2594 80.7429 85.3128 80.5882 85.3128 80.3749V70.6628H88.8647V80.3109Z" fill="black" fill-opacity="0.6"/>
<path d="M73.9577 75.1748C73.9577 74.2254 74.1178 73.4041 74.4378 72.7108C74.7684 72.0068 75.2164 71.4734 75.7817 71.1108C76.3471 70.7374 76.9818 70.5508 77.6858 70.5508C78.2724 70.5508 78.7791 70.6735 79.2057 70.9188C79.6324 71.1535 79.9577 71.4788 80.1817 71.8948V70.6628H83.7178V79.6868H80.1817V78.4548C79.9577 78.8708 79.6324 79.2015 79.2057 79.4468C78.7791 79.6815 78.2724 79.7988 77.6858 79.7988C76.9818 79.7988 76.3471 79.6175 75.7817 79.2548C75.2164 78.8815 74.7684 78.3481 74.4378 77.6548C74.1178 76.9508 73.9577 76.1241 73.9577 75.1748ZM80.1817 75.1748C80.1817 74.6948 80.0591 74.3214 79.8138 74.0548C79.5684 73.7881 79.2538 73.6548 78.8698 73.6548C78.4858 73.6548 78.1711 73.7881 77.9258 74.0548C77.6804 74.3214 77.5577 74.6948 77.5577 75.1748C77.5577 75.6548 77.6804 76.0281 77.9258 76.2948C78.1711 76.5615 78.4858 76.6948 78.8698 76.6948C79.2538 76.6948 79.5684 76.5615 79.8138 76.2948C80.0591 76.0281 80.1817 75.6548 80.1817 75.1748Z" fill="black" fill-opacity="0.6"/>
<path d="M69.1881 79.7988C68.3348 79.7988 67.5775 79.6601 66.9161 79.3828C66.2655 79.1054 65.7481 78.7214 65.3641 78.2308C64.9801 77.7401 64.7615 77.1854 64.7081 76.5668H68.1161C68.1588 76.8334 68.2708 77.0308 68.4521 77.1588C68.6441 77.2868 68.8841 77.3508 69.1721 77.3508C69.3535 77.3508 69.4975 77.3135 69.6041 77.2388C69.7108 77.1535 69.7641 77.0521 69.7641 76.9348C69.7641 76.7321 69.6521 76.5881 69.4281 76.5028C69.2041 76.4175 68.8255 76.3214 68.2921 76.2148C67.6415 76.0868 67.1028 75.9481 66.6761 75.7988C66.2601 75.6494 65.8921 75.3935 65.5721 75.0308C65.2628 74.6681 65.1081 74.1668 65.1081 73.5268C65.1081 72.9721 65.2521 72.4708 65.5401 72.0228C65.8388 71.5641 66.2761 71.2068 66.8521 70.9508C67.4281 70.6841 68.1268 70.5508 68.9481 70.5508C70.1641 70.5508 71.1135 70.8495 71.7961 71.4468C72.4895 72.0441 72.9055 72.8228 73.0441 73.7828H69.8921C69.8388 73.5375 69.7268 73.3508 69.5561 73.2228C69.3855 73.0841 69.1561 73.0148 68.8681 73.0148C68.6868 73.0148 68.5481 73.0521 68.4521 73.1268C68.3561 73.1908 68.3081 73.2921 68.3081 73.4308C68.3081 73.6121 68.4201 73.7508 68.6441 73.8468C68.8681 73.9321 69.2255 74.0228 69.7161 74.1188C70.3668 74.2468 70.9161 74.3908 71.3641 74.5508C71.8121 74.7108 72.2015 74.9881 72.5321 75.3828C72.8628 75.7668 73.0281 76.3001 73.0281 76.9828C73.0281 77.5161 72.8735 77.9961 72.5641 78.4228C72.2548 78.8494 71.8068 79.1855 71.2201 79.4308C70.6441 79.6761 69.9668 79.7988 69.1881 79.7988Z" fill="black" fill-opacity="0.6"/>
<path d="M57.6171 70.5989C58.6518 70.5989 59.4571 70.9456 60.0331 71.6389C60.6198 72.3322 60.9131 73.2709 60.9131 74.4549V79.6869H57.3771V74.9029C57.3771 74.4763 57.2598 74.1403 57.0251 73.8949C56.8011 73.6389 56.4971 73.5109 56.1131 73.5109C55.7185 73.5109 55.4091 73.6389 55.1851 73.8949C54.9611 74.1403 54.8491 74.4763 54.8491 74.9029V79.6869H51.2971V67.8469H54.8491V72.0389C55.1265 71.6123 55.4945 71.2656 55.9531 70.9989C56.4225 70.7323 56.9771 70.5989 57.6171 70.5989Z" fill="black" fill-opacity="0.6"/>
<path d="M39.9421 75.1748C39.9421 74.2254 40.1021 73.4041 40.4221 72.7108C40.7528 72.0068 41.2008 71.4734 41.7661 71.1108C42.3315 70.7374 42.9661 70.5508 43.6701 70.5508C44.2568 70.5508 44.7635 70.6735 45.1901 70.9188C45.6168 71.1535 45.9421 71.4788 46.1661 71.8948V70.6628H49.7021V79.6868H46.1661V78.4548C45.9421 78.8708 45.6168 79.2015 45.1901 79.4468C44.7635 79.6815 44.2568 79.7988 43.6701 79.7988C42.9661 79.7988 42.3315 79.6175 41.7661 79.2548C41.2008 78.8815 40.7528 78.3481 40.4221 77.6548C40.1021 76.9508 39.9421 76.1241 39.9421 75.1748ZM46.1661 75.1748C46.1661 74.6948 46.0435 74.3214 45.7981 74.0548C45.5528 73.7881 45.2381 73.6548 44.8541 73.6548C44.4701 73.6548 44.1555 73.7881 43.9101 74.0548C43.6648 74.3214 43.5421 74.6948 43.5421 75.1748C43.5421 75.6548 43.6648 76.0281 43.9101 76.2948C44.1555 76.5615 44.4701 76.6948 44.8541 76.6948C45.2381 76.6948 45.5528 76.5615 45.7981 76.2948C46.0435 76.0281 46.1661 75.6548 46.1661 75.1748Z" fill="black" fill-opacity="0.6"/>
<path d="M36.5054 72.3269C36.868 71.8042 37.3107 71.3882 37.8334 71.0789C38.356 70.7589 38.9 70.5989 39.4654 70.5989V74.3909H38.4574C37.7854 74.3909 37.2894 74.5082 36.9694 74.7429C36.66 74.9775 36.5054 75.3935 36.5054 75.9909V79.6869H32.9534V70.6629H36.5054V72.3269Z" fill="black" fill-opacity="0.6"/>
<path d="M31.83 75.0948C31.83 75.3401 31.814 75.5748 31.782 75.7988H26.07C26.1233 76.5774 26.4487 76.9668 27.046 76.9668C27.43 76.9668 27.7073 76.7908 27.878 76.4388H31.638C31.51 77.0788 31.238 77.6548 30.822 78.1668C30.4167 78.6681 29.8993 79.0681 29.27 79.3668C28.6513 79.6548 27.9687 79.7988 27.222 79.7988C26.326 79.7988 25.526 79.6121 24.822 79.2388C24.1287 78.8655 23.5847 78.3321 23.19 77.6388C22.806 76.9348 22.614 76.1134 22.614 75.1748C22.614 74.2361 22.806 73.4201 23.19 72.7268C23.5847 72.0228 24.1287 71.4841 24.822 71.1108C25.526 70.7374 26.326 70.5508 27.222 70.5508C28.118 70.5508 28.9127 70.7374 29.606 71.1108C30.31 71.4734 30.854 71.9961 31.238 72.6788C31.6327 73.3614 31.83 74.1668 31.83 75.0948ZM28.23 74.2468C28.23 73.9481 28.134 73.7241 27.942 73.5748C27.75 73.4148 27.51 73.3348 27.222 73.3348C26.5927 73.3348 26.2247 73.6388 26.118 74.2468H28.23Z" fill="black" fill-opacity="0.6"/>
<path d="M11.739 75.1748C11.739 74.2254 11.899 73.4041 12.219 72.7108C12.5497 72.0068 12.9977 71.4734 13.563 71.1108C14.1283 70.7374 14.763 70.5508 15.467 70.5508C16.0537 70.5508 16.5603 70.6735 16.987 70.9188C17.4137 71.1535 17.739 71.4788 17.963 71.8948V70.6628H21.499V79.6868H17.963V78.4548C17.739 78.8708 17.4137 79.2015 16.987 79.4468C16.5603 79.6815 16.0537 79.7988 15.467 79.7988C14.763 79.7988 14.1283 79.6175 13.563 79.2548C12.9977 78.8815 12.5497 78.3481 12.219 77.6548C11.899 76.9508 11.739 76.1241 11.739 75.1748ZM17.963 75.1748C17.963 74.6948 17.8403 74.3214 17.595 74.0548C17.3497 73.7881 17.035 73.6548 16.651 73.6548C16.267 73.6548 15.9523 73.7881 15.707 74.0548C15.4617 74.3214 15.339 74.6948 15.339 75.1748C15.339 75.6548 15.4617 76.0281 15.707 76.2948C15.9523 76.5615 16.267 76.6948 16.651 76.6948C17.035 76.6948 17.3497 76.5615 17.595 76.2948C17.8403 76.0281 17.963 75.6548 17.963 75.1748Z" fill="black" fill-opacity="0.6"/>
<path d="M0.863998 75.1749C0.863998 74.2256 1.024 73.4043 1.344 72.7109C1.67467 72.0069 2.12267 71.4736 2.688 71.1109C3.25333 70.7376 3.888 70.5509 4.592 70.5509C5.17867 70.5509 5.68 70.6736 6.096 70.9189C6.52267 71.1536 6.848 71.4789 7.072 71.8949V67.8469H10.624V79.6869H7.072V78.4549C6.848 78.8709 6.52267 79.2016 6.096 79.4469C5.68 79.6816 5.17867 79.7989 4.592 79.7989C3.888 79.7989 3.25333 79.6176 2.688 79.2549C2.12267 78.8816 1.67467 78.3483 1.344 77.6549C1.024 76.9509 0.863998 76.1243 0.863998 75.1749ZM7.088 75.1749C7.088 74.6949 6.96533 74.3216 6.72 74.0549C6.47467 73.7882 6.16 73.6549 5.776 73.6549C5.392 73.6549 5.07733 73.7882 4.832 74.0549C4.58667 74.3216 4.464 74.6949 4.464 75.1749C4.464 75.6549 4.58667 76.0283 4.832 76.2949C5.07733 76.5616 5.392 76.6949 5.776 76.6949C6.16 76.6949 6.47467 76.5616 6.72 76.2949C6.96533 76.0283 7.088 75.6549 7.088 75.1749Z" fill="black" fill-opacity="0.6"/>
<path d="M288.099 48.6628V57.6868H284.547V56.3108C284.27 56.7375 283.896 57.0842 283.427 57.3508C282.968 57.6175 282.419 57.7508 281.779 57.7508C280.744 57.7508 279.934 57.4042 279.347 56.7108C278.771 56.0175 278.483 55.0788 278.483 53.8948V48.6628H282.019V53.4468C282.019 53.8735 282.131 54.2148 282.355 54.4708C282.59 54.7162 282.899 54.8388 283.283 54.8388C283.678 54.8388 283.987 54.7162 284.211 54.4708C284.435 54.2148 284.547 53.8735 284.547 53.4468V48.6628H288.099Z" fill="black" fill-opacity="0.6"/>
<path d="M277.194 54.6628V57.6868H275.85C273.376 57.6868 272.138 56.4548 272.138 53.9908V51.6228H271.018V48.6628H272.138V46.4868H275.69V48.6628H277.162V51.6228H275.69V54.0548C275.69 54.2682 275.738 54.4228 275.834 54.5188C275.941 54.6148 276.112 54.6628 276.346 54.6628H277.194Z" fill="black" fill-opacity="0.6"/>
<path d="M260.223 53.1748C260.223 52.2254 260.383 51.4041 260.703 50.7108C261.034 50.0068 261.482 49.4734 262.047 49.1108C262.613 48.7374 263.247 48.5508 263.951 48.5508C264.538 48.5508 265.045 48.6734 265.471 48.9188C265.898 49.1534 266.223 49.4788 266.447 49.8948V48.6628H269.983V57.6868H266.447V56.4548C266.223 56.8708 265.898 57.2014 265.471 57.4468C265.045 57.6814 264.538 57.7988 263.951 57.7988C263.247 57.7988 262.613 57.6175 262.047 57.2548C261.482 56.8815 261.034 56.3481 260.703 55.6548C260.383 54.9508 260.223 54.1241 260.223 53.1748ZM266.447 53.1748C266.447 52.6948 266.325 52.3214 266.079 52.0548C265.834 51.7881 265.519 51.6548 265.135 51.6548C264.751 51.6548 264.437 51.7881 264.191 52.0548C263.946 52.3214 263.823 52.6948 263.823 53.1748C263.823 53.6548 263.946 54.0281 264.191 54.2948C264.437 54.5615 264.751 54.6948 265.135 54.6948C265.519 54.6948 265.834 54.5615 266.079 54.2948C266.325 54.0281 266.447 53.6548 266.447 53.1748Z" fill="black" fill-opacity="0.6"/>
<path d="M255.454 57.7988C254.6 57.7988 253.843 57.6601 253.182 57.3828C252.531 57.1054 252.014 56.7214 251.63 56.2308C251.246 55.7401 251.027 55.1855 250.974 54.5668H254.382C254.424 54.8335 254.536 55.0308 254.718 55.1588C254.91 55.2868 255.15 55.3508 255.438 55.3508C255.619 55.3508 255.763 55.3134 255.87 55.2388C255.976 55.1534 256.03 55.0521 256.03 54.9348C256.03 54.7321 255.918 54.5881 255.694 54.5028C255.47 54.4174 255.091 54.3214 254.558 54.2148C253.907 54.0868 253.368 53.9481 252.942 53.7988C252.526 53.6494 252.158 53.3935 251.838 53.0308C251.528 52.6681 251.374 52.1668 251.374 51.5268C251.374 50.9721 251.518 50.4708 251.806 50.0228C252.104 49.5641 252.542 49.2068 253.118 48.9508C253.694 48.6841 254.392 48.5508 255.214 48.5508C256.43 48.5508 257.379 48.8494 258.062 49.4468C258.755 50.0441 259.171 50.8228 259.31 51.7828H256.158C256.104 51.5375 255.992 51.3508 255.822 51.2228C255.651 51.0841 255.422 51.0148 255.134 51.0148C254.952 51.0148 254.814 51.0521 254.718 51.1268C254.622 51.1908 254.574 51.2921 254.574 51.4308C254.574 51.6121 254.686 51.7508 254.91 51.8468C255.134 51.9321 255.491 52.0228 255.982 52.1188C256.632 52.2468 257.182 52.3908 257.63 52.5508C258.078 52.7108 258.467 52.9881 258.798 53.3828C259.128 53.7668 259.294 54.3001 259.294 54.9828C259.294 55.5161 259.139 55.9961 258.83 56.4228C258.52 56.8494 258.072 57.1854 257.486 57.4308C256.91 57.6761 256.232 57.7988 255.454 57.7988Z" fill="black" fill-opacity="0.6"/>
<path d="M245.355 47.9429C244.736 47.9429 244.24 47.7775 243.867 47.4468C243.493 47.1162 243.307 46.7002 243.307 46.1989C243.307 45.6869 243.493 45.2655 243.867 44.9349C244.24 44.5935 244.736 44.4229 245.355 44.4229C245.963 44.4229 246.453 44.5935 246.827 44.9349C247.2 45.2655 247.387 45.6869 247.387 46.1989C247.387 46.7002 247.2 47.1162 246.827 47.4468C246.453 47.7775 245.963 47.9429 245.355 47.9429ZM247.115 48.6628V57.6869H243.563V48.6628H247.115Z" fill="black" fill-opacity="0.6"/>
<path d="M239.646 50.3269C240.009 49.8042 240.451 49.3882 240.974 49.0789C241.497 48.7589 242.041 48.5989 242.606 48.5989V52.3909H241.598C240.926 52.3909 240.43 52.5082 240.11 52.7429C239.801 52.9775 239.646 53.3935 239.646 53.9909V57.6869H236.094V48.6629H239.646V50.3269Z" fill="black" fill-opacity="0.6"/>
<path d="M224.739 53.1748C224.739 52.2254 224.899 51.4041 225.219 50.7108C225.55 50.0068 225.998 49.4734 226.563 49.1108C227.128 48.7374 227.763 48.5508 228.467 48.5508C229.054 48.5508 229.56 48.6734 229.987 48.9188C230.414 49.1534 230.739 49.4788 230.963 49.8948V48.6628H234.499V57.6868H230.963V56.4548C230.739 56.8708 230.414 57.2014 229.987 57.4468C229.56 57.6814 229.054 57.7988 228.467 57.7988C227.763 57.7988 227.128 57.6175 226.563 57.2548C225.998 56.8815 225.55 56.3481 225.219 55.6548C224.899 54.9508 224.739 54.1241 224.739 53.1748ZM230.963 53.1748C230.963 52.6948 230.84 52.3214 230.595 52.0548C230.35 51.7881 230.035 51.6548 229.651 51.6548C229.267 51.6548 228.952 51.7881 228.707 52.0548C228.462 52.3214 228.339 52.6948 228.339 53.1748C228.339 53.6548 228.462 54.0281 228.707 54.2948C228.952 54.5615 229.267 54.6948 229.651 54.6948C230.035 54.6948 230.35 54.5615 230.595 54.2948C230.84 54.0281 230.963 53.6548 230.963 53.1748Z" fill="black" fill-opacity="0.6"/>
<path d="M213.864 53.1749C213.864 52.2256 214.024 51.4043 214.344 50.7109C214.675 50.0069 215.123 49.4736 215.688 49.1109C216.253 48.7376 216.888 48.5509 217.592 48.5509C218.179 48.5509 218.68 48.6736 219.096 48.9189C219.523 49.1536 219.848 49.4789 220.072 49.8949V45.8469H223.624V57.6869H220.072V56.4549C219.848 56.8709 219.523 57.2016 219.096 57.4469C218.68 57.6816 218.179 57.7989 217.592 57.7989C216.888 57.7989 216.253 57.6176 215.688 57.2549C215.123 56.8816 214.675 56.3483 214.344 55.6549C214.024 54.9509 213.864 54.1243 213.864 53.1749ZM220.088 53.1749C220.088 52.6949 219.965 52.3216 219.72 52.0549C219.475 51.7883 219.16 51.6549 218.776 51.6549C218.392 51.6549 218.077 51.7883 217.832 52.0549C217.587 52.3216 217.464 52.6949 217.464 53.1749C217.464 53.6549 217.587 54.0283 217.832 54.2949C218.077 54.5616 218.392 54.6949 218.776 54.6949C219.16 54.6949 219.475 54.5616 219.72 54.2949C219.965 54.0283 220.088 53.6549 220.088 53.1749Z" fill="black" fill-opacity="0.6"/>
<path d="M200.27 53.1748C200.27 52.2254 200.43 51.4041 200.75 50.7108C201.081 50.0068 201.529 49.4734 202.094 49.1108C202.66 48.7374 203.294 48.5508 203.998 48.5508C204.585 48.5508 205.092 48.6734 205.518 48.9188C205.945 49.1534 206.27 49.4788 206.494 49.8948V48.6628H210.03V57.6868H206.494V56.4548C206.27 56.8708 205.945 57.2014 205.518 57.4468C205.092 57.6814 204.585 57.7988 203.998 57.7988C203.294 57.7988 202.66 57.6175 202.094 57.2548C201.529 56.8815 201.081 56.3481 200.75 55.6548C200.43 54.9508 200.27 54.1241 200.27 53.1748ZM206.494 53.1748C206.494 52.6948 206.372 52.3214 206.126 52.0548C205.881 51.7881 205.566 51.6548 205.182 51.6548C204.798 51.6548 204.484 51.7881 204.238 52.0548C203.993 52.3214 203.87 52.6948 203.87 53.1748C203.87 53.6548 203.993 54.0281 204.238 54.2948C204.484 54.5615 204.798 54.6948 205.182 54.6948C205.566 54.6948 205.881 54.5615 206.126 54.2948C206.372 54.0281 206.494 53.6548 206.494 53.1748Z" fill="black" fill-opacity="0.6"/>
<path d="M200.114 48.6628L194.338 62.0068H190.45L192.722 57.2388L188.962 48.6628H192.914L194.61 53.2388L196.194 48.6628H200.114Z" fill="black" fill-opacity="0.6"/>
<path d="M185.086 48.5989C186.121 48.5989 186.926 48.9455 187.502 49.6389C188.089 50.3322 188.382 51.2709 188.382 52.4549V57.6869H184.846V52.9029C184.846 52.4762 184.729 52.1402 184.494 51.8949C184.27 51.6389 183.966 51.5109 183.582 51.5109C183.187 51.5109 182.878 51.6389 182.654 51.8949C182.43 52.1402 182.318 52.4762 182.318 52.9029V57.6869H178.766V48.6629H182.318V50.0389C182.595 49.6122 182.963 49.2655 183.422 48.9989C183.891 48.7322 184.446 48.5989 185.086 48.5989Z" fill="black" fill-opacity="0.6"/>
<path d="M167.411 53.1748C167.411 52.2254 167.571 51.4041 167.891 50.7108C168.222 50.0068 168.67 49.4734 169.235 49.1108C169.8 48.7374 170.435 48.5508 171.139 48.5508C171.726 48.5508 172.232 48.6734 172.659 48.9188C173.086 49.1534 173.411 49.4788 173.635 49.8948V48.6628H177.171V57.6868H173.635V56.4548C173.411 56.8708 173.086 57.2014 172.659 57.4468C172.232 57.6814 171.726 57.7988 171.139 57.7988C170.435 57.7988 169.8 57.6175 169.235 57.2548C168.67 56.8815 168.222 56.3481 167.891 55.6548C167.571 54.9508 167.411 54.1241 167.411 53.1748ZM173.635 53.1748C173.635 52.6948 173.512 52.3214 173.267 52.0548C173.022 51.7881 172.707 51.6548 172.323 51.6548C171.939 51.6548 171.624 51.7881 171.379 52.0548C171.134 52.3214 171.011 52.6948 171.011 53.1748C171.011 53.6548 171.134 54.0281 171.379 54.2948C171.624 54.5615 171.939 54.6948 172.323 54.6948C172.707 54.6948 173.022 54.5615 173.267 54.2948C173.512 54.0281 173.635 53.6548 173.635 53.1748Z" fill="black" fill-opacity="0.6"/>
<path d="M163.055 48.5989C164.089 48.5989 164.895 48.9456 165.471 49.6389C166.057 50.3323 166.351 51.2709 166.351 52.4549V57.6869H162.815V52.9029C162.815 52.4763 162.697 52.1403 162.463 51.8949C162.239 51.6389 161.935 51.5109 161.551 51.5109C161.156 51.5109 160.847 51.6389 160.623 51.8949C160.399 52.1403 160.287 52.4763 160.287 52.9029V57.6869H156.735V45.8469H160.287V50.0389C160.564 49.6123 160.932 49.2656 161.391 48.9989C161.86 48.7323 162.415 48.5989 163.055 48.5989Z" fill="black" fill-opacity="0.6"/>
<path d="M148.979 57.6869L146.755 54.0869V57.6869H143.203V45.8469H146.755V52.0389L149.011 48.6629H153.139L149.763 53.2069L153.219 57.6869H148.979Z" fill="black" fill-opacity="0.6"/>
<path d="M131.848 53.1748C131.848 52.2254 132.008 51.4041 132.328 50.7108C132.659 50.0068 133.107 49.4734 133.672 49.1108C134.238 48.7374 134.872 48.5508 135.576 48.5508C136.163 48.5508 136.67 48.6734 137.096 48.9188C137.523 49.1534 137.848 49.4788 138.072 49.8948V48.6628H141.608V57.6868H138.072V56.4548C137.848 56.8708 137.523 57.2014 137.096 57.4468C136.67 57.6814 136.163 57.7988 135.576 57.7988C134.872 57.7988 134.238 57.6175 133.672 57.2548C133.107 56.8815 132.659 56.3481 132.328 55.6548C132.008 54.9508 131.848 54.1241 131.848 53.1748ZM138.072 53.1748C138.072 52.6948 137.95 52.3214 137.704 52.0548C137.459 51.7881 137.144 51.6548 136.76 51.6548C136.376 51.6548 136.062 51.7881 135.816 52.0548C135.571 52.3214 135.448 52.6948 135.448 53.1748C135.448 53.6548 135.571 54.0281 135.816 54.2948C136.062 54.5615 136.376 54.6948 136.76 54.6948C137.144 54.6948 137.459 54.5615 137.704 54.2948C137.95 54.0281 138.072 53.6548 138.072 53.1748Z" fill="black" fill-opacity="0.6"/>
<path d="M120.973 53.1749C120.973 52.2256 121.133 51.4043 121.453 50.7109C121.784 50.0069 122.232 49.4736 122.797 49.1109C123.363 48.7376 123.997 48.5509 124.701 48.5509C125.288 48.5509 125.789 48.6736 126.205 48.9189C126.632 49.1536 126.957 49.4789 127.181 49.8949V45.8469H130.733V57.6869H127.181V56.4549C126.957 56.8709 126.632 57.2016 126.205 57.4469C125.789 57.6816 125.288 57.7989 124.701 57.7989C123.997 57.7989 123.363 57.6176 122.797 57.2549C122.232 56.8816 121.784 56.3483 121.453 55.6549C121.133 54.9509 120.973 54.1243 120.973 53.1749ZM127.197 53.1749C127.197 52.6949 127.075 52.3216 126.829 52.0549C126.584 51.7883 126.269 51.6549 125.885 51.6549C125.501 51.6549 125.187 51.7883 124.941 52.0549C124.696 52.3216 124.573 52.6949 124.573 53.1749C124.573 53.6549 124.696 54.0283 124.941 54.2949C125.187 54.5616 125.501 54.6949 125.885 54.6949C126.269 54.6949 126.584 54.5616 126.829 54.2949C127.075 54.0283 127.197 53.6549 127.197 53.1749Z" fill="black" fill-opacity="0.6"/>
<path d="M118.089 47.9429C117.47 47.9429 116.974 47.7775 116.601 47.4468C116.228 47.1162 116.041 46.7002 116.041 46.1989C116.041 45.6869 116.228 45.2655 116.601 44.9349C116.974 44.5935 117.47 44.4229 118.089 44.4229C118.697 44.4229 119.188 44.5935 119.561 44.9349C119.934 45.2655 120.121 45.6869 120.121 46.1989C120.121 46.7002 119.934 47.1162 119.561 47.4468C119.188 47.7775 118.697 47.9429 118.089 47.9429ZM119.849 48.6628V57.6869H116.297V48.6628H119.849Z" fill="black" fill-opacity="0.6"/>
<path d="M114.944 54.6628V57.6868H113.6C111.126 57.6868 109.888 56.4548 109.888 53.9908V51.6228H108.768V48.6628H109.888V46.4868H113.44V48.6628H114.912V51.6228H113.44V54.0548C113.44 54.2682 113.488 54.4228 113.584 54.5188C113.691 54.6148 113.862 54.6628 114.096 54.6628H114.944Z" fill="black" fill-opacity="0.6"/>
<path d="M104.949 54.8547L103.301 59.6067H101.061L101.813 54.8547H104.949Z" fill="black" fill-opacity="0.6"/>
<path d="M96.3046 48.5989C97.3393 48.5989 98.1446 48.9455 98.7206 49.6389C99.3073 50.3322 99.6006 51.2709 99.6006 52.4549V57.6869H96.0646V52.9029C96.0646 52.4762 95.9473 52.1402 95.7126 51.8949C95.4886 51.6389 95.1846 51.5109 94.8006 51.5109C94.4059 51.5109 94.0966 51.6389 93.8726 51.8949C93.6486 52.1402 93.5366 52.4762 93.5366 52.9029V57.6869H89.9846V48.6629H93.5366V50.0389C93.8139 49.6122 94.182 49.2655 94.6406 48.9989C95.11 48.7322 95.6646 48.5989 96.3046 48.5989Z" fill="black" fill-opacity="0.6"/>
<path d="M78.6296 53.1748C78.6296 52.2254 78.7896 51.4041 79.1096 50.7108C79.4403 50.0068 79.8883 49.4734 80.4536 49.1108C81.019 48.7374 81.6536 48.5508 82.3576 48.5508C82.9443 48.5508 83.451 48.6734 83.8776 48.9188C84.3043 49.1534 84.6296 49.4788 84.8536 49.8948V48.6628H88.3896V57.6868H84.8536V56.4548C84.6296 56.8708 84.3043 57.2014 83.8776 57.4468C83.451 57.6814 82.9443 57.7988 82.3576 57.7988C81.6536 57.7988 81.019 57.6175 80.4536 57.2548C79.8883 56.8815 79.4403 56.3481 79.1096 55.6548C78.7896 54.9508 78.6296 54.1241 78.6296 53.1748ZM84.8536 53.1748C84.8536 52.6948 84.731 52.3214 84.4856 52.0548C84.2403 51.7881 83.9256 51.6548 83.5416 51.6548C83.1576 51.6548 82.843 51.7881 82.5976 52.0548C82.3523 52.3214 82.2296 52.6948 82.2296 53.1748C82.2296 53.6548 82.3523 54.0281 82.5976 54.2948C82.843 54.5615 83.1576 54.6948 83.5416 54.6948C83.9256 54.6948 84.2403 54.5615 84.4856 54.2948C84.731 54.0281 84.8536 53.6548 84.8536 53.1748Z" fill="black" fill-opacity="0.6"/>
<path d="M73.9389 48.5989C75.0909 48.5989 75.9815 48.9455 76.6109 49.6389C77.2509 50.3322 77.5709 51.2709 77.5709 52.4549V57.6869H74.0349V52.9029C74.0349 52.5189 73.9175 52.2202 73.6829 52.0069C73.4589 51.7829 73.1549 51.6709 72.7709 51.6709C72.3762 51.6709 72.0669 51.7829 71.8429 52.0069C71.6189 52.2202 71.5069 52.5189 71.5069 52.9029V57.6869H67.9709V52.9029C67.9709 52.5189 67.8535 52.2202 67.6189 52.0069C67.3949 51.7829 67.0909 51.6709 66.7069 51.6709C66.3122 51.6709 66.0029 51.7829 65.7789 52.0069C65.5549 52.2202 65.4429 52.5189 65.4429 52.9029V57.6869H61.8909V48.6629H65.4429V49.8789C65.6989 49.4949 66.0455 49.1855 66.4829 48.9509C66.9309 48.7162 67.4535 48.5989 68.0509 48.5989C68.7015 48.5989 69.2775 48.7429 69.7789 49.0309C70.2802 49.3082 70.6802 49.7029 70.9789 50.2149C71.3095 49.7455 71.7309 49.3615 72.2429 49.0629C72.7549 48.7535 73.3202 48.5989 73.9389 48.5989Z" fill="black" fill-opacity="0.6"/>
<path d="M58.5266 47.9429C57.908 47.9429 57.412 47.7775 57.0386 47.4468C56.6653 47.1162 56.4786 46.7002 56.4786 46.1989C56.4786 45.6869 56.6653 45.2655 57.0386 44.9349C57.412 44.5935 57.908 44.4229 58.5266 44.4229C59.1346 44.4229 59.6253 44.5935 59.9986 44.9349C60.372 45.2655 60.5586 45.6869 60.5586 46.1989C60.5586 46.7002 60.372 47.1162 59.9986 47.4468C59.6253 47.7775 59.1346 47.9429 58.5266 47.9429ZM60.2866 48.6628V57.6869H56.7346V48.6628H60.2866Z" fill="black" fill-opacity="0.6"/>
<path d="M52.8179 50.3269C53.1805 49.8042 53.6232 49.3882 54.1459 49.0789C54.6685 48.7589 55.2125 48.5989 55.7779 48.5989V52.3909H54.7699C54.0979 52.3909 53.6019 52.5082 53.2819 52.7429C52.9725 52.9775 52.8179 53.3935 52.8179 53.9909V57.6869H49.2659V48.6629H52.8179V50.3269Z" fill="black" fill-opacity="0.6"/>
<path d="M45.9016 47.9429C45.283 47.9429 44.787 47.7775 44.4136 47.4468C44.0403 47.1162 43.8536 46.7002 43.8536 46.1989C43.8536 45.6869 44.0403 45.2655 44.4136 44.9349C44.787 44.5935 45.283 44.4229 45.9016 44.4229C46.5096 44.4229 47.0003 44.5935 47.3736 44.9349C47.747 45.2655 47.9336 45.6869 47.9336 46.1989C47.9336 46.7002 47.747 47.1162 47.3736 47.4468C47.0003 47.7775 46.5096 47.9429 45.9016 47.9429ZM47.6616 48.6628V57.6869H44.1096V48.6628H47.6616Z" fill="black" fill-opacity="0.6"/>
<path d="M36.4826 48.5508C37.0693 48.5508 37.576 48.6734 38.0026 48.9188C38.4293 49.1534 38.7546 49.4788 38.9786 49.8948V48.6628H42.5146V57.5268C42.5146 58.3694 42.36 59.1375 42.0506 59.8308C41.7413 60.5241 41.24 61.0788 40.5466 61.4948C39.864 61.9108 38.984 62.1188 37.9066 62.1188C36.456 62.1188 35.304 61.7774 34.4506 61.0948C33.608 60.4228 33.128 59.5054 33.0106 58.3428H36.4986C36.5946 58.8121 36.9786 59.0468 37.6506 59.0468C38.0666 59.0468 38.392 58.9401 38.6266 58.7268C38.8613 58.5135 38.9786 58.1135 38.9786 57.5268V56.4548C38.7546 56.8708 38.4293 57.2014 38.0026 57.4468C37.576 57.6814 37.0693 57.7988 36.4826 57.7988C35.7786 57.7988 35.144 57.6175 34.5786 57.2548C34.0133 56.8815 33.5653 56.3481 33.2346 55.6548C32.9146 54.9508 32.7546 54.1241 32.7546 53.1748C32.7546 52.2254 32.9146 51.4041 33.2346 50.7108C33.5653 50.0068 34.0133 49.4734 34.5786 49.1108C35.144 48.7374 35.7786 48.5508 36.4826 48.5508ZM38.9786 53.1748C38.9786 52.6948 38.856 52.3214 38.6106 52.0548C38.3653 51.7881 38.0506 51.6548 37.6666 51.6548C37.2826 51.6548 36.968 51.7881 36.7226 52.0548C36.4773 52.3214 36.3546 52.6948 36.3546 53.1748C36.3546 53.6548 36.4773 54.0281 36.7226 54.2948C36.968 54.5615 37.2826 54.6948 37.6666 54.6948C38.0506 54.6948 38.3653 54.5615 38.6106 54.2948C38.856 54.0281 38.9786 53.6548 38.9786 53.1748Z" fill="black" fill-opacity="0.6"/>
<path d="M28.3984 48.5989C29.433 48.5989 30.2384 48.9455 30.8144 49.6389C31.401 50.3322 31.6944 51.2709 31.6944 52.4549V57.6869H28.1584V52.9029C28.1584 52.4762 28.041 52.1402 27.8064 51.8949C27.5824 51.6389 27.2784 51.5109 26.8944 51.5109C26.4997 51.5109 26.1904 51.6389 25.9664 51.8949C25.7424 52.1402 25.6304 52.4762 25.6304 52.9029V57.6869H22.0784V48.6629H25.6304V50.0389C25.9077 49.6122 26.2757 49.2655 26.7344 48.9989C27.2037 48.7322 27.7584 48.5989 28.3984 48.5989Z" fill="black" fill-opacity="0.6"/>
<path d="M20.955 53.0948C20.955 53.3401 20.939 53.5748 20.907 53.7988H15.195C15.2483 54.5774 15.5737 54.9668 16.171 54.9668C16.555 54.9668 16.8323 54.7908 17.003 54.4388H20.763C20.635 55.0788 20.363 55.6548 19.947 56.1668C19.5417 56.6681 19.0243 57.0681 18.395 57.3668C17.7763 57.6548 17.0937 57.7988 16.347 57.7988C15.451 57.7988 14.651 57.6121 13.947 57.2388C13.2537 56.8654 12.7097 56.3321 12.315 55.6388C11.931 54.9348 11.739 54.1134 11.739 53.1748C11.739 52.2361 11.931 51.4201 12.315 50.7268C12.7097 50.0228 13.2537 49.4841 13.947 49.1108C14.651 48.7374 15.451 48.5508 16.347 48.5508C17.243 48.5508 18.0377 48.7374 18.731 49.1108C19.435 49.4734 19.979 49.9961 20.363 50.6788C20.7577 51.3615 20.955 52.1668 20.955 53.0948ZM17.355 52.2468C17.355 51.9481 17.259 51.7241 17.067 51.5748C16.875 51.4148 16.635 51.3348 16.347 51.3348C15.7177 51.3348 15.3497 51.6388 15.243 52.2468H17.355Z" fill="black" fill-opacity="0.6"/>
<path d="M4.89599 49.8948C5.11999 49.4788 5.43999 49.1534 5.85599 48.9188C6.28266 48.6734 6.78933 48.5508 7.37599 48.5508C8.07999 48.5508 8.71466 48.7374 9.27999 49.1108C9.84533 49.4734 10.288 50.0068 10.608 50.7108C10.9387 51.4041 11.104 52.2254 11.104 53.1748C11.104 54.1241 10.9387 54.9508 10.608 55.6548C10.288 56.3481 9.84533 56.8815 9.27999 57.2548C8.71466 57.6175 8.07999 57.7988 7.37599 57.7988C6.78933 57.7988 6.28266 57.6814 5.85599 57.4468C5.43999 57.2014 5.11999 56.8708 4.89599 56.4548V62.0068H1.34399V48.6628H4.89599V49.8948ZM7.50399 53.1748C7.50399 52.6948 7.38133 52.3214 7.13599 52.0548C6.89066 51.7881 6.57599 51.6548 6.19199 51.6548C5.80799 51.6548 5.49333 51.7881 5.24799 52.0548C5.00266 52.3214 4.87999 52.6948 4.87999 53.1748C4.87999 53.6548 5.00266 54.0281 5.24799 54.2948C5.49333 54.5615 5.80799 54.6948 6.19199 54.6948C6.57599 54.6948 6.89066 54.5615 7.13599 54.2948C7.38133 54.0281 7.50399 53.6548 7.50399 53.1748Z" fill="black" fill-opacity="0.6"/>
<path d="M301.289 26.5989C302.324 26.5989 303.129 26.9455 303.705 27.6389C304.292 28.3322 304.585 29.2709 304.585 30.4549V35.6869H301.049V30.9029C301.049 30.4762 300.932 30.1402 300.697 29.8949C300.473 29.6389 300.169 29.5109 299.785 29.5109C299.39 29.5109 299.081 29.6389 298.857 29.8949C298.633 30.1402 298.521 30.4762 298.521 30.9029V35.6869H294.969V26.6629H298.521V28.0389C298.798 27.6122 299.166 27.2655 299.625 26.9989C300.094 26.7322 300.649 26.5989 301.289 26.5989Z" fill="black" fill-opacity="0.6"/>
<path d="M283.614 31.1748C283.614 30.2254 283.774 29.4041 284.094 28.7108C284.425 28.0068 284.873 27.4734 285.438 27.1108C286.003 26.7374 286.638 26.5508 287.342 26.5508C287.929 26.5508 288.435 26.6734 288.862 26.9188C289.289 27.1534 289.614 27.4788 289.838 27.8948V26.6628H293.374V35.6868H289.838V34.4548C289.614 34.8708 289.289 35.2014 288.862 35.4468C288.435 35.6814 287.929 35.7988 287.342 35.7988C286.638 35.7988 286.003 35.6175 285.438 35.2548C284.873 34.8815 284.425 34.3481 284.094 33.6548C283.774 32.9508 283.614 32.1241 283.614 31.1748ZM289.838 31.1748C289.838 30.6948 289.715 30.3214 289.47 30.0548C289.225 29.7881 288.91 29.6548 288.526 29.6548C288.142 29.6548 287.827 29.7881 287.582 30.0548C287.337 30.3214 287.214 30.6948 287.214 31.1748C287.214 31.6548 287.337 32.0281 287.582 32.2948C287.827 32.5615 288.142 32.6948 288.526 32.6948C288.91 32.6948 289.225 32.5615 289.47 32.2948C289.715 32.0281 289.838 31.6548 289.838 31.1748Z" fill="black" fill-opacity="0.6"/>
<path d="M279.057 35.6869L276.833 32.0869V35.6869H273.281V23.8469H276.833V30.0389L279.09 26.6629H283.217L279.841 31.2069L283.298 35.6869H279.057Z" fill="black" fill-opacity="0.6"/>
<path d="M268.445 26.5989C269.48 26.5989 270.285 26.9456 270.861 27.6389C271.448 28.3323 271.741 29.2709 271.741 30.4549V35.6869H268.205V30.9029C268.205 30.4763 268.088 30.1403 267.853 29.8949C267.629 29.6389 267.325 29.5109 266.941 29.5109C266.547 29.5109 266.237 29.6389 266.013 29.8949C265.789 30.1403 265.677 30.4763 265.677 30.9029V35.6869H262.125V23.8469H265.677V28.0389C265.955 27.6123 266.323 27.2656 266.781 26.9989C267.251 26.7323 267.805 26.5989 268.445 26.5989Z" fill="black" fill-opacity="0.6"/>
<path d="M250.77 31.1748C250.77 30.2254 250.93 29.4041 251.25 28.7108C251.581 28.0068 252.029 27.4734 252.594 27.1108C253.16 26.7374 253.794 26.5508 254.498 26.5508C255.085 26.5508 255.592 26.6734 256.018 26.9188C256.445 27.1534 256.77 27.4788 256.994 27.8948V26.6628H260.53V35.6868H256.994V34.4548C256.77 34.8708 256.445 35.2014 256.018 35.4468C255.592 35.6814 255.085 35.7988 254.498 35.7988C253.794 35.7988 253.16 35.6175 252.594 35.2548C252.029 34.8815 251.581 34.3481 251.25 33.6548C250.93 32.9508 250.77 32.1241 250.77 31.1748ZM256.994 31.1748C256.994 30.6948 256.872 30.3214 256.626 30.0548C256.381 29.7881 256.066 29.6548 255.682 29.6548C255.298 29.6548 254.984 29.7881 254.738 30.0548C254.493 30.3214 254.37 30.6948 254.37 31.1748C254.37 31.6548 254.493 32.0281 254.738 32.2948C254.984 32.5615 255.298 32.6948 255.682 32.6948C256.066 32.6948 256.381 32.5615 256.626 32.2948C256.872 32.0281 256.994 31.6548 256.994 31.1748Z" fill="black" fill-opacity="0.6"/>
<path d="M239.895 31.1749C239.895 30.2256 240.055 29.4043 240.375 28.7109C240.706 28.0069 241.154 27.4736 241.719 27.1109C242.285 26.7376 242.919 26.5509 243.623 26.5509C244.21 26.5509 244.711 26.6736 245.127 26.9189C245.554 27.1536 245.879 27.4789 246.103 27.8949V23.8469H249.655V35.6869H246.103V34.4549C245.879 34.8709 245.554 35.2016 245.127 35.4469C244.711 35.6816 244.21 35.7989 243.623 35.7989C242.919 35.7989 242.285 35.6176 241.719 35.2549C241.154 34.8816 240.706 34.3483 240.375 33.6549C240.055 32.9509 239.895 32.1243 239.895 31.1749ZM246.119 31.1749C246.119 30.6949 245.997 30.3216 245.751 30.0549C245.506 29.7883 245.191 29.6549 244.807 29.6549C244.423 29.6549 244.109 29.7883 243.863 30.0549C243.618 30.3216 243.495 30.6949 243.495 31.1749C243.495 31.6549 243.618 32.0283 243.863 32.2949C244.109 32.5616 244.423 32.6949 244.807 32.6949C245.191 32.6949 245.506 32.5616 245.751 32.2949C245.997 32.0283 246.119 31.6549 246.119 31.1749Z" fill="black" fill-opacity="0.6"/>
<path d="M238.771 26.6628V35.6868H235.219V34.3108C234.942 34.7375 234.568 35.0842 234.099 35.3508C233.64 35.6175 233.091 35.7508 232.451 35.7508C231.416 35.7508 230.606 35.4042 230.019 34.7108C229.443 34.0175 229.155 33.0788 229.155 31.8948V26.6628H232.691V31.4468C232.691 31.8735 232.803 32.2148 233.027 32.4708C233.262 32.7162 233.571 32.8388 233.955 32.8388C234.35 32.8388 234.659 32.7162 234.883 32.4708C235.107 32.2148 235.219 31.8735 235.219 31.4468V26.6628H238.771Z" fill="black" fill-opacity="0.6"/>
<path d="M224.048 26.5989C225.2 26.5989 226.091 26.9455 226.72 27.6389C227.36 28.3322 227.68 29.2709 227.68 30.4549V35.6869H224.144V30.9029C224.144 30.5189 224.027 30.2202 223.792 30.0069C223.568 29.7829 223.264 29.6709 222.88 29.6709C222.486 29.6709 222.176 29.7829 221.952 30.0069C221.728 30.2202 221.616 30.5189 221.616 30.9029V35.6869H218.08V30.9029C218.08 30.5189 217.963 30.2202 217.728 30.0069C217.504 29.7829 217.2 29.6709 216.816 29.6709C216.422 29.6709 216.112 29.7829 215.888 30.0069C215.664 30.2202 215.552 30.5189 215.552 30.9029V35.6869H212V26.6629H215.552V27.8789C215.808 27.4949 216.155 27.1855 216.592 26.9509C217.04 26.7162 217.563 26.5989 218.16 26.5989C218.811 26.5989 219.387 26.7429 219.888 27.0309C220.39 27.3082 220.79 27.7029 221.088 28.2149C221.419 27.7455 221.84 27.3615 222.352 27.0629C222.864 26.7535 223.43 26.5989 224.048 26.5989Z" fill="black" fill-opacity="0.6"/>
<path d="M210.877 31.0948C210.877 31.3401 210.861 31.5748 210.829 31.7988H205.117C205.17 32.5774 205.496 32.9668 206.093 32.9668C206.477 32.9668 206.754 32.7908 206.925 32.4388H210.685C210.557 33.0788 210.285 33.6548 209.869 34.1668C209.464 34.6681 208.946 35.0681 208.317 35.3668C207.698 35.6548 207.016 35.7988 206.269 35.7988C205.373 35.7988 204.573 35.6121 203.869 35.2388C203.176 34.8654 202.632 34.3321 202.237 33.6388C201.853 32.9348 201.661 32.1134 201.661 31.1748C201.661 30.2361 201.853 29.4201 202.237 28.7268C202.632 28.0228 203.176 27.4841 203.869 27.1108C204.573 26.7374 205.373 26.5508 206.269 26.5508C207.165 26.5508 207.96 26.7374 208.653 27.1108C209.357 27.4734 209.901 27.9961 210.285 28.6788C210.68 29.3615 210.877 30.1668 210.877 31.0948ZM207.277 30.2468C207.277 29.9481 207.181 29.7241 206.989 29.5748C206.797 29.4148 206.557 29.3348 206.269 29.3348C205.64 29.3348 205.272 29.6388 205.165 30.2468H207.277Z" fill="black" fill-opacity="0.6"/>
<path d="M196.97 26.5989C198.122 26.5989 199.013 26.9455 199.642 27.6389C200.282 28.3322 200.602 29.2709 200.602 30.4549V35.6869H197.066V30.9029C197.066 30.5189 196.949 30.2202 196.714 30.0069C196.49 29.7829 196.186 29.6709 195.802 29.6709C195.407 29.6709 195.098 29.7829 194.874 30.0069C194.65 30.2202 194.538 30.5189 194.538 30.9029V35.6869H191.002V30.9029C191.002 30.5189 190.885 30.2202 190.65 30.0069C190.426 29.7829 190.122 29.6709 189.738 29.6709C189.343 29.6709 189.034 29.7829 188.81 30.0069C188.586 30.2202 188.474 30.5189 188.474 30.9029V35.6869H184.922V26.6629H188.474V27.8789C188.73 27.4949 189.077 27.1855 189.514 26.9509C189.962 26.7162 190.485 26.5989 191.082 26.5989C191.733 26.5989 192.309 26.7429 192.81 27.0309C193.311 27.3082 193.711 27.7029 194.01 28.2149C194.341 27.7455 194.762 27.3615 195.274 27.0629C195.786 26.7535 196.351 26.5989 196.97 26.5989Z" fill="black" fill-opacity="0.6"/>
<path d="M170.848 31.1748C170.848 30.2254 171.008 29.4041 171.328 28.7108C171.659 28.0068 172.107 27.4734 172.672 27.1108C173.238 26.7374 173.872 26.5508 174.576 26.5508C175.163 26.5508 175.67 26.6734 176.096 26.9188C176.523 27.1534 176.848 27.4788 177.072 27.8948V26.6628H180.608V35.6868H177.072V34.4548C176.848 34.8708 176.523 35.2014 176.096 35.4468C175.67 35.6814 175.163 35.7988 174.576 35.7988C173.872 35.7988 173.238 35.6175 172.672 35.2548C172.107 34.8815 171.659 34.3481 171.328 33.6548C171.008 32.9508 170.848 32.1241 170.848 31.1748ZM177.072 31.1748C177.072 30.6948 176.95 30.3214 176.704 30.0548C176.459 29.7881 176.144 29.6548 175.76 29.6548C175.376 29.6548 175.062 29.7881 174.816 30.0548C174.571 30.3214 174.448 30.6948 174.448 31.1748C174.448 31.6548 174.571 32.0281 174.816 32.2948C175.062 32.5615 175.376 32.6948 175.76 32.6948C176.144 32.6948 176.459 32.5615 176.704 32.2948C176.95 32.0281 177.072 31.6548 177.072 31.1748Z" fill="black" fill-opacity="0.6"/>
<path d="M163.701 26.5508C164.288 26.5508 164.795 26.6734 165.221 26.9188C165.648 27.1534 165.973 27.4788 166.197 27.8948V26.6628H169.733V35.5268C169.733 36.3694 169.579 37.1375 169.269 37.8308C168.96 38.5241 168.459 39.0788 167.765 39.4948C167.083 39.9108 166.203 40.1188 165.125 40.1188C163.675 40.1188 162.523 39.7775 161.669 39.0948C160.827 38.4228 160.347 37.5054 160.229 36.3428H163.717C163.813 36.8121 164.197 37.0468 164.869 37.0468C165.285 37.0468 165.611 36.9401 165.845 36.7268C166.08 36.5135 166.197 36.1135 166.197 35.5268V34.4548C165.973 34.8708 165.648 35.2014 165.221 35.4468C164.795 35.6814 164.288 35.7988 163.701 35.7988C162.997 35.7988 162.363 35.6175 161.797 35.2548C161.232 34.8815 160.784 34.3481 160.453 33.6548C160.133 32.9508 159.973 32.1241 159.973 31.1748C159.973 30.2254 160.133 29.4041 160.453 28.7108C160.784 28.0068 161.232 27.4734 161.797 27.1108C162.363 26.7374 162.997 26.5508 163.701 26.5508ZM166.197 31.1748C166.197 30.6948 166.075 30.3214 165.829 30.0548C165.584 29.7881 165.269 29.6548 164.885 29.6548C164.501 29.6548 164.187 29.7881 163.941 30.0548C163.696 30.3214 163.573 30.6948 163.573 31.1748C163.573 31.6548 163.696 32.0281 163.941 32.2948C164.187 32.5615 164.501 32.6948 164.885 32.6948C165.269 32.6948 165.584 32.5615 165.829 32.2948C166.075 32.0281 166.197 31.6548 166.197 31.1748Z" fill="black" fill-opacity="0.6"/>
<path d="M152.826 26.5508C153.413 26.5508 153.92 26.6734 154.346 26.9188C154.773 27.1534 155.098 27.4788 155.322 27.8948V26.6628H158.858V35.5268C158.858 36.3694 158.704 37.1375 158.394 37.8308C158.085 38.5241 157.584 39.0788 156.89 39.4948C156.208 39.9108 155.328 40.1188 154.25 40.1188C152.8 40.1188 151.648 39.7775 150.794 39.0948C149.952 38.4228 149.472 37.5054 149.354 36.3428H152.842C152.938 36.8121 153.322 37.0468 153.994 37.0468C154.41 37.0468 154.736 36.9401 154.97 36.7268C155.205 36.5135 155.322 36.1135 155.322 35.5268V34.4548C155.098 34.8708 154.773 35.2014 154.346 35.4468C153.92 35.6814 153.413 35.7988 152.826 35.7988C152.122 35.7988 151.488 35.6175 150.922 35.2548C150.357 34.8815 149.909 34.3481 149.578 33.6548C149.258 32.9508 149.098 32.1241 149.098 31.1748C149.098 30.2254 149.258 29.4041 149.578 28.7108C149.909 28.0068 150.357 27.4734 150.922 27.1108C151.488 26.7374 152.122 26.5508 152.826 26.5508ZM155.322 31.1748C155.322 30.6948 155.2 30.3214 154.954 30.0548C154.709 29.7881 154.394 29.6548 154.01 29.6548C153.626 29.6548 153.312 29.7881 153.066 30.0548C152.821 30.3214 152.698 30.6948 152.698 31.1748C152.698 31.6548 152.821 32.0281 153.066 32.2948C153.312 32.5615 153.626 32.6948 154.01 32.6948C154.394 32.6948 154.709 32.5615 154.954 32.2948C155.2 32.0281 155.322 31.6548 155.322 31.1748Z" fill="black" fill-opacity="0.6"/>
<path d="M144.742 26.5989C145.777 26.5989 146.582 26.9455 147.158 27.6389C147.745 28.3322 148.038 29.2709 148.038 30.4549V35.6869H144.502V30.9029C144.502 30.4762 144.385 30.1402 144.15 29.8949C143.926 29.6389 143.622 29.5109 143.238 29.5109C142.843 29.5109 142.534 29.6389 142.31 29.8949C142.086 30.1402 141.974 30.4762 141.974 30.9029V35.6869H138.422V26.6629H141.974V28.0389C142.251 27.6122 142.619 27.2655 143.078 26.9989C143.547 26.7322 144.102 26.5989 144.742 26.5989Z" fill="black" fill-opacity="0.6"/>
<path d="M135.058 25.9429C134.439 25.9429 133.943 25.7775 133.57 25.4468C133.197 25.1162 133.01 24.7002 133.01 24.1989C133.01 23.6869 133.197 23.2655 133.57 22.9349C133.943 22.5935 134.439 22.4229 135.058 22.4229C135.666 22.4229 136.157 22.5935 136.53 22.9349C136.903 23.2655 137.09 23.6869 137.09 24.1989C137.09 24.7002 136.903 25.1162 136.53 25.4468C136.157 25.7775 135.666 25.9429 135.058 25.9429ZM136.818 26.6629V35.6869H133.266V26.6629H136.818Z" fill="black" fill-opacity="0.6"/>
<path d="M128.43 26.5989C129.464 26.5989 130.27 26.9456 130.846 27.6389C131.432 28.3323 131.726 29.2709 131.726 30.4549V35.6869H128.19V30.9029C128.19 30.4763 128.072 30.1403 127.838 29.8949C127.614 29.6389 127.31 29.5109 126.926 29.5109C126.531 29.5109 126.222 29.6389 125.998 29.8949C125.774 30.1403 125.662 30.4763 125.662 30.9029V35.6869H122.11V23.8469H125.662V28.0389C125.939 27.6123 126.307 27.2656 126.766 26.9989C127.235 26.7323 127.79 26.5989 128.43 26.5989Z" fill="black" fill-opacity="0.6"/>
<path d="M120.986 31.0948C120.986 31.3401 120.97 31.5748 120.938 31.7988H115.226C115.28 32.5774 115.605 32.9668 116.202 32.9668C116.586 32.9668 116.864 32.7908 117.034 32.4388H120.794C120.666 33.0788 120.394 33.6548 119.978 34.1668C119.573 34.6681 119.056 35.0681 118.426 35.3668C117.808 35.6548 117.125 35.7988 116.378 35.7988C115.482 35.7988 114.682 35.6121 113.978 35.2388C113.285 34.8654 112.741 34.3321 112.346 33.6388C111.962 32.9348 111.77 32.1134 111.77 31.1748C111.77 30.2361 111.962 29.4201 112.346 28.7268C112.741 28.0228 113.285 27.4841 113.978 27.1108C114.682 26.7374 115.482 26.5508 116.378 26.5508C117.274 26.5508 118.069 26.7374 118.762 27.1108C119.466 27.4734 120.01 27.9961 120.394 28.6788C120.789 29.3615 120.986 30.1668 120.986 31.0948ZM117.386 30.2468C117.386 29.9481 117.29 29.7241 117.098 29.5748C116.906 29.4148 116.666 29.3348 116.378 29.3348C115.749 29.3348 115.381 29.6388 115.274 30.2468H117.386Z" fill="black" fill-opacity="0.6"/>
<path d="M107.001 35.7988C106.147 35.7988 105.39 35.6601 104.729 35.3828C104.078 35.1054 103.561 34.7214 103.177 34.2308C102.793 33.7401 102.574 33.1855 102.521 32.5668H105.929C105.971 32.8335 106.083 33.0308 106.265 33.1588C106.457 33.2868 106.697 33.3508 106.985 33.3508C107.166 33.3508 107.31 33.3134 107.417 33.2388C107.523 33.1534 107.577 33.0521 107.577 32.9348C107.577 32.7321 107.465 32.5881 107.241 32.5028C107.017 32.4174 106.638 32.3214 106.105 32.2148C105.454 32.0868 104.915 31.9481 104.489 31.7988C104.073 31.6494 103.705 31.3935 103.385 31.0308C103.075 30.6681 102.921 30.1668 102.921 29.5268C102.921 28.9721 103.065 28.4708 103.353 28.0228C103.651 27.5641 104.089 27.2068 104.665 26.9508C105.241 26.6841 105.939 26.5508 106.761 26.5508C107.977 26.5508 108.926 26.8494 109.609 27.4468C110.302 28.0441 110.718 28.8228 110.857 29.7828H107.705C107.651 29.5375 107.539 29.3508 107.369 29.2228C107.198 29.0841 106.969 29.0148 106.681 29.0148C106.499 29.0148 106.361 29.0521 106.265 29.1268C106.169 29.1908 106.121 29.2921 106.121 29.4308C106.121 29.6121 106.233 29.7508 106.457 29.8468C106.681 29.9321 107.038 30.0228 107.529 30.1188C108.179 30.2468 108.729 30.3908 109.177 30.5508C109.625 30.7108 110.014 30.9881 110.345 31.3828C110.675 31.7668 110.841 32.3001 110.841 32.9828C110.841 33.5161 110.686 33.9961 110.377 34.4228C110.067 34.8494 109.619 35.1854 109.033 35.4308C108.457 35.6761 107.779 35.7988 107.001 35.7988Z" fill="black" fill-opacity="0.6"/>
<path d="M98.6051 32.8547L96.9571 37.6067H94.7171L95.4691 32.8547H98.6051Z" fill="black" fill-opacity="0.6"/>
<path d="M89.9609 26.5989C90.9955 26.5989 91.8009 26.9455 92.3769 27.6389C92.9635 28.3322 93.2569 29.2709 93.2569 30.4549V35.6869H89.7209V30.9029C89.7209 30.4762 89.6035 30.1402 89.3689 29.8949C89.1449 29.6389 88.8409 29.5109 88.4569 29.5109C88.0622 29.5109 87.7529 29.6389 87.5289 29.8949C87.3049 30.1402 87.1929 30.4762 87.1929 30.9029V35.6869H83.6409V26.6629H87.1929V28.0389C87.4702 27.6122 87.8382 27.2655 88.2969 26.9989C88.7662 26.7322 89.3209 26.5989 89.9609 26.5989Z" fill="black" fill-opacity="0.6"/>
<path d="M82.5175 31.0948C82.5175 31.3401 82.5015 31.5748 82.4695 31.7988H76.7575C76.8108 32.5774 77.1362 32.9668 77.7335 32.9668C78.1175 32.9668 78.3948 32.7908 78.5655 32.4388H82.3255C82.1975 33.0788 81.9255 33.6548 81.5095 34.1668C81.1042 34.6681 80.5868 35.0681 79.9575 35.3668C79.3388 35.6548 78.6562 35.7988 77.9095 35.7988C77.0135 35.7988 76.2135 35.6121 75.5095 35.2388C74.8162 34.8654 74.2722 34.3321 73.8775 33.6388C73.4935 32.9348 73.3015 32.1134 73.3015 31.1748C73.3015 30.2361 73.4935 29.4201 73.8775 28.7268C74.2722 28.0228 74.8162 27.4841 75.5095 27.1108C76.2135 26.7374 77.0135 26.5508 77.9095 26.5508C78.8055 26.5508 79.6002 26.7374 80.2935 27.1108C80.9975 27.4734 81.5415 27.9961 81.9255 28.6788C82.3202 29.3615 82.5175 30.1668 82.5175 31.0948ZM78.9175 30.2468C78.9175 29.9481 78.8215 29.7241 78.6295 29.5748C78.4375 29.4148 78.1975 29.3348 77.9095 29.3348C77.2802 29.3348 76.9122 29.6388 76.8055 30.2468H78.9175Z" fill="black" fill-opacity="0.6"/>
<path d="M72.4287 32.6628V35.6868H71.0847C68.6101 35.6868 67.3727 34.4548 67.3727 31.9908V29.6228H66.2527V26.6628H67.3727V24.4868H70.9248V26.6628H72.3968V29.6228H70.9248V32.0548C70.9248 32.2682 70.9727 32.4228 71.0687 32.5188C71.1754 32.6148 71.3461 32.6628 71.5807 32.6628H72.4287Z" fill="black" fill-opacity="0.6"/>
<path d="M55.4577 31.1748C55.4577 30.2254 55.6177 29.4041 55.9377 28.7108C56.2684 28.0068 56.7164 27.4734 57.2817 27.1108C57.8471 26.7374 58.4817 26.5508 59.1857 26.5508C59.7724 26.5508 60.2791 26.6734 60.7057 26.9188C61.1324 27.1534 61.4577 27.4788 61.6817 27.8948V26.6628H65.2178V35.6868H61.6817V34.4548C61.4577 34.8708 61.1324 35.2014 60.7057 35.4468C60.2791 35.6814 59.7724 35.7988 59.1857 35.7988C58.4817 35.7988 57.8471 35.6175 57.2817 35.2548C56.7164 34.8815 56.2684 34.3481 55.9377 33.6548C55.6177 32.9508 55.4577 32.1241 55.4577 31.1748ZM61.6817 31.1748C61.6817 30.6948 61.5591 30.3214 61.3137 30.0548C61.0684 29.7881 60.7538 29.6548 60.3698 29.6548C59.9858 29.6548 59.6711 29.7881 59.4258 30.0548C59.1804 30.3214 59.0577 30.6948 59.0577 31.1748C59.0577 31.6548 59.1804 32.0281 59.4258 32.2948C59.6711 32.5615 59.9858 32.6948 60.3698 32.6948C60.7538 32.6948 61.0684 32.5615 61.3137 32.2948C61.5591 32.0281 61.6817 31.6548 61.6817 31.1748Z" fill="black" fill-opacity="0.6"/>
<path d="M48.6147 27.8948C48.8387 27.4788 49.1587 27.1534 49.5747 26.9188C50.0014 26.6734 50.5081 26.5508 51.0947 26.5508C51.7987 26.5508 52.4334 26.7374 52.9987 27.1108C53.5641 27.4734 54.0067 28.0068 54.3267 28.7108C54.6574 29.4041 54.8227 30.2254 54.8227 31.1748C54.8227 32.1241 54.6574 32.9508 54.3267 33.6548C54.0067 34.3481 53.5641 34.8815 52.9987 35.2548C52.4334 35.6175 51.7987 35.7988 51.0947 35.7988C50.5081 35.7988 50.0014 35.6814 49.5747 35.4468C49.1587 35.2014 48.8387 34.8708 48.6147 34.4548V40.0068H45.0627V26.6628H48.6147V27.8948ZM51.2227 31.1748C51.2227 30.6948 51.1001 30.3214 50.8547 30.0548C50.6094 29.7881 50.2947 29.6548 49.9107 29.6548C49.5267 29.6548 49.2121 29.7881 48.9667 30.0548C48.7214 30.3214 48.5987 30.6948 48.5987 31.1748C48.5987 31.6548 48.7214 32.0281 48.9667 32.2948C49.2121 32.5615 49.5267 32.6948 49.9107 32.6948C50.2947 32.6948 50.6094 32.5615 50.8547 32.2948C51.1001 32.0281 51.2227 31.6548 51.2227 31.1748Z" fill="black" fill-opacity="0.6"/>
<path d="M43.4585 26.6628V35.6868H39.9065V34.3108C39.6292 34.7375 39.2558 35.0842 38.7865 35.3508C38.3278 35.6175 37.7785 35.7508 37.1385 35.7508C36.1038 35.7508 35.2932 35.4042 34.7065 34.7108C34.1305 34.0175 33.8425 33.0788 33.8425 31.8948V26.6628H37.3785V31.4468C37.3785 31.8735 37.4905 32.2148 37.7145 32.4708C37.9492 32.7162 38.2585 32.8388 38.6425 32.8388C39.0372 32.8388 39.3465 32.7162 39.5705 32.4708C39.7945 32.2148 39.9065 31.8735 39.9065 31.4468V26.6628H43.4585Z" fill="black" fill-opacity="0.6"/>
<path d="M26.5835 27.8949C26.8075 27.4789 27.1275 27.1536 27.5435 26.9189C27.9702 26.6736 28.4768 26.5509 29.0635 26.5509C29.7675 26.5509 30.4022 26.7376 30.9675 27.1109C31.5328 27.4736 31.9755 28.0069 32.2955 28.7109C32.6262 29.4043 32.7915 30.2256 32.7915 31.1749C32.7915 32.1243 32.6262 32.9509 32.2955 33.6549C31.9755 34.3483 31.5328 34.8816 30.9675 35.2549C30.4022 35.6176 29.7675 35.7989 29.0635 35.7989C28.4768 35.7989 27.9702 35.6816 27.5435 35.4469C27.1275 35.2016 26.8075 34.8709 26.5835 34.4549V35.6869H23.0315V23.8469H26.5835V27.8949ZM29.1915 31.1749C29.1915 30.6949 29.0688 30.3216 28.8235 30.0549C28.5782 29.7883 28.2635 29.6549 27.8795 29.6549C27.4955 29.6549 27.1808 29.7883 26.9355 30.0549C26.6902 30.3216 26.5675 30.6949 26.5675 31.1749C26.5675 31.6549 26.6902 32.0283 26.9355 32.2949C27.1808 32.5616 27.4955 32.6949 27.8795 32.6949C28.2635 32.6949 28.5782 32.5616 28.8235 32.2949C29.0688 32.0283 29.1915 31.6549 29.1915 31.1749Z" fill="black" fill-opacity="0.6"/>
<path d="M11.6765 31.1748C11.6765 30.2254 11.8365 29.4041 12.1565 28.7108C12.4872 28.0068 12.9352 27.4734 13.5005 27.1108C14.0658 26.7374 14.7005 26.5508 15.4045 26.5508C15.9912 26.5508 16.4978 26.6734 16.9245 26.9188C17.3512 27.1534 17.6765 27.4788 17.9005 27.8948V26.6628H21.4365V35.6868H17.9005V34.4548C17.6765 34.8708 17.3512 35.2014 16.9245 35.4468C16.4978 35.6814 15.9912 35.7988 15.4045 35.7988C14.7005 35.7988 14.0658 35.6175 13.5005 35.2548C12.9352 34.8815 12.4872 34.3481 12.1565 33.6548C11.8365 32.9508 11.6765 32.1241 11.6765 31.1748ZM17.9005 31.1748C17.9005 30.6948 17.7778 30.3214 17.5325 30.0548C17.2872 29.7881 16.9725 29.6548 16.5885 29.6548C16.2045 29.6548 15.8898 29.7881 15.6445 30.0548C15.3992 30.3214 15.2765 30.6948 15.2765 31.1748C15.2765 31.6548 15.3992 32.0281 15.6445 32.2948C15.8898 32.5615 16.2045 32.6948 16.5885 32.6948C16.9725 32.6948 17.2872 32.5615 17.5325 32.2948C17.7778 32.0281 17.9005 31.6548 17.9005 31.1748Z" fill="black" fill-opacity="0.6"/>
<path d="M7.11999 35.6869L4.89599 32.0869V35.6869H1.34399V23.8469H4.89599V30.0389L7.15199 26.6629H11.28L7.90399 31.2069L11.36 35.6869H7.11999Z" fill="black" fill-opacity="0.6"/>
<path d="M325.902 3.94285C325.283 3.94285 324.787 3.77752 324.414 3.44685C324.04 3.11619 323.854 2.70019 323.854 2.19885C323.854 1.68685 324.04 1.26552 324.414 0.934852C324.787 0.593518 325.283 0.422852 325.902 0.422852C326.51 0.422852 327 0.593518 327.374 0.934852C327.747 1.26552 327.934 1.68685 327.934 2.19885C327.934 2.70019 327.747 3.11619 327.374 3.44685C327 3.77752 326.51 3.94285 325.902 3.94285ZM327.662 4.66285V13.6869H324.11V4.66285H327.662Z" fill="black" fill-opacity="0.6"/>
<path d="M312.755 9.17478C312.755 8.22545 312.915 7.40412 313.235 6.71078C313.565 6.00678 314.013 5.47345 314.579 5.11078C315.144 4.73745 315.779 4.55078 316.483 4.55078C317.069 4.55078 317.576 4.67345 318.003 4.91878C318.429 5.15345 318.755 5.47878 318.979 5.89478V4.66278H322.515V13.6868H318.979V12.4548C318.755 12.8708 318.429 13.2014 318.003 13.4468C317.576 13.6814 317.069 13.7988 316.483 13.7988C315.779 13.7988 315.144 13.6174 314.579 13.2548C314.013 12.8814 313.565 12.3481 313.235 11.6548C312.915 10.9508 312.755 10.1241 312.755 9.17478ZM318.979 9.17478C318.979 8.69478 318.856 8.32145 318.611 8.05478C318.365 7.78812 318.051 7.65478 317.667 7.65478C317.283 7.65478 316.968 7.78812 316.723 8.05478C316.477 8.32145 316.355 8.69478 316.355 9.17478C316.355 9.65478 316.477 10.0281 316.723 10.2948C316.968 10.5614 317.283 10.6948 317.667 10.6948C318.051 10.6948 318.365 10.5614 318.611 10.2948C318.856 10.0281 318.979 9.65478 318.979 9.17478Z" fill="black" fill-opacity="0.6"/>
<path d="M305.608 4.55078C306.194 4.55078 306.701 4.67345 307.128 4.91878C307.554 5.15345 307.88 5.47878 308.104 5.89478V4.66278H311.64V13.5268C311.64 14.3694 311.485 15.1374 311.176 15.8308C310.866 16.5241 310.365 17.0788 309.672 17.4948C308.989 17.9108 308.109 18.1188 307.032 18.1188C305.581 18.1188 304.429 17.7774 303.576 17.0948C302.733 16.4228 302.253 15.5054 302.136 14.3428H305.624C305.72 14.8121 306.104 15.0468 306.776 15.0468C307.192 15.0468 307.517 14.9401 307.752 14.7268C307.986 14.5134 308.104 14.1134 308.104 13.5268V12.4548C307.88 12.8708 307.554 13.2014 307.128 13.4468C306.701 13.6814 306.194 13.7988 305.608 13.7988C304.904 13.7988 304.269 13.6174 303.704 13.2548C303.138 12.8814 302.69 12.3481 302.36 11.6548C302.04 10.9508 301.88 10.1241 301.88 9.17478C301.88 8.22545 302.04 7.40412 302.36 6.71078C302.69 6.00678 303.138 5.47345 303.704 5.11078C304.269 4.73745 304.904 4.55078 305.608 4.55078ZM308.104 9.17478C308.104 8.69478 307.981 8.32145 307.736 8.05478C307.49 7.78812 307.176 7.65478 306.792 7.65478C306.408 7.65478 306.093 7.78812 305.848 8.05478C305.602 8.32145 305.48 8.69478 305.48 9.17478C305.48 9.65478 305.602 10.0281 305.848 10.2948C306.093 10.5614 306.408 10.6948 306.792 10.6948C307.176 10.6948 307.49 10.5614 307.736 10.2948C307.981 10.0281 308.104 9.65478 308.104 9.17478Z" fill="black" fill-opacity="0.6"/>
<path d="M291.005 9.17478C291.005 8.22545 291.165 7.40412 291.485 6.71078C291.815 6.00678 292.263 5.47345 292.829 5.11078C293.394 4.73745 294.029 4.55078 294.733 4.55078C295.319 4.55078 295.826 4.67345 296.253 4.91878C296.679 5.15345 297.005 5.47878 297.229 5.89478V4.66278H300.765V13.6868H297.229V12.4548C297.005 12.8708 296.679 13.2014 296.253 13.4468C295.826 13.6814 295.319 13.7988 294.733 13.7988C294.029 13.7988 293.394 13.6174 292.829 13.2548C292.263 12.8814 291.815 12.3481 291.485 11.6548C291.165 10.9508 291.005 10.1241 291.005 9.17478ZM297.229 9.17478C297.229 8.69478 297.106 8.32145 296.861 8.05478C296.615 7.78812 296.301 7.65478 295.917 7.65478C295.533 7.65478 295.218 7.78812 294.973 8.05478C294.727 8.32145 294.605 8.69478 294.605 9.17478C294.605 9.65478 294.727 10.0281 294.973 10.2948C295.218 10.5614 295.533 10.6948 295.917 10.6948C296.301 10.6948 296.615 10.5614 296.861 10.2948C297.106 10.0281 297.229 9.65478 297.229 9.17478Z" fill="black" fill-opacity="0.6"/>
<path d="M284.162 5.89492C284.386 5.47892 284.706 5.15359 285.122 4.91892C285.548 4.67359 286.055 4.55092 286.642 4.55092C287.346 4.55092 287.98 4.73759 288.546 5.11092C289.111 5.47359 289.554 6.00692 289.874 6.71092C290.204 7.40426 290.37 8.22559 290.37 9.17492C290.37 10.1243 290.204 10.9509 289.874 11.6549C289.554 12.3483 289.111 12.8816 288.546 13.2549C287.98 13.6176 287.346 13.7989 286.642 13.7989C286.055 13.7989 285.548 13.6816 285.122 13.4469C284.706 13.2016 284.386 12.8709 284.162 12.4549V13.6869H280.61V1.84692H284.162V5.89492ZM286.77 9.17492C286.77 8.69492 286.647 8.32159 286.402 8.05492C286.156 7.78826 285.842 7.65492 285.458 7.65492C285.074 7.65492 284.759 7.78826 284.514 8.05492C284.268 8.32159 284.146 8.69492 284.146 9.17492C284.146 9.65492 284.268 10.0283 284.514 10.2949C284.759 10.5616 285.074 10.6949 285.458 10.6949C285.842 10.6949 286.156 10.5616 286.402 10.2949C286.647 10.0283 286.77 9.65492 286.77 9.17492Z" fill="black" fill-opacity="0.6"/>
<path d="M276.693 6.32688C277.056 5.80421 277.498 5.38821 278.021 5.07888C278.544 4.75888 279.088 4.59888 279.653 4.59888V8.39088H278.645C277.973 8.39088 277.477 8.50821 277.157 8.74288C276.848 8.97754 276.693 9.39354 276.693 9.99088V13.6869H273.141V4.66288H276.693V6.32688Z" fill="black" fill-opacity="0.6"/>
<path d="M272.018 9.09478C272.018 9.34012 272.002 9.57478 271.97 9.79878H266.258C266.311 10.5774 266.636 10.9668 267.234 10.9668C267.618 10.9668 267.895 10.7908 268.066 10.4388H271.826C271.698 11.0788 271.426 11.6548 271.01 12.1668C270.604 12.6681 270.087 13.0681 269.458 13.3668C268.839 13.6548 268.156 13.7988 267.41 13.7988C266.514 13.7988 265.714 13.6121 265.01 13.2388C264.316 12.8654 263.772 12.3321 263.378 11.6388C262.994 10.9348 262.802 10.1134 262.802 9.17478C262.802 8.23612 262.994 7.42011 263.378 6.72678C263.772 6.02278 264.316 5.48411 265.01 5.11078C265.714 4.73745 266.514 4.55078 267.41 4.55078C268.306 4.55078 269.1 4.73745 269.794 5.11078C270.498 5.47345 271.042 5.99611 271.426 6.67878C271.82 7.36145 272.018 8.16678 272.018 9.09478ZM268.418 8.24678C268.418 7.94811 268.322 7.72411 268.13 7.57478C267.938 7.41478 267.698 7.33478 267.41 7.33478C266.78 7.33478 266.412 7.63878 266.306 8.24678H268.418Z" fill="black" fill-opacity="0.6"/>
<path d="M255.958 5.89492C256.182 5.47892 256.503 5.15359 256.919 4.91892C257.345 4.67359 257.852 4.55092 258.438 4.55092C259.142 4.55092 259.777 4.73759 260.342 5.11092C260.908 5.47359 261.35 6.00692 261.67 6.71092C262.001 7.40426 262.166 8.22559 262.166 9.17492C262.166 10.1243 262.001 10.9509 261.67 11.6549C261.35 12.3483 260.908 12.8816 260.342 13.2549C259.777 13.6176 259.142 13.7989 258.438 13.7989C257.852 13.7989 257.345 13.6816 256.919 13.4469C256.503 13.2016 256.182 12.8709 255.958 12.4549V13.6869H252.406V1.84692H255.958V5.89492ZM258.566 9.17492C258.566 8.69492 258.444 8.32159 258.199 8.05492C257.953 7.78826 257.639 7.65492 257.255 7.65492C256.871 7.65492 256.556 7.78826 256.31 8.05492C256.065 8.32159 255.942 8.69492 255.942 9.17492C255.942 9.65492 256.065 10.0283 256.31 10.2949C256.556 10.5616 256.871 10.6949 257.255 10.6949C257.639 10.6949 257.953 10.5616 258.199 10.2949C258.444 10.0283 258.566 9.65492 258.566 9.17492Z" fill="black" fill-opacity="0.6"/>
<path d="M246.324 3.94285C245.705 3.94285 245.209 3.77752 244.836 3.44685C244.462 3.11619 244.276 2.70019 244.276 2.19885C244.276 1.68685 244.462 1.26552 244.836 0.934852C245.209 0.593518 245.705 0.422852 246.324 0.422852C246.932 0.422852 247.422 0.593518 247.796 0.934852C248.169 1.26552 248.355 1.68685 248.355 2.19885C248.355 2.70019 248.169 3.11619 247.796 3.44685C247.422 3.77752 246.932 3.94285 246.324 3.94285ZM248.084 4.66285V13.6869H244.532V4.66285H248.084Z" fill="black" fill-opacity="0.6"/>
<path d="M240.615 6.32688C240.977 5.80421 241.42 5.38821 241.943 5.07888C242.465 4.75888 243.009 4.59888 243.575 4.59888V8.39088H242.567C241.895 8.39088 241.399 8.50821 241.079 8.74288C240.769 8.97754 240.615 9.39354 240.615 9.99088V13.6869H237.063V4.66288H240.615V6.32688Z" fill="black" fill-opacity="0.6"/>
<path d="M225.708 9.17478C225.708 8.22545 225.868 7.40412 226.188 6.71078C226.518 6.00678 226.966 5.47345 227.532 5.11078C228.097 4.73745 228.732 4.55078 229.436 4.55078C230.022 4.55078 230.529 4.67345 230.956 4.91878C231.382 5.15345 231.708 5.47878 231.932 5.89478V4.66278H235.468V13.6868H231.932V12.4548C231.708 12.8708 231.382 13.2014 230.956 13.4468C230.529 13.6814 230.022 13.7988 229.436 13.7988C228.732 13.7988 228.097 13.6174 227.532 13.2548C226.966 12.8814 226.518 12.3481 226.188 11.6548C225.868 10.9508 225.708 10.1241 225.708 9.17478ZM231.932 9.17478C231.932 8.69478 231.809 8.32145 231.564 8.05478C231.318 7.78812 231.004 7.65478 230.62 7.65478C230.236 7.65478 229.921 7.78812 229.676 8.05478C229.43 8.32145 229.308 8.69478 229.308 9.17478C229.308 9.65478 229.43 10.0281 229.676 10.2948C229.921 10.5614 230.236 10.6948 230.62 10.6948C231.004 10.6948 231.318 10.5614 231.564 10.2948C231.809 10.0281 231.932 9.65478 231.932 9.17478Z" fill="black" fill-opacity="0.6"/>
<path d="M214.833 9.17492C214.833 8.22559 214.993 7.40426 215.313 6.71092C215.643 6.00692 216.091 5.47359 216.657 5.11092C217.222 4.73759 217.857 4.55092 218.561 4.55092C219.147 4.55092 219.649 4.67359 220.065 4.91892C220.491 5.15359 220.817 5.47892 221.041 5.89492V1.84692H224.593V13.6869H221.041V12.4549C220.817 12.8709 220.491 13.2016 220.065 13.4469C219.649 13.6816 219.147 13.7989 218.561 13.7989C217.857 13.7989 217.222 13.6176 216.657 13.2549C216.091 12.8816 215.643 12.3483 215.313 11.6549C214.993 10.9509 214.833 10.1243 214.833 9.17492ZM221.057 9.17492C221.057 8.69492 220.934 8.32159 220.689 8.05492C220.443 7.78826 220.129 7.65492 219.745 7.65492C219.361 7.65492 219.046 7.78826 218.801 8.05492C218.555 8.32159 218.433 8.69492 218.433 9.17492C218.433 9.65492 218.555 10.0283 218.801 10.2949C219.046 10.5616 219.361 10.6949 219.745 10.6949C220.129 10.6949 220.443 10.5616 220.689 10.2949C220.934 10.0283 221.057 9.65492 221.057 9.17492Z" fill="black" fill-opacity="0.6"/>
<path d="M209.23 3.94285C208.611 3.94285 208.115 3.77752 207.742 3.44685C207.368 3.11619 207.182 2.70019 207.182 2.19885C207.182 1.68685 207.368 1.26552 207.742 0.934852C208.115 0.593518 208.611 0.422852 209.23 0.422852C209.838 0.422852 210.328 0.593518 210.702 0.934852C211.075 1.26552 211.262 1.68685 211.262 2.19885C211.262 2.70019 211.075 3.11619 210.702 3.44685C210.328 3.77752 209.838 3.94285 209.23 3.94285ZM210.99 4.66285V13.6869H207.438V4.66285H210.99Z" fill="black" fill-opacity="0.6"/>
<path d="M205.833 1.84692V13.6869H202.281V1.84692H205.833Z" fill="black" fill-opacity="0.6"/>
<path d="M201.158 9.09478C201.158 9.34012 201.142 9.57478 201.11 9.79878H195.398C195.451 10.5774 195.777 10.9668 196.374 10.9668C196.758 10.9668 197.035 10.7908 197.206 10.4388H200.966C200.838 11.0788 200.566 11.6548 200.15 12.1668C199.745 12.6681 199.227 13.0681 198.598 13.3668C197.979 13.6548 197.297 13.7988 196.55 13.7988C195.654 13.7988 194.854 13.6121 194.15 13.2388C193.457 12.8654 192.913 12.3321 192.518 11.6388C192.134 10.9348 191.942 10.1134 191.942 9.17478C191.942 8.23612 192.134 7.42011 192.518 6.72678C192.913 6.02278 193.457 5.48411 194.15 5.11078C194.854 4.73745 195.654 4.55078 196.55 4.55078C197.446 4.55078 198.241 4.73745 198.934 5.11078C199.638 5.47345 200.182 5.99611 200.566 6.67878C200.961 7.36145 201.158 8.16678 201.158 9.09478ZM197.558 8.24678C197.558 7.94811 197.462 7.72411 197.27 7.57478C197.078 7.41478 196.838 7.33478 196.55 7.33478C195.921 7.33478 195.553 7.63878 195.446 8.24678H197.558Z" fill="black" fill-opacity="0.6"/>
<path d="M185.099 5.89492C185.323 5.47892 185.643 5.15359 186.059 4.91892C186.486 4.67359 186.992 4.55092 187.579 4.55092C188.283 4.55092 188.918 4.73759 189.483 5.11092C190.048 5.47359 190.491 6.00692 190.811 6.71092C191.142 7.40426 191.307 8.22559 191.307 9.17492C191.307 10.1243 191.142 10.9509 190.811 11.6549C190.491 12.3483 190.048 12.8816 189.483 13.2549C188.918 13.6176 188.283 13.7989 187.579 13.7989C186.992 13.7989 186.486 13.6816 186.059 13.4469C185.643 13.2016 185.323 12.8709 185.099 12.4549V13.6869H181.547V1.84692H185.099V5.89492ZM187.707 9.17492C187.707 8.69492 187.584 8.32159 187.339 8.05492C187.094 7.78826 186.779 7.65492 186.395 7.65492C186.011 7.65492 185.696 7.78826 185.451 8.05492C185.206 8.32159 185.083 8.69492 185.083 9.17492C185.083 9.65492 185.206 10.0283 185.451 10.2949C185.696 10.5616 186.011 10.6949 186.395 10.6949C186.779 10.6949 187.094 10.5616 187.339 10.2949C187.584 10.0283 187.707 9.65492 187.707 9.17492Z" fill="black" fill-opacity="0.6"/>
<path d="M178.183 3.94285C177.564 3.94285 177.068 3.77752 176.695 3.44685C176.322 3.11619 176.135 2.70019 176.135 2.19885C176.135 1.68685 176.322 1.26552 176.695 0.934852C177.068 0.593518 177.564 0.422852 178.183 0.422852C178.791 0.422852 179.282 0.593518 179.655 0.934852C180.028 1.26552 180.215 1.68685 180.215 2.19885C180.215 2.70019 180.028 3.11619 179.655 3.44685C179.282 3.77752 178.791 3.94285 178.183 3.94285ZM179.943 4.66285V13.6869H176.391V4.66285H179.943Z" fill="black" fill-opacity="0.6"/>
<path d="M165.036 9.17492C165.036 8.22559 165.196 7.40426 165.516 6.71092C165.847 6.00692 166.295 5.47359 166.86 5.11092C167.425 4.73759 168.06 4.55092 168.764 4.55092C169.351 4.55092 169.852 4.67359 170.268 4.91892C170.695 5.15359 171.02 5.47892 171.244 5.89492V1.84692H174.796V13.6869H171.244V12.4549C171.02 12.8709 170.695 13.2016 170.268 13.4469C169.852 13.6816 169.351 13.7989 168.764 13.7989C168.06 13.7989 167.425 13.6176 166.86 13.2549C166.295 12.8816 165.847 12.3483 165.516 11.6549C165.196 10.9509 165.036 10.1243 165.036 9.17492ZM171.26 9.17492C171.26 8.69492 171.137 8.32159 170.892 8.05492C170.647 7.78826 170.332 7.65492 169.948 7.65492C169.564 7.65492 169.249 7.78826 169.004 8.05492C168.759 8.32159 168.636 8.69492 168.636 9.17492C168.636 9.65492 168.759 10.0283 169.004 10.2949C169.249 10.5616 169.564 10.6949 169.948 10.6949C170.332 10.6949 170.647 10.5616 170.892 10.2949C171.137 10.0283 171.26 9.65492 171.26 9.17492Z" fill="black" fill-opacity="0.6"/>
<path d="M151.442 9.17478C151.442 8.22545 151.602 7.40412 151.922 6.71078C152.253 6.00678 152.701 5.47345 153.266 5.11078C153.831 4.73745 154.466 4.55078 155.17 4.55078C155.757 4.55078 156.263 4.67345 156.69 4.91878C157.117 5.15345 157.442 5.47878 157.666 5.89478V4.66278H161.202V13.6868H157.666V12.4548C157.442 12.8708 157.117 13.2014 156.69 13.4468C156.263 13.6814 155.757 13.7988 155.17 13.7988C154.466 13.7988 153.831 13.6174 153.266 13.2548C152.701 12.8814 152.253 12.3481 151.922 11.6548C151.602 10.9508 151.442 10.1241 151.442 9.17478ZM157.666 9.17478C157.666 8.69478 157.543 8.32145 157.298 8.05478C157.053 7.78812 156.738 7.65478 156.354 7.65478C155.97 7.65478 155.655 7.78812 155.41 8.05478C155.165 8.32145 155.042 8.69478 155.042 9.17478C155.042 9.65478 155.165 10.0281 155.41 10.2948C155.655 10.5614 155.97 10.6948 156.354 10.6948C156.738 10.6948 157.053 10.5614 157.298 10.2948C157.543 10.0281 157.666 9.65478 157.666 9.17478Z" fill="black" fill-opacity="0.6"/>
<path d="M146.673 13.7988C145.819 13.7988 145.062 13.6601 144.401 13.3828C143.75 13.1054 143.233 12.7214 142.849 12.2308C142.465 11.7401 142.246 11.1854 142.193 10.5668H145.601C145.643 10.8334 145.755 11.0308 145.937 11.1588C146.129 11.2868 146.369 11.3508 146.657 11.3508C146.838 11.3508 146.982 11.3134 147.089 11.2388C147.195 11.1534 147.249 11.0521 147.249 10.9348C147.249 10.7321 147.137 10.5881 146.913 10.5028C146.689 10.4174 146.31 10.3214 145.777 10.2148C145.126 10.0868 144.587 9.94811 144.161 9.79878C143.745 9.64945 143.377 9.39345 143.057 9.03078C142.747 8.66812 142.592 8.16678 142.592 7.52678C142.592 6.97212 142.737 6.47078 143.025 6.02278C143.323 5.56411 143.761 5.20678 144.337 4.95078C144.913 4.68411 145.611 4.55078 146.433 4.55078C147.649 4.55078 148.598 4.84945 149.281 5.44678C149.974 6.04411 150.39 6.82278 150.529 7.78278H147.377C147.323 7.53745 147.211 7.35078 147.041 7.22278C146.87 7.08411 146.641 7.01478 146.353 7.01478C146.171 7.01478 146.033 7.05211 145.937 7.12678C145.841 7.19078 145.793 7.29211 145.793 7.43078C145.793 7.61211 145.905 7.75078 146.129 7.84678C146.353 7.93211 146.71 8.02278 147.201 8.11878C147.851 8.24678 148.401 8.39078 148.849 8.55078C149.297 8.71078 149.686 8.98811 150.017 9.38278C150.347 9.76678 150.513 10.3001 150.513 10.9828C150.513 11.5161 150.358 11.9961 150.049 12.4228C149.739 12.8494 149.291 13.1854 148.705 13.4308C148.129 13.6761 147.451 13.7988 146.673 13.7988Z" fill="black" fill-opacity="0.6"/>
<path d="M139.292 3.94285C138.674 3.94285 138.178 3.77752 137.804 3.44685C137.431 3.11619 137.244 2.70019 137.244 2.19885C137.244 1.68685 137.431 1.26552 137.804 0.934852C138.178 0.593518 138.674 0.422852 139.292 0.422852C139.9 0.422852 140.391 0.593518 140.764 0.934852C141.138 1.26552 141.324 1.68685 141.324 2.19885C141.324 2.70019 141.138 3.11619 140.764 3.44685C140.391 3.77752 139.9 3.94285 139.292 3.94285ZM141.052 4.66285V13.6869H137.5V4.66285H141.052Z" fill="black" fill-opacity="0.6"/>
<path d="M130.177 5.89492C130.401 5.47892 130.721 5.15359 131.137 4.91892C131.564 4.67359 132.071 4.55092 132.657 4.55092C133.361 4.55092 133.996 4.73759 134.561 5.11092C135.127 5.47359 135.569 6.00692 135.889 6.71092C136.22 7.40426 136.385 8.22559 136.385 9.17492C136.385 10.1243 136.22 10.9509 135.889 11.6549C135.569 12.3483 135.127 12.8816 134.561 13.2549C133.996 13.6176 133.361 13.7989 132.657 13.7989C132.071 13.7989 131.564 13.6816 131.137 13.4469C130.721 13.2016 130.401 12.8709 130.177 12.4549V13.6869H126.625V1.84692H130.177V5.89492ZM132.785 9.17492C132.785 8.69492 132.663 8.32159 132.417 8.05492C132.172 7.78826 131.857 7.65492 131.473 7.65492C131.089 7.65492 130.775 7.78826 130.529 8.05492C130.284 8.32159 130.161 8.69492 130.161 9.17492C130.161 9.65492 130.284 10.0283 130.529 10.2949C130.775 10.5616 131.089 10.6949 131.473 10.6949C131.857 10.6949 132.172 10.5616 132.417 10.2949C132.663 10.0283 132.785 9.65492 132.785 9.17492Z" fill="black" fill-opacity="0.6"/>
<path d="M112.551 9.17478C112.551 8.22545 112.712 7.40412 113.032 6.71078C113.362 6.00678 113.81 5.47345 114.375 5.11078C114.941 4.73745 115.576 4.55078 116.28 4.55078C116.866 4.55078 117.373 4.67345 117.799 4.91878C118.226 5.15345 118.551 5.47878 118.775 5.89478V4.66278H122.312V13.6868H118.775V12.4548C118.551 12.8708 118.226 13.2014 117.799 13.4468C117.373 13.6814 116.866 13.7988 116.28 13.7988C115.576 13.7988 114.941 13.6174 114.375 13.2548C113.81 12.8814 113.362 12.3481 113.032 11.6548C112.712 10.9508 112.551 10.1241 112.551 9.17478ZM118.775 9.17478C118.775 8.69478 118.653 8.32145 118.408 8.05478C118.162 7.78812 117.848 7.65478 117.464 7.65478C117.08 7.65478 116.765 7.78812 116.52 8.05478C116.274 8.32145 116.151 8.69478 116.151 9.17478C116.151 9.65478 116.274 10.0281 116.52 10.2948C116.765 10.5614 117.08 10.6948 117.464 10.6948C117.848 10.6948 118.162 10.5614 118.408 10.2948C118.653 10.0281 118.775 9.65478 118.775 9.17478Z" fill="black" fill-opacity="0.6"/>
<path d="M112.395 4.66284L106.619 18.0068H102.731L105.003 13.2388L101.243 4.66284H105.195L106.891 9.23884L108.475 4.66284H112.395Z" fill="black" fill-opacity="0.6"/>
<path d="M97.3671 4.59888C98.4018 4.59888 99.2071 4.94554 99.7831 5.63888C100.37 6.33221 100.663 7.27088 100.663 8.45488V13.6869H97.1271V8.90288C97.1271 8.47621 97.0098 8.14021 96.7751 7.89488C96.5511 7.63888 96.2471 7.51088 95.8631 7.51088C95.4684 7.51088 95.1591 7.63888 94.9351 7.89488C94.7111 8.14021 94.5991 8.47621 94.5991 8.90288V13.6869H91.0471V4.66288H94.5991V6.03888C94.8764 5.61221 95.2445 5.26554 95.7031 4.99888C96.1725 4.73221 96.7271 4.59888 97.3671 4.59888Z" fill="black" fill-opacity="0.6"/>
<path d="M86.0106 13.6869L83.7866 10.0869V13.6869H80.2346V1.84692H83.7866V8.03892L86.0426 4.66292H90.1706L86.7946 9.20692L90.2506 13.6869H86.0106Z" fill="black" fill-opacity="0.6"/>
<path d="M76.8704 3.94285C76.2517 3.94285 75.7557 3.77752 75.3824 3.44685C75.009 3.11619 74.8224 2.70019 74.8224 2.19885C74.8224 1.68685 75.009 1.26552 75.3824 0.934852C75.7557 0.593518 76.2517 0.422852 76.8704 0.422852C77.4784 0.422852 77.969 0.593518 78.3424 0.934852C78.7157 1.26552 78.9024 1.68685 78.9024 2.19885C78.9024 2.70019 78.7157 3.11619 78.3424 3.44685C77.969 3.77752 77.4784 3.94285 76.8704 3.94285ZM78.6304 4.66285V13.6869H75.0784V4.66285H78.6304Z" fill="black" fill-opacity="0.6"/>
<path d="M69.8288 13.7988C68.9754 13.7988 68.2181 13.6601 67.5568 13.3828C66.9061 13.1054 66.3888 12.7214 66.0048 12.2308C65.6208 11.7401 65.4021 11.1854 65.3488 10.5668H68.7568C68.7994 10.8334 68.9114 11.0308 69.0928 11.1588C69.2848 11.2868 69.5248 11.3508 69.8128 11.3508C69.9941 11.3508 70.1381 11.3134 70.2448 11.2388C70.3514 11.1534 70.4048 11.0521 70.4048 10.9348C70.4048 10.7321 70.2928 10.5881 70.0688 10.5028C69.8448 10.4174 69.4661 10.3214 68.9328 10.2148C68.2821 10.0868 67.7434 9.94811 67.3168 9.79878C66.9008 9.64945 66.5328 9.39345 66.2128 9.03078C65.9034 8.66812 65.7488 8.16678 65.7488 7.52678C65.7488 6.97212 65.8928 6.47078 66.1808 6.02278C66.4794 5.56411 66.9168 5.20678 67.4928 4.95078C68.0688 4.68411 68.7674 4.55078 69.5888 4.55078C70.8048 4.55078 71.7541 4.84945 72.4368 5.44678C73.1301 6.04411 73.5461 6.82278 73.6848 7.78278H70.5328C70.4794 7.53745 70.3674 7.35078 70.1968 7.22278C70.0261 7.08411 69.7968 7.01478 69.5088 7.01478C69.3274 7.01478 69.1888 7.05211 69.0928 7.12678C68.9968 7.19078 68.9488 7.29211 68.9488 7.43078C68.9488 7.61211 69.0608 7.75078 69.2848 7.84678C69.5088 7.93211 69.8661 8.02278 70.3568 8.11878C71.0074 8.24678 71.5568 8.39078 72.0048 8.55078C72.4528 8.71078 72.8421 8.98811 73.1728 9.38278C73.5034 9.76678 73.6688 10.3001 73.6688 10.9828C73.6688 11.5161 73.5141 11.9961 73.2048 12.4228C72.8954 12.8494 72.4474 13.1854 71.8608 13.4308C71.2848 13.6761 70.6074 13.7988 69.8288 13.7988Z" fill="black" fill-opacity="0.6"/>
<path d="M64.2085 4.66284V13.6868H60.6565V12.3108C60.3792 12.7375 60.0058 13.0842 59.5365 13.3508C59.0778 13.6175 58.5285 13.7508 57.8885 13.7508C56.8538 13.7508 56.0432 13.4042 55.4565 12.7108C54.8805 12.0175 54.5925 11.0788 54.5925 9.89484V4.66284H58.1285V9.44684C58.1285 9.87351 58.2405 10.2148 58.4645 10.4708C58.6992 10.7162 59.0085 10.8388 59.3925 10.8388C59.7872 10.8388 60.0965 10.7162 60.3205 10.4708C60.5445 10.2148 60.6565 9.87351 60.6565 9.44684V4.66284H64.2085Z" fill="black" fill-opacity="0.6"/>
<path d="M53.0537 2.35889V13.6869H49.5177V8.03889L47.7737 13.6869H44.7337L42.9897 8.03889V13.6869H39.4377V2.35889H43.7897L46.2857 9.15889L48.7177 2.35889H53.0537Z" fill="black" fill-opacity="0.6"/>
<path d="M35.3662 10.6628V13.6868H34.0222C31.5476 13.6868 30.3102 12.4548 30.3102 9.99082V7.62282H29.1902V4.66282H30.3102V2.48682H33.8622V4.66282H35.3342V7.62282H33.8622V10.0548C33.8622 10.2682 33.9102 10.4228 34.0062 10.5188C34.1129 10.6148 34.2836 10.6628 34.5182 10.6628H35.3662Z" fill="black" fill-opacity="0.6"/>
<path d="M18.3952 9.17478C18.3952 8.22545 18.5552 7.40412 18.8752 6.71078C19.2059 6.00678 19.6539 5.47345 20.2192 5.11078C20.7846 4.73745 21.4192 4.55078 22.1232 4.55078C22.7099 4.55078 23.2166 4.67345 23.6432 4.91878C24.0699 5.15345 24.3952 5.47878 24.6192 5.89478V4.66278H28.1553V13.6868H24.6192V12.4548C24.3952 12.8708 24.0699 13.2014 23.6432 13.4468C23.2166 13.6814 22.7099 13.7988 22.1232 13.7988C21.4192 13.7988 20.7846 13.6174 20.2192 13.2548C19.6539 12.8814 19.2059 12.3481 18.8752 11.6548C18.5552 10.9508 18.3952 10.1241 18.3952 9.17478ZM24.6192 9.17478C24.6192 8.69478 24.4966 8.32145 24.2512 8.05478C24.0059 7.78812 23.6912 7.65478 23.3072 7.65478C22.9232 7.65478 22.6086 7.78812 22.3632 8.05478C22.1179 8.32145 21.9952 8.69478 21.9952 9.17478C21.9952 9.65478 22.1179 10.0281 22.3632 10.2948C22.6086 10.5614 22.9232 10.6948 23.3072 10.6948C23.6912 10.6948 24.0059 10.5614 24.2512 10.2948C24.4966 10.0281 24.6192 9.65478 24.6192 9.17478Z" fill="black" fill-opacity="0.6"/>
<path d="M17.271 1.84692V13.6869H13.719V1.84692H17.271Z" fill="black" fill-opacity="0.6"/>
<path d="M8.60801 11.9749H4.83201L4.27201 13.6869H0.544006L4.68801 2.35889H8.78401L12.912 13.6869H9.16801L8.60801 11.9749ZM7.74401 9.30289L6.72001 6.15089L5.69601 9.30289H7.74401Z" fill="black" fill-opacity="0.6"/>
</svg>
