<svg width="99" height="17" viewBox="0 0 99 17" fill="none" xmlns="http://www.w3.org/2000/svg">
<path d="M93.5869 16.7727C91.8935 16.7727 90.4935 16.3793 89.3869 15.5927C88.2935 14.7927 87.7002 13.626 87.6069 12.0927H92.3269C92.3935 12.906 92.7535 13.3127 93.4069 13.3127C93.6469 13.3127 93.8469 13.2593 94.0069 13.1527C94.1802 13.0327 94.2669 12.8527 94.2669 12.6127C94.2669 12.2793 94.0869 12.0127 93.7269 11.8127C93.3669 11.5993 92.8069 11.3593 92.0469 11.0927C91.1402 10.7727 90.3869 10.4593 89.7869 10.1527C89.2002 9.846 88.6935 9.39933 88.2669 8.81267C87.8402 8.226 87.6335 7.47267 87.6469 6.55267C87.6469 5.63267 87.8802 4.85267 88.3469 4.21267C88.8269 3.55933 89.4735 3.066 90.2869 2.73267C91.1135 2.39933 92.0402 2.23267 93.0669 2.23267C94.8002 2.23267 96.1735 2.63267 97.1869 3.43267C98.2135 4.23267 98.7535 5.35933 98.8069 6.81267H94.0269C94.0135 6.41267 93.9135 6.126 93.7269 5.95267C93.5402 5.77933 93.3135 5.69267 93.0469 5.69267C92.8602 5.69267 92.7069 5.75933 92.5869 5.89267C92.4669 6.01267 92.4069 6.186 92.4069 6.41267C92.4069 6.73267 92.5802 6.99933 92.9269 7.21267C93.2869 7.41267 93.8535 7.65933 94.6269 7.95267C95.5202 8.286 96.2535 8.606 96.8269 8.91267C97.4135 9.21933 97.9202 9.646 98.3469 10.1927C98.7735 10.7393 98.9869 11.426 98.9869 12.2527C98.9869 13.1193 98.7735 13.8993 98.3469 14.5927C97.9202 15.2727 97.3002 15.806 96.4869 16.1927C95.6735 16.5793 94.7069 16.7727 93.5869 16.7727Z" fill="black"/>
<path d="M80.4617 16.7928C79.6884 16.7928 79.0684 16.5862 78.6017 16.1728C78.135 15.7595 77.9017 15.2395 77.9017 14.6128C77.9017 13.9728 78.135 13.4462 78.6017 13.0328C79.0684 12.6062 79.6884 12.3928 80.4617 12.3928C81.2217 12.3928 81.8351 12.6062 82.3017 13.0328C82.7684 13.4462 83.0017 13.9728 83.0017 14.6128C83.0017 15.2395 82.7684 15.7595 82.3017 16.1728C81.8351 16.5862 81.2217 16.7928 80.4617 16.7928Z" fill="black"/>
<path d="M74.0564 4.45273C73.2831 4.45273 72.6631 4.24607 72.1964 3.83273C71.7297 3.4194 71.4964 2.8994 71.4964 2.27273C71.4964 1.63273 71.7297 1.10607 72.1964 0.692734C72.6631 0.266068 73.2831 0.0527344 74.0564 0.0527344C74.8164 0.0527344 75.4297 0.266068 75.8964 0.692734C76.3631 1.10607 76.5964 1.63273 76.5964 2.27273C76.5964 2.8994 76.3631 3.4194 75.8964 3.83273C75.4297 4.24607 74.8164 4.45273 74.0564 4.45273ZM76.2564 5.35274V16.6327H71.8164V5.35274H76.2564Z" fill="black"/>
<path d="M66.9205 7.43271C67.3738 6.77937 67.9271 6.25937 68.5805 5.8727C69.2338 5.4727 69.9138 5.27271 70.6205 5.27271V10.0127H69.3605C68.5205 10.0127 67.9005 10.1594 67.5005 10.4527C67.1138 10.746 66.9205 11.266 66.9205 12.0127V16.6327H62.4805V5.35271H66.9205V7.43271Z" fill="black"/>
<path d="M56.0917 14.4927H51.3717L50.6717 16.6327H46.0117L51.1917 2.47266H56.3117L61.4717 16.6327H56.7917L56.0917 14.4927ZM55.0117 11.1527L53.7317 7.21266L52.4517 11.1527H55.0117Z" fill="black"/>
<path d="M29.4195 10.9926C29.4195 9.80598 29.6195 8.77931 30.0195 7.91265C30.4329 7.03265 30.9929 6.36598 31.6995 5.91265C32.4062 5.44598 33.1995 5.21265 34.0795 5.21265C34.8129 5.21265 35.4462 5.36598 35.9795 5.67265C36.5129 5.96598 36.9195 6.37265 37.1995 6.89265V5.35265H41.6195V16.6326H37.1995V15.0926C36.9195 15.6126 36.5129 16.026 35.9795 16.3326C35.4462 16.626 34.8129 16.7726 34.0795 16.7726C33.1995 16.7726 32.4062 16.546 31.6995 16.0926C30.9929 15.626 30.4329 14.9593 30.0195 14.0926C29.6195 13.2126 29.4195 12.1793 29.4195 10.9926ZM37.1995 10.9926C37.1995 10.3926 37.0462 9.92598 36.7395 9.59265C36.4329 9.25931 36.0395 9.09265 35.5595 9.09265C35.0795 9.09265 34.6862 9.25931 34.3795 9.59265C34.0729 9.92598 33.9195 10.3926 33.9195 10.9926C33.9195 11.5926 34.0729 12.0593 34.3795 12.3926C34.6862 12.726 35.0795 12.8926 35.5595 12.8926C36.0395 12.8926 36.4329 12.726 36.7395 12.3926C37.0462 12.0593 37.1995 11.5926 37.1995 10.9926Z" fill="black"/>
<path d="M28.3286 12.8528V16.6328H26.6486C23.5553 16.6328 22.0086 15.0928 22.0086 12.0128V9.05281H20.6086V5.35281H22.0086V2.63281H26.4486V5.35281H28.2886V9.05281H26.4486V12.0928C26.4486 12.3595 26.5086 12.5528 26.6286 12.6728C26.7619 12.7928 26.9753 12.8528 27.2686 12.8528H28.3286Z" fill="black"/>
<path d="M17.1033 4.45273C16.3299 4.45273 15.7099 4.24607 15.2433 3.83273C14.7766 3.4194 14.5433 2.8994 14.5433 2.27273C14.5433 1.63273 14.7766 1.10607 15.2433 0.692734C15.7099 0.266068 16.3299 0.0527344 17.1033 0.0527344C17.8633 0.0527344 18.4766 0.266068 18.9433 0.692734C19.4099 1.10607 19.6433 1.63273 19.6433 2.27273C19.6433 2.8994 19.4099 3.4194 18.9433 3.83273C18.4766 4.24607 17.8633 4.45273 17.1033 4.45273ZM19.3033 5.35274V16.6327H14.8633V5.35274H19.3033Z" fill="black"/>
<path d="M5.9 2.47266C7.38 2.47266 8.67333 2.77266 9.78 3.37266C10.9 3.97266 11.76 4.80599 12.36 5.87266C12.96 6.93932 13.26 8.15266 13.26 9.51266C13.26 10.8593 12.96 12.0727 12.36 13.1527C11.76 14.2327 10.9 15.086 9.78 15.7127C8.67333 16.326 7.38 16.6327 5.9 16.6327H0V2.47266H5.9ZM5.5 12.6727C6.5 12.6727 7.29333 12.3993 7.88 11.8527C8.46667 11.306 8.76 10.526 8.76 9.51266C8.76 8.49932 8.46667 7.71932 7.88 7.17266C7.29333 6.62599 6.5 6.35266 5.5 6.35266H4.44V12.6727H5.5Z" fill="black"/>
</svg>
