<svg width="25" height="25" viewBox="0 0 25 25" fill="none" xmlns="http://www.w3.org/2000/svg">
<path d="M12.97 2.67285C11.0416 2.67285 9.15654 3.24468 7.55317 4.31602C5.94979 5.38737 4.7001 6.91011 3.96215 8.69169C3.2242 10.4733 3.03111 12.4337 3.40732 14.325C3.78352 16.2163 4.71212 17.9536 6.07568 19.3171C7.43925 20.6807 9.17653 21.6093 11.0678 21.9855C12.9592 22.3617 14.9196 22.1686 16.7011 21.4307C18.4827 20.6927 20.0055 19.443 21.0768 17.8397C22.1481 16.2363 22.72 14.3512 22.72 12.4229C22.7172 9.83783 21.6891 7.35946 19.8613 5.53158C18.0334 3.70369 15.555 2.67558 12.97 2.67285ZM17.2506 10.7035L12.0006 15.9535C11.9309 16.0232 11.8482 16.0785 11.7572 16.1163C11.6661 16.154 11.5685 16.1734 11.47 16.1734C11.3714 16.1734 11.2738 16.154 11.1828 16.1163C11.0917 16.0785 11.009 16.0232 10.9393 15.9535L8.68935 13.7035C8.54862 13.5627 8.46956 13.3719 8.46956 13.1729C8.46956 12.9738 8.54862 12.783 8.68935 12.6422C8.83008 12.5015 9.02095 12.4224 9.21997 12.4224C9.419 12.4224 9.60987 12.5015 9.7506 12.6422L11.47 14.3625L16.1894 9.64223C16.259 9.57254 16.3418 9.51727 16.4328 9.47956C16.5238 9.44184 16.6214 9.42243 16.72 9.42243C16.8185 9.42243 16.9161 9.44184 17.0071 9.47956C17.0982 9.51727 17.1809 9.57254 17.2506 9.64223C17.3203 9.71191 17.3756 9.79463 17.4133 9.88568C17.451 9.97672 17.4704 10.0743 17.4704 10.1729C17.4704 10.2714 17.451 10.369 17.4133 10.46C17.3756 10.5511 17.3203 10.6338 17.2506 10.7035Z" fill="#01AB31"/>
</svg>
