<svg width="25" height="25" viewBox="0 0 25 25" fill="none" xmlns="http://www.w3.org/2000/svg">
<path d="M12.5707 2.67285C10.6423 2.67285 8.75725 3.24468 7.15387 4.31602C5.55049 5.38737 4.30081 6.91011 3.56286 8.69169C2.8249 10.4733 2.63182 12.4337 3.00803 14.325C3.38423 16.2163 4.31283 17.9536 5.67639 19.3171C7.03995 20.6807 8.77724 21.6093 10.6686 21.9855C12.5599 22.3617 14.5203 22.1686 16.3018 21.4307C18.0834 20.6927 19.6062 19.443 20.6775 17.8397C21.7489 16.2363 22.3207 14.3512 22.3207 12.4229C22.318 9.83783 21.2898 7.35946 19.462 5.53158C17.6341 3.70369 15.1557 2.67558 12.5707 2.67285ZM16.8513 10.7035L11.6013 15.9535C11.5317 16.0232 11.4489 16.0785 11.3579 16.1163C11.2668 16.154 11.1692 16.1734 11.0707 16.1734C10.9721 16.1734 10.8745 16.154 10.7835 16.1163C10.6924 16.0785 10.6097 16.0232 10.5401 15.9535L8.29006 13.7035C8.14933 13.5627 8.07027 13.3719 8.07027 13.1729C8.07027 12.9738 8.14933 12.783 8.29006 12.6422C8.43079 12.5015 8.62166 12.4224 8.82068 12.4224C9.01971 12.4224 9.21058 12.5015 9.35131 12.6422L11.0707 14.3625L15.7901 9.64223C15.8597 9.57254 15.9425 9.51727 16.0335 9.47956C16.1246 9.44184 16.2221 9.42243 16.3207 9.42243C16.4192 9.42243 16.5168 9.44184 16.6079 9.47956C16.6989 9.51727 16.7816 9.57254 16.8513 9.64223C16.921 9.71191 16.9763 9.79463 17.014 9.88568C17.0517 9.97672 17.0711 10.0743 17.0711 10.1729C17.0711 10.2714 17.0517 10.369 17.014 10.46C16.9763 10.5511 16.921 10.6338 16.8513 10.7035Z" fill="#01AB31"/>
</svg>
