<svg width="25" height="25" viewBox="0 0 25 25" fill="none" xmlns="http://www.w3.org/2000/svg">
<path d="M12.9869 2.67285C11.0585 2.67285 9.17345 3.24468 7.57007 4.31602C5.96669 5.38737 4.71701 6.91011 3.97906 8.69169C3.2411 10.4733 3.04802 12.4337 3.42423 14.325C3.80043 16.2163 4.72903 17.9536 6.09259 19.3171C7.45615 20.6807 9.19344 21.6093 11.0848 21.9855C12.9761 22.3617 14.9365 22.1686 16.718 21.4307C18.4996 20.6927 20.0224 19.443 21.0937 17.8397C22.1651 16.2363 22.7369 14.3512 22.7369 12.4229C22.7342 9.83783 21.706 7.35946 19.8782 5.53158C18.0503 3.70369 15.5719 2.67558 12.9869 2.67285ZM17.2675 10.7035L12.0175 15.9535C11.9479 16.0232 11.8651 16.0785 11.7741 16.1163C11.683 16.154 11.5854 16.1734 11.4869 16.1734C11.3883 16.1734 11.2907 16.154 11.1997 16.1163C11.1086 16.0785 11.0259 16.0232 10.9563 15.9535L8.70626 13.7035C8.56553 13.5627 8.48646 13.3719 8.48646 13.1729C8.48646 12.9738 8.56553 12.783 8.70626 12.6422C8.84699 12.5015 9.03786 12.4224 9.23688 12.4224C9.4359 12.4224 9.62678 12.5015 9.76751 12.6422L11.4869 14.3625L16.2063 9.64223C16.2759 9.57254 16.3587 9.51727 16.4497 9.47956C16.5408 9.44184 16.6383 9.42243 16.7369 9.42243C16.8354 9.42243 16.933 9.44184 17.0241 9.47956C17.1151 9.51727 17.1978 9.57254 17.2675 9.64223C17.3372 9.71191 17.3925 9.79463 17.4302 9.88568C17.4679 9.97672 17.4873 10.0743 17.4873 10.1729C17.4873 10.2714 17.4679 10.369 17.4302 10.46C17.3925 10.5511 17.3372 10.6338 17.2675 10.7035Z" fill="#01AB31"/>
</svg>
