<svg width="31" height="30" viewBox="0 0 31 30" fill="none" xmlns="http://www.w3.org/2000/svg">
<path d="M15.4312 2.34375C12.928 2.34375 10.481 3.08603 8.39972 4.47671C6.31841 5.8674 4.69623 7.84404 3.73831 10.1567C2.78039 12.4693 2.52975 15.014 3.01809 17.4691C3.50644 19.9242 4.71183 22.1793 6.48184 23.9493C8.25185 25.7193 10.507 26.9247 12.962 27.4131C15.4171 27.9014 17.9619 27.6508 20.2745 26.6928C22.5871 25.7349 24.5638 24.1127 25.9544 22.0314C27.3451 19.9501 28.0874 17.5032 28.0874 15C28.0837 11.6445 26.7491 8.42749 24.3764 6.05479C22.0037 3.68209 18.7867 2.34747 15.4312 2.34375ZM9.75577 23.0355C10.4086 22.1429 11.2628 21.4169 12.2489 20.9164C13.235 20.4159 14.3253 20.155 15.4312 20.155C16.537 20.155 17.6273 20.4159 18.6134 20.9164C19.5996 21.4169 20.4537 22.1429 21.1065 23.0355C19.4478 24.2119 17.4646 24.8437 15.4312 24.8437C13.3977 24.8437 11.4145 24.2119 9.75577 23.0355ZM12.1499 14.0625C12.1499 13.4135 12.3423 12.7791 12.7029 12.2395C13.0634 11.6999 13.5759 11.2794 14.1755 11.031C14.775 10.7827 15.4348 10.7177 16.0713 10.8443C16.7078 10.9709 17.2925 11.2834 17.7514 11.7423C18.2102 12.2012 18.5228 12.7859 18.6494 13.4224C18.776 14.0589 18.711 14.7186 18.4626 15.3182C18.2143 15.9177 17.7937 16.4302 17.2541 16.7908C16.7145 17.1513 16.0801 17.3437 15.4312 17.3437C14.5609 17.3437 13.7263 16.998 13.111 16.3827C12.4956 15.7673 12.1499 14.9327 12.1499 14.0625ZM23.1655 21.0867C22.2541 19.9274 21.0923 18.9892 19.7671 18.3422C20.6117 17.4869 21.1844 16.401 21.4134 15.2211C21.6423 14.0411 21.5172 12.8198 21.0537 11.7108C20.5902 10.6017 19.8091 9.65455 18.8087 8.98835C17.8082 8.32214 16.6331 7.96668 15.4312 7.96668C14.2292 7.96668 13.0541 8.32214 12.0536 8.98835C11.0532 9.65455 10.2721 10.6017 9.80863 11.7108C9.34516 12.8198 9.22003 14.0411 9.44896 15.2211C9.67789 16.401 10.2507 17.4869 11.0952 18.3422C9.77003 18.9892 8.60825 19.9274 7.69678 21.0867C6.55191 19.6354 5.83883 17.8911 5.63915 16.0534C5.43947 14.2157 5.76127 12.3589 6.56772 10.6956C7.37416 9.03223 8.63265 7.62958 10.1991 6.64818C11.7656 5.66678 13.5768 5.14629 15.4253 5.14629C17.2738 5.14629 19.085 5.66678 20.6515 6.64818C22.2179 7.62958 23.4764 9.03223 24.2829 10.6956C25.0893 12.3589 25.4111 14.2157 25.2114 16.0534C25.0118 17.8911 24.2987 19.6354 23.1538 21.0867H23.1655Z" fill="black"/>
</svg>
