<svg width="25" height="25" viewBox="0 0 25 25" fill="none" xmlns="http://www.w3.org/2000/svg">
<path d="M12.2523 2.67285C10.324 2.67285 8.43889 3.24468 6.83551 4.31602C5.23213 5.38737 3.98245 6.91011 3.2445 8.69169C2.50654 10.4733 2.31346 12.4337 2.68967 14.325C3.06587 16.2163 3.99447 17.9536 5.35803 19.3171C6.72159 20.6807 8.45888 21.6093 10.3502 21.9855C12.2415 22.3617 14.2019 22.1686 15.9835 21.4307C17.7651 20.6927 19.2878 19.443 20.3592 17.8397C21.4305 16.2363 22.0023 14.3512 22.0023 12.4229C21.9996 9.83783 20.9715 7.35946 19.1436 5.53158C17.3157 3.70369 14.8373 2.67558 12.2523 2.67285ZM16.5329 10.7035L11.2829 15.9535C11.2133 16.0232 11.1306 16.0785 11.0395 16.1163C10.9485 16.154 10.8509 16.1734 10.7523 16.1734C10.6538 16.1734 10.5562 16.154 10.4651 16.1163C10.3741 16.0785 10.2914 16.0232 10.2217 15.9535L7.9717 13.7035C7.83097 13.5627 7.75191 13.3719 7.75191 13.1729C7.75191 12.9738 7.83097 12.783 7.9717 12.6422C8.11243 12.5015 8.3033 12.4224 8.50232 12.4224C8.70135 12.4224 8.89222 12.5015 9.03295 12.6422L10.7523 14.3625L15.4717 9.64223C15.5414 9.57254 15.6241 9.51727 15.7152 9.47956C15.8062 9.44184 15.9038 9.42243 16.0023 9.42243C16.1009 9.42243 16.1985 9.44184 16.2895 9.47956C16.3805 9.51727 16.4633 9.57254 16.5329 9.64223C16.6026 9.71191 16.6579 9.79463 16.6956 9.88568C16.7333 9.97672 16.7527 10.0743 16.7527 10.1729C16.7527 10.2714 16.7333 10.369 16.6956 10.46C16.6579 10.5511 16.6026 10.6338 16.5329 10.7035Z" fill="#01AB31"/>
</svg>
