<svg width="25" height="25" viewBox="0 0 25 25" fill="none" xmlns="http://www.w3.org/2000/svg">
<path d="M12.5804 2.67285C10.6521 2.67285 8.76702 3.24468 7.16364 4.31602C5.56026 5.38737 4.31058 6.91011 3.57262 8.69169C2.83467 10.4733 2.64159 12.4337 3.01779 14.325C3.394 16.2163 4.3226 17.9536 5.68616 19.3171C7.04972 20.6807 8.787 21.6093 10.6783 21.9855C12.5696 22.3617 14.53 22.1686 16.3116 21.4307C18.0932 20.6927 19.6159 19.443 20.6873 17.8397C21.7586 16.2363 22.3304 14.3512 22.3304 12.4229C22.3277 9.83783 21.2996 7.35946 19.4717 5.53158C17.6438 3.70369 15.1655 2.67558 12.5804 2.67285ZM16.8611 10.7035L11.6111 15.9535C11.5414 16.0232 11.4587 16.0785 11.3677 16.1163C11.2766 16.154 11.179 16.1734 11.0804 16.1734C10.9819 16.1734 10.8843 16.154 10.7932 16.1163C10.7022 16.0785 10.6195 16.0232 10.5498 15.9535L8.29982 13.7035C8.15909 13.5627 8.08003 13.3719 8.08003 13.1729C8.08003 12.9738 8.15909 12.783 8.29982 12.6422C8.44055 12.5015 8.63143 12.4224 8.83045 12.4224C9.02947 12.4224 9.22034 12.5015 9.36107 12.6422L11.0804 14.3625L15.7998 9.64223C15.8695 9.57254 15.9522 9.51727 16.0433 9.47956C16.1343 9.44184 16.2319 9.42243 16.3304 9.42243C16.429 9.42243 16.5266 9.44184 16.6176 9.47956C16.7087 9.51727 16.7914 9.57254 16.8611 9.64223C16.9308 9.71191 16.986 9.79463 17.0237 9.88568C17.0615 9.97672 17.0809 10.0743 17.0809 10.1729C17.0809 10.2714 17.0615 10.369 17.0237 10.46C16.986 10.5511 16.9308 10.6338 16.8611 10.7035Z" fill="#01AB31"/>
</svg>
