<svg width="93" height="17" viewBox="0 0 93 17" fill="none" xmlns="http://www.w3.org/2000/svg">
<path d="M22.2191 17L23.6448 10.7145L18.8632 6.48684L25.1802 5.92763L27.6368 0L30.0934 5.92763L36.4104 6.48684L31.6288 10.7145L33.0545 17L27.6368 13.6671L22.2191 17Z" fill="#FFD233"/>
<path d="M3.3559 17L4.7816 10.7145L0 6.48684L6.31698 5.92763L8.77358 0L11.2302 5.92763L17.5472 6.48684L12.7656 10.7145L14.1913 17L8.77358 13.6671L3.3559 17Z" fill="#FFD233"/>
<path d="M78.8088 17L80.2345 10.7145L75.4529 6.48684L81.7699 5.92763L84.2265 0L86.6831 5.92763L93 6.48684L88.2184 10.7145L89.6442 17L84.2265 13.6671L78.8088 17Z" fill="#FFD233"/>
<path d="M58.6295 17L60.0552 10.7145L55.2736 6.48684L61.5905 5.92763L64.0471 0L66.5037 5.92763L72.8207 6.48684L68.0391 10.7145L69.4648 17L64.0471 13.6671L58.6295 17Z" fill="#FFD233"/>
<path d="M41.0823 17L42.508 10.7145L37.7264 6.48684L44.0434 5.92763L46.5 0L48.9566 5.92763L55.2736 6.48684L50.492 10.7145L51.9177 17L46.5 13.6671L41.0823 17Z" fill="#FFD233"/>
</svg>
