<svg width="12" height="10" viewBox="0 0 12 10" fill="none" xmlns="http://www.w3.org/2000/svg">
<path d="M11.7567 1.9831C11.3377 2.16933 10.8954 2.28573 10.4298 2.35557C10.8954 2.07622 11.2679 1.63392 11.4308 1.0985C10.9885 1.35457 10.4997 1.5408 9.96424 1.6572C9.54521 1.2149 8.93996 0.935547 8.28815 0.935547C7.03108 0.935547 6.0068 1.95982 6.0068 3.21689C6.0068 3.40312 6.03008 3.56608 6.07664 3.72903C4.19104 3.63591 2.49167 2.72803 1.351 1.33129C1.16477 1.68048 1.04837 2.05294 1.04837 2.47196C1.04837 3.26345 1.44412 3.96182 2.07265 4.38084C1.70019 4.35756 1.351 4.26445 1.0251 4.10149V4.12477C1.0251 5.24216 1.81658 6.17333 2.86414 6.38284C2.67791 6.42939 2.46839 6.45267 2.25888 6.45267C2.11921 6.45267 1.95626 6.42939 1.81658 6.40612C2.11921 7.314 2.95725 7.98909 3.95825 7.98909C3.16676 8.59434 2.18905 8.96681 1.11821 8.96681C0.931979 8.96681 0.745747 8.96681 0.582794 8.94353C1.60707 9.59534 2.7943 9.96781 4.09793 9.96781C8.31143 9.96781 10.616 6.47595 10.616 3.44968C10.616 3.35656 10.616 3.24017 10.616 3.14705C11.0583 2.84443 11.4541 2.44868 11.7567 1.9831Z" fill="black"/>
</svg>
