<svg width="14" height="13" viewBox="0 0 14 13" fill="none" xmlns="http://www.w3.org/2000/svg">
<path fill-rule="evenodd" clip-rule="evenodd" d="M7.15644 0.226562C3.5655 0.226562 0.676544 3.11552 0.676544 6.70646C0.676544 9.56841 2.53951 11.9984 5.10447 12.8624C5.42847 12.9164 5.53647 12.7274 5.53647 12.5384C5.53647 12.3764 5.53647 11.9714 5.53647 11.4314C3.7275 11.8364 3.3495 10.5674 3.3495 10.5674C3.05251 9.81141 2.62051 9.62241 2.62051 9.62241C2.02652 9.21742 2.67451 9.21742 2.67451 9.21742C3.3225 9.27142 3.6735 9.89241 3.6735 9.89241C4.24049 10.8914 5.18547 10.5944 5.56347 10.4324C5.61747 10.0004 5.77946 9.73041 5.96846 9.56841C4.53748 9.40642 3.02551 8.83943 3.02551 6.35546C3.02551 5.65348 3.2685 5.05948 3.7005 4.62749C3.6465 4.46549 3.4035 3.81751 3.75449 2.89952C3.75449 2.89952 4.29449 2.73752 5.53647 3.57451C6.04946 3.43951 6.61645 3.35851 7.15644 3.35851C7.69643 3.35851 8.26342 3.43951 8.77641 3.57451C10.0184 2.73752 10.5584 2.89952 10.5584 2.89952C10.9094 3.79051 10.6934 4.4385 10.6124 4.62749C11.0174 5.08648 11.2874 5.65348 11.2874 6.35546C11.2874 8.83943 9.7754 9.37942 8.31742 9.54141C8.56042 9.73041 8.74941 10.1354 8.74941 10.7294C8.74941 11.5934 8.74941 12.2954 8.74941 12.5114C8.74941 12.6734 8.85741 12.8894 9.20841 12.8354C11.7734 11.9984 13.6363 9.56841 13.6363 6.70646C13.6363 3.11552 10.7474 0.226562 7.15644 0.226562Z" fill="black"/>
</svg>
