<svg width="15" height="14" viewBox="0 0 15 14" fill="none" xmlns="http://www.w3.org/2000/svg">
<path d="M7.55035 1.44721C9.35906 1.44721 9.57325 1.45398 10.2878 1.48656C10.7174 1.49182 11.1429 1.5707 11.5458 1.71979C11.838 1.83248 12.1034 2.00511 12.3249 2.22656C12.5463 2.44802 12.7189 2.71339 12.8316 3.00559C12.9807 3.40853 13.0596 3.83406 13.0649 4.26366C13.0971 4.97817 13.1042 5.19237 13.1042 7.00108C13.1042 8.80979 13.0974 9.02398 13.0649 9.7385C13.0596 10.1681 12.9807 10.5936 12.8316 10.9966C12.7189 11.2888 12.5463 11.5541 12.3249 11.7756C12.1034 11.997 11.838 12.1697 11.5458 12.2824C11.1429 12.4315 10.7174 12.5103 10.2878 12.5156C9.57357 12.5479 9.35938 12.5549 7.55035 12.5549C5.74132 12.5549 5.52712 12.5482 4.81293 12.5156C4.38332 12.5103 3.9578 12.4315 3.55486 12.2824C3.26266 12.1697 2.99729 11.997 2.77583 11.7756C2.55438 11.5541 2.38175 11.2888 2.26906 10.9966C2.11997 10.5936 2.04109 10.1681 2.03583 9.7385C2.00357 9.02398 1.99648 8.80979 1.99648 7.00108C1.99648 5.19237 2.00325 4.97817 2.03583 4.26366C2.04109 3.83406 2.11997 3.40853 2.26906 3.00559C2.38175 2.71339 2.55438 2.44802 2.77583 2.22656C2.99729 2.00511 3.26266 1.83248 3.55486 1.71979C3.9578 1.5707 4.38332 1.49182 4.81293 1.48656C5.52744 1.4543 5.74164 1.44721 7.55035 1.44721ZM7.55035 0.226562C5.71164 0.226562 5.48002 0.234304 4.75744 0.267208C4.1952 0.278391 3.63893 0.384847 3.11228 0.582046C2.66051 0.752261 2.25131 1.019 1.91325 1.36366C1.56828 1.70184 1.30131 2.11127 1.13099 2.56334C0.933792 3.08998 0.827337 3.64625 0.816154 4.2085C0.783896 4.93043 0.776154 5.16205 0.776154 7.00076C0.776154 8.83946 0.783895 9.07108 0.816799 9.79366C0.827982 10.3559 0.934438 10.9122 1.13164 11.4388C1.30177 11.8908 1.56852 12.3002 1.91325 12.6385C2.2515 12.9832 2.66092 13.25 3.11293 13.4201C3.63957 13.6173 4.19585 13.7238 4.75809 13.7349C5.48067 13.7672 5.71132 13.7756 7.55099 13.7756C9.39067 13.7756 9.62132 13.7679 10.3439 13.7349C10.9061 13.7238 11.4624 13.6173 11.9891 13.4201C12.4389 13.2457 12.8474 12.9794 13.1885 12.6381C13.5295 12.2968 13.7956 11.8882 13.9697 11.4382C14.1669 10.9115 14.2734 10.3553 14.2845 9.79301C14.3168 9.07108 14.3245 8.83946 14.3245 7.00076C14.3245 5.16205 14.3168 4.93043 14.2839 4.20785C14.2727 3.64561 14.1663 3.08934 13.9691 2.56269C13.7989 2.11068 13.5322 1.70126 13.1874 1.36301C12.8492 1.01828 12.4398 0.751533 11.9878 0.581401C11.4611 0.384201 10.9048 0.277746 10.3426 0.266563C9.62067 0.234304 9.38906 0.226562 7.55035 0.226562Z" fill="black"/>
<path d="M7.55174 3.52344C6.86372 3.52344 6.19114 3.72746 5.61907 4.10971C5.047 4.49195 4.60113 5.03525 4.33783 5.6709C4.07454 6.30655 4.00565 7.00601 4.13987 7.68081C4.2741 8.35561 4.60541 8.97546 5.09192 9.46197C5.57843 9.94847 6.19827 10.2798 6.87308 10.414C7.54788 10.5482 8.24733 10.4794 8.88298 10.2161C9.51864 9.95276 10.0619 9.50689 10.4442 8.93481C10.8264 8.36274 11.0304 7.69017 11.0304 7.00215C11.0304 6.07954 10.6639 5.19471 10.0116 4.54233C9.35917 3.88994 8.47435 3.52344 7.55174 3.52344ZM7.55174 9.26021C7.10514 9.26021 6.66856 9.12778 6.29723 8.87966C5.92589 8.63154 5.63647 8.27888 5.46556 7.86627C5.29465 7.45366 5.24994 6.99964 5.33706 6.56162C5.42419 6.1236 5.63925 5.72125 5.95505 5.40545C6.27084 5.08966 6.67319 4.8746 7.11121 4.78747C7.54923 4.70034 8.00326 4.74506 8.41586 4.91597C8.82847 5.08687 9.18113 5.3763 9.42925 5.74763C9.67737 6.11897 9.8098 6.55554 9.8098 7.00215C9.8098 7.60102 9.5719 8.17537 9.14843 8.59884C8.72496 9.02231 8.15062 9.26021 7.55174 9.26021Z" fill="black"/>
<path d="M11.1672 4.19807C11.6161 4.19807 11.9801 3.83412 11.9801 3.38517C11.9801 2.93621 11.6161 2.57227 11.1672 2.57227C10.7182 2.57227 10.3543 2.93621 10.3543 3.38517C10.3543 3.83412 10.7182 4.19807 11.1672 4.19807Z" fill="black"/>
</svg>
