<svg width="136" height="23" viewBox="0 0 136 23" fill="none" xmlns="http://www.w3.org/2000/svg">
<path d="M127.712 5.52271C128.446 5.52271 129.079 5.67604 129.612 5.98271C130.146 6.27604 130.552 6.68271 130.832 7.20271V5.66271H135.252V16.7427C135.252 17.796 135.059 18.756 134.672 19.6227C134.286 20.4894 133.659 21.1827 132.792 21.7027C131.939 22.2227 130.839 22.4827 129.492 22.4827C127.679 22.4827 126.239 22.056 125.172 21.2027C124.119 20.3627 123.519 19.216 123.372 17.7627H127.732C127.852 18.3494 128.332 18.6427 129.172 18.6427C129.692 18.6427 130.099 18.5094 130.392 18.2427C130.686 17.976 130.832 17.476 130.832 16.7427V15.4027C130.552 15.9227 130.146 16.336 129.612 16.6427C129.079 16.936 128.446 17.0827 127.712 17.0827C126.832 17.0827 126.039 16.856 125.332 16.4027C124.626 15.936 124.066 15.2694 123.652 14.4027C123.252 13.5227 123.052 12.4894 123.052 11.3027C123.052 10.116 123.252 9.08937 123.652 8.22271C124.066 7.34271 124.626 6.67604 125.332 6.22271C126.039 5.75604 126.832 5.52271 127.712 5.52271ZM130.832 11.3027C130.832 10.7027 130.679 10.236 130.372 9.90271C130.066 9.56937 129.672 9.40271 129.192 9.40271C128.712 9.40271 128.319 9.56937 128.012 9.90271C127.706 10.236 127.552 10.7027 127.552 11.3027C127.552 11.9027 127.706 12.3694 128.012 12.7027C128.319 13.036 128.712 13.2027 129.192 13.2027C129.672 13.2027 130.066 13.036 130.372 12.7027C130.679 12.3694 130.832 11.9027 130.832 11.3027Z" fill="black"/>
<path d="M117.607 5.58276C118.9 5.58276 119.907 6.0161 120.627 6.88276C121.36 7.74943 121.727 8.92276 121.727 10.4028V16.9428H117.307V10.9628C117.307 10.4294 117.16 10.0094 116.867 9.70276C116.587 9.38276 116.207 9.22276 115.727 9.22276C115.234 9.22276 114.847 9.38276 114.567 9.70276C114.287 10.0094 114.147 10.4294 114.147 10.9628V16.9428H109.707V5.66276H114.147V7.38276C114.494 6.84943 114.954 6.4161 115.527 6.08276C116.114 5.74943 116.807 5.58276 117.607 5.58276Z" fill="black"/>
<path d="M105.502 4.76279C104.728 4.76279 104.108 4.55613 103.642 4.14279C103.175 3.72946 102.942 3.20946 102.942 2.58279C102.942 1.94279 103.175 1.41613 103.642 1.00279C104.108 0.576126 104.728 0.362793 105.502 0.362793C106.262 0.362793 106.875 0.576126 107.342 1.00279C107.808 1.41613 108.042 1.94279 108.042 2.58279C108.042 3.20946 107.808 3.72946 107.342 4.14279C106.875 4.55613 106.262 4.76279 105.502 4.76279ZM107.702 5.66279V16.9428H103.262V5.66279H107.702Z" fill="black"/>
<path d="M97.2164 5.58276C98.5097 5.58276 99.5164 6.0161 100.236 6.88276C100.97 7.74943 101.336 8.92276 101.336 10.4028V16.9428H96.9164V10.9628C96.9164 10.4294 96.7697 10.0094 96.4764 9.70276C96.1964 9.38276 95.8164 9.22276 95.3364 9.22276C94.8431 9.22276 94.4564 9.38276 94.1764 9.70276C93.8964 10.0094 93.7564 10.4294 93.7564 10.9628V16.9428H89.3164V5.66276H93.7564V7.38276C94.1031 6.84943 94.5631 6.4161 95.1364 6.08276C95.7231 5.74943 96.4164 5.58276 97.2164 5.58276Z" fill="black"/>
<path d="M87.9122 11.2027C87.9122 11.5094 87.8922 11.8027 87.8522 12.0827H80.7122C80.7789 13.056 81.1855 13.5427 81.9322 13.5427C82.4122 13.5427 82.7589 13.3227 82.9722 12.8827H87.6722C87.5122 13.6827 87.1722 14.4027 86.6522 15.0427C86.1455 15.6694 85.4989 16.1694 84.7122 16.5427C83.9389 16.9027 83.0855 17.0827 82.1522 17.0827C81.0322 17.0827 80.0322 16.8494 79.1522 16.3827C78.2855 15.916 77.6055 15.2494 77.1122 14.3827C76.6322 13.5027 76.3922 12.476 76.3922 11.3027C76.3922 10.1294 76.6322 9.10937 77.1122 8.24271C77.6055 7.3627 78.2855 6.68937 79.1522 6.22271C80.0322 5.75604 81.0322 5.52271 82.1522 5.52271C83.2722 5.52271 84.2655 5.75604 85.1322 6.22271C86.0122 6.67604 86.6922 7.32937 87.1722 8.18271C87.6655 9.03604 87.9122 10.0427 87.9122 11.2027ZM83.4122 10.1427C83.4122 9.76937 83.2922 9.48937 83.0522 9.30271C82.8122 9.10271 82.5122 9.00271 82.1522 9.00271C81.3655 9.00271 80.9055 9.38271 80.7722 10.1427H83.4122Z" fill="black"/>
<path d="M61.5336 9.84282C61.5336 8.44282 61.8136 7.19616 62.3736 6.10282C62.9469 5.00949 63.7602 4.16282 64.8136 3.56282C65.8669 2.94949 67.1069 2.64282 68.5336 2.64282C69.7602 2.64282 70.8536 2.87616 71.8136 3.34282C72.7869 3.79616 73.5736 4.44282 74.1736 5.28282C74.7869 6.12282 75.1936 7.10282 75.3936 8.22282H70.7136C70.5002 7.75616 70.1936 7.39616 69.7936 7.14282C69.4069 6.87616 68.9602 6.74282 68.4536 6.74282C67.7069 6.74282 67.1136 7.02282 66.6736 7.58282C66.2469 8.14282 66.0336 8.89616 66.0336 9.84282C66.0336 10.7895 66.2469 11.5428 66.6736 12.1028C67.1136 12.6628 67.7069 12.9428 68.4536 12.9428C68.9602 12.9428 69.4069 12.8162 69.7936 12.5628C70.1936 12.2962 70.5002 11.9295 70.7136 11.4628H75.3936C75.1936 12.5828 74.7869 13.5628 74.1736 14.4028C73.5736 15.2428 72.7869 15.8962 71.8136 16.3628C70.8536 16.8162 69.7602 17.0428 68.5336 17.0428C67.1069 17.0428 65.8669 16.7428 64.8136 16.1428C63.7602 15.5295 62.9469 14.6762 62.3736 13.5828C61.8136 12.4895 61.5336 11.2428 61.5336 9.84282Z" fill="black"/>
<path d="M57.131 11.2027C57.131 11.5094 57.111 11.8027 57.071 12.0827H49.931C49.9976 13.056 50.4043 13.5427 51.151 13.5427C51.631 13.5427 51.9776 13.3227 52.191 12.8827H56.891C56.731 13.6827 56.391 14.4027 55.871 15.0427C55.3643 15.6694 54.7176 16.1694 53.931 16.5427C53.1576 16.9027 52.3043 17.0827 51.371 17.0827C50.251 17.0827 49.251 16.8494 48.371 16.3827C47.5043 15.916 46.8243 15.2494 46.331 14.3827C45.851 13.5027 45.611 12.476 45.611 11.3027C45.611 10.1294 45.851 9.10937 46.331 8.24271C46.8243 7.3627 47.5043 6.68937 48.371 6.22271C49.251 5.75604 50.251 5.52271 51.371 5.52271C52.491 5.52271 53.4843 5.75604 54.351 6.22271C55.231 6.67604 55.911 7.32937 56.391 8.18271C56.8843 9.03604 57.131 10.0427 57.131 11.2027ZM52.631 10.1427C52.631 9.76937 52.511 9.48937 52.271 9.30271C52.031 9.10271 51.731 9.00271 51.371 9.00271C50.5843 9.00271 50.1243 9.38271 49.991 10.1427H52.631Z" fill="black"/>
<path d="M32.0172 11.3028C32.0172 10.1162 32.2172 9.08949 32.6172 8.22282C33.0305 7.34282 33.5905 6.67616 34.2972 6.22282C35.0039 5.75616 35.7972 5.52282 36.6772 5.52282C37.4105 5.52282 38.0372 5.67616 38.5572 5.98282C39.0905 6.27616 39.4972 6.68282 39.7772 7.20282V2.14282H44.2172V16.9428H39.7772V15.4028C39.4972 15.9228 39.0905 16.3362 38.5572 16.6428C38.0372 16.9362 37.4105 17.0828 36.6772 17.0828C35.7972 17.0828 35.0039 16.8562 34.2972 16.4028C33.5905 15.9362 33.0305 15.2695 32.6172 14.4028C32.2172 13.5228 32.0172 12.4895 32.0172 11.3028ZM39.7972 11.3028C39.7972 10.7028 39.6439 10.2362 39.3372 9.90282C39.0305 9.56949 38.6372 9.40282 38.1572 9.40282C37.6772 9.40282 37.2839 9.56949 36.9772 9.90282C36.6705 10.2362 36.5172 10.7028 36.5172 11.3028C36.5172 11.9028 36.6705 12.3695 36.9772 12.7028C37.2839 13.0362 37.6772 13.2028 38.1572 13.2028C38.6372 13.2028 39.0305 13.0362 39.3372 12.7028C39.6439 12.3695 39.7972 11.9028 39.7972 11.3028Z" fill="black"/>
<path d="M18.4235 11.3027C18.4235 10.116 18.6235 9.08937 19.0235 8.22271C19.4368 7.34271 19.9968 6.67604 20.7035 6.22271C21.4101 5.75604 22.2035 5.52271 23.0835 5.52271C23.8168 5.52271 24.4501 5.67604 24.9835 5.98271C25.5168 6.27604 25.9235 6.68271 26.2035 7.20271V5.66271H30.6235V16.9427H26.2035V15.4027C25.9235 15.9227 25.5168 16.336 24.9835 16.6427C24.4501 16.936 23.8168 17.0827 23.0835 17.0827C22.2035 17.0827 21.4101 16.856 20.7035 16.4027C19.9968 15.936 19.4368 15.2694 19.0235 14.4027C18.6235 13.5227 18.4235 12.4894 18.4235 11.3027ZM26.2035 11.3027C26.2035 10.7027 26.0501 10.236 25.7435 9.90271C25.4368 9.56937 25.0435 9.40271 24.5635 9.40271C24.0835 9.40271 23.6901 9.56937 23.3835 9.90271C23.0768 10.236 22.9235 10.7027 22.9235 11.3027C22.9235 11.9027 23.0768 12.3694 23.3835 12.7027C23.6901 13.036 24.0835 13.2027 24.5635 13.2027C25.0435 13.2027 25.4368 13.036 25.7435 12.7027C26.0501 12.3694 26.2035 11.9027 26.2035 11.3027Z" fill="black"/>
<path d="M17.02 2.78271V16.9427H12.6V9.88271L10.42 16.9427H6.62L4.44 9.88271V16.9427H0V2.78271H5.44L8.56 11.2827L11.6 2.78271H17.02Z" fill="black"/>
</svg>
