<svg width="232" height="19" viewBox="0 0 232 19" fill="none" xmlns="http://www.w3.org/2000/svg">
<path d="M225.717 4.55078C226.303 4.55078 226.81 4.67345 227.237 4.91878C227.663 5.15345 227.989 5.47878 228.213 5.89478V4.66278H231.749V13.5268C231.749 14.3694 231.594 15.1374 231.285 15.8308C230.975 16.5241 230.474 17.0788 229.781 17.4948C229.098 17.9108 228.218 18.1188 227.141 18.1188C225.69 18.1188 224.538 17.7774 223.685 17.0948C222.842 16.4228 222.362 15.5054 222.245 14.3428H225.733C225.829 14.8121 226.213 15.0468 226.885 15.0468C227.301 15.0468 227.626 14.9401 227.861 14.7268C228.095 14.5134 228.213 14.1134 228.213 13.5268V12.4548C227.989 12.8708 227.663 13.2014 227.237 13.4468C226.81 13.6814 226.303 13.7988 225.717 13.7988C225.013 13.7988 224.378 13.6174 223.813 13.2548C223.247 12.8814 222.799 12.3481 222.469 11.6548C222.149 10.9508 221.989 10.1241 221.989 9.17478C221.989 8.22545 222.149 7.40412 222.469 6.71078C222.799 6.00678 223.247 5.47345 223.813 5.11078C224.378 4.73745 225.013 4.55078 225.717 4.55078ZM228.213 9.17478C228.213 8.69478 228.09 8.32145 227.845 8.05478C227.599 7.78812 227.285 7.65478 226.901 7.65478C226.517 7.65478 226.202 7.78812 225.957 8.05478C225.711 8.32145 225.589 8.69478 225.589 9.17478C225.589 9.65478 225.711 10.0281 225.957 10.2948C226.202 10.5614 226.517 10.6948 226.901 10.6948C227.285 10.6948 227.599 10.5614 227.845 10.2948C228.09 10.0281 228.213 9.65478 228.213 9.17478Z" fill="black" fill-opacity="0.6"/>
<path d="M221.345 9.09478C221.345 9.34012 221.329 9.57478 221.297 9.79878H215.585C215.639 10.5774 215.964 10.9668 216.561 10.9668C216.945 10.9668 217.223 10.7908 217.393 10.4388H221.153C221.025 11.0788 220.753 11.6548 220.337 12.1668C219.932 12.6681 219.415 13.0681 218.785 13.3668C218.167 13.6548 217.484 13.7988 216.737 13.7988C215.841 13.7988 215.041 13.6121 214.337 13.2388C213.644 12.8654 213.1 12.3321 212.705 11.6388C212.321 10.9348 212.129 10.1134 212.129 9.17478C212.129 8.23612 212.321 7.42011 212.705 6.72678C213.1 6.02278 213.644 5.48411 214.337 5.11078C215.041 4.73745 215.841 4.55078 216.737 4.55078C217.633 4.55078 218.428 4.73745 219.121 5.11078C219.825 5.47345 220.369 5.99611 220.753 6.67878C221.148 7.36145 221.345 8.16678 221.345 9.09478ZM217.745 8.24678C217.745 7.94811 217.649 7.72411 217.457 7.57478C217.265 7.41478 217.025 7.33478 216.737 7.33478C216.108 7.33478 215.74 7.63878 215.633 8.24678H217.745Z" fill="black" fill-opacity="0.6"/>
<path d="M209.244 3.94285C208.626 3.94285 208.13 3.77752 207.756 3.44685C207.383 3.11619 207.196 2.70019 207.196 2.19885C207.196 1.68685 207.383 1.26552 207.756 0.934852C208.13 0.593518 208.626 0.422852 209.244 0.422852C209.852 0.422852 210.343 0.593518 210.716 0.934852C211.09 1.26552 211.276 1.68685 211.276 2.19885C211.276 2.70019 211.09 3.11619 210.716 3.44685C210.343 3.77752 209.852 3.94285 209.244 3.94285ZM211.036 14.3109C211.036 16.7749 209.799 18.0069 207.324 18.0069H206.14V14.9829H206.828C207.063 14.9829 207.228 14.9349 207.324 14.8389C207.431 14.7429 207.484 14.5882 207.484 14.3749V4.66285H211.036V14.3109Z" fill="black" fill-opacity="0.6"/>
<path d="M196.129 9.17478C196.129 8.22545 196.289 7.40412 196.609 6.71078C196.94 6.00678 197.388 5.47345 197.953 5.11078C198.519 4.73745 199.153 4.55078 199.857 4.55078C200.444 4.55078 200.951 4.67345 201.377 4.91878C201.804 5.15345 202.129 5.47878 202.353 5.89478V4.66278H205.889V13.6868H202.353V12.4548C202.129 12.8708 201.804 13.2014 201.377 13.4468C200.951 13.6814 200.444 13.7988 199.857 13.7988C199.153 13.7988 198.519 13.6174 197.953 13.2548C197.388 12.8814 196.94 12.3481 196.609 11.6548C196.289 10.9508 196.129 10.1241 196.129 9.17478ZM202.353 9.17478C202.353 8.69478 202.231 8.32145 201.985 8.05478C201.74 7.78812 201.425 7.65478 201.041 7.65478C200.657 7.65478 200.343 7.78812 200.097 8.05478C199.852 8.32145 199.729 8.69478 199.729 9.17478C199.729 9.65478 199.852 10.0281 200.097 10.2948C200.343 10.5614 200.657 10.6948 201.041 10.6948C201.425 10.6948 201.74 10.5614 201.985 10.2948C202.231 10.0281 202.353 9.65478 202.353 9.17478Z" fill="black" fill-opacity="0.6"/>
<path d="M192.286 4.66284V13.6868H188.734V12.3108C188.457 12.7375 188.084 13.0842 187.614 13.3508C187.156 13.6175 186.606 13.7508 185.966 13.7508C184.932 13.7508 184.121 13.4042 183.534 12.7108C182.958 12.0175 182.67 11.0788 182.67 9.89484V4.66284H186.206V9.44684C186.206 9.87351 186.318 10.2148 186.542 10.4708C186.777 10.7162 187.086 10.8388 187.47 10.8388C187.865 10.8388 188.174 10.7162 188.398 10.4708C188.622 10.2148 188.734 9.87351 188.734 9.44684V4.66284H192.286Z" fill="black" fill-opacity="0.6"/>
<path d="M181.13 1.84692V13.6869H177.578V1.84692H181.13Z" fill="black" fill-opacity="0.6"/>
<path d="M166.223 9.17478C166.223 8.22545 166.383 7.40412 166.703 6.71078C167.034 6.00678 167.482 5.47345 168.047 5.11078C168.612 4.73745 169.247 4.55078 169.951 4.55078C170.538 4.55078 171.044 4.67345 171.471 4.91878C171.898 5.15345 172.223 5.47878 172.447 5.89478V4.66278H175.983V13.6868H172.447V12.4548C172.223 12.8708 171.898 13.2014 171.471 13.4468C171.044 13.6814 170.538 13.7988 169.951 13.7988C169.247 13.7988 168.612 13.6174 168.047 13.2548C167.482 12.8814 167.034 12.3481 166.703 11.6548C166.383 10.9508 166.223 10.1241 166.223 9.17478ZM172.447 9.17478C172.447 8.69478 172.324 8.32145 172.079 8.05478C171.834 7.78812 171.519 7.65478 171.135 7.65478C170.751 7.65478 170.436 7.78812 170.191 8.05478C169.946 8.32145 169.823 8.69478 169.823 9.17478C169.823 9.65478 169.946 10.0281 170.191 10.2948C170.436 10.5614 170.751 10.6948 171.135 10.6948C171.519 10.6948 171.834 10.5614 172.079 10.2948C172.324 10.0281 172.447 9.65478 172.447 9.17478Z" fill="black" fill-opacity="0.6"/>
<path d="M165.099 1.84692V13.6869H161.547V1.84692H165.099Z" fill="black" fill-opacity="0.6"/>
<path d="M160.424 9.09478C160.424 9.34012 160.408 9.57478 160.376 9.79878H154.664C154.717 10.5774 155.042 10.9668 155.64 10.9668C156.024 10.9668 156.301 10.7908 156.472 10.4388H160.232C160.104 11.0788 159.832 11.6548 159.416 12.1668C159.01 12.6681 158.493 13.0681 157.864 13.3668C157.245 13.6548 156.562 13.7988 155.816 13.7988C154.92 13.7988 154.12 13.6121 153.416 13.2388C152.722 12.8654 152.178 12.3321 151.784 11.6388C151.4 10.9348 151.208 10.1134 151.208 9.17478C151.208 8.23612 151.4 7.42011 151.784 6.72678C152.178 6.02278 152.722 5.48411 153.416 5.11078C154.12 4.73745 154.92 4.55078 155.816 4.55078C156.712 4.55078 157.506 4.73745 158.2 5.11078C158.904 5.47345 159.448 5.99611 159.832 6.67878C160.226 7.36145 160.424 8.16678 160.424 9.09478ZM156.824 8.24678C156.824 7.94811 156.728 7.72411 156.536 7.57478C156.344 7.41478 156.104 7.33478 155.816 7.33478C155.186 7.33478 154.818 7.63878 154.712 8.24678H156.824Z" fill="black" fill-opacity="0.6"/>
<path d="M146.438 13.7988C145.585 13.7988 144.827 13.6601 144.166 13.3828C143.515 13.1054 142.998 12.7214 142.614 12.2308C142.23 11.7401 142.011 11.1854 141.958 10.5668H145.366C145.409 10.8334 145.521 11.0308 145.702 11.1588C145.894 11.2868 146.134 11.3508 146.422 11.3508C146.603 11.3508 146.747 11.3134 146.854 11.2388C146.961 11.1534 147.014 11.0521 147.014 10.9348C147.014 10.7321 146.902 10.5881 146.678 10.5028C146.454 10.4174 146.075 10.3214 145.542 10.2148C144.891 10.0868 144.353 9.94811 143.926 9.79878C143.51 9.64945 143.142 9.39345 142.822 9.03078C142.513 8.66812 142.358 8.16678 142.358 7.52678C142.358 6.97212 142.502 6.47078 142.79 6.02278C143.089 5.56411 143.526 5.20678 144.102 4.95078C144.678 4.68411 145.377 4.55078 146.198 4.55078C147.414 4.55078 148.363 4.84945 149.046 5.44678C149.739 6.04411 150.155 6.82278 150.294 7.78278H147.142C147.089 7.53745 146.977 7.35078 146.806 7.22278C146.635 7.08411 146.406 7.01478 146.118 7.01478C145.937 7.01478 145.798 7.05211 145.702 7.12678C145.606 7.19078 145.558 7.29211 145.558 7.43078C145.558 7.61211 145.67 7.75078 145.894 7.84678C146.118 7.93211 146.475 8.02278 146.966 8.11878C147.617 8.24678 148.166 8.39078 148.614 8.55078C149.062 8.71078 149.451 8.98811 149.782 9.38278C150.113 9.76678 150.278 10.3001 150.278 10.9828C150.278 11.5161 150.123 11.9961 149.814 12.4228C149.505 12.8494 149.057 13.1854 148.47 13.4308C147.894 13.6761 147.217 13.7988 146.438 13.7988Z" fill="black" fill-opacity="0.6"/>
<path d="M136.339 3.94285C135.72 3.94285 135.224 3.77752 134.851 3.44685C134.478 3.11619 134.291 2.70019 134.291 2.19885C134.291 1.68685 134.478 1.26552 134.851 0.934852C135.224 0.593518 135.72 0.422852 136.339 0.422852C136.947 0.422852 137.438 0.593518 137.811 0.934852C138.184 1.26552 138.371 1.68685 138.371 2.19885C138.371 2.70019 138.184 3.11619 137.811 3.44685C137.438 3.77752 136.947 3.94285 136.339 3.94285ZM138.099 4.66285V13.6869H134.547V4.66285H138.099Z" fill="black" fill-opacity="0.6"/>
<path d="M132.943 1.84692V13.6869H129.391V1.84692H132.943Z" fill="black" fill-opacity="0.6"/>
<path d="M118.036 9.17478C118.036 8.22545 118.196 7.40412 118.516 6.71078C118.846 6.00678 119.294 5.47345 119.86 5.11078C120.425 4.73745 121.06 4.55078 121.764 4.55078C122.35 4.55078 122.857 4.67345 123.284 4.91878C123.71 5.15345 124.036 5.47878 124.26 5.89478V4.66278H127.796V13.6868H124.26V12.4548C124.036 12.8708 123.71 13.2014 123.284 13.4468C122.857 13.6814 122.35 13.7988 121.764 13.7988C121.06 13.7988 120.425 13.6174 119.86 13.2548C119.294 12.8814 118.846 12.3481 118.516 11.6548C118.196 10.9508 118.036 10.1241 118.036 9.17478ZM124.26 9.17478C124.26 8.69478 124.137 8.32145 123.892 8.05478C123.646 7.78812 123.332 7.65478 122.948 7.65478C122.564 7.65478 122.249 7.78812 122.004 8.05478C121.758 8.32145 121.636 8.69478 121.636 9.17478C121.636 9.65478 121.758 10.0281 122.004 10.2948C122.249 10.5614 122.564 10.6948 122.948 10.6948C123.332 10.6948 123.646 10.5614 123.892 10.2948C124.137 10.0281 124.26 9.65478 124.26 9.17478Z" fill="black" fill-opacity="0.6"/>
<path d="M115.162 7.87889C115.845 8.03889 116.373 8.36955 116.746 8.87089C117.13 9.36155 117.322 9.93222 117.322 10.5829C117.322 11.5749 116.991 12.3429 116.33 12.8869C115.679 13.4202 114.741 13.6869 113.514 13.6869H107.578V2.35889H113.354C114.506 2.35889 115.413 2.60955 116.074 3.11089C116.735 3.61222 117.066 4.34289 117.066 5.30289C117.066 5.96422 116.89 6.52422 116.538 6.98289C116.197 7.43089 115.738 7.72955 115.162 7.87889ZM111.13 6.77489H112.506C112.826 6.77489 113.061 6.71089 113.21 6.58289C113.37 6.45489 113.45 6.25755 113.45 5.99089C113.45 5.71355 113.37 5.51089 113.21 5.38289C113.061 5.24422 112.826 5.17489 112.506 5.17489H111.13V6.77489ZM112.746 10.8389C113.066 10.8389 113.301 10.7802 113.45 10.6629C113.61 10.5349 113.69 10.3322 113.69 10.0549C113.69 9.51089 113.375 9.23889 112.746 9.23889H111.13V10.8389H112.746Z" fill="black" fill-opacity="0.6"/>
<path d="M101.495 3.94285C100.876 3.94285 100.38 3.77752 100.007 3.44685C99.6338 3.11619 99.4471 2.70019 99.4471 2.19885C99.4471 1.68685 99.6338 1.26552 100.007 0.934852C100.38 0.593518 100.876 0.422852 101.495 0.422852C102.103 0.422852 102.594 0.593518 102.967 0.934852C103.34 1.26552 103.527 1.68685 103.527 2.19885C103.527 2.70019 103.34 3.11619 102.967 3.44685C102.594 3.77752 102.103 3.94285 101.495 3.94285ZM103.255 4.66285V13.6869H99.7031V4.66285H103.255Z" fill="black" fill-opacity="0.6"/>
<path d="M94.8669 4.59888C95.9015 4.59888 96.7069 4.94554 97.2829 5.63888C97.8695 6.33221 98.1629 7.27088 98.1629 8.45488V13.6869H94.6269V8.90288C94.6269 8.47621 94.5095 8.14021 94.2749 7.89488C94.0509 7.63888 93.7469 7.51088 93.3629 7.51088C92.9682 7.51088 92.6589 7.63888 92.4349 7.89488C92.2109 8.14021 92.0989 8.47621 92.0989 8.90288V13.6869H88.5469V4.66288H92.0989V6.03888C92.3762 5.61221 92.7442 5.26554 93.2029 4.99888C93.6722 4.73221 94.2269 4.59888 94.8669 4.59888Z" fill="black" fill-opacity="0.6"/>
<path d="M87.4235 9.09478C87.4235 9.34012 87.4075 9.57478 87.3755 9.79878H81.6635C81.7169 10.5774 82.0422 10.9668 82.6395 10.9668C83.0235 10.9668 83.3009 10.7908 83.4715 10.4388H87.2315C87.1035 11.0788 86.8315 11.6548 86.4155 12.1668C86.0102 12.6681 85.4929 13.0681 84.8635 13.3668C84.2449 13.6548 83.5622 13.7988 82.8155 13.7988C81.9195 13.7988 81.1195 13.6121 80.4155 13.2388C79.7222 12.8654 79.1782 12.3321 78.7835 11.6388C78.3995 10.9348 78.2075 10.1134 78.2075 9.17478C78.2075 8.23612 78.3995 7.42011 78.7835 6.72678C79.1782 6.02278 79.7222 5.48411 80.4155 5.11078C81.1195 4.73745 81.9195 4.55078 82.8155 4.55078C83.7115 4.55078 84.5062 4.73745 85.1995 5.11078C85.9035 5.47345 86.4475 5.99611 86.8315 6.67878C87.2262 7.36145 87.4235 8.16678 87.4235 9.09478ZM83.8235 8.24678C83.8235 7.94811 83.7275 7.72411 83.5355 7.57478C83.3435 7.41478 83.1035 7.33478 82.8155 7.33478C82.1862 7.33478 81.8182 7.63878 81.7115 8.24678H83.8235Z" fill="black" fill-opacity="0.6"/>
<path d="M73.1195 13.7987C71.7648 13.7987 70.6448 13.4841 69.7595 12.8547C68.8848 12.2147 68.4101 11.2814 68.3354 10.0547H72.1115C72.1648 10.7054 72.4528 11.0307 72.9754 11.0307C73.1674 11.0307 73.3275 10.9881 73.4555 10.9027C73.5941 10.8067 73.6635 10.6627 73.6635 10.4707C73.6635 10.2041 73.5195 9.99075 73.2315 9.83075C72.9435 9.66008 72.4955 9.46808 71.8875 9.25475C71.1621 8.99875 70.5595 8.74808 70.0795 8.50275C69.6101 8.25742 69.2048 7.90008 68.8634 7.43075C68.5221 6.96141 68.3568 6.35875 68.3675 5.62275C68.3675 4.88675 68.5541 4.26275 68.9275 3.75075C69.3115 3.22808 69.8288 2.83341 70.4795 2.56675C71.1408 2.30008 71.8821 2.16675 72.7035 2.16675C74.0901 2.16675 75.1888 2.48675 75.9995 3.12675C76.8208 3.76675 77.2528 4.66808 77.2954 5.83075H73.4715C73.4608 5.51075 73.3808 5.28141 73.2315 5.14275C73.0821 5.00408 72.9008 4.93475 72.6875 4.93475C72.5381 4.93475 72.4155 4.98808 72.3195 5.09475C72.2235 5.19075 72.1755 5.32942 72.1755 5.51075C72.1755 5.76675 72.3141 5.98008 72.5915 6.15075C72.8795 6.31075 73.3328 6.50808 73.9515 6.74275C74.6661 7.00942 75.2528 7.26541 75.7114 7.51075C76.1808 7.75608 76.5861 8.09741 76.9275 8.53475C77.2688 8.97208 77.4395 9.52142 77.4395 10.1827C77.4395 10.8761 77.2688 11.5001 76.9275 12.0547C76.5861 12.5987 76.0901 13.0254 75.4395 13.3347C74.7888 13.6441 74.0155 13.7987 73.1195 13.7987Z" fill="black" fill-opacity="0.6"/>
<path d="M58.6458 5.89478C58.8698 5.47878 59.1898 5.15345 59.6058 4.91878C60.0324 4.67345 60.5391 4.55078 61.1258 4.55078C61.8298 4.55078 62.4644 4.73745 63.0298 5.11078C63.5951 5.47345 64.0378 6.00678 64.3578 6.71078C64.6884 7.40412 64.8537 8.22545 64.8537 9.17478C64.8537 10.1241 64.6884 10.9508 64.3578 11.6548C64.0378 12.3481 63.5951 12.8814 63.0298 13.2548C62.4644 13.6174 61.8298 13.7988 61.1258 13.7988C60.5391 13.7988 60.0324 13.6814 59.6058 13.4468C59.1898 13.2014 58.8698 12.8708 58.6458 12.4548V18.0068H55.0938V4.66278H58.6458V5.89478ZM61.2537 9.17478C61.2537 8.69478 61.1311 8.32145 60.8857 8.05478C60.6404 7.78812 60.3257 7.65478 59.9417 7.65478C59.5577 7.65478 59.2431 7.78812 58.9977 8.05478C58.7524 8.32145 58.6297 8.69478 58.6297 9.17478C58.6297 9.65478 58.7524 10.0281 58.9977 10.2948C59.2431 10.5614 59.5577 10.6948 59.9417 10.6948C60.3257 10.6948 60.6404 10.5614 60.8857 10.2948C61.1311 10.0281 61.2537 9.65478 61.2537 9.17478Z" fill="black" fill-opacity="0.6"/>
<path d="M43.7388 9.17478C43.7388 8.22545 43.8988 7.40412 44.2188 6.71078C44.5494 6.00678 44.9974 5.47345 45.5628 5.11078C46.1281 4.73745 46.7628 4.55078 47.4668 4.55078C48.0534 4.55078 48.5601 4.67345 48.9868 4.91878C49.4134 5.15345 49.7388 5.47878 49.9628 5.89478V4.66278H53.4988V13.6868H49.9628V12.4548C49.7388 12.8708 49.4134 13.2014 48.9868 13.4468C48.5601 13.6814 48.0534 13.7988 47.4668 13.7988C46.7628 13.7988 46.1281 13.6174 45.5628 13.2548C44.9974 12.8814 44.5494 12.3481 44.2188 11.6548C43.8988 10.9508 43.7388 10.1241 43.7388 9.17478ZM49.9628 9.17478C49.9628 8.69478 49.8401 8.32145 49.5948 8.05478C49.3494 7.78812 49.0348 7.65478 48.6508 7.65478C48.2668 7.65478 47.9521 7.78812 47.7068 8.05478C47.4614 8.32145 47.3388 8.69478 47.3388 9.17478C47.3388 9.65478 47.4614 10.0281 47.7068 10.2948C47.9521 10.5614 48.2668 10.6948 48.6508 10.6948C49.0348 10.6948 49.3494 10.5614 49.5948 10.2948C49.8401 10.0281 49.9628 9.65478 49.9628 9.17478Z" fill="black" fill-opacity="0.6"/>
<path d="M42.8659 10.6628V13.6868H41.5219C39.0473 13.6868 37.8099 12.4548 37.8099 9.99082V7.62282H36.6899V4.66282H37.8099V2.48682H41.3619V4.66282H42.8339V7.62282H41.3619V10.0548C41.3619 10.2682 41.4099 10.4228 41.5059 10.5188C41.6126 10.6148 41.7833 10.6628 42.0179 10.6628H42.8659Z" fill="black" fill-opacity="0.6"/>
<path d="M32.4137 4.59888C33.4484 4.59888 34.2538 4.94554 34.8298 5.63888C35.4164 6.33221 35.7098 7.27088 35.7098 8.45488V13.6869H32.1738V8.90288C32.1738 8.47621 32.0564 8.14021 31.8218 7.89488C31.5978 7.63888 31.2938 7.51088 30.9098 7.51088C30.5151 7.51088 30.2058 7.63888 29.9818 7.89488C29.7578 8.14021 29.6458 8.47621 29.6458 8.90288V13.6869H26.0938V4.66288H29.6458V6.03888C29.9231 5.61221 30.2911 5.26554 30.7498 4.99888C31.2191 4.73221 31.7737 4.59888 32.4137 4.59888Z" fill="black" fill-opacity="0.6"/>
<path d="M14.7388 9.17478C14.7388 8.22545 14.8988 7.40412 15.2188 6.71078C15.5494 6.00678 15.9974 5.47345 16.5628 5.11078C17.1281 4.73745 17.7628 4.55078 18.4668 4.55078C19.0534 4.55078 19.5601 4.67345 19.9868 4.91878C20.4134 5.15345 20.7388 5.47878 20.9628 5.89478V4.66278H24.4988V13.6868H20.9628V12.4548C20.7388 12.8708 20.4134 13.2014 19.9868 13.4468C19.5601 13.6814 19.0534 13.7988 18.4668 13.7988C17.7628 13.7988 17.1281 13.6174 16.5628 13.2548C15.9974 12.8814 15.5494 12.3481 15.2188 11.6548C14.8988 10.9508 14.7388 10.1241 14.7388 9.17478ZM20.9628 9.17478C20.9628 8.69478 20.8401 8.32145 20.5948 8.05478C20.3494 7.78812 20.0348 7.65478 19.6508 7.65478C19.2668 7.65478 18.9521 7.78812 18.7068 8.05478C18.4614 8.32145 18.3388 8.69478 18.3388 9.17478C18.3388 9.65478 18.4614 10.0281 18.7068 10.2948C18.9521 10.5614 19.2668 10.6948 19.6508 10.6948C20.0348 10.6948 20.3494 10.5614 20.5948 10.2948C20.8401 10.0281 20.9628 9.65478 20.9628 9.17478Z" fill="black" fill-opacity="0.6"/>
<path d="M13.616 2.35889V13.6869H10.08V8.03889L8.336 13.6869H5.296L3.552 8.03889V13.6869H0V2.35889H4.352L6.848 9.15889L9.28 2.35889H13.616Z" fill="black" fill-opacity="0.6"/>
</svg>
