<svg width="458" height="171" viewBox="0 0 458 171" fill="none" xmlns="http://www.w3.org/2000/svg">
<path d="M147.791 163.178H132.677L130.38 170.37H117.926L133.463 126.281H147.126L162.603 170.37H150.089L147.791 163.178ZM144.829 153.798L140.234 139.539L135.7 153.798H144.829Z" fill="black"/>
<path d="M116.786 126.281L106.327 170.37H91.757L85.8927 143.354L79.9075 170.37H65.3374L54.9993 126.281H67.8162L72.7736 156.424L79.4843 126.281H92.4825L99.0118 156.174L103.969 126.281H116.786Z" fill="black"/>
<path d="M50.0046 126.281V170.37H38.1551V126.281H50.0046Z" fill="black"/>
<path d="M31.0826 126.281V155.486C31.0826 160.447 29.7727 164.241 27.1529 166.868C24.5734 169.495 21.0064 170.808 16.452 170.808C11.6155 170.808 7.74625 169.411 4.84432 166.618C1.9827 163.825 0.551895 159.801 0.551895 154.548H12.2805C12.3208 158.008 13.5501 159.739 15.9684 159.739C18.1448 159.739 19.233 158.321 19.233 155.486V126.281H31.0826Z" fill="black"/>
<path d="M392.831 63.7422V107.832H380.981V63.7422H392.831Z" fill="black"/>
<path d="M363.581 107.832L355.117 91.5718H353.848V107.832H341.998V63.7422H360.679C364.105 63.7422 367.007 64.3676 369.385 65.6184C371.763 66.8275 373.557 68.516 374.766 70.684C375.975 72.8103 376.579 75.2076 376.579 77.8759C376.579 80.8778 375.773 83.5252 374.161 85.8183C372.589 88.0697 370.272 89.6748 367.209 90.6338L376.821 107.832H363.581ZM353.848 83.1917H359.712C361.324 83.1917 362.533 82.7956 363.339 82.0035C364.146 81.2113 364.549 80.0648 364.549 78.5639C364.549 77.1463 364.125 76.0415 363.279 75.2493C362.473 74.4155 361.284 73.9986 359.712 73.9986H353.848V83.1917Z" fill="black"/>
<path d="M323.324 100.64H308.21L305.913 107.832H293.459L308.996 63.7422H322.659L338.136 107.832H325.622L323.324 100.64ZM320.362 91.2592L315.767 77.0004L311.233 91.2592H320.362Z" fill="black"/>
<path d="M270.745 63.7422C275.219 63.7422 279.128 64.6803 282.474 66.5565C285.859 68.3909 288.459 70.9759 290.272 74.3112C292.086 77.6466 292.993 81.4615 292.993 85.7558C292.993 90.0084 292.066 93.8024 290.212 97.1378C288.398 100.473 285.799 103.1 282.413 105.018C279.068 106.894 275.178 107.832 270.745 107.832H253.877V63.7422H270.745ZM269.838 97.0127C273.304 97.0127 276.025 96.0329 278 94.0734C279.975 92.1138 280.962 89.3413 280.962 85.7558C280.962 82.1285 279.975 79.3352 278 77.3756C276.025 75.3744 273.304 74.3738 269.838 74.3738H265.727V97.0127H269.838Z" fill="black"/>
<path d="M235.556 107.832H223.706L207.927 83.1917V107.832H196.078V63.7422H207.927L223.706 88.6951V63.7422H235.556V107.832Z" fill="black"/>
<path d="M179.377 100.64H164.263L161.966 107.832H149.512L165.049 63.7422H178.712L194.189 107.832H181.675L179.377 100.64ZM176.415 91.2592L171.82 77.0004L167.286 91.2592H176.415Z" fill="black"/>
<path d="M145.666 63.7422V107.832H133.816V63.7422H145.666Z" fill="black"/>
<path d="M115.266 78.2512C114.581 77.0838 113.634 76.1874 112.424 75.562C111.256 74.9366 109.865 74.624 108.253 74.624C105.27 74.624 102.913 75.6246 101.179 77.6258C99.4867 79.627 98.6403 82.3162 98.6403 85.6933C98.6403 89.4873 99.5471 92.3849 101.361 94.3861C103.215 96.3456 105.895 97.3254 109.402 97.3254C113.553 97.3254 116.515 95.3867 118.289 91.5093H106.379V82.6914H128.506V94.5737C127.579 96.9085 126.209 99.0973 124.395 101.14C122.621 103.183 120.364 104.872 117.624 106.206C114.883 107.498 111.759 108.145 108.253 108.145C103.981 108.145 100.192 107.206 96.887 105.33C93.6224 103.412 91.0832 100.765 89.2695 97.3879C87.4961 93.9692 86.6094 90.0709 86.6094 85.6933C86.6094 81.3573 87.4961 77.5007 89.2695 74.1236C91.0832 70.7049 93.6224 68.0574 96.887 66.1813C100.152 64.2634 103.92 63.3045 108.192 63.3045C113.553 63.3045 117.986 64.6387 121.493 67.307C124.999 69.9753 127.176 73.6233 128.022 78.2512H115.266Z" fill="black"/>
<path d="M70.3733 100.64H55.2591L52.9617 107.832H40.5077L56.045 63.7422H69.7083L85.1852 107.832H72.6706L70.3733 100.64ZM67.4109 91.2592L62.8162 77.0004L58.2819 91.2592H67.4109Z" fill="black"/>
<path d="M30.0548 85.1929C32.5537 85.7766 34.5286 87.0691 35.9796 89.0703C37.4708 91.0298 38.2165 93.2812 38.2165 95.8245C38.2165 99.5768 36.967 102.516 34.4682 104.642C31.9693 106.769 28.4628 107.832 23.9487 107.832H2.84927V63.7422H23.2837C27.6365 63.7422 31.0423 64.7429 33.5008 66.7441C35.9997 68.7453 37.2492 71.5595 37.2492 75.1868C37.2492 77.7717 36.5841 79.9397 35.2541 81.6908C33.9643 83.4002 32.2313 84.5675 30.0548 85.1929ZM14.6988 81.253H20.684C23.6665 81.253 25.1578 79.9814 25.1578 77.4382C25.1578 74.8115 23.6665 73.4982 20.684 73.4982H14.6988V81.253ZM21.5909 97.9508C24.5734 97.9508 26.0647 96.6583 26.0647 94.0734C26.0647 92.7392 25.6616 91.7178 24.8555 91.009C24.0897 90.3002 22.9814 89.9458 21.5304 89.9458H14.6988V97.9508H21.5909Z" fill="black"/>
<path d="M457.21 1.20386V45.2934H445.361V27.5951H430.911V45.2934H419.062V1.20386H430.911V17.7765H445.361V1.20386H457.21Z" fill="black"/>
<path d="M401.375 38.1015H386.261L383.963 45.2934H371.509L387.046 1.20386H400.71L416.187 45.2934H403.672L401.375 38.1015ZM398.412 28.7208L393.818 14.462L389.283 28.7208H398.412Z" fill="black"/>
<path d="M356.564 35.9127H369.804V45.2934H344.714V1.20386H356.564V35.9127Z" fill="black"/>
<path d="M326.04 38.1015H310.926L308.628 45.2934H296.174L311.712 1.20386H325.375L340.852 45.2934H328.337L326.04 38.1015ZM323.078 28.7208L318.483 14.462L313.949 28.7208H323.078Z" fill="black"/>
<path d="M273.461 1.20386C277.935 1.20386 281.844 2.14193 285.189 4.01809C288.575 5.85255 291.175 8.43747 292.988 11.7729C294.802 15.1082 295.709 18.9231 295.709 23.2174C295.709 27.47 294.782 31.264 292.928 34.5994C291.114 37.9348 288.514 40.5614 285.129 42.4792C281.784 44.3554 277.894 45.2934 273.461 45.2934H256.593V1.20386H273.461ZM272.554 34.4743C276.02 34.4743 278.741 33.4945 280.716 31.535C282.69 29.5755 283.678 26.8029 283.678 23.2174C283.678 19.5902 282.69 16.7968 280.716 14.8372C278.741 12.836 276.02 11.8354 272.554 11.8354H268.443V34.4743H272.554Z" fill="black"/>
<path d="M237.919 38.1015H222.805L220.508 45.2934H208.054L223.591 1.20386H237.254L252.731 45.2934H240.217L237.919 38.1015ZM234.957 28.7208L230.362 14.462L225.828 28.7208H234.957Z" fill="black"/>
<path d="M182.702 45.2934L169.341 25.9691V45.2934H157.491V1.20386H169.341V20.2155L182.581 1.20386H196.244L180.586 22.592L197.03 45.2934H182.702Z" fill="black"/>
<path d="M150.743 1.20386V45.2934H138.894V1.20386H150.743Z" fill="black"/>
<path d="M117.485 45.7312C112.527 45.7312 108.457 44.5221 105.273 42.104C102.089 39.6441 100.376 36.142 100.134 31.5975H112.769C112.89 33.1401 113.333 34.2658 114.099 34.9746C114.865 35.6833 115.853 36.0377 117.062 36.0377C118.15 36.0377 119.037 35.7667 119.722 35.2247C120.447 34.641 120.81 33.8489 120.81 32.8483C120.81 31.5558 120.226 30.5552 119.057 29.8464C117.888 29.1377 115.994 28.3455 113.374 27.47C110.593 26.511 108.336 25.5938 106.603 24.7183C104.91 23.801 103.419 22.4877 102.129 20.7784C100.879 19.0273 100.255 16.7551 100.255 13.9617C100.255 11.1266 100.94 8.70845 102.31 6.70722C103.681 4.6643 105.575 3.12168 107.993 2.07937C110.411 1.03707 113.152 0.515915 116.215 0.515915C121.173 0.515915 125.123 1.72499 128.065 4.14314C131.047 6.5196 132.639 9.87583 132.841 14.2118H119.964C119.923 12.8777 119.52 11.8771 118.754 11.21C118.029 10.5429 117.082 10.2094 115.913 10.2094C115.026 10.2094 114.301 10.4804 113.737 11.0224C113.172 11.5644 112.89 12.3357 112.89 13.3363C112.89 14.1701 113.192 14.8997 113.797 15.5251C114.442 16.1088 115.228 16.63 116.155 17.0886C117.082 17.5055 118.452 18.0475 120.266 18.7146C122.966 19.6735 125.183 20.6324 126.916 21.5914C128.689 22.5086 130.201 23.8219 131.45 25.5313C132.74 27.199 133.385 29.3253 133.385 31.9102C133.385 34.5368 132.74 36.8924 131.45 38.977C130.201 41.0616 128.367 42.7085 125.949 43.9176C123.571 45.1266 120.75 45.7312 117.485 45.7312Z" fill="black"/>
<path d="M70.958 1.20386V26.7821C70.958 29.1585 71.482 30.993 72.5299 32.2854C73.6181 33.5779 75.2505 34.2241 77.4269 34.2241C79.6034 34.2241 81.2357 33.5779 82.3239 32.2854C83.4524 30.9513 84.0167 29.1168 84.0167 26.7821V1.20386H95.8662V26.7821C95.8662 30.8262 95.04 34.2867 93.3875 37.1634C91.735 39.9985 89.478 42.1457 86.6163 43.6049C83.795 45.0224 80.6513 45.7312 77.1851 45.7312C73.7189 45.7312 70.6155 45.0224 67.8748 43.6049C65.1743 42.1457 63.0382 39.9985 61.4663 37.1634C59.9348 34.3284 59.169 30.8679 59.169 26.7821V1.20386H70.958Z" fill="black"/>
<path d="M52.6052 1.20386V45.2934H40.7557V20.966L32.7149 45.2934H22.8L14.6988 20.7784V45.2934H2.84927V1.20386H17.1775L27.8784 29.8465L38.3374 1.20386H52.6052Z" fill="black"/>
</svg>
