<svg width="68" height="14" viewBox="0 0 68 14" fill="none" xmlns="http://www.w3.org/2000/svg">
<path d="M65.6928 3.54539C65.0742 3.54539 64.5782 3.38006 64.2048 3.04939C63.8315 2.71872 63.6448 2.30272 63.6448 1.80139C63.6448 1.28939 63.8315 0.868058 64.2048 0.537391C64.5782 0.196057 65.0742 0.0253906 65.6928 0.0253906C66.3008 0.0253906 66.7915 0.196057 67.1648 0.537391C67.5382 0.868058 67.7248 1.28939 67.7248 1.80139C67.7248 2.30272 67.5382 2.71872 67.1648 3.04939C66.7915 3.38006 66.3008 3.54539 65.6928 3.54539ZM67.4528 4.26539V13.2894H63.9008V4.26539H67.4528Z" fill="black" fill-opacity="0.6"/>
<path d="M62.2966 1.4494V13.2894H58.7446V1.4494H62.2966Z" fill="black" fill-opacity="0.6"/>
<path d="M57.6212 8.69738C57.6212 8.94272 57.6052 9.17738 57.5732 9.40138H51.8612C51.9145 10.18 52.2399 10.5694 52.8372 10.5694C53.2212 10.5694 53.4985 10.3934 53.6692 10.0414H57.4292C57.3012 10.6814 57.0292 11.2574 56.6132 11.7694C56.2079 12.2707 55.6905 12.6707 55.0612 12.9694C54.4425 13.2574 53.7599 13.4014 53.0132 13.4014C52.1172 13.4014 51.3172 13.2147 50.6132 12.8414C49.9199 12.468 49.3759 11.9347 48.9812 11.2414C48.5972 10.5374 48.4052 9.71605 48.4052 8.77738C48.4052 7.83872 48.5972 7.02271 48.9812 6.32938C49.3759 5.62538 49.9199 5.08671 50.6132 4.71338C51.3172 4.34005 52.1172 4.15338 53.0132 4.15338C53.9092 4.15338 54.7039 4.34005 55.3972 4.71338C56.1012 5.07605 56.6452 5.59871 57.0292 6.28138C57.4239 6.96405 57.6212 7.76938 57.6212 8.69738ZM54.0212 7.84938C54.0212 7.55071 53.9252 7.32671 53.7332 7.17738C53.5412 7.01738 53.3012 6.93738 53.0132 6.93738C52.3839 6.93738 52.0159 7.24138 51.9092 7.84938H54.0212Z" fill="black" fill-opacity="0.6"/>
<path d="M41.5622 5.4974C41.7862 5.0814 42.1062 4.75607 42.5222 4.5214C42.9489 4.27607 43.4555 4.1534 44.0422 4.1534C44.7462 4.1534 45.3809 4.34007 45.9462 4.7134C46.5115 5.07607 46.9542 5.6094 47.2742 6.3134C47.6049 7.00674 47.7702 7.82807 47.7702 8.7774C47.7702 9.72674 47.6049 10.5534 47.2742 11.2574C46.9542 11.9507 46.5115 12.4841 45.9462 12.8574C45.3809 13.2201 44.7462 13.4014 44.0422 13.4014C43.4555 13.4014 42.9489 13.2841 42.5222 13.0494C42.1062 12.8041 41.7862 12.4734 41.5622 12.0574V13.2894H38.0102V1.4494H41.5622V5.4974ZM44.1702 8.7774C44.1702 8.2974 44.0475 7.92407 43.8022 7.6574C43.5569 7.39074 43.2422 7.2574 42.8582 7.2574C42.4742 7.2574 42.1595 7.39074 41.9142 7.6574C41.6689 7.92407 41.5462 8.2974 41.5462 8.7774C41.5462 9.2574 41.6689 9.63074 41.9142 9.8974C42.1595 10.1641 42.4742 10.2974 42.8582 10.2974C43.2422 10.2974 43.5569 10.1641 43.8022 9.8974C44.0475 9.63074 44.1702 9.2574 44.1702 8.7774Z" fill="black" fill-opacity="0.6"/>
<path d="M32.8394 4.20142C33.9914 4.20142 34.8821 4.54808 35.5114 5.24142C36.1514 5.93475 36.4714 6.87342 36.4714 8.05742V13.2894H32.9354V8.50542C32.9354 8.12142 32.8181 7.82275 32.5834 7.60942C32.3594 7.38542 32.0554 7.27342 31.6714 7.27342C31.2768 7.27342 30.9674 7.38542 30.7434 7.60942C30.5194 7.82275 30.4074 8.12142 30.4074 8.50542V13.2894H26.8714V8.50542C26.8714 8.12142 26.7541 7.82275 26.5194 7.60942C26.2954 7.38542 25.9914 7.27342 25.6074 7.27342C25.2128 7.27342 24.9034 7.38542 24.6794 7.60942C24.4554 7.82275 24.3434 8.12142 24.3434 8.50542V13.2894H20.7914V4.26542H24.3434V5.48142C24.5994 5.09742 24.9461 4.78808 25.3834 4.55342C25.8314 4.31875 26.3541 4.20142 26.9514 4.20142C27.6021 4.20142 28.1781 4.34542 28.6794 4.63342C29.1808 4.91075 29.5808 5.30542 29.8794 5.81742C30.2101 5.34808 30.6314 4.96408 31.1434 4.66542C31.6554 4.35608 32.2208 4.20142 32.8394 4.20142Z" fill="black" fill-opacity="0.6"/>
<path d="M19.6681 8.69738C19.6681 8.94272 19.6521 9.17738 19.6201 9.40138H13.9081C13.9614 10.18 14.2868 10.5694 14.8841 10.5694C15.2681 10.5694 15.5454 10.3934 15.7161 10.0414H19.4761C19.3481 10.6814 19.0761 11.2574 18.6601 11.7694C18.2548 12.2707 17.7374 12.6707 17.1081 12.9694C16.4894 13.2574 15.8068 13.4014 15.0601 13.4014C14.1641 13.4014 13.3641 13.2147 12.6601 12.8414C11.9668 12.468 11.4228 11.9347 11.0281 11.2414C10.6441 10.5374 10.4521 9.71605 10.4521 8.77738C10.4521 7.83872 10.6441 7.02271 11.0281 6.32938C11.4228 5.62538 11.9668 5.08671 12.6601 4.71338C13.3641 4.34005 14.1641 4.15338 15.0601 4.15338C15.9561 4.15338 16.7508 4.34005 17.4441 4.71338C18.1481 5.07605 18.6921 5.59871 19.0761 6.28138C19.4708 6.96405 19.6681 7.76938 19.6681 8.69738ZM16.0681 7.84938C16.0681 7.55071 15.9721 7.32671 15.7801 7.17738C15.5881 7.01738 15.3481 6.93738 15.0601 6.93738C14.4308 6.93738 14.0628 7.24138 13.9561 7.84938H16.0681Z" fill="black" fill-opacity="0.6"/>
<path d="M9.80544 5.84936C9.80544 6.56403 9.64011 7.2147 9.30944 7.80136C8.97878 8.37736 8.48811 8.83603 7.83744 9.17737C7.19744 9.5187 6.41878 9.68936 5.50144 9.68936H4.09344V13.2894H0.541443V1.96136H5.50144C6.88811 1.96136 7.94944 2.31336 8.68544 3.01736C9.43211 3.72136 9.80544 4.66536 9.80544 5.84936ZM5.10144 6.88937C5.83744 6.88937 6.20544 6.5427 6.20544 5.84936C6.20544 5.15603 5.83744 4.80936 5.10144 4.80936H4.09344V6.88937H5.10144Z" fill="black" fill-opacity="0.6"/>
</svg>
