<svg width="153" height="14" viewBox="0 0 153 14" fill="none" xmlns="http://www.w3.org/2000/svg">
<path d="M148.301 13.8894L146.077 10.2894V13.8894H142.525V2.04938H146.077V8.24138L148.333 4.86538H152.461L149.085 9.40938L152.541 13.8894H148.301Z" fill="black" fill-opacity="0.6"/>
<path d="M139.161 4.14537C138.543 4.14537 138.047 3.98003 137.673 3.64937C137.3 3.3187 137.113 2.9027 137.113 2.40137C137.113 1.88937 137.3 1.46803 137.673 1.13737C138.047 0.796033 138.543 0.625366 139.161 0.625366C139.769 0.625366 140.26 0.796033 140.633 1.13737C141.007 1.46803 141.193 1.88937 141.193 2.40137C141.193 2.9027 141.007 3.3187 140.633 3.64937C140.26 3.98003 139.769 4.14537 139.161 4.14537ZM140.921 4.86537V13.8894H137.369V4.86537H140.921Z" fill="black" fill-opacity="0.6"/>
<path d="M132.12 14.0014C131.266 14.0014 130.509 13.8627 129.848 13.5854C129.197 13.308 128.68 12.924 128.296 12.4334C127.912 11.9427 127.693 11.388 127.64 10.7694H131.048C131.09 11.036 131.202 11.2334 131.384 11.3614C131.576 11.4894 131.816 11.5534 132.104 11.5534C132.285 11.5534 132.429 11.516 132.536 11.4414C132.642 11.356 132.696 11.2547 132.696 11.1374C132.696 10.9347 132.584 10.7907 132.36 10.7054C132.136 10.62 131.757 10.524 131.224 10.4174C130.573 10.2894 130.034 10.1507 129.608 10.0014C129.192 9.85202 128.824 9.59602 128.504 9.23336C128.194 8.87069 128.04 8.36936 128.04 7.72936C128.04 7.17469 128.184 6.67336 128.472 6.22536C128.77 5.76669 129.208 5.40936 129.784 5.15336C130.36 4.88669 131.058 4.75336 131.88 4.75336C133.096 4.75336 134.045 5.05202 134.728 5.64936C135.421 6.24669 135.837 7.02536 135.976 7.98536H132.824C132.77 7.74002 132.658 7.55336 132.488 7.42536C132.317 7.28669 132.088 7.21736 131.8 7.21736C131.618 7.21736 131.48 7.25469 131.384 7.32936C131.288 7.39336 131.24 7.49469 131.24 7.63336C131.24 7.81469 131.352 7.95336 131.576 8.04936C131.8 8.13469 132.157 8.22536 132.648 8.32136C133.298 8.44936 133.848 8.59336 134.296 8.75336C134.744 8.91336 135.133 9.19069 135.464 9.58536C135.794 9.96936 135.96 10.5027 135.96 11.1854C135.96 11.7187 135.805 12.1987 135.496 12.6254C135.186 13.052 134.738 13.388 134.152 13.6334C133.576 13.8787 132.898 14.0014 132.12 14.0014Z" fill="black" fill-opacity="0.6"/>
<path d="M126.499 4.86536V13.8894H122.947V12.5134C122.67 12.94 122.297 13.2867 121.827 13.5534C121.369 13.82 120.819 13.9534 120.179 13.9534C119.145 13.9534 118.334 13.6067 117.747 12.9134C117.171 12.22 116.883 11.2814 116.883 10.0974V4.86536H120.419V9.64936C120.419 10.076 120.531 10.4174 120.755 10.6734C120.99 10.9187 121.299 11.0414 121.683 11.0414C122.078 11.0414 122.387 10.9187 122.611 10.6734C122.835 10.4174 122.947 10.076 122.947 9.64936V4.86536H126.499Z" fill="black" fill-opacity="0.6"/>
<path d="M115.345 2.56134V13.8893H111.809V8.24134L110.065 13.8893H107.025L105.281 8.24134V13.8893H101.729V2.56134H106.081L108.577 9.36134L111.009 2.56134H115.345Z" fill="black" fill-opacity="0.6"/>
<path d="M97.6571 10.8654V13.8894H96.3131C93.8384 13.8894 92.6011 12.6574 92.6011 10.1934V7.82539H91.4811V4.86539H92.6011V2.68939H96.1531V4.86539H97.6251V7.82539H96.1531V10.2574C96.1531 10.4707 96.2011 10.6254 96.2971 10.7214C96.4037 10.8174 96.5744 10.8654 96.8091 10.8654H97.6571Z" fill="black" fill-opacity="0.6"/>
<path d="M80.6861 9.37736C80.6861 8.42802 80.8461 7.60669 81.1661 6.91336C81.4967 6.20936 81.9447 5.67602 82.5101 5.31336C83.0754 4.94002 83.7101 4.75336 84.4141 4.75336C85.0007 4.75336 85.5074 4.87602 85.9341 5.12136C86.3607 5.35602 86.6861 5.68136 86.9101 6.09736V4.86536H90.4461V13.8894H86.9101V12.6574C86.6861 13.0734 86.3607 13.404 85.9341 13.6494C85.5074 13.884 85.0007 14.0014 84.4141 14.0014C83.7101 14.0014 83.0754 13.82 82.5101 13.4574C81.9447 13.084 81.4967 12.5507 81.1661 11.8574C80.8461 11.1534 80.6861 10.3267 80.6861 9.37736ZM86.9101 9.37736C86.9101 8.89736 86.7874 8.52402 86.5421 8.25736C86.2967 7.99069 85.9821 7.85736 85.5981 7.85736C85.2141 7.85736 84.8994 7.99069 84.6541 8.25736C84.4087 8.52402 84.2861 8.89736 84.2861 9.37736C84.2861 9.85736 84.4087 10.2307 84.6541 10.4974C84.8994 10.764 85.2141 10.8974 85.5981 10.8974C85.9821 10.8974 86.2967 10.764 86.5421 10.4974C86.7874 10.2307 86.9101 9.85736 86.9101 9.37736Z" fill="black" fill-opacity="0.6"/>
<path d="M79.5618 2.04938V13.8894H76.0098V2.04938H79.5618Z" fill="black" fill-opacity="0.6"/>
<path d="M70.8988 12.1773H67.1228L66.5628 13.8893H62.8348L66.9788 2.56134H71.0748L75.2028 13.8893H71.4588L70.8988 12.1773ZM70.0348 9.50534L69.0108 6.35334L67.9868 9.50534H70.0348Z" fill="black" fill-opacity="0.6"/>
<path d="M55.8796 13.8894L53.6556 10.2894V13.8894H50.1036V2.04938H53.6556V8.24138L55.9116 4.86538H60.0396L56.6636 9.40938L60.1196 13.8894H55.8796Z" fill="black" fill-opacity="0.6"/>
<path d="M48.4993 4.86536V13.8894H44.9473V12.5134C44.67 12.94 44.2967 13.2867 43.8273 13.5534C43.3687 13.82 42.8193 13.9534 42.1793 13.9534C41.1447 13.9534 40.334 13.6067 39.7473 12.9134C39.1713 12.22 38.8833 11.2814 38.8833 10.0974V4.86536H42.4193V9.64936C42.4193 10.076 42.5313 10.4174 42.7553 10.6734C42.99 10.9187 43.2993 11.0414 43.6833 11.0414C44.078 11.0414 44.3873 10.9187 44.6113 10.6734C44.8353 10.4174 44.9473 10.076 44.9473 9.64936V4.86536H48.4993Z" fill="black" fill-opacity="0.6"/>
<path d="M27.5923 9.37738C27.5923 8.42804 27.7523 7.60671 28.0723 6.91338C28.403 6.20938 28.851 5.67604 29.4163 5.31338C29.9817 4.94004 30.6163 4.75338 31.3203 4.75338C31.907 4.75338 32.4083 4.87604 32.8243 5.12138C33.251 5.35604 33.5763 5.68138 33.8003 6.09738V2.04938H37.3523V13.8894H33.8003V12.6574C33.5763 13.0734 33.251 13.404 32.8243 13.6494C32.4083 13.884 31.907 14.0014 31.3203 14.0014C30.6163 14.0014 29.9817 13.82 29.4163 13.4574C28.851 13.084 28.403 12.5507 28.0723 11.8574C27.7523 11.1534 27.5923 10.3267 27.5923 9.37738ZM33.8163 9.37738C33.8163 8.89738 33.6936 8.52404 33.4483 8.25738C33.203 7.99071 32.8883 7.85738 32.5043 7.85738C32.1203 7.85738 31.8057 7.99071 31.5603 8.25738C31.315 8.52404 31.1923 8.89738 31.1923 9.37738C31.1923 9.85738 31.315 10.2307 31.5603 10.4974C31.8057 10.764 32.1203 10.8974 32.5043 10.8974C32.8883 10.8974 33.203 10.764 33.4483 10.4974C33.6936 10.2307 33.8163 9.85738 33.8163 9.37738Z" fill="black" fill-opacity="0.6"/>
<path d="M22.1884 14.0014C21.2818 14.0014 20.4658 13.8147 19.7404 13.4414C19.0151 13.068 18.4444 12.5347 18.0284 11.8414C17.6231 11.1374 17.4204 10.316 17.4204 9.37736C17.4204 8.43869 17.6231 7.62269 18.0284 6.92936C18.4444 6.22536 19.0151 5.68669 19.7404 5.31336C20.4658 4.94002 21.2818 4.75336 22.1884 4.75336C23.0951 4.75336 23.9111 4.94002 24.6364 5.31336C25.3618 5.68669 25.9271 6.22536 26.3324 6.92936C26.7484 7.62269 26.9564 8.43869 26.9564 9.37736C26.9564 10.316 26.7484 11.1374 26.3324 11.8414C25.9271 12.5347 25.3618 13.068 24.6364 13.4414C23.9111 13.8147 23.0951 14.0014 22.1884 14.0014ZM22.1884 10.9294C22.5191 10.9294 22.7964 10.8014 23.0204 10.5454C23.2444 10.2787 23.3564 9.88936 23.3564 9.37736C23.3564 8.86536 23.2444 8.48136 23.0204 8.22536C22.7964 7.95869 22.5191 7.82536 22.1884 7.82536C21.8578 7.82536 21.5804 7.95869 21.3564 8.22536C21.1324 8.48136 21.0204 8.86536 21.0204 9.37736C21.0204 9.88936 21.1271 10.2787 21.3404 10.5454C21.5644 10.8014 21.8471 10.9294 22.1884 10.9294Z" fill="black" fill-opacity="0.6"/>
<path d="M13.9837 6.52939C14.3464 6.00672 14.789 5.59072 15.3117 5.28139C15.8344 4.96139 16.3784 4.80139 16.9437 4.80139V8.59339H15.9357C15.2637 8.59339 14.7677 8.71072 14.4477 8.94539C14.1384 9.18006 13.9837 9.59606 13.9837 10.1934V13.8894H10.4317V4.86539H13.9837V6.52939Z" fill="black" fill-opacity="0.6"/>
<path d="M9.30508 6.44934C9.30508 7.16401 9.13974 7.81467 8.80908 8.40134C8.47841 8.97734 7.98774 9.43601 7.33708 9.77734C6.69708 10.1187 5.91841 10.2893 5.00108 10.2893H3.59308V13.8893H0.0410767V2.56134H5.00108C6.38774 2.56134 7.44908 2.91334 8.18508 3.61734C8.93174 4.32134 9.30508 5.26534 9.30508 6.44934ZM4.60108 7.48934C5.33708 7.48934 5.70508 7.14267 5.70508 6.44934C5.70508 5.75601 5.33708 5.40934 4.60108 5.40934H3.59308V7.48934H4.60108Z" fill="black" fill-opacity="0.6"/>
</svg>
