<svg width="57" height="15" viewBox="0 0 57 15" fill="none" xmlns="http://www.w3.org/2000/svg">
<path d="M44.3805 8.79294C44.3805 7.60627 44.5805 6.57961 44.9805 5.71294C45.3938 4.83294 45.9538 4.16627 46.6605 3.71294C47.3672 3.24627 48.1605 3.01294 49.0405 3.01294C49.7738 3.01294 50.4072 3.16627 50.9405 3.47294C51.4738 3.76627 51.8805 4.17294 52.1605 4.69294V3.15294H56.5805V14.4329H52.1605V12.8929C51.8805 13.4129 51.4738 13.8263 50.9405 14.1329C50.4072 14.4263 49.7738 14.5729 49.0405 14.5729C48.1605 14.5729 47.3672 14.3463 46.6605 13.8929C45.9538 13.4263 45.3938 12.7596 44.9805 11.8929C44.5805 11.0129 44.3805 9.97961 44.3805 8.79294ZM52.1605 8.79294C52.1605 8.19294 52.0072 7.72627 51.7005 7.39294C51.3938 7.05961 51.0005 6.89294 50.5205 6.89294C50.0405 6.89294 49.6472 7.05961 49.3405 7.39294C49.0338 7.72627 48.8805 8.19294 48.8805 8.79294C48.8805 9.39294 49.0338 9.85961 49.3405 10.1929C49.6472 10.5263 50.0405 10.6929 50.5205 10.6929C51.0005 10.6929 51.3938 10.5263 51.7005 10.1929C52.0072 9.85961 52.1605 9.39294 52.1605 8.79294Z" fill="black"/>
<path d="M40.0845 5.233C40.5379 4.57966 41.0912 4.05966 41.7445 3.673C42.3979 3.273 43.0779 3.073 43.7845 3.073V7.813H42.5245C41.6845 7.813 41.0645 7.95966 40.6645 8.253C40.2779 8.54633 40.0845 9.06633 40.0845 9.813V14.433H35.6445V3.153H40.0845V5.233Z" fill="black"/>
<path d="M33.9536 10.6529V14.4329H32.2736C29.1803 14.4329 27.6336 12.8929 27.6336 9.81286V6.85286H26.2336V3.15286H27.6336V0.432861H32.0736V3.15286H33.9136V6.85286H32.0736V9.89286C32.0736 10.1595 32.1336 10.3529 32.2536 10.4729C32.387 10.5929 32.6003 10.6529 32.8936 10.6529H33.9536Z" fill="black"/>
<path d="M24.9283 3.15283V14.4328H20.4883V12.7128C20.1417 13.2462 19.675 13.6795 19.0883 14.0128C18.515 14.3462 17.8283 14.5128 17.0283 14.5128C15.735 14.5128 14.7217 14.0795 13.9883 13.2128C13.2683 12.3462 12.9083 11.1728 12.9083 9.69283V3.15283H17.3283V9.13283C17.3283 9.66617 17.4683 10.0928 17.7483 10.4128C18.0417 10.7195 18.4283 10.8728 18.9083 10.8728C19.4017 10.8728 19.7883 10.7195 20.0683 10.4128C20.3483 10.0928 20.4883 9.66617 20.4883 9.13283V3.15283H24.9283Z" fill="black"/>
<path d="M11.58 5.13295C11.58 6.02628 11.3733 6.83961 10.96 7.57295C10.5467 8.29295 9.93333 8.86628 9.12 9.29295C8.32 9.71961 7.34667 9.93295 6.2 9.93295H4.44V14.4329H0V0.272949H6.2C7.93333 0.272949 9.26 0.712949 10.18 1.59295C11.1133 2.47295 11.58 3.65295 11.58 5.13295ZM5.7 6.43295C6.62 6.43295 7.08 5.99962 7.08 5.13295C7.08 4.26628 6.62 3.83295 5.7 3.83295H4.44V6.43295H5.7Z" fill="black"/>
</svg>
