<svg width="284" height="19" viewBox="0 0 284 19" fill="none" xmlns="http://www.w3.org/2000/svg">
<path d="M273.56 9.17478C273.56 8.22545 273.72 7.40412 274.04 6.71078C274.37 6.00678 274.818 5.47345 275.384 5.11078C275.949 4.73745 276.584 4.55078 277.288 4.55078C277.874 4.55078 278.381 4.67345 278.808 4.91878C279.234 5.15345 279.56 5.47878 279.784 5.89478V4.66278H283.32V13.6868H279.784V12.4548C279.56 12.8708 279.234 13.2014 278.808 13.4468C278.381 13.6814 277.874 13.7988 277.288 13.7988C276.584 13.7988 275.949 13.6174 275.384 13.2548C274.818 12.8814 274.37 12.3481 274.04 11.6548C273.72 10.9508 273.56 10.1241 273.56 9.17478ZM279.784 9.17478C279.784 8.69478 279.661 8.32145 279.416 8.05478C279.17 7.78812 278.856 7.65478 278.472 7.65478C278.088 7.65478 277.773 7.78812 277.528 8.05478C277.282 8.32145 277.16 8.69478 277.16 9.17478C277.16 9.65478 277.282 10.0281 277.528 10.2948C277.773 10.5614 278.088 10.6948 278.472 10.6948C278.856 10.6948 279.17 10.5614 279.416 10.2948C279.661 10.0281 279.784 9.65478 279.784 9.17478Z" fill="black" fill-opacity="0.6"/>
<path d="M273.403 4.66284L267.627 18.0068H263.739L266.011 13.2388L262.251 4.66284H266.203L267.899 9.23884L269.483 4.66284H273.403Z" fill="black" fill-opacity="0.6"/>
<path d="M251.856 9.17478C251.856 8.22545 252.016 7.40412 252.336 6.71078C252.667 6.00678 253.115 5.47345 253.68 5.11078C254.246 4.73745 254.88 4.55078 255.584 4.55078C256.171 4.55078 256.678 4.67345 257.104 4.91878C257.531 5.15345 257.856 5.47878 258.08 5.89478V4.66278H261.616V13.6868H258.08V12.4548C257.856 12.8708 257.531 13.2014 257.104 13.4468C256.678 13.6814 256.171 13.7988 255.584 13.7988C254.88 13.7988 254.246 13.6174 253.68 13.2548C253.115 12.8814 252.667 12.3481 252.336 11.6548C252.016 10.9508 251.856 10.1241 251.856 9.17478ZM258.08 9.17478C258.08 8.69478 257.958 8.32145 257.712 8.05478C257.467 7.78812 257.152 7.65478 256.768 7.65478C256.384 7.65478 256.07 7.78812 255.824 8.05478C255.579 8.32145 255.456 8.69478 255.456 9.17478C255.456 9.65478 255.579 10.0281 255.824 10.2948C256.07 10.5614 256.384 10.6948 256.768 10.6948C257.152 10.6948 257.467 10.5614 257.712 10.2948C257.958 10.0281 258.08 9.65478 258.08 9.17478Z" fill="black" fill-opacity="0.6"/>
<path d="M240.981 9.17492C240.981 8.22559 241.141 7.40426 241.461 6.71092C241.792 6.00692 242.24 5.47359 242.805 5.11092C243.371 4.73759 244.005 4.55092 244.709 4.55092C245.296 4.55092 245.797 4.67359 246.213 4.91892C246.64 5.15359 246.965 5.47892 247.189 5.89492V1.84692H250.741V13.6869H247.189V12.4549C246.965 12.8709 246.64 13.2016 246.213 13.4469C245.797 13.6816 245.296 13.7989 244.709 13.7989C244.005 13.7989 243.371 13.6176 242.805 13.2549C242.24 12.8816 241.792 12.3483 241.461 11.6549C241.141 10.9509 240.981 10.1243 240.981 9.17492ZM247.205 9.17492C247.205 8.69492 247.083 8.32159 246.837 8.05492C246.592 7.78826 246.277 7.65492 245.893 7.65492C245.509 7.65492 245.195 7.78826 244.949 8.05492C244.704 8.32159 244.581 8.69492 244.581 9.17492C244.581 9.65492 244.704 10.0283 244.949 10.2949C245.195 10.5616 245.509 10.6949 245.893 10.6949C246.277 10.6949 246.592 10.5616 246.837 10.2949C247.083 10.0283 247.205 9.65492 247.205 9.17492Z" fill="black" fill-opacity="0.6"/>
<path d="M239.857 4.66284V13.6868H236.305V12.3108C236.028 12.7375 235.654 13.0842 235.185 13.3508C234.726 13.6175 234.177 13.7508 233.537 13.7508C232.502 13.7508 231.692 13.4042 231.105 12.7108C230.529 12.0175 230.241 11.0788 230.241 9.89484V4.66284H233.777V9.44684C233.777 9.87351 233.889 10.2148 234.113 10.4708C234.348 10.7162 234.657 10.8388 235.041 10.8388C235.436 10.8388 235.745 10.7162 235.969 10.4708C236.193 10.2148 236.305 9.87351 236.305 9.44684V4.66284H239.857Z" fill="black" fill-opacity="0.6"/>
<path d="M226.952 7.87889C227.634 8.03889 228.162 8.36955 228.536 8.87089C228.92 9.36155 229.112 9.93222 229.112 10.5829C229.112 11.5749 228.781 12.3429 228.12 12.8869C227.469 13.4202 226.53 13.6869 225.304 13.6869H219.368V2.35889H225.144C226.296 2.35889 227.202 2.60955 227.864 3.11089C228.525 3.61222 228.856 4.34289 228.856 5.30289C228.856 5.96422 228.68 6.52422 228.328 6.98289C227.986 7.43089 227.528 7.72955 226.952 7.87889ZM222.92 6.77489H224.296C224.616 6.77489 224.85 6.71089 225 6.58289C225.16 6.45489 225.24 6.25755 225.24 5.99089C225.24 5.71355 225.16 5.51089 225 5.38289C224.85 5.24422 224.616 5.17489 224.296 5.17489H222.92V6.77489ZM224.536 10.8389C224.856 10.8389 225.09 10.7802 225.24 10.6629C225.4 10.5349 225.48 10.3322 225.48 10.0549C225.48 9.51089 225.165 9.23889 224.536 9.23889H222.92V10.8389H224.536Z" fill="black" fill-opacity="0.6"/>
<path d="M213.285 3.94285C212.666 3.94285 212.17 3.77752 211.797 3.44685C211.423 3.11619 211.237 2.70019 211.237 2.19885C211.237 1.68685 211.423 1.26552 211.797 0.934852C212.17 0.593518 212.666 0.422852 213.285 0.422852C213.893 0.422852 214.383 0.593518 214.757 0.934852C215.13 1.26552 215.317 1.68685 215.317 2.19885C215.317 2.70019 215.13 3.11619 214.757 3.44685C214.383 3.77752 213.893 3.94285 213.285 3.94285ZM215.045 4.66285V13.6869H211.493V4.66285H215.045Z" fill="black" fill-opacity="0.6"/>
<path d="M206.656 4.59888C207.691 4.59888 208.496 4.94554 209.072 5.63888C209.659 6.33221 209.952 7.27088 209.952 8.45488V13.6869H206.416V8.90288C206.416 8.47621 206.299 8.14021 206.064 7.89488C205.84 7.63888 205.536 7.51088 205.152 7.51088C204.758 7.51088 204.448 7.63888 204.224 7.89488C204 8.14021 203.888 8.47621 203.888 8.90288V13.6869H200.336V4.66288H203.888V6.03888C204.166 5.61221 204.534 5.26554 204.992 4.99888C205.462 4.73221 206.016 4.59888 206.656 4.59888Z" fill="black" fill-opacity="0.6"/>
<path d="M199.213 9.09478C199.213 9.34012 199.197 9.57478 199.165 9.79878H193.453C193.506 10.5774 193.832 10.9668 194.429 10.9668C194.813 10.9668 195.09 10.7908 195.261 10.4388H199.021C198.893 11.0788 198.621 11.6548 198.205 12.1668C197.8 12.6681 197.282 13.0681 196.653 13.3668C196.034 13.6548 195.352 13.7988 194.605 13.7988C193.709 13.7988 192.909 13.6121 192.205 13.2388C191.512 12.8654 190.968 12.3321 190.573 11.6388C190.189 10.9348 189.997 10.1134 189.997 9.17478C189.997 8.23612 190.189 7.42011 190.573 6.72678C190.968 6.02278 191.512 5.48411 192.205 5.11078C192.909 4.73745 193.709 4.55078 194.605 4.55078C195.501 4.55078 196.296 4.73745 196.989 5.11078C197.693 5.47345 198.237 5.99611 198.621 6.67878C199.016 7.36145 199.213 8.16678 199.213 9.09478ZM195.613 8.24678C195.613 7.94811 195.517 7.72411 195.325 7.57478C195.133 7.41478 194.893 7.33478 194.605 7.33478C193.976 7.33478 193.608 7.63878 193.501 8.24678H195.613Z" fill="black" fill-opacity="0.6"/>
<path d="M185.227 13.7988C184.374 13.7988 183.617 13.6601 182.955 13.3828C182.305 13.1054 181.787 12.7214 181.403 12.2308C181.019 11.7401 180.801 11.1854 180.747 10.5668H184.155C184.198 10.8334 184.31 11.0308 184.491 11.1588C184.683 11.2868 184.923 11.3508 185.211 11.3508C185.393 11.3508 185.537 11.3134 185.643 11.2388C185.75 11.1534 185.803 11.0521 185.803 10.9348C185.803 10.7321 185.691 10.5881 185.467 10.5028C185.243 10.4174 184.865 10.3214 184.331 10.2148C183.681 10.0868 183.142 9.94811 182.715 9.79878C182.299 9.64945 181.931 9.39345 181.611 9.03078C181.302 8.66812 181.147 8.16678 181.147 7.52678C181.147 6.97212 181.291 6.47078 181.579 6.02278C181.878 5.56411 182.315 5.20678 182.891 4.95078C183.467 4.68411 184.166 4.55078 184.987 4.55078C186.203 4.55078 187.153 4.84945 187.835 5.44678C188.529 6.04411 188.945 6.82278 189.083 7.78278H185.931C185.878 7.53745 185.766 7.35078 185.595 7.22278C185.425 7.08411 185.195 7.01478 184.907 7.01478C184.726 7.01478 184.587 7.05211 184.491 7.12678C184.395 7.19078 184.347 7.29211 184.347 7.43078C184.347 7.61211 184.459 7.75078 184.683 7.84678C184.907 7.93211 185.265 8.02278 185.755 8.11878C186.406 8.24678 186.955 8.39078 187.403 8.55078C187.851 8.71078 188.241 8.98811 188.571 9.38278C188.902 9.76678 189.067 10.3001 189.067 10.9828C189.067 11.5161 188.913 11.9961 188.603 12.4228C188.294 12.8494 187.846 13.1854 187.259 13.4308C186.683 13.6761 186.006 13.7988 185.227 13.7988Z" fill="black" fill-opacity="0.6"/>
<path d="M173.656 4.59888C174.691 4.59888 175.496 4.94554 176.072 5.63888C176.659 6.33221 176.952 7.27088 176.952 8.45488V13.6869H173.416V8.90288C173.416 8.47621 173.299 8.14021 173.064 7.89488C172.84 7.63888 172.536 7.51088 172.152 7.51088C171.758 7.51088 171.448 7.63888 171.224 7.89488C171 8.14021 170.888 8.47621 170.888 8.90288V13.6869H167.336V4.66288H170.888V6.03888C171.166 5.61221 171.534 5.26554 171.992 4.99888C172.462 4.73221 173.016 4.59888 173.656 4.59888Z" fill="black" fill-opacity="0.6"/>
<path d="M155.981 9.17478C155.981 8.22545 156.141 7.40412 156.461 6.71078C156.792 6.00678 157.24 5.47345 157.805 5.11078C158.371 4.73745 159.005 4.55078 159.709 4.55078C160.296 4.55078 160.803 4.67345 161.229 4.91878C161.656 5.15345 161.981 5.47878 162.205 5.89478V4.66278H165.741V13.6868H162.205V12.4548C161.981 12.8708 161.656 13.2014 161.229 13.4468C160.803 13.6814 160.296 13.7988 159.709 13.7988C159.005 13.7988 158.371 13.6174 157.805 13.2548C157.24 12.8814 156.792 12.3481 156.461 11.6548C156.141 10.9508 155.981 10.1241 155.981 9.17478ZM162.205 9.17478C162.205 8.69478 162.083 8.32145 161.837 8.05478C161.592 7.78812 161.277 7.65478 160.893 7.65478C160.509 7.65478 160.195 7.78812 159.949 8.05478C159.704 8.32145 159.581 8.69478 159.581 9.17478C159.581 9.65478 159.704 10.0281 159.949 10.2948C160.195 10.5614 160.509 10.6948 160.893 10.6948C161.277 10.6948 161.592 10.5614 161.837 10.2948C162.083 10.0281 162.205 9.65478 162.205 9.17478Z" fill="black" fill-opacity="0.6"/>
<path d="M151.425 13.6869L149.201 10.0869V13.6869H145.649V1.84692H149.201V8.03892L151.457 4.66292H155.585L152.209 9.20692L155.665 13.6869H151.425Z" fill="black" fill-opacity="0.6"/>
<path d="M142.285 3.94285C141.666 3.94285 141.17 3.77752 140.797 3.44685C140.423 3.11619 140.237 2.70019 140.237 2.19885C140.237 1.68685 140.423 1.26552 140.797 0.934852C141.17 0.593518 141.666 0.422852 142.285 0.422852C142.893 0.422852 143.383 0.593518 143.757 0.934852C144.13 1.26552 144.317 1.68685 144.317 2.19885C144.317 2.70019 144.13 3.11619 143.757 3.44685C143.383 3.77752 142.893 3.94285 142.285 3.94285ZM144.045 4.66285V13.6869H140.493V4.66285H144.045Z" fill="black" fill-opacity="0.6"/>
<path d="M136.576 6.32688C136.939 5.80421 137.381 5.38821 137.904 5.07888C138.427 4.75888 138.971 4.59888 139.536 4.59888V8.39088H138.528C137.856 8.39088 137.36 8.50821 137.04 8.74288C136.731 8.97754 136.576 9.39354 136.576 9.99088V13.6869H133.024V4.66288H136.576V6.32688Z" fill="black" fill-opacity="0.6"/>
<path d="M121.669 9.17478C121.669 8.22545 121.829 7.40412 122.149 6.71078C122.479 6.00678 122.927 5.47345 123.493 5.11078C124.058 4.73745 124.693 4.55078 125.397 4.55078C125.983 4.55078 126.49 4.67345 126.917 4.91878C127.343 5.15345 127.669 5.47878 127.893 5.89478V4.66278H131.429V13.6868H127.893V12.4548C127.669 12.8708 127.343 13.2014 126.917 13.4468C126.49 13.6814 125.983 13.7988 125.397 13.7988C124.693 13.7988 124.058 13.6174 123.493 13.2548C122.927 12.8814 122.479 12.3481 122.149 11.6548C121.829 10.9508 121.669 10.1241 121.669 9.17478ZM127.893 9.17478C127.893 8.69478 127.77 8.32145 127.525 8.05478C127.279 7.78812 126.965 7.65478 126.581 7.65478C126.197 7.65478 125.882 7.78812 125.637 8.05478C125.391 8.32145 125.269 8.69478 125.269 9.17478C125.269 9.65478 125.391 10.0281 125.637 10.2948C125.882 10.5614 126.197 10.6948 126.581 10.6948C126.965 10.6948 127.279 10.5614 127.525 10.2948C127.77 10.0281 127.893 9.65478 127.893 9.17478Z" fill="black" fill-opacity="0.6"/>
<path d="M120.796 10.6628V13.6868H119.452C116.977 13.6868 115.74 12.4548 115.74 9.99082V7.62282H114.62V4.66282H115.74V2.48682H119.292V4.66282H120.764V7.62282H119.292V10.0548C119.292 10.2682 119.34 10.4228 119.436 10.5188C119.543 10.6148 119.713 10.6628 119.948 10.6628H120.796Z" fill="black" fill-opacity="0.6"/>
<path d="M109.93 13.7988C109.077 13.7988 108.32 13.6601 107.658 13.3828C107.008 13.1054 106.49 12.7214 106.106 12.2308C105.722 11.7401 105.504 11.1854 105.45 10.5668H108.858C108.901 10.8334 109.013 11.0308 109.194 11.1588C109.386 11.2868 109.626 11.3508 109.914 11.3508C110.096 11.3508 110.24 11.3134 110.346 11.2388C110.453 11.1534 110.506 11.0521 110.506 10.9348C110.506 10.7321 110.394 10.5881 110.17 10.5028C109.946 10.4174 109.568 10.3214 109.034 10.2148C108.384 10.0868 107.845 9.94811 107.418 9.79878C107.002 9.64945 106.634 9.39345 106.314 9.03078C106.005 8.66812 105.85 8.16678 105.85 7.52678C105.85 6.97212 105.994 6.47078 106.282 6.02278C106.581 5.56411 107.018 5.20678 107.594 4.95078C108.17 4.68411 108.869 4.55078 109.69 4.55078C110.906 4.55078 111.856 4.84945 112.538 5.44678C113.232 6.04411 113.648 6.82278 113.786 7.78278H110.634C110.581 7.53745 110.469 7.35078 110.298 7.22278C110.128 7.08411 109.898 7.01478 109.61 7.01478C109.429 7.01478 109.29 7.05211 109.194 7.12678C109.098 7.19078 109.05 7.29211 109.05 7.43078C109.05 7.61211 109.162 7.75078 109.386 7.84678C109.61 7.93211 109.968 8.02278 110.458 8.11878C111.109 8.24678 111.658 8.39078 112.106 8.55078C112.554 8.71078 112.944 8.98811 113.274 9.38278C113.605 9.76678 113.77 10.3001 113.77 10.9828C113.77 11.5161 113.616 11.9961 113.306 12.4228C112.997 12.8494 112.549 13.1854 111.962 13.4308C111.386 13.6761 110.709 13.7988 109.93 13.7988Z" fill="black" fill-opacity="0.6"/>
<path d="M104.791 9.09478C104.791 9.34012 104.775 9.57478 104.743 9.79878H99.0311C99.0844 10.5774 99.4097 10.9668 100.007 10.9668C100.391 10.9668 100.668 10.7908 100.839 10.4388H104.599C104.471 11.0788 104.199 11.6548 103.783 12.1668C103.378 12.6681 102.86 13.0681 102.231 13.3668C101.612 13.6548 100.93 13.7988 100.183 13.7988C99.2871 13.7988 98.4871 13.6121 97.7831 13.2388C97.0897 12.8654 96.5457 12.3321 96.1511 11.6388C95.7671 10.9348 95.5751 10.1134 95.5751 9.17478C95.5751 8.23612 95.7671 7.42011 96.1511 6.72678C96.5457 6.02278 97.0897 5.48411 97.7831 5.11078C98.4871 4.73745 99.2871 4.55078 100.183 4.55078C101.079 4.55078 101.874 4.73745 102.567 5.11078C103.271 5.47345 103.815 5.99611 104.199 6.67878C104.594 7.36145 104.791 8.16678 104.791 9.09478ZM101.191 8.24678C101.191 7.94811 101.095 7.72411 100.903 7.57478C100.711 7.41478 100.471 7.33478 100.183 7.33478C99.5537 7.33478 99.1857 7.63878 99.0791 8.24678H101.191Z" fill="black" fill-opacity="0.6"/>
<path d="M94.4509 1.84692V13.6869H90.8989V1.84692H94.4509Z" fill="black" fill-opacity="0.6"/>
<path d="M89.7755 9.09478C89.7755 9.34012 89.7594 9.57478 89.7274 9.79878H84.0154C84.0688 10.5774 84.3941 10.9668 84.9914 10.9668C85.3754 10.9668 85.6528 10.7908 85.8234 10.4388H89.5835C89.4555 11.0788 89.1834 11.6548 88.7674 12.1668C88.3621 12.6681 87.8448 13.0681 87.2154 13.3668C86.5968 13.6548 85.9141 13.7988 85.1674 13.7988C84.2714 13.7988 83.4714 13.6121 82.7674 13.2388C82.0741 12.8654 81.5301 12.3321 81.1355 11.6388C80.7515 10.9348 80.5594 10.1134 80.5594 9.17478C80.5594 8.23612 80.7515 7.42011 81.1355 6.72678C81.5301 6.02278 82.0741 5.48411 82.7674 5.11078C83.4714 4.73745 84.2714 4.55078 85.1674 4.55078C86.0634 4.55078 86.8581 4.73745 87.5514 5.11078C88.2554 5.47345 88.7994 5.99611 89.1834 6.67878C89.5781 7.36145 89.7755 8.16678 89.7755 9.09478ZM86.1754 8.24678C86.1754 7.94811 86.0795 7.72411 85.8875 7.57478C85.6955 7.41478 85.4554 7.33478 85.1674 7.33478C84.5381 7.33478 84.1701 7.63878 84.0634 8.24678H86.1754Z" fill="black" fill-opacity="0.6"/>
<path d="M75.8688 4.59888C77.0208 4.59888 77.9115 4.94554 78.5408 5.63888C79.1808 6.33221 79.5008 7.27088 79.5008 8.45488V13.6869H75.9648V8.90288C75.9648 8.51888 75.8475 8.22021 75.6128 8.00688C75.3888 7.78288 75.0848 7.67088 74.7008 7.67088C74.3061 7.67088 73.9968 7.78288 73.7728 8.00688C73.5488 8.22021 73.4368 8.51888 73.4368 8.90288V13.6869H69.9008V8.90288C69.9008 8.51888 69.7835 8.22021 69.5488 8.00688C69.3248 7.78288 69.0208 7.67088 68.6368 7.67088C68.2421 7.67088 67.9328 7.78288 67.7088 8.00688C67.4848 8.22021 67.3728 8.51888 67.3728 8.90288V13.6869H63.8208V4.66288H67.3728V5.87888C67.6288 5.49488 67.9755 5.18554 68.4128 4.95088C68.8608 4.71621 69.3835 4.59888 69.9808 4.59888C70.6315 4.59888 71.2075 4.74288 71.7088 5.03088C72.2101 5.30821 72.6101 5.70288 72.9088 6.21488C73.2395 5.74554 73.6608 5.36154 74.1728 5.06288C74.6848 4.75354 75.2501 4.59888 75.8688 4.59888Z" fill="black" fill-opacity="0.6"/>
<path d="M59.7492 10.6628V13.6868H58.4052C55.9306 13.6868 54.6932 12.4548 54.6932 9.99082V7.62282H53.5732V4.66282H54.6932V2.48682H58.2452V4.66282H59.7172V7.62282H58.2452V10.0548C58.2452 10.2682 58.2932 10.4228 58.3892 10.5188C58.4959 10.6148 58.6666 10.6628 58.9012 10.6628H59.7492Z" fill="black" fill-opacity="0.6"/>
<path d="M42.7782 9.17478C42.7782 8.22545 42.9382 7.40412 43.2582 6.71078C43.5889 6.00678 44.0369 5.47345 44.6022 5.11078C45.1675 4.73745 45.8022 4.55078 46.5062 4.55078C47.0929 4.55078 47.5995 4.67345 48.0262 4.91878C48.4529 5.15345 48.7782 5.47878 49.0022 5.89478V4.66278H52.5382V13.6868H49.0022V12.4548C48.7782 12.8708 48.4529 13.2014 48.0262 13.4468C47.5995 13.6814 47.0929 13.7988 46.5062 13.7988C45.8022 13.7988 45.1675 13.6174 44.6022 13.2548C44.0369 12.8814 43.5889 12.3481 43.2582 11.6548C42.9382 10.9508 42.7782 10.1241 42.7782 9.17478ZM49.0022 9.17478C49.0022 8.69478 48.8795 8.32145 48.6342 8.05478C48.3889 7.78812 48.0742 7.65478 47.6902 7.65478C47.3062 7.65478 46.9915 7.78812 46.7462 8.05478C46.5009 8.32145 46.3782 8.69478 46.3782 9.17478C46.3782 9.65478 46.5009 10.0281 46.7462 10.2948C46.9915 10.5614 47.3062 10.6948 47.6902 10.6948C48.0742 10.6948 48.3889 10.5614 48.6342 10.2948C48.8795 10.0281 49.0022 9.65478 49.0022 9.17478Z" fill="black" fill-opacity="0.6"/>
<path d="M35.6313 4.55078C36.2179 4.55078 36.7246 4.67345 37.1513 4.91878C37.5779 5.15345 37.9033 5.47878 38.1273 5.89478V4.66278H41.6633V13.5268C41.6633 14.3694 41.5086 15.1374 41.1993 15.8308C40.8899 16.5241 40.3886 17.0788 39.6953 17.4948C39.0126 17.9108 38.1326 18.1188 37.0553 18.1188C35.6046 18.1188 34.4526 17.7774 33.5993 17.0948C32.7566 16.4228 32.2766 15.5054 32.1593 14.3428H35.6473C35.7433 14.8121 36.1273 15.0468 36.7993 15.0468C37.2153 15.0468 37.5406 14.9401 37.7753 14.7268C38.0099 14.5134 38.1273 14.1134 38.1273 13.5268V12.4548C37.9033 12.8708 37.5779 13.2014 37.1513 13.4468C36.7246 13.6814 36.2179 13.7988 35.6313 13.7988C34.9273 13.7988 34.2926 13.6174 33.7273 13.2548C33.1619 12.8814 32.7139 12.3481 32.3833 11.6548C32.0633 10.9508 31.9033 10.1241 31.9033 9.17478C31.9033 8.22545 32.0633 7.40412 32.3833 6.71078C32.7139 6.00678 33.1619 5.47345 33.7273 5.11078C34.2926 4.73745 34.9273 4.55078 35.6313 4.55078ZM38.1273 9.17478C38.1273 8.69478 38.0046 8.32145 37.7593 8.05478C37.5139 7.78812 37.1993 7.65478 36.8153 7.65478C36.4313 7.65478 36.1166 7.78812 35.8713 8.05478C35.6259 8.32145 35.5033 8.69478 35.5033 9.17478C35.5033 9.65478 35.6259 10.0281 35.8713 10.2948C36.1166 10.5614 36.4313 10.6948 36.8153 10.6948C37.1993 10.6948 37.5139 10.5614 37.7593 10.2948C38.0046 10.0281 38.1273 9.65478 38.1273 9.17478Z" fill="black" fill-opacity="0.6"/>
<path d="M27.547 4.59888C28.5817 4.59888 29.387 4.94554 29.963 5.63888C30.5497 6.33221 30.843 7.27088 30.843 8.45488V13.6869H27.307V8.90288C27.307 8.47621 27.1897 8.14021 26.955 7.89488C26.731 7.63888 26.427 7.51088 26.043 7.51088C25.6483 7.51088 25.339 7.63888 25.115 7.89488C24.891 8.14021 24.779 8.47621 24.779 8.90288V13.6869H21.227V4.66288H24.779V6.03888C25.0563 5.61221 25.4243 5.26554 25.883 4.99888C26.3523 4.73221 26.907 4.59888 27.547 4.59888Z" fill="black" fill-opacity="0.6"/>
<path d="M9.87201 9.17478C9.87201 8.22545 10.032 7.40412 10.352 6.71078C10.6827 6.00678 11.1307 5.47345 11.696 5.11078C12.2613 4.73745 12.896 4.55078 13.6 4.55078C14.1867 4.55078 14.6933 4.67345 15.12 4.91878C15.5467 5.15345 15.872 5.47878 16.096 5.89478V4.66278H19.632V13.6868H16.096V12.4548C15.872 12.8708 15.5467 13.2014 15.12 13.4468C14.6933 13.6814 14.1867 13.7988 13.6 13.7988C12.896 13.7988 12.2613 13.6174 11.696 13.2548C11.1307 12.8814 10.6827 12.3481 10.352 11.6548C10.032 10.9508 9.87201 10.1241 9.87201 9.17478ZM16.096 9.17478C16.096 8.69478 15.9733 8.32145 15.728 8.05478C15.4827 7.78812 15.168 7.65478 14.784 7.65478C14.4 7.65478 14.0853 7.78812 13.84 8.05478C13.5947 8.32145 13.472 8.69478 13.472 9.17478C13.472 9.65478 13.5947 10.0281 13.84 10.2948C14.0853 10.5614 14.4 10.6948 14.784 10.6948C15.168 10.6948 15.4827 10.5614 15.728 10.2948C15.9733 10.0281 16.096 9.65478 16.096 9.17478Z" fill="black" fill-opacity="0.6"/>
<path d="M4.784 13.7987C3.42933 13.7987 2.30933 13.4841 1.424 12.8547C0.549333 12.2147 0.0746667 11.2814 0 10.0547H3.776C3.82933 10.7054 4.11733 11.0307 4.64 11.0307C4.832 11.0307 4.992 10.9881 5.12 10.9027C5.25867 10.8067 5.328 10.6627 5.328 10.4707C5.328 10.2041 5.184 9.99075 4.896 9.83075C4.608 9.66008 4.16 9.46808 3.552 9.25475C2.82667 8.99875 2.224 8.74808 1.744 8.50275C1.27467 8.25742 0.869333 7.90008 0.528 7.43075C0.186667 6.96141 0.0213333 6.35875 0.032 5.62275C0.032 4.88675 0.218667 4.26275 0.592 3.75075C0.976 3.22808 1.49333 2.83341 2.144 2.56675C2.80533 2.30008 3.54667 2.16675 4.368 2.16675C5.75467 2.16675 6.85333 2.48675 7.664 3.12675C8.48533 3.76675 8.91733 4.66808 8.96 5.83075H5.136C5.12533 5.51075 5.04533 5.28141 4.896 5.14275C4.74667 5.00408 4.56533 4.93475 4.352 4.93475C4.20267 4.93475 4.08 4.98808 3.984 5.09475C3.888 5.19075 3.84 5.32942 3.84 5.51075C3.84 5.76675 3.97867 5.98008 4.256 6.15075C4.544 6.31075 4.99733 6.50808 5.616 6.74275C6.33067 7.00942 6.91733 7.26541 7.376 7.51075C7.84533 7.75608 8.25067 8.09741 8.592 8.53475C8.93333 8.97208 9.104 9.52142 9.104 10.1827C9.104 10.8761 8.93333 11.5001 8.592 12.0547C8.25067 12.5987 7.75467 13.0254 7.104 13.3347C6.45333 13.6441 5.68 13.7987 4.784 13.7987Z" fill="black" fill-opacity="0.6"/>
</svg>
