<svg width="167" height="22" viewBox="0 0 167 22" fill="none" xmlns="http://www.w3.org/2000/svg">
<path d="M162.745 5.3493C163.78 5.3493 164.585 5.75474 165.161 6.56562C165.748 7.37649 166.041 8.47429 166.041 9.85901V15.978H162.505V10.383C162.505 9.88396 162.388 9.491 162.153 9.20407C161.929 8.90468 161.625 8.75497 161.241 8.75497C160.846 8.75497 160.537 8.90468 160.313 9.20407C160.089 9.491 159.977 9.88396 159.977 10.383V15.978H156.425V5.42415H159.977V7.03343C160.254 6.53443 160.622 6.12899 161.081 5.81712C161.55 5.50524 162.105 5.3493 162.745 5.3493Z" fill="black" fill-opacity="0.6"/>
<path d="M153.061 4.58214C152.442 4.58214 151.946 4.38878 151.573 4.00205C151.199 3.61533 151.013 3.1288 151.013 2.54248C151.013 1.94368 151.199 1.45092 151.573 1.06419C151.946 0.664993 152.442 0.465393 153.061 0.465393C153.669 0.465393 154.159 0.664993 154.533 1.06419C154.906 1.45092 155.093 1.94368 155.093 2.54248C155.093 3.1288 154.906 3.61533 154.533 4.00205C154.159 4.38878 153.669 4.58214 153.061 4.58214ZM154.821 5.4242V15.978H151.269V5.4242H154.821Z" fill="black" fill-opacity="0.6"/>
<path d="M147.904 4.58214C147.285 4.58214 146.789 4.38878 146.416 4.00205C146.042 3.61533 145.856 3.1288 145.856 2.54248C145.856 1.94368 146.042 1.45092 146.416 1.06419C146.789 0.664993 147.285 0.465393 147.904 0.465393C148.512 0.465393 149.002 0.664993 149.376 1.06419C149.749 1.45092 149.936 1.94368 149.936 2.54248C149.936 3.1288 149.749 3.61533 149.376 4.00205C149.002 4.38878 148.512 4.58214 147.904 4.58214ZM149.696 16.7078C149.696 19.5895 148.458 21.0304 145.984 21.0304H144.8V17.4937H145.488C145.722 17.4937 145.888 17.4376 145.984 17.3253C146.09 17.2131 146.144 17.0322 146.144 16.7827V5.4242H149.696V16.7078Z" fill="black" fill-opacity="0.6"/>
<path d="M134.789 10.7011C134.789 9.59085 134.949 8.63027 135.269 7.8194C135.599 6.99605 136.047 6.3723 136.613 5.94815C137.178 5.51153 137.813 5.29321 138.517 5.29321C139.103 5.29321 139.61 5.43668 140.037 5.7236C140.463 5.99805 140.789 6.37854 141.013 6.86506V5.4242H144.549V15.978H141.013V14.5372C140.789 15.0237 140.463 15.4104 140.037 15.6974C139.61 15.9718 139.103 16.109 138.517 16.109C137.813 16.109 137.178 15.897 136.613 15.4728C136.047 15.0362 135.599 14.4124 135.269 13.6016C134.949 12.7782 134.789 11.8114 134.789 10.7011ZM141.013 10.7011C141.013 10.1397 140.89 9.70312 140.645 9.39125C140.399 9.07937 140.085 8.92343 139.701 8.92343C139.317 8.92343 139.002 9.07937 138.757 9.39125C138.511 9.70312 138.389 10.1397 138.389 10.7011C138.389 11.2625 138.511 11.6991 138.757 12.011C139.002 12.3229 139.317 12.4788 139.701 12.4788C140.085 12.4788 140.399 12.3229 140.645 12.011C140.89 11.6991 141.013 11.2625 141.013 10.7011Z" fill="black" fill-opacity="0.6"/>
<path d="M131.352 7.37025C131.715 6.75898 132.157 6.27245 132.68 5.91068C133.203 5.53643 133.747 5.3493 134.312 5.3493V9.78416H133.304C132.632 9.78416 132.136 9.92139 131.816 10.1958C131.507 10.4703 131.352 10.9568 131.352 11.6554V15.978H127.8V5.42415H131.352V7.37025Z" fill="black" fill-opacity="0.6"/>
<path d="M126.677 10.6076C126.677 10.8945 126.661 11.1689 126.629 11.4309H120.917C120.97 12.3416 121.295 12.7969 121.893 12.7969C122.277 12.7969 122.554 12.5911 122.725 12.1794H126.485C126.357 12.9279 126.085 13.6016 125.669 14.2004C125.263 14.7867 124.746 15.2545 124.117 15.6038C123.498 15.9406 122.815 16.109 122.069 16.109C121.173 16.109 120.373 15.8907 119.669 15.4541C118.975 15.0175 118.431 14.3937 118.037 13.5828C117.653 12.7595 117.461 11.7989 117.461 10.7011C117.461 9.60332 117.653 8.64898 118.037 7.83811C118.431 7.01476 118.975 6.38477 119.669 5.94815C120.373 5.51153 121.173 5.29321 122.069 5.29321C122.965 5.29321 123.759 5.51153 124.453 5.94815C125.157 6.3723 125.701 6.98357 126.085 7.78197C126.479 8.58037 126.677 9.52223 126.677 10.6076ZM123.077 9.6158C123.077 9.2665 122.981 9.00452 122.789 8.82987C122.597 8.64275 122.357 8.54918 122.069 8.54918C121.439 8.54918 121.071 8.90472 120.965 9.6158H123.077Z" fill="black" fill-opacity="0.6"/>
<path d="M110.314 5.29321C110.9 5.29321 111.407 5.43668 111.834 5.7236C112.26 5.99805 112.586 6.37854 112.81 6.86506V5.4242H116.346V15.7909C116.346 16.7764 116.191 17.6746 115.882 18.4855C115.572 19.2964 115.071 19.9451 114.378 20.4316C113.695 20.9181 112.815 21.1614 111.738 21.1614C110.287 21.1614 109.135 20.7622 108.282 19.9638C107.439 19.1779 106.959 18.105 106.842 16.7452H110.33C110.426 17.2941 110.81 17.5686 111.482 17.5686C111.898 17.5686 112.223 17.4438 112.458 17.1943C112.692 16.9448 112.81 16.477 112.81 15.7909V14.5372C112.586 15.0237 112.26 15.4104 111.834 15.6973C111.407 15.9718 110.9 16.109 110.314 16.109C109.61 16.109 108.975 15.8969 108.41 15.4728C107.844 15.0362 107.396 14.4124 107.066 13.6016C106.746 12.7782 106.586 11.8114 106.586 10.7011C106.586 9.59084 106.746 8.63027 107.066 7.8194C107.396 6.99605 107.844 6.3723 108.41 5.94815C108.975 5.51153 109.61 5.29321 110.314 5.29321ZM112.81 10.7011C112.81 10.1397 112.687 9.70312 112.442 9.39125C112.196 9.07937 111.882 8.92343 111.498 8.92343C111.114 8.92343 110.799 9.07937 110.554 9.39125C110.308 9.70312 110.186 10.1397 110.186 10.7011C110.186 11.2625 110.308 11.6991 110.554 12.011C110.799 12.3229 111.114 12.4788 111.498 12.4788C111.882 12.4788 112.196 12.3229 112.442 12.011C112.687 11.6991 112.81 11.2625 112.81 10.7011Z" fill="black" fill-opacity="0.6"/>
<path d="M102.229 5.3493C103.264 5.3493 104.069 5.75474 104.645 6.56562C105.232 7.37649 105.525 8.47429 105.525 9.85901V15.978H101.989V10.383C101.989 9.88396 101.872 9.491 101.637 9.20407C101.413 8.90468 101.109 8.75497 100.725 8.75497C100.331 8.75497 100.021 8.90468 99.7974 9.20407C99.5734 9.491 99.4614 9.88396 99.4614 10.383V15.978H95.9094V5.42415H99.4614V7.03343C99.7388 6.53443 100.107 6.12899 100.565 5.81712C101.035 5.50524 101.589 5.3493 102.229 5.3493Z" fill="black" fill-opacity="0.6"/>
<path d="M94.7861 10.6076C94.7861 10.8945 94.7701 11.1689 94.7381 11.4309H89.0261C89.0794 12.3416 89.4047 12.7969 90.0021 12.7969C90.3861 12.7969 90.6634 12.5911 90.8341 12.1794H94.5941C94.4661 12.9279 94.1941 13.6016 93.7781 14.2004C93.3727 14.7867 92.8554 15.2545 92.2261 15.6038C91.6074 15.9406 90.9247 16.109 90.1781 16.109C89.2821 16.109 88.4821 15.8907 87.7781 15.4541C87.0847 15.0175 86.5407 14.3937 86.1461 13.5828C85.7621 12.7595 85.5701 11.7989 85.5701 10.7011C85.5701 9.60332 85.7621 8.64898 86.1461 7.83811C86.5407 7.01476 87.0847 6.38477 87.7781 5.94815C88.4821 5.51153 89.2821 5.29321 90.1781 5.29321C91.0741 5.29321 91.8687 5.51153 92.5621 5.94815C93.2661 6.3723 93.8101 6.98357 94.1941 7.78197C94.5887 8.58037 94.7861 9.52223 94.7861 10.6076ZM91.1861 9.6158C91.1861 9.2665 91.0901 9.00452 90.8981 8.82987C90.7061 8.64275 90.4661 8.54918 90.1781 8.54918C89.5487 8.54918 89.1807 8.90472 89.0741 9.6158H91.1861Z" fill="black" fill-opacity="0.6"/>
<path d="M84.9234 7.27699C84.9234 8.11281 84.7581 8.87379 84.4274 9.55991C84.0968 10.2336 83.6061 10.77 82.9554 11.1692C82.3154 11.5684 81.5368 11.768 80.6194 11.768H79.2114V15.9783H75.6594V2.72986H80.6194C82.0061 2.72986 83.0674 3.14153 83.8034 3.96488C84.5501 4.78823 84.9234 5.89227 84.9234 7.27699ZM80.2194 8.4933C80.9554 8.4933 81.3234 8.08786 81.3234 7.27699C81.3234 6.46612 80.9554 6.06068 80.2194 6.06068H79.2114V8.4933H80.2194Z" fill="black" fill-opacity="0.6"/>
<path d="M69.0239 7.37025C69.3866 6.75898 69.8293 6.27245 70.3519 5.91068C70.8746 5.53643 71.4186 5.3493 71.9839 5.3493V9.78416H70.9759C70.3039 9.78416 69.8079 9.92139 69.4879 10.1958C69.1786 10.4703 69.0239 10.9568 69.0239 11.6554V15.978H65.4719V5.42415H69.0239V7.37025Z" fill="black" fill-opacity="0.6"/>
<path d="M54.1169 10.7011C54.1169 9.59085 54.2769 8.63027 54.5969 7.8194C54.9276 6.99605 55.3756 6.3723 55.9409 5.94815C56.5063 5.51153 57.1409 5.29321 57.8449 5.29321C58.4316 5.29321 58.9383 5.43668 59.3649 5.7236C59.7916 5.99805 60.1169 6.37854 60.3409 6.86506V5.4242H63.8769V15.978H60.3409V14.5372C60.1169 15.0237 59.7916 15.4104 59.3649 15.6974C58.9383 15.9718 58.4316 16.109 57.8449 16.109C57.1409 16.109 56.5063 15.897 55.9409 15.4728C55.3756 15.0362 54.9276 14.4124 54.5969 13.6016C54.2769 12.7782 54.1169 11.8114 54.1169 10.7011ZM60.3409 10.7011C60.3409 10.1397 60.2183 9.70312 59.9729 9.39125C59.7276 9.07937 59.4129 8.92343 59.0289 8.92343C58.6449 8.92343 58.3303 9.07937 58.0849 9.39125C57.8396 9.70312 57.7169 10.1397 57.7169 10.7011C57.7169 11.2625 57.8396 11.6991 58.0849 12.011C58.3303 12.3229 58.6449 12.4788 59.0289 12.4788C59.4129 12.4788 59.7276 12.3229 59.9729 12.011C60.2183 11.6991 60.3409 11.2625 60.3409 10.7011Z" fill="black" fill-opacity="0.6"/>
<path d="M46.9699 5.29321C47.5566 5.29321 48.0633 5.43668 48.4899 5.7236C48.9166 5.99805 49.2419 6.37854 49.4659 6.86506V5.4242H53.0019V15.7909C53.0019 16.7764 52.8473 17.6746 52.5379 18.4855C52.2286 19.2964 51.7273 19.9451 51.0339 20.4316C50.3513 20.9181 49.4713 21.1614 48.3939 21.1614C46.9433 21.1614 45.7913 20.7622 44.9379 19.9638C44.0953 19.1779 43.6153 18.105 43.4979 16.7452H46.9859C47.0819 17.2941 47.4659 17.5686 48.1379 17.5686C48.5539 17.5686 48.8793 17.4438 49.1139 17.1943C49.3486 16.9448 49.4659 16.477 49.4659 15.7909V14.5372C49.2419 15.0237 48.9166 15.4104 48.4899 15.6973C48.0633 15.9718 47.5566 16.109 46.9699 16.109C46.2659 16.109 45.6313 15.8969 45.0659 15.4728C44.5006 15.0362 44.0526 14.4124 43.7219 13.6016C43.4019 12.7782 43.2419 11.8114 43.2419 10.7011C43.2419 9.59084 43.4019 8.63027 43.7219 7.8194C44.0526 6.99605 44.5006 6.3723 45.0659 5.94815C45.6313 5.51153 46.2659 5.29321 46.9699 5.29321ZM49.4659 10.7011C49.4659 10.1397 49.3433 9.70312 49.0979 9.39125C48.8526 9.07937 48.5379 8.92343 48.1539 8.92343C47.7699 8.92343 47.4553 9.07937 47.2099 9.39125C46.9646 9.70312 46.8419 10.1397 46.8419 10.7011C46.8419 11.2625 46.9646 11.6991 47.2099 12.011C47.4553 12.3229 47.7699 12.4788 48.1539 12.4788C48.5379 12.4788 48.8526 12.3229 49.0979 12.011C49.3433 11.6991 49.4659 11.2625 49.4659 10.7011Z" fill="black" fill-opacity="0.6"/>
<path d="M36.0949 5.29321C36.6816 5.29321 37.1883 5.43668 37.6149 5.7236C38.0416 5.99805 38.3669 6.37854 38.5909 6.86506V5.4242H42.1269V15.7909C42.1269 16.7764 41.9723 17.6746 41.6629 18.4855C41.3536 19.2964 40.8523 19.9451 40.1589 20.4316C39.4763 20.9181 38.5963 21.1614 37.5189 21.1614C36.0683 21.1614 34.9163 20.7622 34.0629 19.9638C33.2203 19.1779 32.7403 18.105 32.6229 16.7452H36.1109C36.2069 17.2941 36.5909 17.5686 37.2629 17.5686C37.6789 17.5686 38.0043 17.4438 38.2389 17.1943C38.4736 16.9448 38.5909 16.477 38.5909 15.7909V14.5372C38.3669 15.0237 38.0416 15.4104 37.6149 15.6973C37.1883 15.9718 36.6816 16.109 36.0949 16.109C35.3909 16.109 34.7563 15.8969 34.1909 15.4728C33.6256 15.0362 33.1776 14.4124 32.8469 13.6016C32.5269 12.7782 32.3669 11.8114 32.3669 10.7011C32.3669 9.59084 32.5269 8.63027 32.8469 7.8194C33.1776 6.99605 33.6256 6.3723 34.1909 5.94815C34.7563 5.51153 35.3909 5.29321 36.0949 5.29321ZM38.5909 10.7011C38.5909 10.1397 38.4683 9.70312 38.2229 9.39125C37.9776 9.07937 37.6629 8.92343 37.2789 8.92343C36.8949 8.92343 36.5803 9.07937 36.3349 9.39125C36.0896 9.70312 35.9669 10.1397 35.9669 10.7011C35.9669 11.2625 36.0896 11.6991 36.3349 12.011C36.5803 12.3229 36.8949 12.4788 37.2789 12.4788C37.6629 12.4788 37.9776 12.3229 38.2229 12.011C38.4683 11.6991 38.5909 11.2625 38.5909 10.7011Z" fill="black" fill-opacity="0.6"/>
<path d="M28.0107 5.3493C29.0454 5.3493 29.8507 5.75474 30.4267 6.56562C31.0134 7.37649 31.3067 8.47429 31.3067 9.85901V15.978H27.7707V10.383C27.7707 9.88396 27.6534 9.491 27.4187 9.20407C27.1947 8.90468 26.8907 8.75497 26.5067 8.75497C26.112 8.75497 25.8027 8.90468 25.5787 9.20407C25.3547 9.491 25.2427 9.88396 25.2427 10.383V15.978H21.6907V5.42415H25.2427V7.03343C25.52 6.53443 25.888 6.12899 26.3467 5.81712C26.816 5.50524 27.3707 5.3493 28.0107 5.3493Z" fill="black" fill-opacity="0.6"/>
<path d="M10.3357 10.7011C10.3357 9.59085 10.4957 8.63027 10.8157 7.8194C11.1463 6.99605 11.5943 6.3723 12.1597 5.94815C12.725 5.51153 13.3597 5.29321 14.0637 5.29321C14.6503 5.29321 15.157 5.43668 15.5837 5.7236C16.0103 5.99805 16.3357 6.37854 16.5597 6.86506V5.4242H20.0957V15.978H16.5597V14.5372C16.3357 15.0237 16.0103 15.4104 15.5837 15.6974C15.157 15.9718 14.6503 16.109 14.0637 16.109C13.3597 16.109 12.725 15.897 12.1597 15.4728C11.5943 15.0362 11.1463 14.4124 10.8157 13.6016C10.4957 12.7782 10.3357 11.8114 10.3357 10.7011ZM16.5597 10.7011C16.5597 10.1397 16.437 9.70312 16.1917 9.39125C15.9463 9.07937 15.6317 8.92343 15.2477 8.92343C14.8637 8.92343 14.549 9.07937 14.3037 9.39125C14.0583 9.70312 13.9357 10.1397 13.9357 10.7011C13.9357 11.2625 14.0583 11.6991 14.3037 12.011C14.549 12.3229 14.8637 12.4788 15.2477 12.4788C15.6317 12.4788 15.9463 12.3229 16.1917 12.011C16.437 11.6991 16.5597 11.2625 16.5597 10.7011Z" fill="black" fill-opacity="0.6"/>
<path d="M5.24768 16.1091C3.89302 16.1091 2.77302 15.7411 1.88768 15.0051C1.01302 14.2566 0.538351 13.165 0.463684 11.7304H4.23968C4.29302 12.4914 4.58102 12.8718 5.10368 12.8718C5.29568 12.8718 5.45568 12.8219 5.58368 12.7221C5.72235 12.6099 5.79168 12.4415 5.79168 12.2169C5.79168 11.905 5.64768 11.6555 5.35968 11.4684C5.07168 11.2688 4.62368 11.0443 4.01568 10.7948C3.29035 10.4954 2.68768 10.2022 2.20768 9.91527C1.73835 9.62834 1.33302 9.21043 0.991684 8.66153C0.650351 8.11263 0.485017 7.4078 0.495684 6.54702C0.495684 5.68625 0.682351 4.95646 1.05568 4.35766C1.43968 3.74639 1.95702 3.28481 2.60768 2.97294C3.26902 2.66106 4.01035 2.50513 4.83168 2.50513C6.21835 2.50513 7.31702 2.87938 8.12768 3.62788C8.94902 4.37637 9.38102 5.43051 9.42368 6.79028H5.59968C5.58902 6.41603 5.50902 6.14782 5.35968 5.98565C5.21035 5.82347 5.02902 5.74239 4.81568 5.74239C4.66635 5.74239 4.54368 5.80476 4.44768 5.92951C4.35168 6.04179 4.30368 6.20396 4.30368 6.41603C4.30368 6.71543 4.44235 6.96493 4.71968 7.16453C5.00768 7.35166 5.46102 7.58245 6.07968 7.8569C6.79435 8.16877 7.38102 8.46817 7.83968 8.75509C8.30902 9.04202 8.71435 9.44122 9.05568 9.95269C9.39702 10.4642 9.56768 11.1066 9.56768 11.8801C9.56768 12.691 9.39702 13.4207 9.05568 14.0694C8.71435 14.7057 8.21835 15.2047 7.56768 15.5664C6.91702 15.9282 6.14368 16.1091 5.24768 16.1091Z" fill="black" fill-opacity="0.6"/>
</svg>
