<svg width="311" height="63" viewBox="0 0 311 63" fill="none" xmlns="http://www.w3.org/2000/svg">
<path d="M267.591 49.8948C267.815 49.4788 268.136 49.1534 268.552 48.9188C268.978 48.6734 269.485 48.5508 270.072 48.5508C270.776 48.5508 271.41 48.7374 271.975 49.1108C272.541 49.4734 272.983 50.0068 273.303 50.7108C273.634 51.4041 273.799 52.2254 273.799 53.1748C273.799 54.1241 273.634 54.9508 273.303 55.6548C272.983 56.3481 272.541 56.8815 271.975 57.2548C271.41 57.6175 270.776 57.7988 270.072 57.7988C269.485 57.7988 268.978 57.6814 268.552 57.4468C268.136 57.2014 267.815 56.8708 267.591 56.4548V62.0068H264.039V48.6628H267.591V49.8948ZM270.199 53.1748C270.199 52.6948 270.077 52.3214 269.832 52.0548C269.586 51.7881 269.272 51.6548 268.888 51.6548C268.504 51.6548 268.189 51.7881 267.944 52.0548C267.698 52.3214 267.576 52.6948 267.576 53.1748C267.576 53.6548 267.698 54.0281 267.944 54.2948C268.189 54.5615 268.504 54.6948 268.888 54.6948C269.272 54.6948 269.586 54.5615 269.832 54.2948C270.077 54.0281 270.199 53.6548 270.199 53.1748Z" fill="black" fill-opacity="0.6"/>
<path d="M252.685 53.1748C252.685 52.2254 252.845 51.4041 253.165 50.7108C253.495 50.0068 253.943 49.4734 254.508 49.1108C255.074 48.7374 255.709 48.5508 256.413 48.5508C256.999 48.5508 257.506 48.6734 257.932 48.9188C258.359 49.1534 258.685 49.4788 258.909 49.8948V48.6628H262.444V57.6868H258.909V56.4548C258.685 56.8708 258.359 57.2014 257.932 57.4468C257.506 57.6814 256.999 57.7988 256.413 57.7988C255.709 57.7988 255.074 57.6175 254.508 57.2548C253.943 56.8815 253.495 56.3481 253.165 55.6548C252.845 54.9508 252.685 54.1241 252.685 53.1748ZM258.909 53.1748C258.909 52.6948 258.786 52.3214 258.54 52.0548C258.295 51.7881 257.98 51.6548 257.596 51.6548C257.212 51.6548 256.898 51.7881 256.652 52.0548C256.407 52.3214 256.285 52.6948 256.285 53.1748C256.285 53.6548 256.407 54.0281 256.652 54.2948C256.898 54.5615 257.212 54.6948 257.596 54.6948C257.98 54.6948 258.295 54.5615 258.54 54.2948C258.786 54.0281 258.909 53.6548 258.909 53.1748Z" fill="black" fill-opacity="0.6"/>
<path d="M248.128 57.6869L245.904 54.0869V57.6869H242.352V45.8469H245.904V52.0389L248.16 48.6629H252.288L248.912 53.2069L252.368 57.6869H248.128Z" fill="black" fill-opacity="0.6"/>
<path d="M234.725 48.5508C235.312 48.5508 235.818 48.6734 236.245 48.9188C236.672 49.1534 236.997 49.4788 237.221 49.8948V48.6628H240.757V57.5268C240.757 58.3694 240.602 59.1375 240.293 59.8308C239.984 60.5241 239.482 61.0788 238.789 61.4948C238.106 61.9108 237.226 62.1188 236.149 62.1188C234.698 62.1188 233.546 61.7774 232.693 61.0948C231.85 60.4228 231.37 59.5054 231.253 58.3428H234.741C234.837 58.8121 235.221 59.0468 235.893 59.0468C236.309 59.0468 236.634 58.9401 236.869 58.7268C237.104 58.5135 237.221 58.1135 237.221 57.5268V56.4548C236.997 56.8708 236.672 57.2014 236.245 57.4468C235.818 57.6814 235.312 57.7988 234.725 57.7988C234.021 57.7988 233.386 57.6175 232.821 57.2548C232.256 56.8815 231.808 56.3481 231.477 55.6548C231.157 54.9508 230.997 54.1241 230.997 53.1748C230.997 52.2254 231.157 51.4041 231.477 50.7108C231.808 50.0068 232.256 49.4734 232.821 49.1108C233.386 48.7374 234.021 48.5508 234.725 48.5508ZM237.221 53.1748C237.221 52.6948 237.098 52.3214 236.853 52.0548C236.608 51.7881 236.293 51.6548 235.909 51.6548C235.525 51.6548 235.21 51.7881 234.965 52.0548C234.72 52.3214 234.597 52.6948 234.597 53.1748C234.597 53.6548 234.72 54.0281 234.965 54.2948C235.21 54.5615 235.525 54.6948 235.909 54.6948C236.293 54.6948 236.608 54.5615 236.853 54.2948C237.098 54.0281 237.221 53.6548 237.221 53.1748Z" fill="black" fill-opacity="0.6"/>
<path d="M226.641 48.5989C227.675 48.5989 228.481 48.9455 229.057 49.6389C229.643 50.3322 229.937 51.2709 229.937 52.4549V57.6869H226.401V52.9029C226.401 52.4762 226.283 52.1402 226.049 51.8949C225.825 51.6389 225.521 51.5109 225.137 51.5109C224.742 51.5109 224.433 51.6389 224.209 51.8949C223.985 52.1402 223.873 52.4762 223.873 52.9029V57.6869H220.321V48.6629H223.873V50.0389C224.15 49.6122 224.518 49.2655 224.977 48.9989C225.446 48.7322 226.001 48.5989 226.641 48.5989Z" fill="black" fill-opacity="0.6"/>
<path d="M219.197 53.0948C219.197 53.3401 219.181 53.5748 219.149 53.7988H213.437C213.491 54.5774 213.816 54.9668 214.413 54.9668C214.797 54.9668 215.075 54.7908 215.245 54.4388H219.005C218.877 55.0788 218.605 55.6548 218.189 56.1668C217.784 56.6681 217.267 57.0681 216.637 57.3668C216.019 57.6548 215.336 57.7988 214.589 57.7988C213.693 57.7988 212.893 57.6121 212.189 57.2388C211.496 56.8654 210.952 56.3321 210.557 55.6388C210.173 54.9348 209.981 54.1134 209.981 53.1748C209.981 52.2361 210.173 51.4201 210.557 50.7268C210.952 50.0228 211.496 49.4841 212.189 49.1108C212.893 48.7374 213.693 48.5508 214.589 48.5508C215.485 48.5508 216.28 48.7374 216.973 49.1108C217.677 49.4734 218.221 49.9961 218.605 50.6788C219 51.3615 219.197 52.1668 219.197 53.0948ZM215.597 52.2468C215.597 51.9481 215.501 51.7241 215.309 51.5748C215.117 51.4148 214.877 51.3348 214.589 51.3348C213.96 51.3348 213.592 51.6388 213.485 52.2468H215.597Z" fill="black" fill-opacity="0.6"/>
<path d="M208.857 45.8469V57.6869H205.305V45.8469H208.857Z" fill="black" fill-opacity="0.6"/>
<path d="M197.75 48.5989C198.785 48.5989 199.59 48.9455 200.166 49.6389C200.753 50.3322 201.046 51.2709 201.046 52.4549V57.6869H197.51V52.9029C197.51 52.4762 197.393 52.1402 197.158 51.8949C196.934 51.6389 196.63 51.5109 196.246 51.5109C195.851 51.5109 195.542 51.6389 195.318 51.8949C195.094 52.1402 194.982 52.4762 194.982 52.9029V57.6869H191.43V48.6629H194.982V50.0389C195.259 49.6122 195.627 49.2655 196.086 48.9989C196.555 48.7322 197.11 48.5989 197.75 48.5989Z" fill="black" fill-opacity="0.6"/>
<path d="M189.826 48.6628V57.6868H186.274V56.3108C185.997 56.7375 185.623 57.0842 185.154 57.3508C184.695 57.6175 184.146 57.7508 183.506 57.7508C182.471 57.7508 181.661 57.4042 181.074 56.7108C180.498 56.0175 180.21 55.0788 180.21 53.8948V48.6628H183.746V53.4468C183.746 53.8735 183.858 54.2148 184.082 54.4708C184.317 54.7162 184.626 54.8388 185.01 54.8388C185.405 54.8388 185.714 54.7162 185.938 54.4708C186.162 54.2148 186.274 53.8735 186.274 53.4468V48.6628H189.826Z" fill="black" fill-opacity="0.6"/>
<path d="M172.951 49.8948C173.175 49.4788 173.495 49.1534 173.911 48.9188C174.338 48.6734 174.844 48.5508 175.431 48.5508C176.135 48.5508 176.77 48.7374 177.335 49.1108C177.9 49.4734 178.343 50.0068 178.663 50.7108C178.994 51.4041 179.159 52.2254 179.159 53.1748C179.159 54.1241 178.994 54.9508 178.663 55.6548C178.343 56.3481 177.9 56.8815 177.335 57.2548C176.77 57.6175 176.135 57.7988 175.431 57.7988C174.844 57.7988 174.338 57.6814 173.911 57.4468C173.495 57.2014 173.175 56.8708 172.951 56.4548V62.0068H169.399V48.6628H172.951V49.8948ZM175.559 53.1748C175.559 52.6948 175.436 52.3214 175.191 52.0548C174.946 51.7881 174.631 51.6548 174.247 51.6548C173.863 51.6548 173.548 51.7881 173.303 52.0548C173.058 52.3214 172.935 52.6948 172.935 53.1748C172.935 53.6548 173.058 54.0281 173.303 54.2948C173.548 54.5615 173.863 54.6948 174.247 54.6948C174.631 54.6948 174.946 54.5615 175.191 54.2948C175.436 54.0281 175.559 53.6548 175.559 53.1748Z" fill="black" fill-opacity="0.6"/>
<path d="M155.325 53.1748C155.325 52.2254 155.485 51.4041 155.805 50.7108C156.136 50.0068 156.584 49.4734 157.149 49.1108C157.714 48.7374 158.349 48.5508 159.053 48.5508C159.64 48.5508 160.146 48.6734 160.573 48.9188C161 49.1534 161.325 49.4788 161.549 49.8948V48.6628H165.085V57.6868H161.549V56.4548C161.325 56.8708 161 57.2014 160.573 57.4468C160.146 57.6814 159.64 57.7988 159.053 57.7988C158.349 57.7988 157.714 57.6175 157.149 57.2548C156.584 56.8815 156.136 56.3481 155.805 55.6548C155.485 54.9508 155.325 54.1241 155.325 53.1748ZM161.549 53.1748C161.549 52.6948 161.426 52.3214 161.181 52.0548C160.936 51.7881 160.621 51.6548 160.237 51.6548C159.853 51.6548 159.538 51.7881 159.293 52.0548C159.048 52.3214 158.925 52.6948 158.925 53.1748C158.925 53.6548 159.048 54.0281 159.293 54.2948C159.538 54.5615 159.853 54.6948 160.237 54.6948C160.621 54.6948 160.936 54.5615 161.181 54.2948C161.426 54.0281 161.549 53.6548 161.549 53.1748Z" fill="black" fill-opacity="0.6"/>
<path d="M155.169 48.6628L149.393 62.0068H145.505L147.777 57.2388L144.017 48.6628H147.969L149.665 53.2388L151.249 48.6628H155.169Z" fill="black" fill-opacity="0.6"/>
<path d="M140.141 48.5989C141.175 48.5989 141.981 48.9455 142.557 49.6389C143.143 50.3322 143.437 51.2709 143.437 52.4549V57.6869H139.901V52.9029C139.901 52.4762 139.783 52.1402 139.549 51.8949C139.325 51.6389 139.021 51.5109 138.637 51.5109C138.242 51.5109 137.933 51.6389 137.709 51.8949C137.485 52.1402 137.373 52.4762 137.373 52.9029V57.6869H133.821V48.6629H137.373V50.0389C137.65 49.6122 138.018 49.2655 138.477 48.9989C138.946 48.7322 139.501 48.5989 140.141 48.5989Z" fill="black" fill-opacity="0.6"/>
<path d="M126.194 48.5508C126.78 48.5508 127.287 48.6734 127.714 48.9188C128.14 49.1534 128.466 49.4788 128.69 49.8948V48.6628H132.226V57.5268C132.226 58.3694 132.071 59.1375 131.762 59.8308C131.452 60.5241 130.951 61.0788 130.258 61.4948C129.575 61.9108 128.695 62.1188 127.618 62.1188C126.167 62.1188 125.015 61.7774 124.162 61.0948C123.319 60.4228 122.839 59.5054 122.722 58.3428H126.21C126.306 58.8121 126.69 59.0468 127.362 59.0468C127.778 59.0468 128.103 58.9401 128.338 58.7268C128.572 58.5135 128.69 58.1135 128.69 57.5268V56.4548C128.466 56.8708 128.14 57.2014 127.714 57.4468C127.287 57.6814 126.78 57.7988 126.194 57.7988C125.49 57.7988 124.855 57.6175 124.29 57.2548C123.724 56.8815 123.276 56.3481 122.946 55.6548C122.626 54.9508 122.466 54.1241 122.466 53.1748C122.466 52.2254 122.626 51.4041 122.946 50.7108C123.276 50.0068 123.724 49.4734 124.29 49.1108C124.855 48.7374 125.49 48.5508 126.194 48.5508ZM128.69 53.1748C128.69 52.6948 128.567 52.3214 128.322 52.0548C128.076 51.7881 127.762 51.6548 127.378 51.6548C126.994 51.6548 126.679 51.7881 126.434 52.0548C126.188 52.3214 126.066 52.6948 126.066 53.1748C126.066 53.6548 126.188 54.0281 126.434 54.2948C126.679 54.5615 126.994 54.6948 127.378 54.6948C127.762 54.6948 128.076 54.5615 128.322 54.2948C128.567 54.0281 128.69 53.6548 128.69 53.1748Z" fill="black" fill-opacity="0.6"/>
<path d="M118.109 48.5989C119.144 48.5989 119.949 48.9455 120.525 49.6389C121.112 50.3322 121.405 51.2709 121.405 52.4549V57.6869H117.869V52.9029C117.869 52.4762 117.752 52.1402 117.517 51.8949C117.293 51.6389 116.989 51.5109 116.605 51.5109C116.211 51.5109 115.901 51.6389 115.677 51.8949C115.453 52.1402 115.341 52.4762 115.341 52.9029V57.6869H111.789V48.6629H115.341V50.0389C115.619 49.6122 115.987 49.2655 116.445 48.9989C116.915 48.7322 117.469 48.5989 118.109 48.5989Z" fill="black" fill-opacity="0.6"/>
<path d="M100.435 53.1748C100.435 52.2254 100.595 51.4041 100.915 50.7108C101.245 50.0068 101.693 49.4734 102.259 49.1108C102.824 48.7374 103.459 48.5508 104.163 48.5508C104.749 48.5508 105.256 48.6734 105.683 48.9188C106.109 49.1534 106.435 49.4788 106.659 49.8948V48.6628H110.195V57.6868H106.659V56.4548C106.435 56.8708 106.109 57.2014 105.683 57.4468C105.256 57.6814 104.749 57.7988 104.163 57.7988C103.459 57.7988 102.824 57.6175 102.259 57.2548C101.693 56.8815 101.245 56.3481 100.915 55.6548C100.595 54.9508 100.435 54.1241 100.435 53.1748ZM106.659 53.1748C106.659 52.6948 106.536 52.3214 106.291 52.0548C106.045 51.7881 105.731 51.6548 105.347 51.6548C104.963 51.6548 104.648 51.7881 104.403 52.0548C104.157 52.3214 104.035 52.6948 104.035 53.1748C104.035 53.6548 104.157 54.0281 104.403 54.2948C104.648 54.5615 104.963 54.6948 105.347 54.6948C105.731 54.6948 106.045 54.5615 106.291 54.2948C106.536 54.0281 106.659 53.6548 106.659 53.1748Z" fill="black" fill-opacity="0.6"/>
<path d="M96.9977 50.3269C97.3604 49.8042 97.8031 49.3882 98.3257 49.0789C98.8484 48.7589 99.3924 48.5989 99.9577 48.5989V52.3909H98.9497C98.2777 52.3909 97.7817 52.5082 97.4617 52.7429C97.1524 52.9775 96.9977 53.3935 96.9977 53.9909V57.6869H93.4457V48.6629H96.9977V50.3269Z" fill="black" fill-opacity="0.6"/>
<path d="M82.0908 53.1748C82.0908 52.2254 82.2508 51.4041 82.5708 50.7108C82.9014 50.0068 83.3494 49.4734 83.9148 49.1108C84.4801 48.7374 85.1148 48.5508 85.8188 48.5508C86.4054 48.5508 86.9121 48.6734 87.3388 48.9188C87.7654 49.1534 88.0908 49.4788 88.3148 49.8948V48.6628H91.8508V57.6868H88.3148V56.4548C88.0908 56.8708 87.7654 57.2014 87.3388 57.4468C86.9121 57.6814 86.4054 57.7988 85.8188 57.7988C85.1148 57.7988 84.4801 57.6175 83.9148 57.2548C83.3494 56.8815 82.9014 56.3481 82.5708 55.6548C82.2508 54.9508 82.0908 54.1241 82.0908 53.1748ZM88.3148 53.1748C88.3148 52.6948 88.1921 52.3214 87.9468 52.0548C87.7014 51.7881 87.3868 51.6548 87.0028 51.6548C86.6188 51.6548 86.3041 51.7881 86.0588 52.0548C85.8134 52.3214 85.6908 52.6948 85.6908 53.1748C85.6908 53.6548 85.8134 54.0281 86.0588 54.2948C86.3041 54.5615 86.6188 54.6948 87.0028 54.6948C87.3868 54.6948 87.7014 54.5615 87.9468 54.2948C88.1921 54.0281 88.3148 53.6548 88.3148 53.1748Z" fill="black" fill-opacity="0.6"/>
<path d="M75.2477 49.8949C75.4717 49.4789 75.7917 49.1536 76.2077 48.9189C76.6344 48.6736 77.1411 48.5509 77.7277 48.5509C78.4317 48.5509 79.0664 48.7376 79.6317 49.1109C80.1971 49.4736 80.6397 50.0069 80.9597 50.7109C81.2904 51.4043 81.4557 52.2256 81.4557 53.1749C81.4557 54.1243 81.2904 54.9509 80.9597 55.6549C80.6397 56.3483 80.1971 56.8816 79.6317 57.2549C79.0664 57.6176 78.4317 57.7989 77.7277 57.7989C77.1411 57.7989 76.6344 57.6816 76.2077 57.4469C75.7917 57.2016 75.4717 56.8709 75.2477 56.4549V57.6869H71.6957V45.8469H75.2477V49.8949ZM77.8557 53.1749C77.8557 52.6949 77.7331 52.3216 77.4877 52.0549C77.2424 51.7883 76.9277 51.6549 76.5437 51.6549C76.1597 51.6549 75.8451 51.7883 75.5997 52.0549C75.3544 52.3216 75.2317 52.6949 75.2317 53.1749C75.2317 53.6549 75.3544 54.0283 75.5997 54.2949C75.8451 54.5616 76.1597 54.6949 76.5437 54.6949C76.9277 54.6949 77.2424 54.5616 77.4877 54.2949C77.7331 54.0283 77.8557 53.6549 77.8557 53.1749Z" fill="black" fill-opacity="0.6"/>
<path d="M69.453 50.7588V53.6868H61.997V50.7588H69.453Z" fill="black" fill-opacity="0.6"/>
<path d="M54.85 48.5508C55.4367 48.5508 55.9433 48.6734 56.37 48.9188C56.7967 49.1534 57.122 49.4788 57.346 49.8948V48.6628H60.882V57.5268C60.882 58.3694 60.7273 59.1375 60.418 59.8308C60.1087 60.5241 59.6073 61.0788 58.914 61.4948C58.2313 61.9108 57.3513 62.1188 56.274 62.1188C54.8233 62.1188 53.6713 61.7774 52.818 61.0948C51.9753 60.4228 51.4953 59.5054 51.378 58.3428H54.866C54.962 58.8121 55.346 59.0468 56.018 59.0468C56.434 59.0468 56.7593 58.9401 56.994 58.7268C57.2287 58.5135 57.346 58.1135 57.346 57.5268V56.4548C57.122 56.8708 56.7967 57.2014 56.37 57.4468C55.9433 57.6814 55.4367 57.7988 54.85 57.7988C54.146 57.7988 53.5113 57.6175 52.946 57.2548C52.3807 56.8815 51.9327 56.3481 51.602 55.6548C51.282 54.9508 51.122 54.1241 51.122 53.1748C51.122 52.2254 51.282 51.4041 51.602 50.7108C51.9327 50.0068 52.3807 49.4734 52.946 49.1108C53.5113 48.7374 54.146 48.5508 54.85 48.5508ZM57.346 53.1748C57.346 52.6948 57.2233 52.3214 56.978 52.0548C56.7327 51.7881 56.418 51.6548 56.034 51.6548C55.65 51.6548 55.3353 51.7881 55.09 52.0548C54.8447 52.3214 54.722 52.6948 54.722 53.1748C54.722 53.6548 54.8447 54.0281 55.09 54.2948C55.3353 54.5615 55.65 54.6948 56.034 54.6948C56.418 54.6948 56.7327 54.5615 56.978 54.2948C57.2233 54.0281 57.346 53.6548 57.346 53.1748Z" fill="black" fill-opacity="0.6"/>
<path d="M46.7657 48.5989C47.8004 48.5989 48.6057 48.9455 49.1817 49.6389C49.7684 50.3322 50.0617 51.2709 50.0617 52.4549V57.6869H46.5257V52.9029C46.5257 52.4762 46.4084 52.1402 46.1737 51.8949C45.9497 51.6389 45.6457 51.5109 45.2617 51.5109C44.8671 51.5109 44.5577 51.6389 44.3337 51.8949C44.1097 52.1402 43.9977 52.4762 43.9977 52.9029V57.6869H40.4457V48.6629H43.9977V50.0389C44.2751 49.6122 44.6431 49.2655 45.1017 48.9989C45.5711 48.7322 46.1257 48.5989 46.7657 48.5989Z" fill="black" fill-opacity="0.6"/>
<path d="M29.0908 53.1748C29.0908 52.2254 29.2508 51.4041 29.5708 50.7108C29.9014 50.0068 30.3494 49.4734 30.9148 49.1108C31.4801 48.7374 32.1148 48.5508 32.8188 48.5508C33.4054 48.5508 33.9121 48.6734 34.3388 48.9188C34.7654 49.1534 35.0908 49.4788 35.3148 49.8948V48.6628H38.8508V57.6868H35.3148V56.4548C35.0908 56.8708 34.7654 57.2014 34.3388 57.4468C33.9121 57.6814 33.4054 57.7988 32.8188 57.7988C32.1148 57.7988 31.4801 57.6175 30.9148 57.2548C30.3494 56.8815 29.9014 56.3481 29.5708 55.6548C29.2508 54.9508 29.0908 54.1241 29.0908 53.1748ZM35.3148 53.1748C35.3148 52.6948 35.1921 52.3214 34.9468 52.0548C34.7014 51.7881 34.3868 51.6548 34.0028 51.6548C33.6188 51.6548 33.3041 51.7881 33.0588 52.0548C32.8134 52.3214 32.6908 52.6948 32.6908 53.1748C32.6908 53.6548 32.8134 54.0281 33.0588 54.2948C33.3041 54.5615 33.6188 54.6948 34.0028 54.6948C34.3868 54.6948 34.7014 54.5615 34.9468 54.2948C35.1921 54.0281 35.3148 53.6548 35.3148 53.1748Z" fill="black" fill-opacity="0.6"/>
<path d="M25.654 50.3269C26.0167 49.8042 26.4593 49.3882 26.982 49.0789C27.5047 48.7589 28.0487 48.5989 28.614 48.5989V52.3909H27.606C26.934 52.3909 26.438 52.5082 26.118 52.7429C25.8087 52.9775 25.654 53.3935 25.654 53.9909V57.6869H22.102V48.6629H25.654V50.3269Z" fill="black" fill-opacity="0.6"/>
<path d="M10.747 53.1748C10.747 52.2254 10.907 51.4041 11.227 50.7108C11.5577 50.0068 12.0057 49.4734 12.571 49.1108C13.1363 48.7374 13.771 48.5508 14.475 48.5508C15.0617 48.5508 15.5683 48.6734 15.995 48.9188C16.4217 49.1534 16.747 49.4788 16.971 49.8948V48.6628H20.507V57.6868H16.971V56.4548C16.747 56.8708 16.4217 57.2014 15.995 57.4468C15.5683 57.6814 15.0617 57.7988 14.475 57.7988C13.771 57.7988 13.1363 57.6175 12.571 57.2548C12.0057 56.8815 11.5577 56.3481 11.227 55.6548C10.907 54.9508 10.747 54.1241 10.747 53.1748ZM16.971 53.1748C16.971 52.6948 16.8483 52.3214 16.603 52.0548C16.3577 51.7881 16.043 51.6548 15.659 51.6548C15.275 51.6548 14.9603 51.7881 14.715 52.0548C14.4697 52.3214 14.347 52.6948 14.347 53.1748C14.347 53.6548 14.4697 54.0281 14.715 54.2948C14.9603 54.5615 15.275 54.6948 15.659 54.6948C16.043 54.6948 16.3577 54.5615 16.603 54.2948C16.8483 54.0281 16.971 53.6548 16.971 53.1748Z" fill="black" fill-opacity="0.6"/>
<path d="M3.90399 49.8949C4.12799 49.4789 4.44799 49.1536 4.86399 48.9189C5.29066 48.6736 5.79732 48.5509 6.38399 48.5509C7.08799 48.5509 7.72266 48.7376 8.28799 49.1109C8.85332 49.4736 9.29599 50.0069 9.61599 50.7109C9.94666 51.4043 10.112 52.2256 10.112 53.1749C10.112 54.1243 9.94666 54.9509 9.61599 55.6549C9.29599 56.3483 8.85332 56.8816 8.28799 57.2549C7.72266 57.6176 7.08799 57.7989 6.38399 57.7989C5.79732 57.7989 5.29066 57.6816 4.86399 57.4469C4.44799 57.2016 4.12799 56.8709 3.90399 56.4549V57.6869H0.35199V45.8469H3.90399V49.8949ZM6.51199 53.1749C6.51199 52.6949 6.38932 52.3216 6.14399 52.0549C5.89866 51.7883 5.58399 51.6549 5.19999 51.6549C4.81599 51.6549 4.50132 51.7883 4.25599 52.0549C4.01066 52.3216 3.88799 52.6949 3.88799 53.1749C3.88799 53.6549 4.01066 54.0283 4.25599 54.2949C4.50132 54.5616 4.81599 54.6949 5.19999 54.6949C5.58399 54.6949 5.89866 54.5616 6.14399 54.2949C6.38932 54.0283 6.51199 53.6549 6.51199 53.1749Z" fill="black" fill-opacity="0.6"/>
<path d="M273.582 32.8547L271.934 37.6067H269.694L270.446 32.8547H273.582Z" fill="black" fill-opacity="0.6"/>
<path d="M264.938 26.5989C265.972 26.5989 266.778 26.9455 267.354 27.6389C267.94 28.3322 268.234 29.2709 268.234 30.4549V35.6869H264.698V30.9029C264.698 30.4762 264.58 30.1402 264.346 29.8949C264.122 29.6389 263.818 29.5109 263.434 29.5109C263.039 29.5109 262.73 29.6389 262.506 29.8949C262.282 30.1402 262.17 30.4762 262.17 30.9029V35.6869H258.618V26.6629H262.17V28.0389C262.447 27.6122 262.815 27.2655 263.274 26.9989C263.743 26.7322 264.298 26.5989 264.938 26.5989Z" fill="black" fill-opacity="0.6"/>
<path d="M247.263 31.1748C247.263 30.2254 247.423 29.4041 247.743 28.7108C248.073 28.0068 248.521 27.4734 249.087 27.1108C249.652 26.7374 250.287 26.5508 250.991 26.5508C251.577 26.5508 252.084 26.6734 252.511 26.9188C252.937 27.1534 253.263 27.4788 253.487 27.8948V26.6628H257.023V35.6868H253.487V34.4548C253.263 34.8708 252.937 35.2014 252.511 35.4468C252.084 35.6814 251.577 35.7988 250.991 35.7988C250.287 35.7988 249.652 35.6175 249.087 35.2548C248.521 34.8815 248.073 34.3481 247.743 33.6548C247.423 32.9508 247.263 32.1241 247.263 31.1748ZM253.487 31.1748C253.487 30.6948 253.364 30.3214 253.119 30.0548C252.873 29.7881 252.559 29.6548 252.175 29.6548C251.791 29.6548 251.476 29.7881 251.231 30.0548C250.985 30.3214 250.863 30.6948 250.863 31.1748C250.863 31.6548 250.985 32.0281 251.231 32.2948C251.476 32.5615 251.791 32.6948 252.175 32.6948C252.559 32.6948 252.873 32.5615 253.119 32.2948C253.364 32.0281 253.487 31.6548 253.487 31.1748Z" fill="black" fill-opacity="0.6"/>
<path d="M246.138 23.8469V35.6869H242.586V23.8469H246.138Z" fill="black" fill-opacity="0.6"/>
<path d="M231.231 31.1748C231.231 30.2254 231.391 29.4041 231.711 28.7108C232.042 28.0068 232.49 27.4734 233.055 27.1108C233.621 26.7374 234.255 26.5508 234.959 26.5508C235.546 26.5508 236.053 26.6734 236.479 26.9188C236.906 27.1534 237.231 27.4788 237.455 27.8948V26.6628H240.991V35.6868H237.455V34.4548C237.231 34.8708 236.906 35.2014 236.479 35.4468C236.053 35.6814 235.546 35.7988 234.959 35.7988C234.255 35.7988 233.621 35.6175 233.055 35.2548C232.49 34.8815 232.042 34.3481 231.711 33.6548C231.391 32.9508 231.231 32.1241 231.231 31.1748ZM237.455 31.1748C237.455 30.6948 237.333 30.3214 237.087 30.0548C236.842 29.7881 236.527 29.6548 236.143 29.6548C235.759 29.6548 235.445 29.7881 235.199 30.0548C234.954 30.3214 234.831 30.6948 234.831 31.1748C234.831 31.6548 234.954 32.0281 235.199 32.2948C235.445 32.5615 235.759 32.6948 236.143 32.6948C236.527 32.6948 236.842 32.5615 237.087 32.2948C237.333 32.0281 237.455 31.6548 237.455 31.1748Z" fill="black" fill-opacity="0.6"/>
<path d="M230.107 26.6628V35.6868H226.555V34.3108C226.278 34.7375 225.904 35.0842 225.435 35.3508C224.976 35.6175 224.427 35.7508 223.787 35.7508C222.752 35.7508 221.942 35.4042 221.355 34.7108C220.779 34.0175 220.491 33.0788 220.491 31.8948V26.6628H224.027V31.4468C224.027 31.8735 224.139 32.2148 224.363 32.4708C224.598 32.7162 224.907 32.8388 225.291 32.8388C225.686 32.8388 225.995 32.7162 226.219 32.4708C226.443 32.2148 226.555 31.8735 226.555 31.4468V26.6628H230.107Z" fill="black" fill-opacity="0.6"/>
<path d="M217.19 25.9429C216.571 25.9429 216.075 25.7775 215.702 25.4468C215.329 25.1162 215.142 24.7002 215.142 24.1989C215.142 23.6869 215.329 23.2655 215.702 22.9349C216.075 22.5935 216.571 22.4229 217.19 22.4229C217.798 22.4229 218.289 22.5935 218.662 22.9349C219.035 23.2655 219.222 23.6869 219.222 24.1989C219.222 24.7002 219.035 25.1162 218.662 25.4468C218.289 25.7775 217.798 25.9429 217.19 25.9429ZM218.982 36.3109C218.982 38.7749 217.745 40.0069 215.27 40.0069H214.086V36.9829H214.774C215.009 36.9829 215.174 36.9349 215.27 36.8389C215.377 36.7429 215.43 36.5882 215.43 36.3749V26.6629H218.982V36.3109Z" fill="black" fill-opacity="0.6"/>
<path d="M211.513 28.3269C211.876 27.8042 212.319 27.3882 212.841 27.0789C213.364 26.7589 213.908 26.5989 214.473 26.5989V30.3909H213.465C212.793 30.3909 212.297 30.5082 211.977 30.7429C211.668 30.9775 211.513 31.3935 211.513 31.9909V35.6869H207.961V26.6629H211.513V28.3269Z" fill="black" fill-opacity="0.6"/>
<path d="M206.838 31.0948C206.838 31.3401 206.822 31.5748 206.79 31.7988H201.078C201.131 32.5774 201.457 32.9668 202.054 32.9668C202.438 32.9668 202.715 32.7908 202.886 32.4388H206.646C206.518 33.0788 206.246 33.6548 205.83 34.1668C205.425 34.6681 204.907 35.0681 204.278 35.3668C203.659 35.6548 202.977 35.7988 202.23 35.7988C201.334 35.7988 200.534 35.6121 199.83 35.2388C199.137 34.8654 198.593 34.3321 198.198 33.6388C197.814 32.9348 197.622 32.1134 197.622 31.1748C197.622 30.2361 197.814 29.4201 198.198 28.7268C198.593 28.0228 199.137 27.4841 199.83 27.1108C200.534 26.7374 201.334 26.5508 202.23 26.5508C203.126 26.5508 203.921 26.7374 204.614 27.1108C205.318 27.4734 205.862 27.9961 206.246 28.6788C206.641 29.3615 206.838 30.1668 206.838 31.0948ZM203.238 30.2468C203.238 29.9481 203.142 29.7241 202.95 29.5748C202.758 29.4148 202.518 29.3348 202.23 29.3348C201.601 29.3348 201.233 29.6388 201.126 30.2468H203.238Z" fill="black" fill-opacity="0.6"/>
<path d="M190.779 27.8949C191.003 27.4789 191.323 27.1536 191.739 26.9189C192.166 26.6736 192.672 26.5509 193.259 26.5509C193.963 26.5509 194.598 26.7376 195.163 27.1109C195.728 27.4736 196.171 28.0069 196.491 28.7109C196.822 29.4043 196.987 30.2256 196.987 31.1749C196.987 32.1243 196.822 32.9509 196.491 33.6549C196.171 34.3483 195.728 34.8816 195.163 35.2549C194.598 35.6176 193.963 35.7989 193.259 35.7989C192.672 35.7989 192.166 35.6816 191.739 35.4469C191.323 35.2016 191.003 34.8709 190.779 34.4549V35.6869H187.227V23.8469H190.779V27.8949ZM193.387 31.1749C193.387 30.6949 193.264 30.3216 193.019 30.0549C192.774 29.7883 192.459 29.6549 192.075 29.6549C191.691 29.6549 191.376 29.7883 191.131 30.0549C190.886 30.3216 190.763 30.6949 190.763 31.1749C190.763 31.6549 190.886 32.0283 191.131 32.2949C191.376 32.5616 191.691 32.6949 192.075 32.6949C192.459 32.6949 192.774 32.5616 193.019 32.2949C193.264 32.0283 193.387 31.6549 193.387 31.1749Z" fill="black" fill-opacity="0.6"/>
<path d="M183.155 32.6628V35.6868H181.811C179.337 35.6868 178.099 34.4548 178.099 31.9908V29.6228H176.979V26.6628H178.099V24.4868H181.651V26.6628H183.123V29.6228H181.651V32.0548C181.651 32.2682 181.699 32.4228 181.795 32.5188C181.902 32.6148 182.073 32.6628 182.307 32.6628H183.155Z" fill="black" fill-opacity="0.6"/>
<path d="M166.185 31.1748C166.185 30.2254 166.345 29.4041 166.665 28.7108C166.995 28.0068 167.443 27.4734 168.008 27.1108C168.574 26.7374 169.209 26.5508 169.913 26.5508C170.499 26.5508 171.006 26.6734 171.432 26.9188C171.859 27.1534 172.185 27.4788 172.409 27.8948V26.6628H175.945V35.6868H172.409V34.4548C172.185 34.8708 171.859 35.2014 171.432 35.4468C171.006 35.6814 170.499 35.7988 169.913 35.7988C169.209 35.7988 168.574 35.6175 168.008 35.2548C167.443 34.8815 166.995 34.3481 166.665 33.6548C166.345 32.9508 166.185 32.1241 166.185 31.1748ZM172.409 31.1748C172.409 30.6948 172.286 30.3214 172.04 30.0548C171.795 29.7881 171.48 29.6548 171.096 29.6548C170.712 29.6548 170.398 29.7881 170.152 30.0548C169.907 30.3214 169.785 30.6948 169.785 31.1748C169.785 31.6548 169.907 32.0281 170.152 32.2948C170.398 32.5615 170.712 32.6948 171.096 32.6948C171.48 32.6948 171.795 32.5615 172.04 32.2948C172.286 32.0281 172.409 31.6548 172.409 31.1748Z" fill="black" fill-opacity="0.6"/>
<path d="M159.341 27.8948C159.565 27.4788 159.885 27.1534 160.301 26.9188C160.728 26.6734 161.235 26.5508 161.821 26.5508C162.525 26.5508 163.16 26.7374 163.725 27.1108C164.291 27.4734 164.733 28.0068 165.053 28.7108C165.384 29.4041 165.549 30.2254 165.549 31.1748C165.549 32.1241 165.384 32.9508 165.053 33.6548C164.733 34.3481 164.291 34.8815 163.725 35.2548C163.16 35.6175 162.525 35.7988 161.821 35.7988C161.235 35.7988 160.728 35.6814 160.301 35.4468C159.885 35.2014 159.565 34.8708 159.341 34.4548V40.0068H155.789V26.6628H159.341V27.8948ZM161.949 31.1748C161.949 30.6948 161.827 30.3214 161.581 30.0548C161.336 29.7881 161.021 29.6548 160.637 29.6548C160.253 29.6548 159.939 29.7881 159.693 30.0548C159.448 30.3214 159.325 30.6948 159.325 31.1748C159.325 31.6548 159.448 32.0281 159.693 32.2948C159.939 32.5615 160.253 32.6948 160.637 32.6948C161.021 32.6948 161.336 32.5615 161.581 32.2948C161.827 32.0281 161.949 31.6548 161.949 31.1748Z" fill="black" fill-opacity="0.6"/>
<path d="M150.619 26.5989C151.771 26.5989 152.661 26.9455 153.291 27.6389C153.931 28.3322 154.251 29.2709 154.251 30.4549V35.6869H150.715V30.9029C150.715 30.5189 150.597 30.2202 150.363 30.0069C150.139 29.7829 149.835 29.6709 149.451 29.6709C149.056 29.6709 148.747 29.7829 148.523 30.0069C148.299 30.2202 148.187 30.5189 148.187 30.9029V35.6869H144.651V30.9029C144.651 30.5189 144.533 30.2202 144.299 30.0069C144.075 29.7829 143.771 29.6709 143.387 29.6709C142.992 29.6709 142.683 29.7829 142.459 30.0069C142.235 30.2202 142.123 30.5189 142.123 30.9029V35.6869H138.571V26.6629H142.123V27.8789C142.379 27.4949 142.725 27.1855 143.163 26.9509C143.611 26.7162 144.133 26.5989 144.731 26.5989C145.381 26.5989 145.957 26.7429 146.459 27.0309C146.96 27.3082 147.36 27.7029 147.659 28.2149C147.989 27.7455 148.411 27.3615 148.923 27.0629C149.435 26.7535 150 26.5989 150.619 26.5989Z" fill="black" fill-opacity="0.6"/>
<path d="M137.447 31.0948C137.447 31.3401 137.431 31.5748 137.399 31.7988H131.687C131.741 32.5774 132.066 32.9668 132.663 32.9668C133.047 32.9668 133.325 32.7908 133.495 32.4388H137.255C137.127 33.0788 136.855 33.6548 136.439 34.1668C136.034 34.6681 135.517 35.0681 134.887 35.3668C134.269 35.6548 133.586 35.7988 132.839 35.7988C131.943 35.7988 131.143 35.6121 130.439 35.2388C129.746 34.8654 129.202 34.3321 128.807 33.6388C128.423 32.9348 128.231 32.1134 128.231 31.1748C128.231 30.2361 128.423 29.4201 128.807 28.7268C129.202 28.0228 129.746 27.4841 130.439 27.1108C131.143 26.7374 131.943 26.5508 132.839 26.5508C133.735 26.5508 134.53 26.7374 135.223 27.1108C135.927 27.4734 136.471 27.9961 136.855 28.6788C137.25 29.3615 137.447 30.1668 137.447 31.0948ZM133.847 30.2468C133.847 29.9481 133.751 29.7241 133.559 29.5748C133.367 29.4148 133.127 29.3348 132.839 29.3348C132.21 29.3348 131.842 29.6388 131.735 30.2468H133.847Z" fill="black" fill-opacity="0.6"/>
<path d="M127.359 32.6628V35.6868H126.015C123.54 35.6868 122.303 34.4548 122.303 31.9908V29.6228H121.183V26.6628H122.303V24.4868H125.855V26.6628H127.327V29.6228H125.855V32.0548C125.855 32.2682 125.903 32.4228 125.999 32.5188C126.105 32.6148 126.276 32.6628 126.511 32.6628H127.359Z" fill="black" fill-opacity="0.6"/>
<path d="M114.188 26.5989C115.222 26.5989 116.028 26.9455 116.604 27.6389C117.19 28.3322 117.484 29.2709 117.484 30.4549V35.6869H113.948V30.9029C113.948 30.4762 113.83 30.1402 113.596 29.8949C113.372 29.6389 113.068 29.5109 112.684 29.5109C112.289 29.5109 111.98 29.6389 111.756 29.8949C111.532 30.1402 111.42 30.4762 111.42 30.9029V35.6869H107.868V26.6629H111.42V28.0389C111.697 27.6122 112.065 27.2655 112.524 26.9989C112.993 26.7322 113.548 26.5989 114.188 26.5989Z" fill="black" fill-opacity="0.6"/>
<path d="M96.5126 31.1748C96.5126 30.2254 96.6726 29.4041 96.9926 28.7108C97.3233 28.0068 97.7713 27.4734 98.3366 27.1108C98.902 26.7374 99.5366 26.5508 100.241 26.5508C100.827 26.5508 101.334 26.6734 101.761 26.9188C102.187 27.1534 102.513 27.4788 102.737 27.8948V26.6628H106.273V35.6868H102.737V34.4548C102.513 34.8708 102.187 35.2014 101.761 35.4468C101.334 35.6814 100.827 35.7988 100.241 35.7988C99.5366 35.7988 98.902 35.6175 98.3366 35.2548C97.7713 34.8815 97.3233 34.3481 96.9926 33.6548C96.6726 32.9508 96.5126 32.1241 96.5126 31.1748ZM102.737 31.1748C102.737 30.6948 102.614 30.3214 102.369 30.0548C102.123 29.7881 101.809 29.6548 101.425 29.6548C101.041 29.6548 100.726 29.7881 100.481 30.0548C100.235 30.3214 100.113 30.6948 100.113 31.1748C100.113 31.6548 100.235 32.0281 100.481 32.2948C100.726 32.5615 101.041 32.6948 101.425 32.6948C101.809 32.6948 102.123 32.5615 102.369 32.2948C102.614 32.0281 102.737 31.6548 102.737 31.1748Z" fill="black" fill-opacity="0.6"/>
<path d="M91.9561 35.6869L89.7321 32.0869V35.6869H86.1801V23.8469H89.7321V30.0389L91.9881 26.6629H96.1161L92.7401 31.2069L96.1961 35.6869H91.9561Z" fill="black" fill-opacity="0.6"/>
<path d="M74.8251 31.1748C74.8251 30.2254 74.9851 29.4041 75.3051 28.7108C75.6358 28.0068 76.0838 27.4734 76.6491 27.1108C77.2145 26.7374 77.8491 26.5508 78.5531 26.5508C79.1398 26.5508 79.6465 26.6734 80.0731 26.9188C80.4998 27.1534 80.8251 27.4788 81.0491 27.8948V26.6628H84.5851V35.6868H81.0491V34.4548C80.8251 34.8708 80.4998 35.2014 80.0731 35.4468C79.6465 35.6814 79.1398 35.7988 78.5531 35.7988C77.8491 35.7988 77.2145 35.6175 76.6491 35.2548C76.0838 34.8815 75.6358 34.3481 75.3051 33.6548C74.9851 32.9508 74.8251 32.1241 74.8251 31.1748ZM81.0491 31.1748C81.0491 30.6948 80.9265 30.3214 80.6811 30.0548C80.4358 29.7881 80.1211 29.6548 79.7371 29.6548C79.3531 29.6548 79.0385 29.7881 78.7931 30.0548C78.5478 30.3214 78.4251 30.6948 78.4251 31.1748C78.4251 31.6548 78.5478 32.0281 78.7931 32.2948C79.0385 32.5615 79.3531 32.6948 79.7371 32.6948C80.1211 32.6948 80.4358 32.5615 80.6811 32.2948C80.9265 32.0281 81.0491 31.6548 81.0491 31.1748Z" fill="black" fill-opacity="0.6"/>
<path d="M71.9409 25.9429C71.3222 25.9429 70.8262 25.7775 70.4529 25.4468C70.0796 25.1162 69.8929 24.7002 69.8929 24.1989C69.8929 23.6869 70.0796 23.2655 70.4529 22.9349C70.8262 22.5935 71.3222 22.4229 71.9409 22.4229C72.5489 22.4229 73.0396 22.5935 73.4129 22.9349C73.7862 23.2655 73.9729 23.6869 73.9729 24.1989C73.9729 24.7002 73.7862 25.1162 73.4129 25.4468C73.0396 25.7775 72.5489 25.9429 71.9409 25.9429ZM73.7009 26.6629V35.6869H70.1489V26.6629H73.7009Z" fill="black" fill-opacity="0.6"/>
<path d="M58.7939 31.1749C58.7939 30.2256 58.9539 29.4043 59.2739 28.7109C59.6046 28.0069 60.0526 27.4736 60.6179 27.1109C61.1832 26.7376 61.8179 26.5509 62.5219 26.5509C63.1086 26.5509 63.6099 26.6736 64.0259 26.9189C64.4526 27.1536 64.7779 27.4789 65.0019 27.8949V23.8469H68.5539V35.6869H65.0019V34.4549C64.7779 34.8709 64.4526 35.2016 64.0259 35.4469C63.6099 35.6816 63.1086 35.7989 62.5219 35.7989C61.8179 35.7989 61.1832 35.6176 60.6179 35.2549C60.0526 34.8816 59.6046 34.3483 59.2739 33.6549C58.9539 32.9509 58.7939 32.1243 58.7939 31.1749ZM65.0179 31.1749C65.0179 30.6949 64.8952 30.3216 64.6499 30.0549C64.4046 29.7883 64.0899 29.6549 63.7059 29.6549C63.3219 29.6549 63.0072 29.7883 62.7619 30.0549C62.5166 30.3216 62.3939 30.6949 62.3939 31.1749C62.3939 31.6549 62.5166 32.0283 62.7619 32.2949C63.0072 32.5616 63.3219 32.6949 63.7059 32.6949C64.0899 32.6949 64.4046 32.5616 64.6499 32.2949C64.8952 32.0283 65.0179 31.6549 65.0179 31.1749Z" fill="black" fill-opacity="0.6"/>
<path d="M58.1505 31.0948C58.1505 31.3401 58.1345 31.5748 58.1025 31.7988H52.3905C52.4438 32.5774 52.7692 32.9668 53.3665 32.9668C53.7505 32.9668 54.0278 32.7908 54.1985 32.4388H57.9585C57.8305 33.0788 57.5585 33.6548 57.1425 34.1668C56.7372 34.6681 56.2198 35.0681 55.5905 35.3668C54.9718 35.6548 54.2892 35.7988 53.5425 35.7988C52.6465 35.7988 51.8465 35.6121 51.1425 35.2388C50.4492 34.8654 49.9052 34.3321 49.5105 33.6388C49.1265 32.9348 48.9345 32.1134 48.9345 31.1748C48.9345 30.2361 49.1265 29.4201 49.5105 28.7268C49.9052 28.0228 50.4492 27.4841 51.1425 27.1108C51.8465 26.7374 52.6465 26.5508 53.5425 26.5508C54.4385 26.5508 55.2332 26.7374 55.9265 27.1108C56.6305 27.4734 57.1745 27.9961 57.5585 28.6788C57.9532 29.3615 58.1505 30.1668 58.1505 31.0948ZM54.5505 30.2468C54.5505 29.9481 54.4545 29.7241 54.2625 29.5748C54.0705 29.4148 53.8305 29.3348 53.5425 29.3348C52.9132 29.3348 52.5452 29.6388 52.4385 30.2468H54.5505Z" fill="black" fill-opacity="0.6"/>
<path d="M48.7783 26.6628L43.0023 40.0068H39.1143L41.3863 35.2388L37.6263 26.6628H41.5783L43.2743 31.2388L44.8583 26.6628H48.7783Z" fill="black" fill-opacity="0.6"/>
<path d="M33.7501 26.5989C34.7848 26.5989 35.5901 26.9455 36.1661 27.6389C36.7528 28.3322 37.0461 29.2709 37.0461 30.4549V35.6869H33.5101V30.9029C33.5101 30.4762 33.3928 30.1402 33.1581 29.8949C32.9341 29.6389 32.6301 29.5109 32.2461 29.5109C31.8514 29.5109 31.5421 29.6389 31.3181 29.8949C31.0941 30.1402 30.9821 30.4762 30.9821 30.9029V35.6869H27.4301V26.6629H30.9821V28.0389C31.2594 27.6122 31.6274 27.2655 32.0861 26.9989C32.5554 26.7322 33.1101 26.5989 33.7501 26.5989Z" fill="black" fill-opacity="0.6"/>
<path d="M26.3068 31.0948C26.3068 31.3401 26.2908 31.5748 26.2588 31.7988H20.5468C20.6001 32.5774 20.9254 32.9668 21.5228 32.9668C21.9068 32.9668 22.1841 32.7908 22.3548 32.4388H26.1148C25.9868 33.0788 25.7148 33.6548 25.2988 34.1668C24.8934 34.6681 24.3761 35.0681 23.7468 35.3668C23.1281 35.6548 22.4454 35.7988 21.6988 35.7988C20.8028 35.7988 20.0028 35.6121 19.2988 35.2388C18.6054 34.8654 18.0614 34.3321 17.6668 33.6388C17.2828 32.9348 17.0908 32.1134 17.0908 31.1748C17.0908 30.2361 17.2828 29.4201 17.6668 28.7268C18.0614 28.0228 18.6054 27.4841 19.2988 27.1108C20.0028 26.7374 20.8028 26.5508 21.6988 26.5508C22.5948 26.5508 23.3894 26.7374 24.0828 27.1108C24.7868 27.4734 25.3308 27.9961 25.7148 28.6788C26.1094 29.3615 26.3068 30.1668 26.3068 31.0948ZM22.7068 30.2468C22.7068 29.9481 22.6108 29.7241 22.4188 29.5748C22.2268 29.4148 21.9868 29.3348 21.6988 29.3348C21.0694 29.3348 20.7014 29.6388 20.5948 30.2468H22.7068Z" fill="black" fill-opacity="0.6"/>
<path d="M12.4 26.5989C13.552 26.5989 14.4427 26.9455 15.072 27.6389C15.712 28.3322 16.032 29.2709 16.032 30.4549V35.6869H12.496V30.9029C12.496 30.5189 12.3787 30.2202 12.144 30.0069C11.92 29.7829 11.616 29.6709 11.232 29.6709C10.8373 29.6709 10.528 29.7829 10.304 30.0069C10.08 30.2202 9.96799 30.5189 9.96799 30.9029V35.6869H6.43199V30.9029C6.43199 30.5189 6.31466 30.2202 6.07999 30.0069C5.85599 29.7829 5.55199 29.6709 5.16799 29.6709C4.77332 29.6709 4.46399 29.7829 4.23999 30.0069C4.01599 30.2202 3.90399 30.5189 3.90399 30.9029V35.6869H0.35199V26.6629H3.90399V27.8789C4.15999 27.4949 4.50666 27.1855 4.94399 26.9509C5.39199 26.7162 5.91466 26.5989 6.51199 26.5989C7.16266 26.5989 7.73866 26.7429 8.23999 27.0309C8.74132 27.3082 9.14132 27.7029 9.43999 28.2149C9.77066 27.7455 10.192 27.3615 10.704 27.0629C11.216 26.7535 11.7813 26.5989 12.4 26.5989Z" fill="black" fill-opacity="0.6"/>
<path d="M306.822 4.59888C307.974 4.59888 308.865 4.94554 309.494 5.63888C310.134 6.33221 310.454 7.27088 310.454 8.45488V13.6869H306.918V8.90288C306.918 8.51888 306.801 8.22021 306.566 8.00688C306.342 7.78288 306.038 7.67088 305.654 7.67088C305.259 7.67088 304.95 7.78288 304.726 8.00688C304.502 8.22021 304.39 8.51888 304.39 8.90288V13.6869H300.854V8.90288C300.854 8.51888 300.737 8.22021 300.502 8.00688C300.278 7.78288 299.974 7.67088 299.59 7.67088C299.195 7.67088 298.886 7.78288 298.662 8.00688C298.438 8.22021 298.326 8.51888 298.326 8.90288V13.6869H294.774V4.66288H298.326V5.87888C298.582 5.49488 298.929 5.18554 299.366 4.95088C299.814 4.71621 300.337 4.59888 300.934 4.59888C301.585 4.59888 302.161 4.74288 302.662 5.03088C303.163 5.30821 303.563 5.70288 303.862 6.21488C304.193 5.74554 304.614 5.36154 305.126 5.06288C305.638 4.75354 306.203 4.59888 306.822 4.59888Z" fill="black" fill-opacity="0.6"/>
<path d="M283.419 9.17478C283.419 8.22545 283.579 7.40412 283.899 6.71078C284.23 6.00678 284.678 5.47345 285.243 5.11078C285.808 4.73745 286.443 4.55078 287.147 4.55078C287.734 4.55078 288.24 4.67345 288.667 4.91878C289.094 5.15345 289.419 5.47878 289.643 5.89478V4.66278H293.179V13.6868H289.643V12.4548C289.419 12.8708 289.094 13.2014 288.667 13.4468C288.24 13.6814 287.734 13.7988 287.147 13.7988C286.443 13.7988 285.808 13.6174 285.243 13.2548C284.678 12.8814 284.23 12.3481 283.899 11.6548C283.579 10.9508 283.419 10.1241 283.419 9.17478ZM289.643 9.17478C289.643 8.69478 289.52 8.32145 289.275 8.05478C289.03 7.78812 288.715 7.65478 288.331 7.65478C287.947 7.65478 287.632 7.78812 287.387 8.05478C287.142 8.32145 287.019 8.69478 287.019 9.17478C287.019 9.65478 287.142 10.0281 287.387 10.2948C287.632 10.5614 287.947 10.6948 288.331 10.6948C288.715 10.6948 289.03 10.5614 289.275 10.2948C289.52 10.0281 289.643 9.65478 289.643 9.17478Z" fill="black" fill-opacity="0.6"/>
<path d="M282.295 1.84692V13.6869H278.743V1.84692H282.295Z" fill="black" fill-opacity="0.6"/>
<path d="M267.388 9.17478C267.388 8.22545 267.548 7.40412 267.868 6.71078C268.198 6.00678 268.646 5.47345 269.212 5.11078C269.777 4.73745 270.412 4.55078 271.116 4.55078C271.702 4.55078 272.209 4.67345 272.636 4.91878C273.062 5.15345 273.388 5.47878 273.612 5.89478V4.66278H277.148V13.6868H273.612V12.4548C273.388 12.8708 273.062 13.2014 272.636 13.4468C272.209 13.6814 271.702 13.7988 271.116 13.7988C270.412 13.7988 269.777 13.6174 269.212 13.2548C268.646 12.8814 268.198 12.3481 267.868 11.6548C267.548 10.9508 267.388 10.1241 267.388 9.17478ZM273.612 9.17478C273.612 8.69478 273.489 8.32145 273.244 8.05478C272.998 7.78812 272.684 7.65478 272.3 7.65478C271.916 7.65478 271.601 7.78812 271.356 8.05478C271.11 8.32145 270.988 8.69478 270.988 9.17478C270.988 9.65478 271.11 10.0281 271.356 10.2948C271.601 10.5614 271.916 10.6948 272.3 10.6948C272.684 10.6948 272.998 10.5614 273.244 10.2948C273.489 10.0281 273.612 9.65478 273.612 9.17478Z" fill="black" fill-opacity="0.6"/>
<path d="M256.513 9.17492C256.513 8.22559 256.673 7.40426 256.993 6.71092C257.323 6.00692 257.771 5.47359 258.337 5.11092C258.902 4.73759 259.537 4.55092 260.241 4.55092C260.827 4.55092 261.329 4.67359 261.745 4.91892C262.171 5.15359 262.497 5.47892 262.721 5.89492V1.84692H266.273V13.6869H262.721V12.4549C262.497 12.8709 262.171 13.2016 261.745 13.4469C261.329 13.6816 260.827 13.7989 260.241 13.7989C259.537 13.7989 258.902 13.6176 258.337 13.2549C257.771 12.8816 257.323 12.3483 256.993 11.6549C256.673 10.9509 256.513 10.1243 256.513 9.17492ZM262.737 9.17492C262.737 8.69492 262.614 8.32159 262.369 8.05492C262.123 7.78826 261.809 7.65492 261.425 7.65492C261.041 7.65492 260.726 7.78826 260.481 8.05492C260.235 8.32159 260.113 8.69492 260.113 9.17492C260.113 9.65492 260.235 10.0283 260.481 10.2949C260.726 10.5616 261.041 10.6949 261.425 10.6949C261.809 10.6949 262.123 10.5616 262.369 10.2949C262.614 10.0283 262.737 9.65492 262.737 9.17492Z" fill="black" fill-opacity="0.6"/>
<path d="M249.438 4.59888C250.472 4.59888 251.278 4.94554 251.854 5.63888C252.44 6.33221 252.734 7.27088 252.734 8.45488V13.6869H249.198V8.90288C249.198 8.47621 249.08 8.14021 248.846 7.89488C248.622 7.63888 248.318 7.51088 247.934 7.51088C247.539 7.51088 247.23 7.63888 247.006 7.89488C246.782 8.14021 246.67 8.47621 246.67 8.90288V13.6869H243.118V4.66288H246.67V6.03888C246.947 5.61221 247.315 5.26554 247.774 4.99888C248.243 4.73221 248.798 4.59888 249.438 4.59888Z" fill="black" fill-opacity="0.6"/>
<path d="M239.753 3.94285C239.135 3.94285 238.639 3.77752 238.265 3.44685C237.892 3.11619 237.705 2.70019 237.705 2.19885C237.705 1.68685 237.892 1.26552 238.265 0.934852C238.639 0.593518 239.135 0.422852 239.753 0.422852C240.361 0.422852 240.852 0.593518 241.225 0.934852C241.599 1.26552 241.785 1.68685 241.785 2.19885C241.785 2.70019 241.599 3.11619 241.225 3.44685C240.852 3.77752 240.361 3.94285 239.753 3.94285ZM241.513 4.66285V13.6869H237.961V4.66285H241.513Z" fill="black" fill-opacity="0.6"/>
<path d="M226.606 9.17478C226.606 8.22545 226.766 7.40412 227.086 6.71078C227.417 6.00678 227.865 5.47345 228.43 5.11078C228.996 4.73745 229.63 4.55078 230.334 4.55078C230.921 4.55078 231.428 4.67345 231.854 4.91878C232.281 5.15345 232.606 5.47878 232.83 5.89478V4.66278H236.366V13.6868H232.83V12.4548C232.606 12.8708 232.281 13.2014 231.854 13.4468C231.428 13.6814 230.921 13.7988 230.334 13.7988C229.63 13.7988 228.996 13.6174 228.43 13.2548C227.865 12.8814 227.417 12.3481 227.086 11.6548C226.766 10.9508 226.606 10.1241 226.606 9.17478ZM232.83 9.17478C232.83 8.69478 232.708 8.32145 232.462 8.05478C232.217 7.78812 231.902 7.65478 231.518 7.65478C231.134 7.65478 230.82 7.78812 230.574 8.05478C230.329 8.32145 230.206 8.69478 230.206 9.17478C230.206 9.65478 230.329 10.0281 230.574 10.2948C230.82 10.5614 231.134 10.6948 231.518 10.6948C231.902 10.6948 232.217 10.5614 232.462 10.2948C232.708 10.0281 232.83 9.65478 232.83 9.17478Z" fill="black" fill-opacity="0.6"/>
<path d="M223.721 3.94285C223.103 3.94285 222.607 3.77752 222.233 3.44685C221.86 3.11619 221.673 2.70019 221.673 2.19885C221.673 1.68685 221.86 1.26552 222.233 0.934852C222.607 0.593518 223.103 0.422852 223.721 0.422852C224.329 0.422852 224.82 0.593518 225.193 0.934852C225.567 1.26552 225.753 1.68685 225.753 2.19885C225.753 2.70019 225.567 3.11619 225.193 3.44685C224.82 3.77752 224.329 3.94285 223.721 3.94285ZM225.513 14.3109C225.513 16.7749 224.276 18.0069 221.801 18.0069H220.617V14.9829H221.305C221.54 14.9829 221.705 14.9349 221.801 14.8389C221.908 14.7429 221.961 14.5882 221.961 14.3749V4.66285H225.513V14.3109Z" fill="black" fill-opacity="0.6"/>
<path d="M218.045 6.32688C218.407 5.80421 218.85 5.38821 219.373 5.07888C219.895 4.75888 220.439 4.59888 221.005 4.59888V8.39088H219.997C219.325 8.39088 218.829 8.50821 218.509 8.74288C218.199 8.97754 218.045 9.39354 218.045 9.99088V13.6869H214.493V4.66288H218.045V6.32688Z" fill="black" fill-opacity="0.6"/>
<path d="M213.369 9.09478C213.369 9.34012 213.353 9.57478 213.321 9.79878H207.609C207.663 10.5774 207.988 10.9668 208.585 10.9668C208.969 10.9668 209.247 10.7908 209.417 10.4388H213.177C213.049 11.0788 212.777 11.6548 212.361 12.1668C211.956 12.6681 211.439 13.0681 210.809 13.3668C210.191 13.6548 209.508 13.7988 208.761 13.7988C207.865 13.7988 207.065 13.6121 206.361 13.2388C205.668 12.8654 205.124 12.3321 204.729 11.6388C204.345 10.9348 204.153 10.1134 204.153 9.17478C204.153 8.23612 204.345 7.42011 204.729 6.72678C205.124 6.02278 205.668 5.48411 206.361 5.11078C207.065 4.73745 207.865 4.55078 208.761 4.55078C209.657 4.55078 210.452 4.73745 211.145 5.11078C211.849 5.47345 212.393 5.99611 212.777 6.67878C213.172 7.36145 213.369 8.16678 213.369 9.09478ZM209.769 8.24678C209.769 7.94811 209.673 7.72411 209.481 7.57478C209.289 7.41478 209.049 7.33478 208.761 7.33478C208.132 7.33478 207.764 7.63878 207.657 8.24678H209.769Z" fill="black" fill-opacity="0.6"/>
<path d="M197.006 4.55078C197.593 4.55078 198.1 4.67345 198.526 4.91878C198.953 5.15345 199.278 5.47878 199.502 5.89478V4.66278H203.038V13.5268C203.038 14.3694 202.884 15.1374 202.574 15.8308C202.265 16.5241 201.764 17.0788 201.07 17.4948C200.388 17.9108 199.508 18.1188 198.43 18.1188C196.98 18.1188 195.828 17.7774 194.974 17.0948C194.132 16.4228 193.652 15.5054 193.534 14.3428H197.022C197.118 14.8121 197.502 15.0468 198.174 15.0468C198.59 15.0468 198.916 14.9401 199.15 14.7268C199.385 14.5134 199.502 14.1134 199.502 13.5268V12.4548C199.278 12.8708 198.953 13.2014 198.526 13.4468C198.1 13.6814 197.593 13.7988 197.006 13.7988C196.302 13.7988 195.668 13.6174 195.102 13.2548C194.537 12.8814 194.089 12.3481 193.758 11.6548C193.438 10.9508 193.278 10.1241 193.278 9.17478C193.278 8.22545 193.438 7.40412 193.758 6.71078C194.089 6.00678 194.537 5.47345 195.102 5.11078C195.668 4.73745 196.302 4.55078 197.006 4.55078ZM199.502 9.17478C199.502 8.69478 199.38 8.32145 199.134 8.05478C198.889 7.78812 198.574 7.65478 198.19 7.65478C197.806 7.65478 197.492 7.78812 197.246 8.05478C197.001 8.32145 196.878 8.69478 196.878 9.17478C196.878 9.65478 197.001 10.0281 197.246 10.2948C197.492 10.5614 197.806 10.6948 198.19 10.6948C198.574 10.6948 198.889 10.5614 199.134 10.2948C199.38 10.0281 199.502 9.65478 199.502 9.17478Z" fill="black" fill-opacity="0.6"/>
<path d="M188.922 4.59888C189.957 4.59888 190.762 4.94554 191.338 5.63888C191.925 6.33221 192.218 7.27088 192.218 8.45488V13.6869H188.682V8.90288C188.682 8.47621 188.565 8.14021 188.33 7.89488C188.106 7.63888 187.802 7.51088 187.418 7.51088C187.023 7.51088 186.714 7.63888 186.49 7.89488C186.266 8.14021 186.154 8.47621 186.154 8.90288V13.6869H182.602V4.66288H186.154V6.03888C186.431 5.61221 186.799 5.26554 187.258 4.99888C187.727 4.73221 188.282 4.59888 188.922 4.59888Z" fill="black" fill-opacity="0.6"/>
<path d="M181.479 9.09478C181.479 9.34012 181.463 9.57478 181.431 9.79878H175.719C175.772 10.5774 176.097 10.9668 176.695 10.9668C177.079 10.9668 177.356 10.7908 177.527 10.4388H181.287C181.159 11.0788 180.887 11.6548 180.471 12.1668C180.065 12.6681 179.548 13.0681 178.919 13.3668C178.3 13.6548 177.617 13.7988 176.871 13.7988C175.975 13.7988 175.175 13.6121 174.471 13.2388C173.777 12.8654 173.233 12.3321 172.839 11.6388C172.455 10.9348 172.263 10.1134 172.263 9.17478C172.263 8.23612 172.455 7.42011 172.839 6.72678C173.233 6.02278 173.777 5.48411 174.471 5.11078C175.175 4.73745 175.975 4.55078 176.871 4.55078C177.767 4.55078 178.561 4.73745 179.255 5.11078C179.959 5.47345 180.503 5.99611 180.887 6.67878C181.281 7.36145 181.479 8.16678 181.479 9.09478ZM177.879 8.24678C177.879 7.94811 177.783 7.72411 177.591 7.57478C177.399 7.41478 177.159 7.33478 176.871 7.33478C176.241 7.33478 175.873 7.63878 175.767 8.24678H177.879Z" fill="black" fill-opacity="0.6"/>
<path d="M165.42 5.89478C165.644 5.47878 165.964 5.15345 166.38 4.91878C166.806 4.67345 167.313 4.55078 167.9 4.55078C168.604 4.55078 169.238 4.73745 169.804 5.11078C170.369 5.47345 170.812 6.00678 171.132 6.71078C171.462 7.40412 171.628 8.22545 171.628 9.17478C171.628 10.1241 171.462 10.9508 171.132 11.6548C170.812 12.3481 170.369 12.8814 169.804 13.2548C169.238 13.6174 168.604 13.7988 167.9 13.7988C167.313 13.7988 166.806 13.6814 166.38 13.4468C165.964 13.2014 165.644 12.8708 165.42 12.4548V18.0068H161.868V4.66278H165.42V5.89478ZM168.028 9.17478C168.028 8.69478 167.905 8.32145 167.66 8.05478C167.414 7.78812 167.1 7.65478 166.716 7.65478C166.332 7.65478 166.017 7.78812 165.772 8.05478C165.526 8.32145 165.404 8.69478 165.404 9.17478C165.404 9.65478 165.526 10.0281 165.772 10.2948C166.017 10.5614 166.332 10.6948 166.716 10.6948C167.1 10.6948 167.414 10.5614 167.66 10.2948C167.905 10.0281 168.028 9.65478 168.028 9.17478Z" fill="black" fill-opacity="0.6"/>
<path d="M157.545 4.66284V13.6868H153.993V12.3108C153.715 12.7375 153.342 13.0842 152.873 13.3508C152.414 13.6175 151.865 13.7508 151.225 13.7508C150.19 13.7508 149.379 13.4042 148.793 12.7108C148.217 12.0175 147.929 11.0788 147.929 9.89484V4.66284H151.465V9.44684C151.465 9.87351 151.577 10.2148 151.801 10.4708C152.035 10.7162 152.345 10.8388 152.729 10.8388C153.123 10.8388 153.433 10.7162 153.657 10.4708C153.881 10.2148 153.993 9.87351 153.993 9.44684V4.66284H157.545Z" fill="black" fill-opacity="0.6"/>
<path d="M146.64 10.6628V13.6868H145.296C142.821 13.6868 141.584 12.4548 141.584 9.99082V7.62282H140.464V4.66282H141.584V2.48682H145.136V4.66282H146.608V7.62282H145.136V10.0548C145.136 10.2682 145.184 10.4228 145.28 10.5188C145.387 10.6148 145.557 10.6628 145.792 10.6628H146.64Z" fill="black" fill-opacity="0.6"/>
<path d="M136.188 4.59888C137.222 4.59888 138.028 4.94554 138.604 5.63888C139.19 6.33221 139.484 7.27088 139.484 8.45488V13.6869H135.948V8.90288C135.948 8.47621 135.83 8.14021 135.596 7.89488C135.372 7.63888 135.068 7.51088 134.684 7.51088C134.289 7.51088 133.98 7.63888 133.756 7.89488C133.532 8.14021 133.42 8.47621 133.42 8.90288V13.6869H129.868V4.66288H133.42V6.03888C133.697 5.61221 134.065 5.26554 134.524 4.99888C134.993 4.73221 135.548 4.59888 136.188 4.59888Z" fill="black" fill-opacity="0.6"/>
<path d="M118.513 9.17478C118.513 8.22545 118.673 7.40412 118.993 6.71078C119.323 6.00678 119.771 5.47345 120.337 5.11078C120.902 4.73745 121.537 4.55078 122.241 4.55078C122.827 4.55078 123.334 4.67345 123.761 4.91878C124.187 5.15345 124.513 5.47878 124.737 5.89478V4.66278H128.273V13.6868H124.737V12.4548C124.513 12.8708 124.187 13.2014 123.761 13.4468C123.334 13.6814 122.827 13.7988 122.241 13.7988C121.537 13.7988 120.902 13.6174 120.337 13.2548C119.771 12.8814 119.323 12.3481 118.993 11.6548C118.673 10.9508 118.513 10.1241 118.513 9.17478ZM124.737 9.17478C124.737 8.69478 124.614 8.32145 124.369 8.05478C124.123 7.78812 123.809 7.65478 123.425 7.65478C123.041 7.65478 122.726 7.78812 122.481 8.05478C122.235 8.32145 122.113 8.69478 122.113 9.17478C122.113 9.65478 122.235 10.0281 122.481 10.2948C122.726 10.5614 123.041 10.6948 123.425 10.6948C123.809 10.6948 124.123 10.5614 124.369 10.2948C124.614 10.0281 124.737 9.65478 124.737 9.17478Z" fill="black" fill-opacity="0.6"/>
<path d="M111.67 5.89492C111.894 5.47892 112.214 5.15359 112.63 4.91892C113.056 4.67359 113.563 4.55092 114.15 4.55092C114.854 4.55092 115.488 4.73759 116.054 5.11092C116.619 5.47359 117.062 6.00692 117.382 6.71092C117.712 7.40426 117.878 8.22559 117.878 9.17492C117.878 10.1243 117.712 10.9509 117.382 11.6549C117.062 12.3483 116.619 12.8816 116.054 13.2549C115.488 13.6176 114.854 13.7989 114.15 13.7989C113.563 13.7989 113.056 13.6816 112.63 13.4469C112.214 13.2016 111.894 12.8709 111.67 12.4549V13.6869H108.118V1.84692H111.67V5.89492ZM114.278 9.17492C114.278 8.69492 114.155 8.32159 113.91 8.05492C113.664 7.78826 113.35 7.65492 112.966 7.65492C112.582 7.65492 112.267 7.78826 112.022 8.05492C111.776 8.32159 111.654 8.69492 111.654 9.17492C111.654 9.65492 111.776 10.0283 112.022 10.2949C112.267 10.5616 112.582 10.6949 112.966 10.6949C113.35 10.6949 113.664 10.5616 113.91 10.2949C114.155 10.0283 114.278 9.65492 114.278 9.17492Z" fill="black" fill-opacity="0.6"/>
<path d="M102.947 4.59888C104.099 4.59888 104.99 4.94554 105.619 5.63888C106.259 6.33221 106.579 7.27088 106.579 8.45488V13.6869H103.043V8.90288C103.043 8.51888 102.926 8.22021 102.691 8.00688C102.467 7.78288 102.163 7.67088 101.779 7.67088C101.384 7.67088 101.075 7.78288 100.851 8.00688C100.627 8.22021 100.515 8.51888 100.515 8.90288V13.6869H96.9789V8.90288C96.9789 8.51888 96.8615 8.22021 96.6269 8.00688C96.4029 7.78288 96.0989 7.67088 95.7149 7.67088C95.3202 7.67088 95.0109 7.78288 94.7869 8.00688C94.5629 8.22021 94.4509 8.51888 94.4509 8.90288V13.6869H90.8989V4.66288H94.4509V5.87888C94.7069 5.49488 95.0535 5.18554 95.4909 4.95088C95.9389 4.71621 96.4615 4.59888 97.0589 4.59888C97.7095 4.59888 98.2855 4.74288 98.7869 5.03088C99.2882 5.30821 99.6882 5.70288 99.9869 6.21488C100.318 5.74554 100.739 5.36154 101.251 5.06288C101.763 4.75354 102.328 4.59888 102.947 4.59888Z" fill="black" fill-opacity="0.6"/>
<path d="M89.7755 9.09478C89.7755 9.34012 89.7595 9.57478 89.7275 9.79878H84.0155C84.0688 10.5774 84.3942 10.9668 84.9915 10.9668C85.3755 10.9668 85.6528 10.7908 85.8235 10.4388H89.5835C89.4555 11.0788 89.1835 11.6548 88.7675 12.1668C88.3622 12.6681 87.8448 13.0681 87.2155 13.3668C86.5968 13.6548 85.9142 13.7988 85.1675 13.7988C84.2715 13.7988 83.4715 13.6121 82.7675 13.2388C82.0742 12.8654 81.5302 12.3321 81.1355 11.6388C80.7515 10.9348 80.5595 10.1134 80.5595 9.17478C80.5595 8.23612 80.7515 7.42011 81.1355 6.72678C81.5302 6.02278 82.0742 5.48411 82.7675 5.11078C83.4715 4.73745 84.2715 4.55078 85.1675 4.55078C86.0635 4.55078 86.8582 4.73745 87.5515 5.11078C88.2555 5.47345 88.7995 5.99611 89.1835 6.67878C89.5782 7.36145 89.7755 8.16678 89.7755 9.09478ZM86.1755 8.24678C86.1755 7.94811 86.0795 7.72411 85.8875 7.57478C85.6955 7.41478 85.4555 7.33478 85.1675 7.33478C84.5382 7.33478 84.1702 7.63878 84.0635 8.24678H86.1755Z" fill="black" fill-opacity="0.6"/>
<path d="M75.8687 4.59888C77.0207 4.59888 77.9114 4.94554 78.5407 5.63888C79.1807 6.33221 79.5007 7.27088 79.5007 8.45488V13.6869H75.9647V8.90288C75.9647 8.51888 75.8474 8.22021 75.6127 8.00688C75.3887 7.78288 75.0847 7.67088 74.7007 7.67088C74.3061 7.67088 73.9967 7.78288 73.7727 8.00688C73.5487 8.22021 73.4367 8.51888 73.4367 8.90288V13.6869H69.9007V8.90288C69.9007 8.51888 69.7834 8.22021 69.5487 8.00688C69.3247 7.78288 69.0207 7.67088 68.6367 7.67088C68.2421 7.67088 67.9327 7.78288 67.7087 8.00688C67.4847 8.22021 67.3727 8.51888 67.3727 8.90288V13.6869H63.8207V4.66288H67.3727V5.87888C67.6287 5.49488 67.9754 5.18554 68.4127 4.95088C68.8607 4.71621 69.3834 4.59888 69.9807 4.59888C70.6314 4.59888 71.2074 4.74288 71.7087 5.03088C72.2101 5.30821 72.6101 5.70288 72.9087 6.21488C73.2394 5.74554 73.6607 5.36154 74.1727 5.06288C74.6847 4.75354 75.2501 4.59888 75.8687 4.59888Z" fill="black" fill-opacity="0.6"/>
<path d="M59.7492 10.6628V13.6868H58.4052C55.9306 13.6868 54.6932 12.4548 54.6932 9.99082V7.62282H53.5732V4.66282H54.6932V2.48682H58.2452V4.66282H59.7172V7.62282H58.2452V10.0548C58.2452 10.2682 58.2932 10.4228 58.3892 10.5188C58.4959 10.6148 58.6666 10.6628 58.9012 10.6628H59.7492Z" fill="black" fill-opacity="0.6"/>
<path d="M42.7783 9.17478C42.7783 8.22545 42.9383 7.40412 43.2583 6.71078C43.5889 6.00678 44.0369 5.47345 44.6023 5.11078C45.1676 4.73745 45.8023 4.55078 46.5063 4.55078C47.0929 4.55078 47.5996 4.67345 48.0263 4.91878C48.4529 5.15345 48.7783 5.47878 49.0023 5.89478V4.66278H52.5383V13.6868H49.0023V12.4548C48.7783 12.8708 48.4529 13.2014 48.0263 13.4468C47.5996 13.6814 47.0929 13.7988 46.5063 13.7988C45.8023 13.7988 45.1676 13.6174 44.6023 13.2548C44.0369 12.8814 43.5889 12.3481 43.2583 11.6548C42.9383 10.9508 42.7783 10.1241 42.7783 9.17478ZM49.0023 9.17478C49.0023 8.69478 48.8796 8.32145 48.6343 8.05478C48.3889 7.78812 48.0743 7.65478 47.6903 7.65478C47.3063 7.65478 46.9916 7.78812 46.7463 8.05478C46.5009 8.32145 46.3783 8.69478 46.3783 9.17478C46.3783 9.65478 46.5009 10.0281 46.7463 10.2948C46.9916 10.5614 47.3063 10.6948 47.6903 10.6948C48.0743 10.6948 48.3889 10.5614 48.6343 10.2948C48.8796 10.0281 49.0023 9.65478 49.0023 9.17478Z" fill="black" fill-opacity="0.6"/>
<path d="M35.6313 4.55078C36.2179 4.55078 36.7246 4.67345 37.1513 4.91878C37.5779 5.15345 37.9033 5.47878 38.1273 5.89478V4.66278H41.6633V13.5268C41.6633 14.3694 41.5086 15.1374 41.1993 15.8308C40.8899 16.5241 40.3886 17.0788 39.6953 17.4948C39.0126 17.9108 38.1326 18.1188 37.0553 18.1188C35.6046 18.1188 34.4526 17.7774 33.5993 17.0948C32.7566 16.4228 32.2766 15.5054 32.1593 14.3428H35.6473C35.7433 14.8121 36.1273 15.0468 36.7993 15.0468C37.2153 15.0468 37.5406 14.9401 37.7753 14.7268C38.0099 14.5134 38.1273 14.1134 38.1273 13.5268V12.4548C37.9033 12.8708 37.5779 13.2014 37.1513 13.4468C36.7246 13.6814 36.2179 13.7988 35.6313 13.7988C34.9273 13.7988 34.2926 13.6174 33.7273 13.2548C33.1619 12.8814 32.7139 12.3481 32.3833 11.6548C32.0633 10.9508 31.9033 10.1241 31.9033 9.17478C31.9033 8.22545 32.0633 7.40412 32.3833 6.71078C32.7139 6.00678 33.1619 5.47345 33.7273 5.11078C34.2926 4.73745 34.9273 4.55078 35.6313 4.55078ZM38.1273 9.17478C38.1273 8.69478 38.0046 8.32145 37.7593 8.05478C37.5139 7.78812 37.1993 7.65478 36.8153 7.65478C36.4313 7.65478 36.1166 7.78812 35.8713 8.05478C35.6259 8.32145 35.5033 8.69478 35.5033 9.17478C35.5033 9.65478 35.6259 10.0281 35.8713 10.2948C36.1166 10.5614 36.4313 10.6948 36.8153 10.6948C37.1993 10.6948 37.5139 10.5614 37.7593 10.2948C38.0046 10.0281 38.1273 9.65478 38.1273 9.17478Z" fill="black" fill-opacity="0.6"/>
<path d="M27.547 4.59888C28.5817 4.59888 29.387 4.94554 29.963 5.63888C30.5497 6.33221 30.843 7.27088 30.843 8.45488V13.6869H27.307V8.90288C27.307 8.47621 27.1897 8.14021 26.955 7.89488C26.731 7.63888 26.427 7.51088 26.043 7.51088C25.6483 7.51088 25.339 7.63888 25.115 7.89488C24.891 8.14021 24.779 8.47621 24.779 8.90288V13.6869H21.227V4.66288H24.779V6.03888C25.0563 5.61221 25.4243 5.26554 25.883 4.99888C26.3523 4.73221 26.907 4.59888 27.547 4.59888Z" fill="black" fill-opacity="0.6"/>
<path d="M9.87201 9.17478C9.87201 8.22545 10.032 7.40412 10.352 6.71078C10.6827 6.00678 11.1307 5.47345 11.696 5.11078C12.2613 4.73745 12.896 4.55078 13.6 4.55078C14.1867 4.55078 14.6933 4.67345 15.12 4.91878C15.5467 5.15345 15.872 5.47878 16.096 5.89478V4.66278H19.632V13.6868H16.096V12.4548C15.872 12.8708 15.5467 13.2014 15.12 13.4468C14.6933 13.6814 14.1867 13.7988 13.6 13.7988C12.896 13.7988 12.2613 13.6174 11.696 13.2548C11.1307 12.8814 10.6827 12.3481 10.352 11.6548C10.032 10.9508 9.87201 10.1241 9.87201 9.17478ZM16.096 9.17478C16.096 8.69478 15.9733 8.32145 15.728 8.05478C15.4827 7.78812 15.168 7.65478 14.784 7.65478C14.4 7.65478 14.0853 7.78812 13.84 8.05478C13.5947 8.32145 13.472 8.69478 13.472 9.17478C13.472 9.65478 13.5947 10.0281 13.84 10.2948C14.0853 10.5614 14.4 10.6948 14.784 10.6948C15.168 10.6948 15.4827 10.5614 15.728 10.2948C15.9733 10.0281 16.096 9.65478 16.096 9.17478Z" fill="black" fill-opacity="0.6"/>
<path d="M4.784 13.7987C3.42933 13.7987 2.30933 13.4841 1.424 12.8547C0.549333 12.2147 0.0746667 11.2814 0 10.0547H3.776C3.82933 10.7054 4.11733 11.0307 4.64 11.0307C4.832 11.0307 4.992 10.9881 5.12 10.9027C5.25867 10.8067 5.328 10.6627 5.328 10.4707C5.328 10.2041 5.184 9.99075 4.896 9.83075C4.608 9.66008 4.16 9.46808 3.552 9.25475C2.82667 8.99875 2.224 8.74808 1.744 8.50275C1.27467 8.25742 0.869333 7.90008 0.528 7.43075C0.186667 6.96141 0.0213333 6.35875 0.032 5.62275C0.032 4.88675 0.218667 4.26275 0.592 3.75075C0.976 3.22808 1.49333 2.83341 2.144 2.56675C2.80533 2.30008 3.54667 2.16675 4.368 2.16675C5.75467 2.16675 6.85333 2.48675 7.664 3.12675C8.48533 3.76675 8.91733 4.66808 8.96 5.83075H5.136C5.12533 5.51075 5.04533 5.28141 4.896 5.14275C4.74667 5.00408 4.56533 4.93475 4.352 4.93475C4.20267 4.93475 4.08 4.98808 3.984 5.09475C3.888 5.19075 3.84 5.32942 3.84 5.51075C3.84 5.76675 3.97867 5.98008 4.256 6.15075C4.544 6.31075 4.99733 6.50808 5.616 6.74275C6.33067 7.00942 6.91733 7.26541 7.376 7.51075C7.84533 7.75608 8.25067 8.09741 8.592 8.53475C8.93333 8.97208 9.104 9.52142 9.104 10.1827C9.104 10.8761 8.93333 11.5001 8.592 12.0547C8.25067 12.5987 7.75467 13.0254 7.104 13.3347C6.45333 13.6441 5.68 13.7987 4.784 13.7987Z" fill="black" fill-opacity="0.6"/>
</svg>
