<svg width="54" height="17" viewBox="0 0 54 17" fill="none" xmlns="http://www.w3.org/2000/svg">
<path d="M51.43 4.46274C50.6567 4.46274 50.0367 4.25608 49.57 3.84274C49.1033 3.42941 48.87 2.90941 48.87 2.28274C48.87 1.64274 49.1033 1.11608 49.57 0.702744C50.0367 0.276078 50.6567 0.0627441 51.43 0.0627441C52.19 0.0627441 52.8033 0.276078 53.27 0.702744C53.7367 1.11608 53.97 1.64274 53.97 2.28274C53.97 2.90941 53.7367 3.42941 53.27 3.84274C52.8033 4.25608 52.19 4.46274 51.43 4.46274ZM53.63 5.36275V16.6427H49.19V5.36275H53.63Z" fill="black"/>
<path d="M47.4991 12.8628V16.6428H45.8191C42.7257 16.6428 41.1791 15.1028 41.1791 12.0228V9.06282H39.7791V5.36282H41.1791V2.64282H45.6191V5.36282H47.4591V9.06282H45.6191V12.1028C45.6191 12.3695 45.6791 12.5628 45.7991 12.6828C45.9324 12.8028 46.1457 12.8628 46.4391 12.8628H47.4991Z" fill="black"/>
<path d="M34.4338 5.28271C35.7271 5.28271 36.7338 5.71605 37.4538 6.58271C38.1871 7.44938 38.5538 8.62271 38.5538 10.1027V16.6427H34.1338V10.6627C34.1338 10.1294 33.9871 9.70938 33.6938 9.40271C33.4138 9.08271 33.0338 8.92271 32.5538 8.92271C32.0604 8.92271 31.6738 9.08271 31.3938 9.40271C31.1138 9.70938 30.9738 10.1294 30.9738 10.6627V16.6427H26.5338V5.36272H30.9738V7.08271C31.3204 6.54938 31.7804 6.11605 32.3538 5.78271C32.9404 5.44938 33.6338 5.28271 34.4338 5.28271Z" fill="black"/>
<path d="M12.34 11.0027C12.34 9.81599 12.54 8.78932 12.94 7.92266C13.3534 7.04266 13.9134 6.37599 14.62 5.92266C15.3267 5.45599 16.12 5.22266 17 5.22266C17.7334 5.22266 18.3667 5.37599 18.9 5.68266C19.4334 5.97599 19.84 6.38266 20.12 6.90266V5.36266H24.54V16.6427H20.12V15.1027C19.84 15.6227 19.4334 16.036 18.9 16.3427C18.3667 16.636 17.7334 16.7827 17 16.7827C16.12 16.7827 15.3267 16.556 14.62 16.1027C13.9134 15.636 13.3534 14.9693 12.94 14.1027C12.54 13.2227 12.34 12.1893 12.34 11.0027ZM20.12 11.0027C20.12 10.4027 19.9667 9.93599 19.66 9.60266C19.3534 9.26932 18.96 9.10266 18.48 9.10266C18 9.10266 17.6067 9.26932 17.3 9.60266C16.9934 9.93599 16.84 10.4027 16.84 11.0027C16.84 11.6027 16.9934 12.0693 17.3 12.4027C17.6067 12.736 18 12.9027 18.48 12.9027C18.96 12.9027 19.3534 12.736 19.66 12.4027C19.9667 12.0693 20.12 11.6027 20.12 11.0027Z" fill="black"/>
<path d="M5.98 16.7827C4.28667 16.7827 2.88667 16.3893 1.78 15.6027C0.686667 14.8027 0.0933333 13.636 0 12.1027H4.72C4.78667 12.916 5.14667 13.3227 5.8 13.3227C6.04 13.3227 6.24 13.2693 6.4 13.1627C6.57333 13.0427 6.66 12.8627 6.66 12.6227C6.66 12.2893 6.48 12.0227 6.12 11.8227C5.76 11.6093 5.2 11.3693 4.44 11.1027C3.53333 10.7827 2.78 10.4693 2.18 10.1627C1.59333 9.85601 1.08667 9.40934 0.66 8.82268C0.233333 8.23601 0.0266667 7.48268 0.04 6.56268C0.04 5.64268 0.273333 4.86268 0.74 4.22268C1.22 3.56934 1.86667 3.07601 2.68 2.74268C3.50667 2.40934 4.43333 2.24268 5.46 2.24268C7.19333 2.24268 8.56667 2.64268 9.58 3.44268C10.6067 4.24268 11.1467 5.36934 11.2 6.82268H6.42C6.40667 6.42268 6.30667 6.13601 6.12 5.96268C5.93333 5.78934 5.70667 5.70268 5.44 5.70268C5.25333 5.70268 5.1 5.76934 4.98 5.90268C4.86 6.02268 4.8 6.19601 4.8 6.42268C4.8 6.74268 4.97333 7.00934 5.32 7.22268C5.68 7.42268 6.24667 7.66934 7.02 7.96268C7.91333 8.29601 8.64667 8.61601 9.22 8.92268C9.80667 9.22934 10.3133 9.65601 10.74 10.2027C11.1667 10.7493 11.38 11.436 11.38 12.2627C11.38 13.1293 11.1667 13.9093 10.74 14.6027C10.3133 15.2827 9.69333 15.816 8.88 16.2027C8.06667 16.5893 7.1 16.7827 5.98 16.7827Z" fill="black"/>
</svg>
