<svg width="91" height="16" viewBox="0 0 91 16" fill="none" xmlns="http://www.w3.org/2000/svg">
<path d="M88.0306 15.9029C87.2572 15.9029 86.6372 15.6963 86.1706 15.2829C85.7039 14.8696 85.4706 14.3496 85.4706 13.7229C85.4706 13.0829 85.7039 12.5563 86.1706 12.1429C86.6372 11.7163 87.2572 11.5029 88.0306 11.5029C88.7906 11.5029 89.4039 11.7163 89.8706 12.1429C90.3372 12.5563 90.5706 13.0829 90.5706 13.7229C90.5706 14.3496 90.3372 14.8696 89.8706 15.2829C89.4039 15.6963 88.7906 15.9029 88.0306 15.9029Z" fill="black"/>
<path d="M83.8271 1.58276V15.7428H79.4071V8.68276L77.2271 15.7428H73.4271L71.2471 8.68276V15.7428H66.8071V1.58276H72.2471L75.3671 10.0828L78.4071 1.58276H83.8271Z" fill="black"/>
<path d="M57.3634 4.38287C58.6567 4.38287 59.6634 4.8162 60.3834 5.68287C61.1167 6.54954 61.4834 7.72287 61.4834 9.20287V15.7429H57.0634V9.76287C57.0634 9.22954 56.9167 8.80954 56.6234 8.50287C56.3434 8.18287 55.9634 8.02287 55.4834 8.02287C54.99 8.02287 54.6034 8.18287 54.3234 8.50287C54.0434 8.80954 53.9034 9.22954 53.9034 9.76287V15.7429H49.4634V0.942871H53.9034V6.18287C54.25 5.64954 54.71 5.2162 55.2834 4.88287C55.87 4.54954 56.5634 4.38287 57.3634 4.38287Z" fill="black"/>
<path d="M35.2697 10.1028C35.2697 8.91609 35.4697 7.88942 35.8697 7.02275C36.283 6.14275 36.843 5.47609 37.5497 5.02275C38.2563 4.55609 39.0497 4.32275 39.9297 4.32275C40.663 4.32275 41.2963 4.47609 41.8297 4.78275C42.363 5.07609 42.7697 5.48275 43.0497 6.00275V4.46275H47.4697V15.7428H43.0497V14.2028C42.7697 14.7228 42.363 15.1361 41.8297 15.4428C41.2963 15.7361 40.663 15.8828 39.9297 15.8828C39.0497 15.8828 38.2563 15.6561 37.5497 15.2028C36.843 14.7361 36.283 14.0694 35.8697 13.2028C35.4697 12.3228 35.2697 11.2894 35.2697 10.1028ZM43.0497 10.1028C43.0497 9.50275 42.8963 9.03609 42.5897 8.70275C42.283 8.36942 41.8897 8.20275 41.4097 8.20275C40.9297 8.20275 40.5363 8.36942 40.2297 8.70275C39.923 9.03609 39.7697 9.50275 39.7697 10.1028C39.7697 10.7028 39.923 11.1694 40.2297 11.5028C40.5363 11.8361 40.9297 12.0028 41.4097 12.0028C41.8897 12.0028 42.283 11.8361 42.5897 11.5028C42.8963 11.1694 43.0497 10.7028 43.0497 10.1028Z" fill="black"/>
<path d="M30.9737 6.54281C31.427 5.88948 31.9804 5.36948 32.6337 4.98281C33.287 4.58281 33.967 4.38281 34.6737 4.38281V9.12281H33.4137C32.5737 9.12281 31.9537 9.26948 31.5537 9.56281C31.167 9.85615 30.9737 10.3761 30.9737 11.1228V15.7428H26.5337V4.46281H30.9737V6.54281Z" fill="black"/>
<path d="M12.34 10.1028C12.34 8.91609 12.54 7.88942 12.94 7.02275C13.3533 6.14275 13.9133 5.47609 14.62 5.02275C15.3266 4.55609 16.12 4.32275 17 4.32275C17.7333 4.32275 18.3666 4.47609 18.9 4.78275C19.4333 5.07609 19.84 5.48275 20.12 6.00275V4.46275H24.54V15.7428H20.12V14.2028C19.84 14.7228 19.4333 15.1361 18.9 15.4428C18.3666 15.7361 17.7333 15.8828 17 15.8828C16.12 15.8828 15.3266 15.6561 14.62 15.2028C13.9133 14.7361 13.3533 14.0694 12.94 13.2028C12.54 12.3228 12.34 11.2894 12.34 10.1028ZM20.12 10.1028C20.12 9.50275 19.9666 9.03609 19.66 8.70275C19.3533 8.36942 18.96 8.20275 18.48 8.20275C18 8.20275 17.6066 8.36942 17.3 8.70275C16.9933 9.03609 16.84 9.50275 16.84 10.1028C16.84 10.7028 16.9933 11.1694 17.3 11.5028C17.6066 11.8361 18 12.0028 18.48 12.0028C18.96 12.0028 19.3533 11.8361 19.66 11.5028C19.9666 11.1694 20.12 10.7028 20.12 10.1028Z" fill="black"/>
<path d="M5.98 15.8828C4.28667 15.8828 2.88667 15.4894 1.78 14.7028C0.686667 13.9028 0.0933333 12.7361 0 11.2028H4.72C4.78667 12.0161 5.14667 12.4228 5.8 12.4228C6.04 12.4228 6.24 12.3694 6.4 12.2628C6.57333 12.1428 6.66 11.9628 6.66 11.7228C6.66 11.3894 6.48 11.1228 6.12 10.9228C5.76 10.7094 5.2 10.4694 4.44 10.2028C3.53333 9.88277 2.78 9.56944 2.18 9.26277C1.59333 8.95611 1.08667 8.50944 0.66 7.92277C0.233333 7.33611 0.0266667 6.58277 0.04 5.66277C0.04 4.74277 0.273333 3.96277 0.74 3.32277C1.22 2.66944 1.86667 2.17611 2.68 1.84277C3.50667 1.50944 4.43333 1.34277 5.46 1.34277C7.19333 1.34277 8.56667 1.74277 9.58 2.54277C10.6067 3.34277 11.1467 4.46944 11.2 5.92277H6.42C6.40667 5.52277 6.30667 5.23611 6.12 5.06277C5.93333 4.88944 5.70667 4.80277 5.44 4.80277C5.25333 4.80277 5.1 4.86944 4.98 5.00277C4.86 5.12277 4.8 5.29611 4.8 5.52277C4.8 5.84277 4.97333 6.10944 5.32 6.32277C5.68 6.52277 6.24667 6.76944 7.02 7.06277C7.91333 7.39611 8.64667 7.71611 9.22 8.02277C9.80667 8.32944 10.3133 8.75611 10.74 9.30277C11.1667 9.84944 11.38 10.5361 11.38 11.3628C11.38 12.2294 11.1667 13.0094 10.74 13.7028C10.3133 14.3828 9.69333 14.9161 8.88 15.3028C8.06667 15.6894 7.1 15.8828 5.98 15.8828Z" fill="black"/>
</svg>
