<svg width="283" height="18" viewBox="0 0 283 18" fill="none" xmlns="http://www.w3.org/2000/svg">
<path d="M280.229 3.94285C279.61 3.94285 279.114 3.77752 278.741 3.44685C278.368 3.11619 278.181 2.70019 278.181 2.19885C278.181 1.68685 278.368 1.26552 278.741 0.934852C279.114 0.593518 279.61 0.422852 280.229 0.422852C280.837 0.422852 281.328 0.593518 281.701 0.934852C282.074 1.26552 282.261 1.68685 282.261 2.19885C282.261 2.70019 282.074 3.11619 281.701 3.44685C281.328 3.77752 280.837 3.94285 280.229 3.94285ZM281.989 4.66285V13.6869H278.437V4.66285H281.989Z" fill="black" fill-opacity="0.6"/>
<path d="M276.833 1.84692V13.6869H273.281V1.84692H276.833Z" fill="black" fill-opacity="0.6"/>
<path d="M261.926 9.17478C261.926 8.22545 262.086 7.40412 262.406 6.71078C262.736 6.00678 263.184 5.47345 263.75 5.11078C264.315 4.73745 264.95 4.55078 265.654 4.55078C266.24 4.55078 266.747 4.67345 267.174 4.91878C267.6 5.15345 267.926 5.47878 268.15 5.89478V4.66278H271.686V13.6868H268.15V12.4548C267.926 12.8708 267.6 13.2014 267.174 13.4468C266.747 13.6814 266.24 13.7988 265.654 13.7988C264.95 13.7988 264.315 13.6174 263.75 13.2548C263.184 12.8814 262.736 12.3481 262.406 11.6548C262.086 10.9508 261.926 10.1241 261.926 9.17478ZM268.15 9.17478C268.15 8.69478 268.027 8.32145 267.782 8.05478C267.536 7.78812 267.222 7.65478 266.838 7.65478C266.454 7.65478 266.139 7.78812 265.894 8.05478C265.648 8.32145 265.526 8.69478 265.526 9.17478C265.526 9.65478 265.648 10.0281 265.894 10.2948C266.139 10.5614 266.454 10.6948 266.838 10.6948C267.222 10.6948 267.536 10.5614 267.782 10.2948C268.027 10.0281 268.15 9.65478 268.15 9.17478Z" fill="black" fill-opacity="0.6"/>
<path d="M259.052 7.87889C259.735 8.03889 260.263 8.36955 260.636 8.87089C261.02 9.36155 261.212 9.93222 261.212 10.5829C261.212 11.5749 260.881 12.3429 260.22 12.8869C259.569 13.4202 258.631 13.6869 257.404 13.6869H251.468V2.35889H257.244C258.396 2.35889 259.303 2.60955 259.964 3.11089C260.625 3.61222 260.956 4.34289 260.956 5.30289C260.956 5.96422 260.78 6.52422 260.428 6.98289C260.087 7.43089 259.628 7.72955 259.052 7.87889ZM255.02 6.77489H256.396C256.716 6.77489 256.951 6.71089 257.1 6.58289C257.26 6.45489 257.34 6.25755 257.34 5.99089C257.34 5.71355 257.26 5.51089 257.1 5.38289C256.951 5.24422 256.716 5.17489 256.396 5.17489H255.02V6.77489ZM256.636 10.8389C256.956 10.8389 257.191 10.7802 257.34 10.6629C257.5 10.5349 257.58 10.3322 257.58 10.0549C257.58 9.51089 257.265 9.23889 256.636 9.23889H255.02V10.8389H256.636Z" fill="black" fill-opacity="0.6"/>
<path d="M237.394 9.17478C237.394 8.22545 237.554 7.40412 237.874 6.71078C238.205 6.00678 238.653 5.47345 239.218 5.11078C239.784 4.73745 240.418 4.55078 241.122 4.55078C241.709 4.55078 242.216 4.67345 242.642 4.91878C243.069 5.15345 243.394 5.47878 243.618 5.89478V4.66278H247.154V13.6868H243.618V12.4548C243.394 12.8708 243.069 13.2014 242.642 13.4468C242.216 13.6814 241.709 13.7988 241.122 13.7988C240.418 13.7988 239.784 13.6174 239.218 13.2548C238.653 12.8814 238.205 12.3481 237.874 11.6548C237.554 10.9508 237.394 10.1241 237.394 9.17478ZM243.618 9.17478C243.618 8.69478 243.496 8.32145 243.25 8.05478C243.005 7.78812 242.69 7.65478 242.306 7.65478C241.922 7.65478 241.608 7.78812 241.362 8.05478C241.117 8.32145 240.994 8.69478 240.994 9.17478C240.994 9.65478 241.117 10.0281 241.362 10.2948C241.608 10.5614 241.922 10.6948 242.306 10.6948C242.69 10.6948 243.005 10.5614 243.25 10.2948C243.496 10.0281 243.618 9.65478 243.618 9.17478Z" fill="black" fill-opacity="0.6"/>
<path d="M237.238 4.66284L231.462 18.0068H227.574L229.846 13.2388L226.086 4.66284H230.038L231.734 9.23884L233.318 4.66284H237.238Z" fill="black" fill-opacity="0.6"/>
<path d="M215.691 9.17478C215.691 8.22545 215.851 7.40412 216.171 6.71078C216.502 6.00678 216.95 5.47345 217.515 5.11078C218.081 4.73745 218.715 4.55078 219.419 4.55078C220.006 4.55078 220.513 4.67345 220.939 4.91878C221.366 5.15345 221.691 5.47878 221.915 5.89478V4.66278H225.451V13.6868H221.915V12.4548C221.691 12.8708 221.366 13.2014 220.939 13.4468C220.513 13.6814 220.006 13.7988 219.419 13.7988C218.715 13.7988 218.081 13.6174 217.515 13.2548C216.95 12.8814 216.502 12.3481 216.171 11.6548C215.851 10.9508 215.691 10.1241 215.691 9.17478ZM221.915 9.17478C221.915 8.69478 221.793 8.32145 221.547 8.05478C221.302 7.78812 220.987 7.65478 220.603 7.65478C220.219 7.65478 219.905 7.78812 219.659 8.05478C219.414 8.32145 219.291 8.69478 219.291 9.17478C219.291 9.65478 219.414 10.0281 219.659 10.2948C219.905 10.5614 220.219 10.6948 220.603 10.6948C220.987 10.6948 221.302 10.5614 221.547 10.2948C221.793 10.0281 221.915 9.65478 221.915 9.17478Z" fill="black" fill-opacity="0.6"/>
<path d="M204.816 9.17492C204.816 8.22559 204.976 7.40426 205.296 6.71092C205.627 6.00692 206.075 5.47359 206.64 5.11092C207.206 4.73759 207.84 4.55092 208.544 4.55092C209.131 4.55092 209.632 4.67359 210.048 4.91892C210.475 5.15359 210.8 5.47892 211.024 5.89492V1.84692H214.576V13.6869H211.024V12.4549C210.8 12.8709 210.475 13.2016 210.048 13.4469C209.632 13.6816 209.131 13.7989 208.544 13.7989C207.84 13.7989 207.206 13.6176 206.64 13.2549C206.075 12.8816 205.627 12.3483 205.296 11.6549C204.976 10.9509 204.816 10.1243 204.816 9.17492ZM211.04 9.17492C211.04 8.69492 210.918 8.32159 210.672 8.05492C210.427 7.78826 210.112 7.65492 209.728 7.65492C209.344 7.65492 209.03 7.78826 208.784 8.05492C208.539 8.32159 208.416 8.69492 208.416 9.17492C208.416 9.65492 208.539 10.0283 208.784 10.2949C209.03 10.5616 209.344 10.6949 209.728 10.6949C210.112 10.6949 210.427 10.5616 210.672 10.2949C210.918 10.0283 211.04 9.65492 211.04 9.17492Z" fill="black" fill-opacity="0.6"/>
<path d="M203.692 4.66284V13.6868H200.14V12.3108C199.863 12.7375 199.489 13.0842 199.02 13.3508C198.561 13.6175 198.012 13.7508 197.372 13.7508C196.337 13.7508 195.527 13.4042 194.94 12.7108C194.364 12.0175 194.076 11.0788 194.076 9.89484V4.66284H197.612V9.44684C197.612 9.87351 197.724 10.2148 197.948 10.4708C198.183 10.7162 198.492 10.8388 198.876 10.8388C199.271 10.8388 199.58 10.7162 199.804 10.4708C200.028 10.2148 200.14 9.87351 200.14 9.44684V4.66284H203.692Z" fill="black" fill-opacity="0.6"/>
<path d="M190.787 7.87889C191.469 8.03889 191.997 8.36955 192.371 8.87089C192.755 9.36155 192.947 9.93222 192.947 10.5829C192.947 11.5749 192.616 12.3429 191.955 12.8869C191.304 13.4202 190.365 13.6869 189.139 13.6869H183.203V2.35889H188.979C190.131 2.35889 191.037 2.60955 191.699 3.11089C192.36 3.61222 192.691 4.34289 192.691 5.30289C192.691 5.96422 192.515 6.52422 192.163 6.98289C191.821 7.43089 191.363 7.72955 190.787 7.87889ZM186.755 6.77489H188.131C188.451 6.77489 188.685 6.71089 188.835 6.58289C188.995 6.45489 189.075 6.25755 189.075 5.99089C189.075 5.71355 188.995 5.51089 188.835 5.38289C188.685 5.24422 188.451 5.17489 188.131 5.17489H186.755V6.77489ZM188.371 10.8389C188.691 10.8389 188.925 10.7802 189.075 10.6629C189.235 10.5349 189.315 10.3322 189.315 10.0549C189.315 9.51089 189 9.23889 188.371 9.23889H186.755V10.8389H188.371Z" fill="black" fill-opacity="0.6"/>
<path d="M177.12 3.94285C176.501 3.94285 176.005 3.77752 175.632 3.44685C175.258 3.11619 175.072 2.70019 175.072 2.19885C175.072 1.68685 175.258 1.26552 175.632 0.934852C176.005 0.593518 176.501 0.422852 177.12 0.422852C177.728 0.422852 178.218 0.593518 178.592 0.934852C178.965 1.26552 179.152 1.68685 179.152 2.19885C179.152 2.70019 178.965 3.11619 178.592 3.44685C178.218 3.77752 177.728 3.94285 177.12 3.94285ZM178.88 4.66285V13.6869H175.328V4.66285H178.88Z" fill="black" fill-opacity="0.6"/>
<path d="M170.491 4.59888C171.526 4.59888 172.331 4.94554 172.907 5.63888C173.494 6.33221 173.787 7.27088 173.787 8.45488V13.6869H170.251V8.90288C170.251 8.47621 170.134 8.14021 169.899 7.89488C169.675 7.63888 169.371 7.51088 168.987 7.51088C168.593 7.51088 168.283 7.63888 168.059 7.89488C167.835 8.14021 167.723 8.47621 167.723 8.90288V13.6869H164.171V4.66288H167.723V6.03888C168.001 5.61221 168.369 5.26554 168.827 4.99888C169.297 4.73221 169.851 4.59888 170.491 4.59888Z" fill="black" fill-opacity="0.6"/>
<path d="M163.048 9.09478C163.048 9.34012 163.032 9.57478 163 9.79878H157.288C157.341 10.5774 157.667 10.9668 158.264 10.9668C158.648 10.9668 158.925 10.7908 159.096 10.4388H162.856C162.728 11.0788 162.456 11.6548 162.04 12.1668C161.635 12.6681 161.117 13.0681 160.488 13.3668C159.869 13.6548 159.187 13.7988 158.44 13.7988C157.544 13.7988 156.744 13.6121 156.04 13.2388C155.347 12.8654 154.803 12.3321 154.408 11.6388C154.024 10.9348 153.832 10.1134 153.832 9.17478C153.832 8.23612 154.024 7.42011 154.408 6.72678C154.803 6.02278 155.347 5.48411 156.04 5.11078C156.744 4.73745 157.544 4.55078 158.44 4.55078C159.336 4.55078 160.131 4.73745 160.824 5.11078C161.528 5.47345 162.072 5.99611 162.456 6.67878C162.851 7.36145 163.048 8.16678 163.048 9.09478ZM159.448 8.24678C159.448 7.94811 159.352 7.72411 159.16 7.57478C158.968 7.41478 158.728 7.33478 158.44 7.33478C157.811 7.33478 157.443 7.63878 157.336 8.24678H159.448Z" fill="black" fill-opacity="0.6"/>
<path d="M149.062 13.7988C148.209 13.7988 147.452 13.6601 146.79 13.3828C146.14 13.1054 145.622 12.7214 145.238 12.2308C144.854 11.7401 144.636 11.1854 144.582 10.5668H147.99C148.033 10.8334 148.145 11.0308 148.326 11.1588C148.518 11.2868 148.758 11.3508 149.046 11.3508C149.228 11.3508 149.372 11.3134 149.478 11.2388C149.585 11.1534 149.638 11.0521 149.638 10.9348C149.638 10.7321 149.526 10.5881 149.302 10.5028C149.078 10.4174 148.7 10.3214 148.166 10.2148C147.516 10.0868 146.977 9.94811 146.55 9.79878C146.134 9.64945 145.766 9.39345 145.446 9.03078C145.137 8.66812 144.982 8.16678 144.982 7.52678C144.982 6.97212 145.126 6.47078 145.414 6.02278C145.713 5.56411 146.15 5.20678 146.726 4.95078C147.302 4.68411 148.001 4.55078 148.822 4.55078C150.038 4.55078 150.988 4.84945 151.67 5.44678C152.364 6.04411 152.78 6.82278 152.918 7.78278H149.766C149.713 7.53745 149.601 7.35078 149.43 7.22278C149.26 7.08411 149.03 7.01478 148.742 7.01478C148.561 7.01478 148.422 7.05211 148.326 7.12678C148.23 7.19078 148.182 7.29211 148.182 7.43078C148.182 7.61211 148.294 7.75078 148.518 7.84678C148.742 7.93211 149.1 8.02278 149.59 8.11878C150.241 8.24678 150.79 8.39078 151.238 8.55078C151.686 8.71078 152.076 8.98811 152.406 9.38278C152.737 9.76678 152.902 10.3001 152.902 10.9828C152.902 11.5161 152.748 11.9961 152.438 12.4228C152.129 12.8494 151.681 13.1854 151.094 13.4308C150.518 13.6761 149.841 13.7988 149.062 13.7988Z" fill="black" fill-opacity="0.6"/>
<path d="M137.491 4.59888C138.526 4.59888 139.331 4.94554 139.907 5.63888C140.494 6.33221 140.787 7.27088 140.787 8.45488V13.6869H137.251V8.90288C137.251 8.47621 137.134 8.14021 136.899 7.89488C136.675 7.63888 136.371 7.51088 135.987 7.51088C135.593 7.51088 135.283 7.63888 135.059 7.89488C134.835 8.14021 134.723 8.47621 134.723 8.90288V13.6869H131.171V4.66288H134.723V6.03888C135.001 5.61221 135.369 5.26554 135.827 4.99888C136.297 4.73221 136.851 4.59888 137.491 4.59888Z" fill="black" fill-opacity="0.6"/>
<path d="M119.816 9.17478C119.816 8.22545 119.976 7.40412 120.296 6.71078C120.627 6.00678 121.075 5.47345 121.64 5.11078C122.206 4.73745 122.84 4.55078 123.544 4.55078C124.131 4.55078 124.638 4.67345 125.064 4.91878C125.491 5.15345 125.816 5.47878 126.04 5.89478V4.66278H129.576V13.6868H126.04V12.4548C125.816 12.8708 125.491 13.2014 125.064 13.4468C124.638 13.6814 124.131 13.7988 123.544 13.7988C122.84 13.7988 122.206 13.6174 121.64 13.2548C121.075 12.8814 120.627 12.3481 120.296 11.6548C119.976 10.9508 119.816 10.1241 119.816 9.17478ZM126.04 9.17478C126.04 8.69478 125.918 8.32145 125.672 8.05478C125.427 7.78812 125.112 7.65478 124.728 7.65478C124.344 7.65478 124.03 7.78812 123.784 8.05478C123.539 8.32145 123.416 8.69478 123.416 9.17478C123.416 9.65478 123.539 10.0281 123.784 10.2948C124.03 10.5614 124.344 10.6948 124.728 10.6948C125.112 10.6948 125.427 10.5614 125.672 10.2948C125.918 10.0281 126.04 9.65478 126.04 9.17478Z" fill="black" fill-opacity="0.6"/>
<path d="M115.26 13.6869L113.036 10.0869V13.6869H109.484V1.84692H113.036V8.03892L115.292 4.66292H119.42L116.044 9.20692L119.5 13.6869H115.26Z" fill="black" fill-opacity="0.6"/>
<path d="M106.12 3.94285C105.501 3.94285 105.005 3.77752 104.632 3.44685C104.258 3.11619 104.072 2.70019 104.072 2.19885C104.072 1.68685 104.258 1.26552 104.632 0.934852C105.005 0.593518 105.501 0.422852 106.12 0.422852C106.728 0.422852 107.218 0.593518 107.592 0.934852C107.965 1.26552 108.152 1.68685 108.152 2.19885C108.152 2.70019 107.965 3.11619 107.592 3.44685C107.218 3.77752 106.728 3.94285 106.12 3.94285ZM107.88 4.66285V13.6869H104.328V4.66285H107.88Z" fill="black" fill-opacity="0.6"/>
<path d="M100.411 6.32688C100.773 5.80421 101.216 5.38821 101.739 5.07888C102.261 4.75888 102.805 4.59888 103.371 4.59888V8.39088H102.363C101.691 8.39088 101.195 8.50821 100.875 8.74288C100.565 8.97754 100.411 9.39354 100.411 9.99088V13.6869H96.8588V4.66288H100.411V6.32688Z" fill="black" fill-opacity="0.6"/>
<path d="M85.5038 9.17478C85.5038 8.22545 85.6638 7.40412 85.9838 6.71078C86.3145 6.00678 86.7624 5.47345 87.3278 5.11078C87.8931 4.73745 88.5278 4.55078 89.2318 4.55078C89.8185 4.55078 90.3251 4.67345 90.7518 4.91878C91.1785 5.15345 91.5038 5.47878 91.7278 5.89478V4.66278H95.2638V13.6868H91.7278V12.4548C91.5038 12.8708 91.1785 13.2014 90.7518 13.4468C90.3251 13.6814 89.8185 13.7988 89.2318 13.7988C88.5278 13.7988 87.8931 13.6174 87.3278 13.2548C86.7624 12.8814 86.3145 12.3481 85.9838 11.6548C85.6638 10.9508 85.5038 10.1241 85.5038 9.17478ZM91.7278 9.17478C91.7278 8.69478 91.6051 8.32145 91.3598 8.05478C91.1145 7.78812 90.7998 7.65478 90.4158 7.65478C90.0318 7.65478 89.7171 7.78812 89.4718 8.05478C89.2265 8.32145 89.1038 8.69478 89.1038 9.17478C89.1038 9.65478 89.2265 10.0281 89.4718 10.2948C89.7171 10.5614 90.0318 10.6948 90.4158 10.6948C90.7998 10.6948 91.1145 10.5614 91.3598 10.2948C91.6051 10.0281 91.7278 9.65478 91.7278 9.17478Z" fill="black" fill-opacity="0.6"/>
<path d="M84.631 10.6628V13.6868H83.287C80.8123 13.6868 79.575 12.4548 79.575 9.99082V7.62282H78.455V4.66282H79.575V2.48682H83.127V4.66282H84.599V7.62282H83.127V10.0548C83.127 10.2682 83.175 10.4228 83.271 10.5188C83.3776 10.6148 83.5483 10.6628 83.783 10.6628H84.631Z" fill="black" fill-opacity="0.6"/>
<path d="M73.7654 13.7988C72.9121 13.7988 72.1547 13.6601 71.4934 13.3828C70.8427 13.1054 70.3254 12.7214 69.9414 12.2308C69.5574 11.7401 69.3387 11.1854 69.2854 10.5668H72.6934C72.7361 10.8334 72.8481 11.0308 73.0294 11.1588C73.2214 11.2868 73.4614 11.3508 73.7494 11.3508C73.9307 11.3508 74.0747 11.3134 74.1814 11.2388C74.2881 11.1534 74.3414 11.0521 74.3414 10.9348C74.3414 10.7321 74.2294 10.5881 74.0054 10.5028C73.7814 10.4174 73.4027 10.3214 72.8694 10.2148C72.2187 10.0868 71.6801 9.94811 71.2534 9.79878C70.8374 9.64945 70.4694 9.39345 70.1494 9.03078C69.8401 8.66812 69.6854 8.16678 69.6854 7.52678C69.6854 6.97212 69.8294 6.47078 70.1174 6.02278C70.4161 5.56411 70.8534 5.20678 71.4294 4.95078C72.0054 4.68411 72.7041 4.55078 73.5254 4.55078C74.7414 4.55078 75.6907 4.84945 76.3734 5.44678C77.0667 6.04411 77.4827 6.82278 77.6214 7.78278H74.4694C74.4161 7.53745 74.3041 7.35078 74.1334 7.22278C73.9627 7.08411 73.7334 7.01478 73.4454 7.01478C73.2641 7.01478 73.1254 7.05211 73.0294 7.12678C72.9334 7.19078 72.8854 7.29211 72.8854 7.43078C72.8854 7.61211 72.9974 7.75078 73.2214 7.84678C73.4454 7.93211 73.8027 8.02278 74.2934 8.11878C74.9441 8.24678 75.4934 8.39078 75.9414 8.55078C76.3894 8.71078 76.7787 8.98811 77.1094 9.38278C77.4401 9.76678 77.6054 10.3001 77.6054 10.9828C77.6054 11.5161 77.4507 11.9961 77.1414 12.4228C76.8321 12.8494 76.3841 13.1854 75.7974 13.4308C75.2214 13.6761 74.5441 13.7988 73.7654 13.7988Z" fill="black" fill-opacity="0.6"/>
<path d="M68.626 9.09478C68.626 9.34012 68.61 9.57478 68.578 9.79878H62.866C62.9194 10.5774 63.2447 10.9668 63.842 10.9668C64.226 10.9668 64.5034 10.7908 64.674 10.4388H68.434C68.306 11.0788 68.034 11.6548 67.618 12.1668C67.2127 12.6681 66.6954 13.0681 66.066 13.3668C65.4474 13.6548 64.7647 13.7988 64.018 13.7988C63.122 13.7988 62.322 13.6121 61.618 13.2388C60.9247 12.8654 60.3807 12.3321 59.986 11.6388C59.602 10.9348 59.41 10.1134 59.41 9.17478C59.41 8.23612 59.602 7.42011 59.986 6.72678C60.3807 6.02278 60.9247 5.48411 61.618 5.11078C62.322 4.73745 63.122 4.55078 64.018 4.55078C64.914 4.55078 65.7087 4.73745 66.402 5.11078C67.106 5.47345 67.65 5.99611 68.034 6.67878C68.4287 7.36145 68.626 8.16678 68.626 9.09478ZM65.026 8.24678C65.026 7.94811 64.93 7.72411 64.738 7.57478C64.546 7.41478 64.306 7.33478 64.018 7.33478C63.3887 7.33478 63.0207 7.63878 62.914 8.24678H65.026Z" fill="black" fill-opacity="0.6"/>
<path d="M55.3483 10.9989H58.7723V13.6869H51.7963V2.35889H55.3483V10.9989Z" fill="black" fill-opacity="0.6"/>
<path d="M41.7545 5.89478C41.9785 5.47878 42.2985 5.15345 42.7145 4.91878C43.1412 4.67345 43.6478 4.55078 44.2345 4.55078C44.9385 4.55078 45.5732 4.73745 46.1385 5.11078C46.7038 5.47345 47.1465 6.00678 47.4665 6.71078C47.7972 7.40412 47.9625 8.22545 47.9625 9.17478C47.9625 10.1241 47.7972 10.9508 47.4665 11.6548C47.1465 12.3481 46.7038 12.8814 46.1385 13.2548C45.5732 13.6174 44.9385 13.7988 44.2345 13.7988C43.6478 13.7988 43.1412 13.6814 42.7145 13.4468C42.2985 13.2014 41.9785 12.8708 41.7545 12.4548V18.0068H38.2025V4.66278H41.7545V5.89478ZM44.3625 9.17478C44.3625 8.69478 44.2398 8.32145 43.9945 8.05478C43.7492 7.78812 43.4345 7.65478 43.0505 7.65478C42.6665 7.65478 42.3518 7.78812 42.1065 8.05478C41.8612 8.32145 41.7385 8.69478 41.7385 9.17478C41.7385 9.65478 41.8612 10.0281 42.1065 10.2948C42.3518 10.5614 42.6665 10.6948 43.0505 10.6948C43.4345 10.6948 43.7492 10.5614 43.9945 10.2948C44.2398 10.0281 44.3625 9.65478 44.3625 9.17478Z" fill="black" fill-opacity="0.6"/>
<path d="M26.8475 9.17478C26.8475 8.22545 27.0075 7.40412 27.3275 6.71078C27.6582 6.00678 28.1062 5.47345 28.6715 5.11078C29.2369 4.73745 29.8715 4.55078 30.5755 4.55078C31.1622 4.55078 31.6689 4.67345 32.0955 4.91878C32.5222 5.15345 32.8475 5.47878 33.0715 5.89478V4.66278H36.6075V13.6868H33.0715V12.4548C32.8475 12.8708 32.5222 13.2014 32.0955 13.4468C31.6689 13.6814 31.1622 13.7988 30.5755 13.7988C29.8715 13.7988 29.2369 13.6174 28.6715 13.2548C28.1062 12.8814 27.6582 12.3481 27.3275 11.6548C27.0075 10.9508 26.8475 10.1241 26.8475 9.17478ZM33.0715 9.17478C33.0715 8.69478 32.9489 8.32145 32.7035 8.05478C32.4582 7.78812 32.1435 7.65478 31.7595 7.65478C31.3755 7.65478 31.0609 7.78812 30.8155 8.05478C30.5702 8.32145 30.4475 8.69478 30.4475 9.17478C30.4475 9.65478 30.5702 10.0281 30.8155 10.2948C31.0609 10.5614 31.3755 10.6948 31.7595 10.6948C32.1435 10.6948 32.4582 10.5614 32.7035 10.2948C32.9489 10.0281 33.0715 9.65478 33.0715 9.17478Z" fill="black" fill-opacity="0.6"/>
<path d="M25.9747 10.6628V13.6868H24.6307C22.156 13.6868 20.9187 12.4548 20.9187 9.99082V7.62282H19.7987V4.66282H20.9187V2.48682H24.4707V4.66282H25.9427V7.62282H24.4707V10.0548C24.4707 10.2682 24.5187 10.4228 24.6147 10.5188C24.7214 10.6148 24.892 10.6628 25.1267 10.6628H25.9747Z" fill="black" fill-opacity="0.6"/>
<path d="M19.2354 9.09478C19.2354 9.34012 19.2194 9.57478 19.1874 9.79878H13.4754C13.5287 10.5774 13.8541 10.9668 14.4514 10.9668C14.8354 10.9668 15.1127 10.7908 15.2834 10.4388H19.0434C18.9154 11.0788 18.6434 11.6548 18.2274 12.1668C17.8221 12.6681 17.3047 13.0681 16.6754 13.3668C16.0567 13.6548 15.3741 13.7988 14.6274 13.7988C13.7314 13.7988 12.9314 13.6121 12.2274 13.2388C11.5341 12.8654 10.9901 12.3321 10.5954 11.6388C10.2114 10.9348 10.0194 10.1134 10.0194 9.17478C10.0194 8.23612 10.2114 7.42011 10.5954 6.72678C10.9901 6.02278 11.5341 5.48411 12.2274 5.11078C12.9314 4.73745 13.7314 4.55078 14.6274 4.55078C15.5234 4.55078 16.3181 4.73745 17.0114 5.11078C17.7154 5.47345 18.2594 5.99611 18.6434 6.67878C19.0381 7.36145 19.2354 8.16678 19.2354 9.09478ZM15.6354 8.24678C15.6354 7.94811 15.5394 7.72411 15.3474 7.57478C15.1554 7.41478 14.9154 7.33478 14.6274 7.33478C13.9981 7.33478 13.6301 7.63878 13.5234 8.24678H15.6354Z" fill="black" fill-opacity="0.6"/>
<path d="M9.536 2.35889V5.17489H6.528V13.6869H2.976V5.17489H0V2.35889H9.536Z" fill="black" fill-opacity="0.6"/>
</svg>
