<svg width="29" height="26" viewBox="0 0 29 26" fill="none" xmlns="http://www.w3.org/2000/svg">
<path d="M12.15 23.3125C12.15 23.7761 12.0126 24.2292 11.755 24.6146C11.4975 25 11.1315 25.3004 10.7032 25.4778C10.2749 25.6552 9.80367 25.7017 9.34903 25.6112C8.89439 25.5208 8.47677 25.2976 8.14899 24.9698C7.82121 24.642 7.59799 24.2244 7.50756 23.7697C7.41712 23.3151 7.46354 22.8438 7.64093 22.4156C7.81832 21.9873 8.11873 21.6213 8.50416 21.3637C8.88958 21.1062 9.34272 20.9688 9.80627 20.9688C10.4279 20.9688 11.024 21.2157 11.4636 21.6552C11.9031 22.0948 12.15 22.6909 12.15 23.3125ZM21.9938 20.9688C21.5302 20.9688 21.0771 21.1062 20.6917 21.3637C20.3062 21.6213 20.0058 21.9873 19.8284 22.4156C19.651 22.8438 19.6046 23.3151 19.6951 23.7697C19.7855 24.2244 20.0087 24.642 20.3365 24.9698C20.6643 25.2976 21.0819 25.5208 21.5365 25.6112C21.9912 25.7017 22.4624 25.6552 22.8907 25.4778C23.319 25.3004 23.685 25 23.9425 24.6146C24.2001 24.2292 24.3375 23.7761 24.3375 23.3125C24.3375 22.6909 24.0906 22.0948 23.6511 21.6552C23.2115 21.2157 22.6154 20.9688 21.9938 20.9688ZM28.0254 6.85117L24.8274 17.2457C24.6232 17.9179 24.2077 18.5064 23.6426 18.9237C23.0774 19.3411 22.3928 19.5651 21.6903 19.5625H10.1496C9.43703 19.5602 8.74435 19.327 8.1754 18.8979C7.60646 18.4688 7.19187 17.8669 6.99377 17.1824L2.98713 3.15625H1.83752C1.46456 3.15625 1.10688 3.00809 0.843156 2.74437C0.579432 2.48065 0.431274 2.12296 0.431274 1.75C0.431274 1.37704 0.579432 1.01935 0.843156 0.755631C1.10688 0.491908 1.46456 0.34375 1.83752 0.34375H3.33987C3.84886 0.345322 4.34363 0.511893 4.74994 0.818474C5.15625 1.12506 5.45219 1.55512 5.59338 2.04414L6.44768 5.03125H26.6813C26.9014 5.03123 27.1184 5.08287 27.3149 5.18201C27.5113 5.28115 27.6818 5.42502 27.8126 5.60205C27.9433 5.77908 28.0307 5.98432 28.0677 6.20128C28.1046 6.41823 28.0902 6.64083 28.0254 6.85117ZM24.777 7.84375H7.25041L9.69846 16.4102C9.72649 16.5082 9.7857 16.5943 9.86711 16.6557C9.94852 16.717 10.0477 16.7501 10.1496 16.75H21.6903C21.7906 16.7502 21.8883 16.7182 21.9691 16.6587C22.0499 16.5992 22.1095 16.5154 22.1391 16.4195L24.777 7.84375Z" fill="black"/>
</svg>
