<svg width="27" height="26" viewBox="0 0 27 26" fill="none" xmlns="http://www.w3.org/2000/svg">
<path d="M13.4313 0.34375C10.9281 0.34375 8.48115 1.08603 6.39984 2.47671C4.31853 3.8674 2.69635 5.84404 1.73843 8.15666C0.780508 10.4693 0.529872 13.014 1.01822 15.4691C1.50656 17.9242 2.71195 20.1793 4.48196 21.9493C6.25197 23.7193 8.5071 24.9247 10.9622 25.4131C13.4172 25.9014 15.962 25.6508 18.2746 24.6928C20.5872 23.7349 22.5639 22.1127 23.9546 20.0314C25.3453 17.9501 26.0875 15.5032 26.0875 13C26.0838 9.6445 24.7492 6.42749 22.3765 4.05479C20.0038 1.68209 16.7868 0.347472 13.4313 0.34375ZM7.75589 21.0355C8.40871 20.1429 9.26288 19.4169 10.249 18.9164C11.2351 18.4159 12.3254 18.155 13.4313 18.155C14.5372 18.155 15.6274 18.4159 16.6136 18.9164C17.5997 19.4169 18.4538 20.1429 19.1067 21.0355C17.448 22.2119 15.4647 22.8437 13.4313 22.8437C11.3978 22.8437 9.41459 22.2119 7.75589 21.0355ZM10.15 12.0625C10.15 11.4135 10.3425 10.7791 10.703 10.2395C11.0636 9.69994 11.576 9.27937 12.1756 9.03102C12.7752 8.78267 13.4349 8.71769 14.0714 8.8443C14.7079 8.97091 15.2926 9.28341 15.7515 9.74231C16.2104 10.2012 16.5229 10.7859 16.6495 11.4224C16.7761 12.0589 16.7111 12.7186 16.4628 13.3182C16.2144 13.9177 15.7938 14.4302 15.2542 14.7908C14.7146 15.1513 14.0802 15.3437 13.4313 15.3437C12.561 15.3437 11.7264 14.998 11.1111 14.3827C10.4957 13.7673 10.15 12.9327 10.15 12.0625ZM21.1657 19.0867C20.2542 17.9274 19.0924 16.9892 17.7672 16.3422C18.6118 15.4869 19.1845 14.401 19.4135 13.2211C19.6424 12.0411 19.5173 10.8198 19.0538 9.71077C18.5903 8.60175 17.8093 7.65455 16.8088 6.98835C15.8084 6.32214 14.6332 5.96668 13.4313 5.96668C12.2293 5.96668 11.0542 6.32214 10.0537 6.98835C9.05329 7.65455 8.27221 8.60175 7.80875 9.71077C7.34529 10.8198 7.22015 12.0411 7.44908 13.2211C7.67801 14.401 8.25078 15.4869 9.09534 16.3422C7.77015 16.9892 6.60838 17.9274 5.69691 19.0867C4.55204 17.6354 3.83895 15.8911 3.63927 14.0534C3.43959 12.2157 3.76139 10.3589 4.56784 8.69555C5.37428 7.03223 6.63278 5.62958 8.19926 4.64818C9.76574 3.66678 11.5769 3.14629 13.4254 3.14629C15.2739 3.14629 17.0851 3.66678 18.6516 4.64818C20.2181 5.62958 21.4766 7.03223 22.283 8.69555C23.0894 10.3589 23.4112 12.2157 23.2116 14.0534C23.0119 15.8911 22.2988 17.6354 21.1539 19.0867H21.1657Z" fill="black"/>
</svg>
